<svg width="211" height="325" viewBox="0 0 211 325" fill="none" xmlns="http://www.w3.org/2000/svg">
<path d="M116.57 215.28C115.33 217.05 115.77 221.03 115.57 222.7C115.37 224.37 115.4 226.02 115.24 227.65C115.05 229.5 114.88 231.04 115.86 232.76C116.566 233.848 117.507 234.763 118.615 235.436C119.724 236.11 120.969 236.525 122.26 236.65C124.845 236.884 127.451 236.592 129.92 235.79C132.383 234.981 134.891 234.313 137.43 233.79C143.83 232.79 150.15 234.64 156.5 232.68C157.981 232.199 159.437 231.642 160.86 231.01C162.166 230.489 163.435 229.881 164.66 229.19C167.66 227.36 171.98 223.47 171.56 219.64C171.19 216.21 169.03 213.9 165.01 214.08C159.83 214.3 154.7 215.48 149.52 215.36C146.238 215.335 142.963 215.067 139.72 214.56C136.14 213.93 132.94 213.07 132.54 211.09C131.91 207.96 124.99 211.19 122.22 212.54C121.33 212.97 120.5 213.54 119.61 213.95C118.938 214.174 118.249 214.344 117.55 214.46C117.139 214.613 116.793 214.902 116.57 215.28Z" fill="#263238"/>
<path d="M114 204.47L131.66 198.89C131.66 198.89 131.87 208.16 132.72 210.39C133.57 212.62 136.17 213.97 139.72 214.6C142.963 215.107 146.238 215.375 149.52 215.4C150.918 215.423 152.317 215.377 153.71 215.26C158.32 214.78 163.22 218.71 156.56 221.88C150.56 224.73 142.13 224.31 135.56 224.68C128.99 225.05 118.12 221.82 116.47 216.94L114 204.47Z" fill="#FFA8A7"/>
<path d="M127.14 140.41C131.14 156.69 132.02 206.08 132.02 206.08C132.02 206.08 123 210.91 114.69 208L100 150.84L127.14 140.41Z" fill="#37474F"/>
<path d="M155.84 238.21C154.61 239.99 155.04 243.97 154.84 245.63C154.64 247.29 154.67 248.96 154.5 250.58C154.32 252.44 154.14 253.98 155.13 255.69C155.832 256.782 156.773 257.7 157.882 258.376C158.99 259.051 160.238 259.466 161.53 259.59C164.115 259.818 166.72 259.526 169.19 258.73C171.651 257.924 174.155 257.256 176.69 256.73C183.1 255.73 189.42 257.59 195.77 255.63C197.25 255.17 198.69 254.56 200.12 253.96C201.43 253.443 202.7 252.832 203.92 252.13C206.92 250.3 211.24 246.42 210.83 242.58C210.45 239.16 208.3 236.85 204.27 237.02C199.09 237.25 193.97 238.42 188.79 238.3C185.505 238.277 182.226 238.013 178.98 237.51C175.4 236.88 172.2 236.02 171.8 234.04C171.17 230.9 164.26 234.13 161.48 235.49C160.6 235.92 159.76 236.49 158.88 236.9C158.203 237.119 157.511 237.29 156.81 237.41C156.409 237.565 156.069 237.846 155.84 238.21Z" fill="#263238"/>
<path d="M152.89 223.63L168.37 218.09L171.82 234.09C172.22 236.09 175.42 236.93 179 237.56C182.246 238.063 185.525 238.327 188.81 238.35C190.208 238.382 191.607 238.338 193 238.22C197.62 237.75 202.52 241.68 195.85 244.85C189.85 247.69 181.42 247.28 174.85 247.65C168.28 248.02 154.74 246.93 155.77 239.91L152.89 223.63Z" fill="#FFA8A7"/>
<path d="M161 155C167.83 164.67 170.71 228.34 170.71 228.34C170.71 228.34 162.52 236.87 154.71 233.84L135.11 178.36L161 155Z" fill="#455A64"/>
<path opacity="0.15" d="M136.05 180.9C136.05 180.9 150.38 175.59 153.77 171.75C153.77 171.75 146.42 182.31 137.44 184.62L136.05 180.9Z" fill="black"/>
<path d="M79 323.66C79.2136 323.66 79.4251 323.618 79.6223 323.536C79.8195 323.454 79.9985 323.333 80.1491 323.182C80.2996 323.03 80.4188 322.851 80.4996 322.653C80.5804 322.455 80.6213 322.244 80.62 322.03V217.69C80.62 217.26 80.4493 216.848 80.1455 216.544C79.8417 216.241 79.4297 216.07 79 216.07C78.5704 216.07 78.1583 216.241 77.8545 216.544C77.5507 216.848 77.38 217.26 77.38 217.69V322C77.3747 322.216 77.4126 322.431 77.4916 322.632C77.5707 322.833 77.6891 323.017 77.8401 323.171C77.9911 323.326 78.1715 323.449 78.3707 323.533C78.5699 323.617 78.7839 323.66 79 323.66Z" fill="#455A64"/>
<path d="M14.39 285.68C14.7123 285.681 15.0279 285.587 15.2966 285.409C15.5654 285.231 15.7754 284.977 15.9 284.68L47.9 203.68C48.0009 203.479 48.059 203.26 48.0705 203.035C48.082 202.811 48.0466 202.586 47.9667 202.376C47.8867 202.166 47.7639 201.975 47.6061 201.815C47.4483 201.655 47.2589 201.529 47.0499 201.446C46.841 201.364 46.6171 201.325 46.3925 201.333C46.1678 201.342 45.9474 201.397 45.7452 201.495C45.543 201.593 45.3634 201.732 45.2179 201.903C45.0724 202.075 44.9641 202.275 44.9 202.49L12.9 283.49C12.8043 283.736 12.77 284.002 12.7999 284.265C12.8298 284.527 12.9231 284.778 13.0717 284.997C13.2202 285.215 13.4197 285.394 13.6528 285.518C13.886 285.643 14.1458 285.708 14.41 285.71L14.39 285.68Z" fill="#455A64"/>
<path d="M18.23 276C18.4512 276.001 18.6701 275.956 18.8731 275.868C19.0762 275.78 19.2589 275.651 19.41 275.49L78.95 212.49L138.38 275.22C138.526 275.375 138.702 275.5 138.897 275.587C139.091 275.674 139.301 275.722 139.514 275.728C139.727 275.734 139.939 275.698 140.139 275.622C140.338 275.546 140.52 275.431 140.675 275.285C140.83 275.139 140.955 274.963 141.042 274.768C141.129 274.574 141.177 274.364 141.183 274.151C141.189 273.938 141.153 273.726 141.077 273.526C141.001 273.327 140.886 273.145 140.74 272.99L80.13 208.99C79.9771 208.831 79.794 208.704 79.5914 208.616C79.3888 208.529 79.1707 208.482 78.95 208.48C78.7291 208.481 78.5107 208.527 78.308 208.615C78.1052 208.702 77.9222 208.83 77.77 208.99L17.05 273.24C16.83 273.47 16.6826 273.759 16.6262 274.073C16.5697 274.386 16.6067 274.709 16.7326 275.001C16.8584 275.293 17.0676 275.542 17.3339 275.716C17.6002 275.89 17.9118 275.982 18.23 275.98V276Z" fill="#455A64"/>
<path d="M143.51 285.68C143.713 285.68 143.913 285.639 144.1 285.56C144.298 285.483 144.48 285.367 144.633 285.219C144.787 285.072 144.91 284.896 144.995 284.701C145.081 284.506 145.127 284.296 145.131 284.083C145.135 283.87 145.098 283.658 145.02 283.46L113.02 202.46C112.838 202.098 112.527 201.818 112.149 201.674C111.77 201.53 111.352 201.532 110.975 201.682C110.599 201.831 110.292 202.116 110.115 202.48C109.938 202.845 109.904 203.262 110.02 203.65L142.02 284.65C142.138 284.951 142.342 285.209 142.608 285.393C142.873 285.576 143.187 285.676 143.51 285.68Z" fill="#455A64"/>
<path d="M144.29 181.9C145.45 175.36 140.12 170.25 130.09 163.48C120.79 157.359 111.069 151.902 101 147.15C92.6099 143.3 83.9999 143.65 73.2799 149.15C58.3499 156.82 13.4299 184.06 13.4299 184.06C13.4299 184.06 80.6099 222 93.5299 220.3C106.45 218.6 138.75 197.6 141.31 190.2C143.87 182.8 144.29 181.9 144.29 181.9Z" fill="#BA68C8"/>
<g opacity="0.4">
<path d="M144.29 181.9C145.45 175.36 140.12 170.25 130.09 163.48C120.79 157.359 111.069 151.902 101 147.15C92.6099 143.3 83.9999 143.65 73.2799 149.15C58.3499 156.82 13.4299 184.06 13.4299 184.06C13.4299 184.06 80.6099 222 93.5299 220.3C106.45 218.6 138.75 197.6 141.31 190.2C143.87 182.8 144.29 181.9 144.29 181.9Z" fill="black"/>
</g>
<path d="M87.05 212.33C96.69 221.05 106.77 213.54 122.71 203.19C140.71 191.49 144.29 181.9 144.29 181.9C144.29 181.9 144.29 189.08 142.94 192.45C141.59 195.82 138.68 199.63 125.67 208.6C112.66 217.57 103.23 222.06 94.48 223.73L87.58 222.73" fill="#BA68C8"/>
<path opacity="0.5" d="M122.71 203.19C140.71 191.49 144.29 181.9 144.29 181.9C144.29 181.9 144.29 189.08 142.94 192.45C141.59 195.82 138.68 199.63 125.67 208.6C112.66 217.57 103.23 222.06 94.48 223.73L87.58 222.73L87.05 212.29C96.69 221.05 106.77 213.54 122.71 203.19Z" fill="black"/>
<path d="M16.59 273.45L12.36 284.61C12.3502 284.706 12.3502 284.804 12.36 284.9C12.35 284.966 12.35 285.034 12.36 285.1C12.4708 285.406 12.6968 285.658 12.99 285.8C13.3886 286.007 13.831 286.115 14.28 286.115C14.7291 286.115 15.1715 286.007 15.57 285.8C15.7895 285.686 15.9653 285.504 16.07 285.28V285.13L20 274.64L16.59 273.45Z" fill="#BA68C8"/>
<path d="M141.3 273.45L145.53 284.61C145.544 284.706 145.544 284.804 145.53 284.9C145.54 284.966 145.54 285.034 145.53 285.1C145.412 285.405 145.183 285.655 144.89 285.8C144.493 286.007 144.052 286.115 143.605 286.115C143.158 286.115 142.717 286.007 142.32 285.8C142.098 285.69 141.921 285.506 141.82 285.28V285.13L137.9 274.66L141.3 273.45Z" fill="#BA68C8"/>
<path d="M77.08 314V323.23C77.0941 323.393 77.1516 323.55 77.2466 323.683C77.3415 323.817 77.4704 323.923 77.6199 323.99C78.0294 324.202 78.4838 324.313 78.945 324.313C79.4061 324.313 79.8605 324.202 80.27 323.99C80.422 323.925 80.5535 323.82 80.6504 323.686C80.7473 323.552 80.8059 323.395 80.82 323.23V314C80.2454 313.69 79.6028 313.528 78.95 313.528C78.2971 313.528 77.6546 313.69 77.08 314Z" fill="#BA68C8"/>
<path d="M33.8301 160.93C33.8301 160.93 75.8301 142.93 84.4101 138.67C92.9901 134.41 108.54 128.07 116.67 130.18C122.16 131.61 125.31 133.56 127.25 140.79C127.62 142.14 129.37 155 129.37 155C129.37 155 106 166 85.3701 170.12C64.7401 174.24 33.8301 160.93 33.8301 160.93Z" fill="#37474F"/>
<path d="M33.83 160.93C28.63 182.8 42.26 195.06 50.43 199.78C57.6 203.92 76.35 213.92 96.33 205.87C109.67 200.49 145.66 176.75 145.66 176.75C149.55 170.43 164.49 168.37 163.38 163.31C163.11 162.04 163 160.68 162.63 159.31C160.81 152.43 154.32 142.83 139.84 146.15C130.95 148.15 114.35 154.15 99.64 158.78C96.28 159.83 91.39 155.26 88.64 156.25C82.18 158.62 80.54 169.65 80.54 169.65L33.83 160.93Z" fill="#455A64"/>
<path d="M82.8501 65.01L80.43 87.34L60.8 85.82L62.72 61.04L82.8501 65.01Z" fill="#FFA8A7"/>
<path d="M39.07 150.63C41.21 146 43.17 140.42 48.83 131.42C40.83 105.83 39.66 98.08 40.02 86.42C40.22 80.17 49.02 69.69 56.62 70.99C58.62 71.33 60.03 71.42 61.89 71.77C62.12 76.9 72.13 78.39 81.74 75.15C84.6432 75.6909 87.5142 76.392 90.34 77.25C93.84 78.55 109.14 94.96 110.27 106.62C111.18 116.1 101.5 123.96 101.5 123.96C102.03 133.96 101.7 147.56 101.5 165.7C101.5 165.7 98.5 166.79 93.78 164.7C88.91 172.47 75.42 184.93 60.61 183.27C35 180.4 35.75 161.56 35.75 161.56C35.75 161.56 37.58 153.84 39.07 150.63Z" fill="#BA68C8"/>
<g opacity="0.7">
<path d="M39.07 150.63C41.21 146 43.17 140.42 48.83 131.42C40.83 105.83 39.66 98.08 40.02 86.42C40.22 80.17 49.02 69.69 56.62 70.99C58.62 71.33 60.03 71.42 61.89 71.77C62.12 76.9 72.13 78.39 81.74 75.15C84.6432 75.6909 87.5142 76.392 90.34 77.25C93.84 78.55 109.14 94.96 110.27 106.62C111.18 116.1 101.5 123.96 101.5 123.96C102.03 133.96 101.7 147.56 101.5 165.7C101.5 165.7 98.5 166.79 93.78 164.7C88.91 172.47 75.42 184.93 60.61 183.27C35 180.4 35.75 161.56 35.75 161.56C35.75 161.56 37.58 153.84 39.07 150.63Z" fill="black"/>
</g>
<path d="M97.9301 38.6199C97.9301 38.6199 103.49 47.5299 102.71 48.4299C101.93 49.3299 98.2201 50.2299 98.2201 50.2299L97.9301 38.6199Z" fill="#F28F8F"/>
<path d="M84.8401 17.61C89.2101 20.01 96.7401 24.4399 98.2701 40.7899C99.8401 57.5699 95.9601 63.28 93.6201 65.41C92.0401 66.85 84.0801 67.18 79.9801 65.78C74.8401 64.03 63.7501 58.18 58.7201 49.41C52.8001 39.09 51.8801 25.51 59.1701 20.41C69.4301 13.2 81.1501 15.58 84.8401 17.61Z" fill="#FFA8A7"/>
<path d="M82.7001 66.4C86.0264 67.0215 89.4523 66.8502 92.7001 65.9C89.3089 65.9256 85.9591 65.1549 82.9201 63.65L82.7001 66.4Z" fill="#F28F8F"/>
<path d="M102.37 15.85C101.628 14.3095 100.421 13.0412 98.9191 12.2247C97.417 11.4081 95.6961 11.0846 94.0001 11.3C94.3769 9.35303 94.095 7.33601 93.1987 5.56702C92.3024 3.79802 90.8428 2.37768 89.0501 1.52998C86.8677 0.659197 84.4732 0.467507 82.18 0.97998C79.9043 1.49972 77.6865 2.2468 75.5601 3.20998C70.6601 5.20998 65.7901 7.32998 60.8501 9.27997C58.3939 10.1563 56.0211 11.2507 53.7601 12.55C49.2423 15.2538 45.9186 19.571 44.4601 24.63C43.6571 27.6603 43.3931 30.8082 43.68 33.93C44.095 37.9628 45.1446 41.9048 46.7901 45.61C48.483 49.2123 50.6451 52.5748 53.2201 55.61C56.0104 58.88 59.0895 61.8922 62.4201 64.61C68.2901 67.42 75.1601 65.52 75.1601 65.52C78.7789 61.7675 81.7523 57.4425 83.9601 52.72C82.835 53.1026 81.6338 53.2056 80.4601 53.02C78.7905 52.7397 77.2455 51.9585 76.0301 50.78C72.0301 47.16 71.7801 40.28 77.0301 38.71C82.2801 37.14 84.0901 44.35 84.0901 44.35C87.4101 42.92 86.4501 38.72 86.8501 36.35C90.5186 34.3162 93.2806 30.9682 94.5801 26.98C95.3143 28.3723 95.9298 29.8242 96.4201 31.32C98.4201 29.61 100.48 27.94 101.8 25.63C102.665 24.1621 103.167 22.5095 103.266 20.8088C103.365 19.1082 103.058 17.4083 102.37 15.85Z" fill="#BA68C8"/>
<path opacity="0.4" d="M102.37 15.85C101.628 14.3095 100.421 13.0412 98.9191 12.2247C97.417 11.4081 95.6961 11.0846 94.0001 11.3C94.3769 9.35303 94.095 7.33601 93.1987 5.56702C92.3024 3.79802 90.8428 2.37768 89.0501 1.52998C86.8677 0.659197 84.4732 0.467507 82.18 0.97998C79.9043 1.49972 77.6865 2.2468 75.5601 3.20998C70.6601 5.20998 65.7901 7.32998 60.8501 9.27997C58.3939 10.1563 56.0211 11.2507 53.7601 12.55C49.2423 15.2538 45.9186 19.571 44.4601 24.63C43.6571 27.6603 43.3931 30.8082 43.68 33.93C44.095 37.9628 45.1446 41.9048 46.7901 45.61C48.483 49.2123 50.6451 52.5748 53.2201 55.61C56.0104 58.88 59.0895 61.8922 62.4201 64.61C68.2901 67.42 75.1601 65.52 75.1601 65.52C78.7789 61.7675 81.7523 57.4425 83.9601 52.72C82.835 53.1026 81.6338 53.2056 80.4601 53.02C78.7905 52.7397 77.2455 51.9585 76.0301 50.78C72.0301 47.16 71.7801 40.28 77.0301 38.71C82.2801 37.14 84.0901 44.35 84.0901 44.35C87.4101 42.92 86.4501 38.72 86.8501 36.35C90.5186 34.3162 93.2806 30.9682 94.5801 26.98C95.3143 28.3723 95.9298 29.8242 96.4201 31.32C98.4201 29.61 100.48 27.94 101.8 25.63C102.665 24.1621 103.167 22.5095 103.266 20.8088C103.365 19.1082 103.058 17.4083 102.37 15.85Z" fill="black"/>
<path d="M87.58 222.77C82.09 222.5 77.79 218.47 64.74 213.03C40.63 203.03 22.56 194.95 15.67 182.32C8.78002 169.69 3.90002 133.26 5.67002 117.47C5.83121 115.682 6.22798 113.924 6.85002 112.24L5.15002 111.99L9.54002 108.26C14.05 104.58 21.38 107.86 26.9 110.86C42.68 119.45 55.02 127.79 64.78 157.92C72.12 180.59 76.96 201.26 87.09 212.32" fill="#BA68C8"/>
<path opacity="0.3" d="M6.80998 112.24L5.10999 111.99L9.49998 108.26C14.01 104.58 21.34 107.86 26.86 110.86C42.64 119.45 54.98 127.79 64.74 157.92C72.08 180.59 76.92 201.26 87.05 212.32L87.58 222.76C82.09 222.49 77.79 218.46 64.74 213.02C40.63 203.02 22.56 194.94 15.67 182.31C8.77998 169.68 3.89998 133.25 5.66998 117.46C5.81914 115.677 6.20244 113.922 6.80998 112.24Z" fill="black"/>
<path d="M22.29 114.75C38.07 123.34 50.41 131.68 60.16 161.81C69.91 191.94 75.26 218.56 94.48 223.73C94.48 223.73 85.79 227.18 59.15 215.92C50.67 212.33 40.39 205.79 33.63 202C20.39 194.57 12.37 188.48 11.1 186.21C4.09999 173.64 -0.670009 137.14 1.09999 121.35C2.86999 105.56 14.38 110.45 22.29 114.75Z" fill="#BA68C8"/>
<path d="M180.68 124.83C180.73 124.845 180.783 124.843 180.832 124.825C180.88 124.807 180.922 124.774 180.95 124.73L182.15 122.73C182.183 122.676 182.193 122.61 182.178 122.548C182.163 122.487 182.124 122.433 182.07 122.4C182.016 122.367 181.95 122.357 181.888 122.372C181.827 122.387 181.773 122.426 181.74 122.48L180.54 124.48C180.524 124.506 180.513 124.535 180.508 124.566C180.504 124.596 180.505 124.627 180.512 124.657C180.52 124.687 180.533 124.715 180.552 124.739C180.57 124.764 180.593 124.785 180.62 124.8L180.68 124.83Z" fill="#263238"/>
<path d="M186.37 120.45L182.21 123.66C182.076 123.761 181.914 123.817 181.746 123.821C181.578 123.826 181.413 123.778 181.274 123.685C181.135 123.591 181.028 123.457 180.968 123.301C180.908 123.144 180.898 122.972 180.94 122.81L182.3 117.7L186.37 120.45Z" fill="#BA68C8"/>
<g opacity="0.2">
<path d="M186.37 120.45L182.21 123.66C182.076 123.761 181.914 123.817 181.746 123.821C181.578 123.826 181.413 123.778 181.274 123.685C181.135 123.591 181.028 123.457 180.968 123.301C180.908 123.144 180.898 122.972 180.94 122.81L182.3 117.7L186.37 120.45Z" fill="black"/>
</g>
<path d="M199.07 92.44C199.242 92.2524 199.467 92.1215 199.715 92.0643C199.963 92.0072 200.223 92.0266 200.46 92.12C201.96 92.51 203.92 94.27 203.07 95.34L186.37 120.45C185.861 120.562 185.332 120.548 184.83 120.408C184.328 120.269 183.868 120.008 183.49 119.65C182.85 119.162 182.424 118.445 182.3 117.65L199.07 92.44Z" fill="#BA68C8"/>
<path d="M199.07 92.44C199.242 92.2524 199.467 92.1215 199.715 92.0643C199.963 92.0072 200.223 92.0266 200.46 92.12C201.96 92.51 203.92 94.27 203.07 95.34L186.37 120.45C185.861 120.562 185.332 120.548 184.83 120.408C184.328 120.269 183.868 120.008 183.49 119.65C182.85 119.162 182.424 118.445 182.3 117.65L199.07 92.44Z" fill="#BA68C8"/>
<path d="M200.46 92.12C200.223 92.0266 199.963 92.0072 199.715 92.0643C199.467 92.1215 199.242 92.2524 199.07 92.44C198.82 92.82 199.19 93.89 200.33 94.68C201.72 95.63 202.82 95.68 203.14 95.23C203.79 94.15 201.91 92.5 200.46 92.12Z" fill="#BA68C8"/>
<path opacity="0.2" d="M200.46 92.12C200.223 92.0266 199.963 92.0072 199.715 92.0643C199.467 92.1215 199.242 92.2524 199.07 92.44C198.82 92.82 199.19 93.89 200.33 94.68C201.72 95.63 202.82 95.68 203.14 95.23C203.79 94.15 201.91 92.5 200.46 92.12Z" fill="black"/>
<path d="M201.82 90.87C201.894 90.7558 201.99 90.6572 202.102 90.5801C202.215 90.5029 202.341 90.4486 202.474 90.4203C202.608 90.392 202.745 90.3902 202.879 90.415C203.013 90.4398 203.141 90.4908 203.255 90.565C203.369 90.6392 203.468 90.7352 203.545 90.8475C203.622 90.9597 203.676 91.0861 203.705 91.2193C203.733 91.3526 203.735 91.4901 203.71 91.6241C203.685 91.758 203.634 91.8858 203.56 92L202.23 94C202.174 94.074 202.098 94.131 202.012 94.1646C201.925 94.1981 201.831 94.2069 201.74 94.19C201.486 94.1653 201.241 94.0796 201.027 93.9404C200.813 93.8011 200.636 93.6123 200.51 93.39C200.461 93.3121 200.435 93.222 200.435 93.13C200.435 93.0381 200.461 92.9479 200.51 92.87L201.82 90.87Z" fill="#37474F"/>
<path d="M192.45 111.31C192.45 111.31 191.45 112.89 190.56 114.15C189.85 115.15 189.46 115.65 188.95 115.77C188.155 115.842 187.355 115.694 186.639 115.341C185.922 114.988 185.317 114.445 184.89 113.77L186.2 111.77C184.87 111.574 183.516 111.614 182.2 111.89C180.989 112.266 179.875 112.902 178.935 113.754C177.996 114.605 177.253 115.652 176.76 116.82C174.76 121.38 175.14 122.09 169.48 122.5C163.82 122.91 133.91 123.4 133.91 123.4C130.35 119.27 117.23 104.04 112.17 98.01C106.29 91.01 95.1699 75.62 90.3599 77.18C85.5499 78.74 81.0599 93.39 87.5599 104.68C93.3199 114.68 113.29 132.42 121.44 139.61C122.31 140.41 123.1 141.1 123.82 141.7L123.96 141.83C128.96 145.9 131.12 145.4 137.1 144.25C144.24 142.88 177.95 136.04 184.7 133.05C191.45 130.06 197.57 121.95 197.55 117.84C197.53 113.73 192.45 111.31 192.45 111.31Z" fill="#FFA8A7"/>
</svg>
