<svg width="227" height="329" viewBox="0 0 227 329" fill="none" xmlns="http://www.w3.org/2000/svg">
<path d="M147.58 275.69C147.5 264.75 146.83 225.38 146.83 225.38L167.16 237.29C166.53 256.69 162.37 271.91 161.55 282.95C161.55 282.95 154.94 289.1 151.22 293.06C148.091 296.504 144.672 299.672 141 302.53C138.19 304.59 132.07 305.67 131 303.72C135.52 298.87 140.61 293.38 144.18 288.23C147.64 283.3 147.62 281 147.58 275.69Z" fill="#FFBDA7"/>
<path d="M123.13 310.41C122.87 310.41 122.88 313.53 124.47 314.61C126.3 315.85 131.41 317.61 137.6 315.75C143.79 313.89 146.95 311.35 149.17 308.75C151.39 306.15 154.52 302.44 157.28 301.34C159.85 300.34 162.57 298.61 163.28 297.62C163.99 296.63 163.37 292.78 163.37 292.78L123.13 310.41Z" fill="#263238"/>
<path d="M161.8 280.3C162.014 280.455 162.189 280.657 162.31 280.892C162.432 281.126 162.497 281.386 162.5 281.65C162.5 283.09 161.96 284.49 162.5 286.91C163.108 289.266 163.427 291.687 163.45 294.12C163.37 296.12 159.23 298.17 156.61 299.7C153.536 301.718 150.788 304.193 148.46 307.04C145.84 310.04 139.95 313.61 135.84 314.3C129.57 315.3 125.26 314.15 123.68 311.95C121.73 309.23 122.68 307.33 129.46 302.7C130.74 301.83 135.13 298.1 136.62 296.76C140.62 293.14 144.49 288.38 145.83 282.85C145.903 282.192 146.191 281.577 146.65 281.1C147.061 280.839 147.544 280.716 148.03 280.75C149.264 280.751 150.489 280.95 151.66 281.34C152.66 281.68 154.73 281.98 154.89 283.34C154.886 283.954 154.806 284.566 154.65 285.16C154.65 285.44 154.47 286.43 154.72 286.55C154.97 286.67 155.44 285.95 155.59 285.73C156.28 284.67 156.47 284.05 157.46 283.67C158.45 283.29 161.06 282.87 161.66 281.67L161.8 280.3Z" fill="#37474F"/>
<path d="M128.37 303.46C137.56 302.75 141.23 308.27 142.11 311.89C140.161 313.021 138.044 313.834 135.84 314.3C129.57 315.3 125 314.19 123.42 311.99C121.58 309.42 122.27 307 128.37 303.46Z" fill="white"/>
<path d="M142 301.5C142.101 301.488 142.194 301.438 142.26 301.36C142.344 301.267 142.39 301.145 142.39 301.02C142.39 300.895 142.344 300.774 142.26 300.68C141.067 299.689 139.667 298.978 138.163 298.599C136.66 298.22 135.09 298.183 133.57 298.49C133.452 298.527 133.352 298.608 133.291 298.715C133.23 298.823 133.211 298.95 133.24 299.07C133.251 299.13 133.275 299.186 133.31 299.236C133.344 299.286 133.389 299.328 133.44 299.36C133.492 299.392 133.55 299.413 133.61 299.422C133.67 299.43 133.731 299.426 133.79 299.41C135.167 299.15 136.583 299.195 137.941 299.54C139.299 299.886 140.565 300.524 141.65 301.41C141.698 301.45 141.755 301.478 141.815 301.494C141.875 301.509 141.939 301.511 142 301.5Z" fill="#F0F0F0"/>
<path d="M145.62 298.5C145.723 298.478 145.817 298.426 145.89 298.35C145.975 298.259 146.022 298.139 146.022 298.015C146.022 297.891 145.975 297.771 145.89 297.68C144.699 296.686 143.299 295.974 141.795 295.595C140.29 295.216 138.72 295.18 137.2 295.49C137.083 295.525 136.984 295.604 136.925 295.71C136.865 295.817 136.849 295.942 136.88 296.06C136.891 296.119 136.913 296.176 136.947 296.226C136.98 296.277 137.023 296.32 137.074 296.352C137.125 296.385 137.181 296.407 137.241 296.417C137.3 296.427 137.361 296.425 137.42 296.41C138.797 296.148 140.214 296.192 141.572 296.537C142.93 296.883 144.196 297.522 145.28 298.41C145.327 298.448 145.382 298.475 145.441 298.49C145.499 298.506 145.56 298.509 145.62 298.5Z" fill="#F0F0F0"/>
<path d="M148.88 295.19C148.986 295.177 149.083 295.123 149.15 295.04C149.233 294.948 149.279 294.829 149.279 294.705C149.279 294.581 149.233 294.462 149.15 294.37C147.957 293.38 146.557 292.669 145.053 292.29C143.549 291.911 141.98 291.873 140.46 292.18C140.341 292.215 140.24 292.295 140.18 292.404C140.12 292.513 140.106 292.641 140.14 292.76C140.152 292.818 140.175 292.874 140.209 292.923C140.243 292.972 140.286 293.014 140.337 293.046C140.387 293.078 140.444 293.099 140.503 293.108C140.562 293.117 140.622 293.115 140.68 293.1C142.057 292.84 143.473 292.885 144.831 293.23C146.189 293.576 147.455 294.214 148.54 295.1C148.587 295.138 148.642 295.166 148.7 295.181C148.759 295.197 148.82 295.2 148.88 295.19Z" fill="#F0F0F0"/>
<path d="M152.07 291.9C152.155 291.88 152.233 291.839 152.296 291.779C152.359 291.719 152.405 291.644 152.43 291.56C152.454 291.477 152.456 291.388 152.435 291.304C152.414 291.219 152.371 291.142 152.31 291.08C150.25 289.02 146.11 288.08 142.86 288.96C142.741 288.993 142.64 289.071 142.578 289.178C142.517 289.284 142.499 289.411 142.53 289.53C142.542 289.59 142.565 289.647 142.6 289.697C142.634 289.747 142.678 289.79 142.73 289.823C142.781 289.856 142.839 289.878 142.899 289.887C142.959 289.897 143.021 289.895 143.08 289.88C146.01 289.09 149.87 289.94 151.69 291.77C151.738 291.821 151.798 291.859 151.864 291.882C151.93 291.905 152.001 291.911 152.07 291.9Z" fill="#F0F0F0"/>
<path d="M194.18 246.25L213.5 243.14C214.94 256.87 214.8 272.34 216.08 285.23C216.32 287.65 218.5 303.99 218.27 309.09C217.92 316.74 209.41 316.91 208.4 312.51C207.39 308.11 204.69 288.8 204.4 286.83C203.4 278.59 199.32 265.27 195.55 250.76C195.37 250.05 194.36 246.94 194.18 246.25Z" fill="#FFBDA7"/>
<path d="M205.64 316.06C206.01 320.48 206.75 323.39 208.32 325.93C209.89 328.47 212.7 329.19 215.51 328.33C218.32 327.47 221.89 325.33 222.59 321.48C223.21 317.985 223.101 314.4 222.27 310.95L205.64 316.06Z" fill="#263238"/>
<path d="M215.93 283.65C217.1 283.71 217.63 289.65 218.48 295.56C219.4 301.9 221.28 304.48 222.08 309.68C223 315.63 222.79 318.3 220.92 321.98C219.05 325.66 212.16 329.44 208.56 324.39C205.62 320.27 205.36 315.6 205.43 309.63C205.423 304.589 205.142 299.551 204.59 294.54C204.23 290.07 203.16 285.6 204.15 285.07C204.25 285.72 204.35 286.55 204.46 287.19C204.57 287.83 204.73 290.1 205.38 290.1C205.43 289.541 205.43 288.979 205.38 288.42C205.311 288.177 205.299 287.922 205.344 287.673C205.389 287.425 205.49 287.19 205.64 286.987C205.789 286.783 205.983 286.616 206.207 286.499C206.43 286.382 206.677 286.317 206.93 286.31C208.08 286.03 210.51 285.84 211.67 285.68C212.251 285.607 212.835 285.563 213.42 285.55C213.923 285.522 214.426 285.579 214.91 285.72C215.051 285.768 215.182 285.845 215.294 285.944C215.405 286.044 215.496 286.165 215.56 286.3C215.622 286.521 215.649 286.751 215.64 286.98C215.649 287.393 215.709 287.803 215.82 288.2C215.87 288.38 215.99 288.59 216.16 288.54C216.33 288.49 216.34 288.32 216.34 288.17C216.34 287.45 216.22 286.93 216.16 286.1C216.16 285.71 216.06 285.18 216.04 284.79C216.02 284.4 216 284 215.93 283.65Z" fill="#37474F"/>
<path d="M222.51 313.13C222.83 316.83 222.71 319.38 221.24 322.26C219.38 325.93 211.92 329.74 208.32 324.69C206.52 322.18 205.97 319.15 205.64 316.06C207.58 312 219.15 309.85 222.51 313.13Z" fill="white"/>
<path d="M208.43 309.47L208.58 309.42C211.674 307.885 215.177 307.377 218.58 307.97C218.637 307.981 218.696 307.981 218.753 307.969C218.81 307.957 218.865 307.933 218.912 307.9C218.96 307.866 219 307.823 219.031 307.773C219.061 307.723 219.081 307.668 219.09 307.61C219.103 307.552 219.105 307.492 219.095 307.434C219.085 307.375 219.064 307.319 219.032 307.269C219.001 307.219 218.959 307.176 218.911 307.141C218.862 307.107 218.808 307.083 218.75 307.07C215.144 306.416 211.423 306.953 208.15 308.6C208.045 308.659 207.966 308.756 207.931 308.872C207.895 308.987 207.906 309.112 207.96 309.22C208 309.307 208.068 309.379 208.153 309.424C208.238 309.469 208.335 309.485 208.43 309.47Z" fill="#F0F0F0"/>
<path d="M218.19 303.53C218.275 303.519 218.355 303.482 218.419 303.425C218.483 303.368 218.529 303.293 218.55 303.21C218.585 303.096 218.574 302.973 218.52 302.866C218.466 302.76 218.373 302.679 218.26 302.64C212.97 300.94 207.89 303.94 207.67 304.07C207.568 304.132 207.494 304.232 207.464 304.348C207.434 304.463 207.451 304.586 207.51 304.69C207.536 304.741 207.572 304.787 207.617 304.823C207.661 304.86 207.713 304.887 207.768 304.903C207.823 304.919 207.881 304.924 207.938 304.916C207.995 304.909 208.05 304.89 208.1 304.86C208.1 304.86 213.1 301.93 218.01 303.52C218.068 303.538 218.13 303.542 218.19 303.53Z" fill="#F0F0F0"/>
<path d="M217.77 299.35C217.853 299.337 217.931 299.3 217.993 299.243C218.055 299.186 218.099 299.112 218.12 299.03C218.158 298.917 218.15 298.794 218.098 298.687C218.045 298.58 217.952 298.499 217.84 298.46C216.046 297.883 214.147 297.71 212.278 297.952C210.41 298.194 208.618 298.845 207.03 299.86C206.934 299.93 206.868 300.034 206.846 300.151C206.823 300.268 206.846 300.389 206.91 300.49C206.939 300.539 206.979 300.582 207.025 300.616C207.072 300.65 207.125 300.673 207.182 300.685C207.238 300.698 207.296 300.698 207.353 300.687C207.409 300.676 207.463 300.653 207.51 300.62C208.997 299.694 210.666 299.099 212.404 298.877C214.142 298.654 215.907 298.809 217.58 299.33C217.641 299.352 217.706 299.359 217.77 299.35Z" fill="#F0F0F0"/>
<path d="M217.27 294.65C217.35 294.633 217.425 294.596 217.486 294.542C217.548 294.487 217.594 294.418 217.62 294.34C217.659 294.227 217.653 294.104 217.602 293.995C217.552 293.887 217.461 293.803 217.35 293.76C211.89 291.81 206.69 295.14 206.47 295.29C206.369 295.356 206.297 295.458 206.271 295.576C206.245 295.694 206.266 295.818 206.33 295.92C206.358 295.97 206.395 296.014 206.441 296.048C206.486 296.083 206.538 296.107 206.594 296.12C206.65 296.134 206.707 296.135 206.763 296.125C206.819 296.114 206.873 296.092 206.92 296.06C206.97 296.06 212 292.81 217.07 294.63C217.134 294.651 217.203 294.658 217.27 294.65Z" fill="#EBEBEB"/>
<path d="M192 104C198.25 112.68 207.61 124.59 208.34 147.6C209.49 183.83 209.34 201.38 209.34 201.38C210.95 205.27 213.66 207.95 214.56 226.12C215.27 240.63 215.56 260.96 215.56 260.96C215.56 260.96 206.32 266.22 198.14 263.02C194.57 251.36 188.56 220.69 184.57 205.02C180.95 190.82 177.85 173.17 177.85 173.17L170.16 207.77C171.222 215.351 171.31 223.037 170.42 230.64C169.25 240.32 164.37 266.92 164.37 266.92C164.37 266.92 154.3 270.45 147.2 265.24C147.2 265.24 145.08 216.76 144.94 205.03C144.74 187.44 144.01 157.52 145.69 133.39C146.33 124.16 148.92 114.59 150.1 108.39L192 104Z" fill="#37474F"/>
<path d="M161.64 207.06C162.4 214.49 163.25 222.9 161.79 240.06C161.03 248.97 159.79 260.06 158.85 268.06L159.72 267.98C160.66 259.98 161.89 248.98 162.64 240.18C164.11 222.97 163.25 214.5 162.49 207.04C161.7 199.3 164.59 161.73 166.4 145.12L165.55 145.02C163.74 161.59 160.85 199.27 161.64 207.06Z" fill="#455A64"/>
<path d="M206.24 205.8C205.98 205.1 205.76 204.47 205.57 203.86C204.81 201.43 204.5 189.41 204.17 176.69C203.94 167.75 203.7 158.51 203.29 151.03C202.24 132.03 197.42 117.14 188.2 104.38L187.2 104.48C193.092 112.538 197.318 121.689 199.63 131.4C195.95 132.79 190.77 130.68 188.18 124.55C185.34 117.85 181.01 108.62 180.96 108.55L180.2 108.95C180.2 109.05 184.57 118.26 187.4 124.95C189.8 130.64 194.34 133.11 198.14 132.71C198.718 132.646 199.286 132.508 199.83 132.3C201.255 138.48 202.128 144.775 202.44 151.11C202.86 158.58 203.1 167.82 203.33 176.75C203.67 190.09 203.97 201.62 204.77 204.17C204.96 204.8 205.19 205.44 205.45 206.17C206.86 210.11 209.24 216.7 210.5 236.17C211.17 246.42 211.68 255.55 212.04 262.52L212.87 262.2C212.52 255.26 212.01 246.2 211.35 236.11C210.07 216.45 207.67 209.79 206.24 205.8Z" fill="#455A64"/>
<path d="M215.79 257.49C212.57 259.79 201.3 261.87 196.79 260.26L198.23 265.78C198.23 265.78 201.23 266.93 207.35 266.35C213.47 265.77 215.82 262.98 215.82 262.98L215.79 257.49Z" fill="#455A64"/>
<path d="M165.42 261.58C161.8 263.06 150.92 261.73 146.84 259.09L147.11 265.25C147.11 265.25 149.59 267.74 155.75 268.25C161.91 268.76 164.28 266.92 164.28 266.92L165.42 261.58Z" fill="#455A64"/>
<path d="M177.76 173.18L172.56 144.53C172.56 144.53 158.08 143.21 152.67 138.05C152.67 138.05 159.59 147.7 169.42 148.98L174.19 170L170.1 207.44L177.76 173.18Z" fill="#263238"/>
<path d="M69.57 41L69.46 36.21C69.8432 35.9705 70.291 35.8554 70.7422 35.8804C71.1933 35.9055 71.6257 36.0695 71.98 36.35C73.4 37.35 73.84 40.69 76.42 43.14C79 45.59 83.08 47.9 83.22 47.38C83.36 46.86 81.81 43.3 82.43 41.43C83.05 39.56 84.65 39.22 85.9 41.72C87.1184 44.1936 88.5294 46.5676 90.12 48.82C92.4 52.21 93.12 56.2 95.64 57.67L117.87 69.6C117.87 69.6 142.01 58.03 145.14 56.6C152.67 53.19 156.14 54.26 161.04 54.05C165.94 53.84 152.58 76.43 152.58 76.43L124.63 85C121.57 85.92 117.87 88.17 113.44 85.5C109.31 83 89.99 69.2 86.82 66.79C83.65 64.38 80.94 63.51 78.43 62.07C75.685 60.7498 73.2721 58.829 71.37 56.45C68.16 52.75 67.62 49.32 67.79 44.91C67.96 40.5 69.57 41 69.57 41Z" fill="#FFBDA7"/>
<path d="M170.14 53.7599C170.14 53.7599 191.04 54.68 196.27 57C198.67 58.06 200.27 62.95 199.35 77.86C198.98 83.86 198.06 95.04 198.06 99.53C198.06 105.88 206.25 128.79 206.25 128.79C186.78 141.06 152.67 138.05 145.57 131.68C145.57 131.68 147.07 104.68 147.66 90.97C147.66 90.97 143.83 84.6899 144.09 80.4299C144.47 74.1699 145.74 71.94 151.39 64.89C154.366 61.0967 157.575 57.4931 161 54.1L170.14 53.7599Z" fill="#BA68C8"/>
<path d="M188.43 10.51C195.18 11.19 196.93 22.18 195.43 28.41C192.48 40.41 184.43 41.93 184.15 47.05L171.96 40.05L162.48 34.63C159.99 33.21 156.76 32.02 154.18 30.52C153.122 29.9688 152.295 29.0572 151.85 27.95C151.544 27.2422 151.415 26.4702 151.476 25.7014C151.537 24.9326 151.786 24.1905 152.2 23.54C151.488 23.934 150.696 24.1605 149.883 24.2021C149.07 24.2437 148.259 24.0993 147.51 23.78C145.72 22.98 145.75 20.7 146.23 19.54C146.287 19.8645 146.431 20.1674 146.647 20.4164C146.863 20.6654 147.142 20.8511 147.455 20.9538C147.769 21.0564 148.104 21.0721 148.425 20.9993C148.746 20.9264 149.042 20.7676 149.28 20.54C150.42 19.36 149.57 17.17 149.42 15.8C149.242 14.2517 149.47 12.6839 150.08 11.25C152.08 6.77997 157.25 3.31997 161.67 1.68997C166.252 0.0840855 171.192 -0.206902 175.93 0.84997C181.19 1.99997 186.76 4.99997 188.43 10.51Z" fill="#263238"/>
<path d="M203.2 22.69C202.38 21.15 203.44 19.91 204.33 18.69C207.73 13.89 202.98 7.68999 197.43 8.94999C197.079 7.99991 196.521 7.13991 195.796 6.43245C195.071 5.72499 194.198 5.18784 193.24 4.85999C191.929 4.41079 190.525 4.30453 189.161 4.55134C187.798 4.79815 186.52 5.3898 185.45 6.26999L193.72 31.77C194.192 32.5325 194.911 33.1103 195.757 33.4069C196.603 33.7036 197.525 33.7011 198.37 33.4C201 32.4 201.56 30.16 201.5 27.7C202.95 28.44 203.33 31.04 201.98 32.06C205.31 31.85 205.74 28.97 205.26 26.18C205 24.49 203.91 24 203.2 22.69Z" fill="#263238"/>
<path d="M183.89 51.85L184.44 40.73C185.427 41.23 186.555 41.3777 187.637 41.1485C188.719 40.9193 189.691 40.3271 190.39 39.47C193.68 35.99 193.96 32.23 192.12 29.84C190.12 27.2 185.67 28.26 183.79 31.53C180.91 32.25 179.69 28.13 181.79 23.88C181.79 23.88 167.04 30.98 161.19 14.42C159.42 12.79 157.08 14.16 156.19 16.42C155.3 18.68 153.64 22.94 154.01 32.37C154.42 42.93 157.45 46.06 160.36 47.81C162.18 48.9 164.73 49.19 167.82 49.17L167.7 52.25C167.7 53.8 167.29 53.86 165.95 53.95L163.95 54.08C163.95 54.08 159.02 60 168.61 61.14C182.93 62.83 190.61 55.66 190.61 55.66C190.61 55.66 189.72 55.52 187.26 55.18C184.8 54.84 184.12 53.92 183.89 51.85Z" fill="#FFBDA7"/>
<path d="M188.87 38.12C188.868 38.4072 188.781 38.6873 188.619 38.9249C188.458 39.1624 188.229 39.3466 187.963 39.4542C187.697 39.5618 187.405 39.5879 187.124 39.5292C186.842 39.4705 186.585 39.3296 186.384 39.1245C186.183 38.9193 186.048 38.659 185.995 38.3767C185.942 38.0944 185.974 37.8028 186.087 37.5388C186.2 37.2748 186.389 37.0504 186.63 36.8939C186.871 36.7374 187.153 36.656 187.44 36.66C187.63 36.6613 187.818 36.7001 187.993 36.7744C188.167 36.8486 188.326 36.9566 188.459 37.0923C188.592 37.2281 188.696 37.3887 188.767 37.5651C188.838 37.7415 188.873 37.93 188.87 38.12Z" fill="#BA68C8"/>
<path d="M171.3 37.91L166.16 39.64C166.258 39.9837 166.424 40.3041 166.649 40.5821C166.874 40.8601 167.152 41.09 167.468 41.258C167.783 41.426 168.129 41.5287 168.485 41.56C168.841 41.5913 169.2 41.5504 169.54 41.44C170.232 41.1921 170.801 40.6864 171.129 40.0286C171.457 39.3708 171.518 38.6118 171.3 37.91Z" fill="#B16668"/>
<path d="M171 39.11C170.311 39.1061 169.641 39.3396 169.104 39.7712C168.567 40.2028 168.195 40.8062 168.05 41.48C168.539 41.6297 169.061 41.6297 169.55 41.48C170.04 41.3067 170.472 41.0009 170.799 40.5966C171.126 40.1923 171.334 39.7054 171.4 39.19C171.269 39.1538 171.135 39.1271 171 39.11Z" fill="#F28F8F"/>
<path d="M156.22 25.31L160 23.57C159.899 23.3177 159.748 23.0886 159.555 22.8967C159.363 22.7049 159.133 22.5543 158.88 22.4541C158.628 22.354 158.357 22.3064 158.085 22.3143C157.814 22.3222 157.547 22.3854 157.3 22.5C156.795 22.7415 156.402 23.1674 156.201 23.69C156 24.2126 156.007 24.7923 156.22 25.31Z" fill="#263238"/>
<path d="M174.52 24.44L170.79 22.44C170.903 22.188 171.068 21.9623 171.273 21.7771C171.478 21.5918 171.719 21.4511 171.981 21.3637C172.243 21.2763 172.521 21.2442 172.796 21.2694C173.071 21.2945 173.338 21.3765 173.58 21.51C174.085 21.7823 174.465 22.2395 174.64 22.7857C174.815 23.3319 174.772 23.9248 174.52 24.44Z" fill="#263238"/>
<path d="M165.53 25.77L165.13 36.7299L159.46 34.5L165.53 25.77Z" fill="#F0997A"/>
<path d="M160.75 27.78C160.784 28.2392 160.64 28.6939 160.348 29.0496C160.055 29.4053 159.637 29.6346 159.18 29.69C158.957 29.7206 158.729 29.7057 158.512 29.6462C158.294 29.5867 158.091 29.4837 157.915 29.3436C157.738 29.2034 157.592 29.0289 157.484 28.8307C157.377 28.6324 157.311 28.4145 157.29 28.19C157.253 27.7291 157.396 27.2719 157.688 26.914C157.981 26.5561 158.401 26.3253 158.86 26.27C159.084 26.2408 159.311 26.257 159.529 26.3177C159.746 26.3784 159.949 26.4824 160.126 26.6233C160.302 26.7643 160.448 26.9394 160.556 27.1381C160.663 27.3368 160.729 27.5551 160.75 27.78Z" fill="#263238"/>
<path d="M173.33 27.8899C173.369 28.3513 173.228 28.8099 172.934 29.1684C172.641 29.5269 172.22 29.757 171.76 29.8099C171.537 29.8377 171.31 29.8204 171.094 29.759C170.878 29.6976 170.676 29.5934 170.501 29.4526C170.325 29.3118 170.18 29.1372 170.073 28.9392C169.967 28.7412 169.901 28.5238 169.88 28.3C169.841 27.8397 169.983 27.3823 170.276 27.0254C170.57 26.6685 170.991 26.4405 171.45 26.3899C171.673 26.3593 171.9 26.3742 172.116 26.4339C172.333 26.4935 172.536 26.5966 172.712 26.7369C172.887 26.8771 173.033 27.0517 173.139 27.2499C173.245 27.4481 173.31 27.6659 173.33 27.8899Z" fill="#263238"/>
<path d="M167.83 49.1199C174.42 48.3499 180.71 46.1199 182.15 43.0599C182.145 44.0239 181.908 44.9725 181.459 45.8254C181.01 46.6783 180.362 47.4105 179.57 47.9599C175.84 50.2199 167.74 51.4499 167.74 51.4499L167.83 49.1199Z" fill="#F0997A"/>
<path d="M185.46 113.07C184.341 113.481 183.176 113.75 181.99 113.87C180.693 113.867 179.397 113.783 178.11 113.62C176.88 113.48 175.69 113.09 174.46 113.07C173.23 113.05 171.79 113.29 170.46 113.36C169.517 113.4 168.573 113.35 167.64 113.21C166.72 113.07 165.86 112.79 164.96 112.64C164.842 112.605 164.717 112.605 164.6 112.64C164.522 112.699 164.46 112.776 164.419 112.865C164.379 112.955 164.362 113.052 164.37 113.15C164.361 113.986 164.664 114.795 165.22 115.42C165.95 116.225 166.887 116.813 167.93 117.12L170.31 117.89C171.43 118.25 170.74 119.09 170 119.46C167.834 120.481 165.483 121.052 163.09 121.14C160.7 121.233 158.307 121.106 155.94 120.76C155.529 120.7 155.111 120.7 154.7 120.76C154.498 120.787 154.304 120.857 154.131 120.966C153.959 121.075 153.812 121.219 153.7 121.39C153.582 121.639 153.536 121.915 153.566 122.189C153.596 122.463 153.701 122.723 153.87 122.94C154.217 123.367 154.629 123.738 155.09 124.04C155.55 124.344 155.926 124.76 156.18 125.25C156.49 125.99 156.28 126.9 156.7 127.59C157.12 128.28 158.27 128.59 159.05 129.07C159.661 129.609 160.205 130.22 160.67 130.89C161.561 131.822 162.693 132.49 163.94 132.82C167.42 133.82 170.82 133.25 174.29 132.55C181.67 131.06 184.44 127.9 189.41 125.22C192.37 123.59 185.46 113.07 185.46 113.07Z" fill="#FFBDA7"/>
<path d="M193.91 56.25C199.99 57.1 205.23 56.93 208.66 62.2C212.09 67.47 213.04 70.83 214.44 74.3C217.81 82.6 220.54 88.7 222.99 95.79C224.193 99.2129 225.146 102.719 225.84 106.28C226.73 110.65 225.53 113.19 222.12 115.08C219.17 116.71 214.18 117.61 207.02 119.71C196.55 122.77 193.83 122.87 189.38 125.2C189.183 122.969 188.524 120.803 187.444 118.84C186.365 116.878 184.889 115.161 183.11 113.8C183.11 113.8 185.57 113.3 193.36 109.88C198.022 107.904 202.569 105.667 206.98 103.18C206.98 103.18 200.48 89.77 198.54 83.45C198.54 83.45 196.54 79.14 193.63 71.85C189.62 62 193.91 56.25 193.91 56.25Z" fill="#FFBDA7"/>
<path d="M213.16 100.21C217.88 100.36 219.1 101.94 219.1 101.94C215.041 101.004 210.785 101.44 207 103.18L206.27 101.43C208.445 100.508 210.801 100.091 213.16 100.21Z" fill="#F0997A"/>
<path d="M102.33 27.95L0.689941 86.63V145.31L4.59995 147.57L106.24 88.89V30.21L102.33 27.95Z" fill="#BA68C8"/>
<path opacity="0.65" d="M4.59985 88.89L106.24 30.21V88.89L4.59985 147.57V88.89Z" fill="white"/>
<path opacity="0.45" d="M4.59995 88.89L0.689941 86.63L102.33 27.95L106.24 30.21L4.59995 88.89Z" fill="white"/>
<path opacity="0.25" d="M0.689941 86.6299L4.59995 88.8899V147.57L0.689941 145.31V86.6299Z" fill="white"/>
<g opacity="0.2">
<path d="M8.51001 140.8V122.74L35.88 79.8599L68.55 98.7399L63.24 92.6699L79.41 65.4099L102.33 73.0899L102.38 86.6599L8.51001 140.8Z" fill="#BA68C8"/>
<path d="M69.93 56.9999C72.23 55.6699 74.1 56.7399 74.1 59.3999C74.0195 60.8446 73.6 62.2501 72.8756 63.5027C72.1512 64.7552 71.1421 65.8197 69.93 66.6099C67.63 67.9399 65.77 66.8599 65.77 64.2099C65.8463 62.7654 66.2629 61.3593 66.9858 60.1063C67.7088 58.8534 68.7176 57.789 69.93 56.9999Z" fill="#BA68C8"/>
</g>
<path d="M46.6999 81.9299C46.5928 81.9317 46.4882 81.8975 46.4028 81.833C46.3174 81.7684 46.256 81.6772 46.2284 81.5737C46.2008 81.4702 46.2086 81.3605 46.2505 81.262C46.2925 81.1634 46.3662 81.0818 46.4599 81.03L63.9099 71C64.0213 70.9363 64.1534 70.9195 64.2772 70.9533C64.4009 70.987 64.5062 71.0686 64.5699 71.1799C64.6335 71.2913 64.6503 71.4235 64.6166 71.5472C64.5828 71.671 64.5013 71.7763 64.3899 71.84L46.9399 81.91C46.8633 81.9388 46.7802 81.9457 46.6999 81.9299Z" fill="white"/>
<path d="M38.7799 95.84C38.7948 95.8259 38.8144 95.8181 38.8349 95.8181C38.8554 95.8181 38.8751 95.8259 38.8899 95.84C38.9098 95.859 38.9247 95.8827 38.9334 95.9088C38.9421 95.9349 38.9444 95.9628 38.9399 95.99V96.99C38.9423 97.0632 38.9251 97.1357 38.8899 97.2C38.8666 97.2585 38.8288 97.3102 38.7799 97.35L35.8799 99.02C35.8634 99.0347 35.8421 99.0429 35.8199 99.0429C35.7978 99.0429 35.7764 99.0347 35.7599 99.02C35.7244 98.9784 35.7064 98.9246 35.7099 98.87V92.65C35.7123 92.5773 35.7293 92.5059 35.7599 92.44C35.7896 92.3825 35.8304 92.3316 35.8799 92.29L36.6999 91.82C36.7164 91.8052 36.7378 91.7971 36.7599 91.7971C36.7821 91.7971 36.8034 91.8052 36.8199 91.82C36.8555 91.8616 36.8734 91.9154 36.8699 91.97V96.91L38.7799 95.84Z" fill="white"/>
<path d="M42.67 92.2599C42.67 92.3599 42.67 92.4799 42.67 92.6299C42.67 92.7799 42.67 92.9099 42.67 92.9999C42.6627 93.3212 42.6157 93.6402 42.53 93.9499C42.4499 94.2614 42.3359 94.5633 42.19 94.8499C42.0463 95.1339 41.8683 95.3992 41.66 95.6399C41.459 95.8625 41.2266 96.0545 40.97 96.2099C40.7644 96.3447 40.5258 96.4208 40.28 96.4299C40.0881 96.4433 39.8984 96.3825 39.75 96.2599C39.5923 96.1241 39.4747 95.9478 39.41 95.7499C39.3178 95.5002 39.2704 95.2361 39.27 94.9699C39.27 94.8699 39.27 94.7499 39.27 94.5999C39.27 94.4499 39.27 94.3299 39.27 94.2299C39.2751 93.9092 39.3188 93.5902 39.4 93.2799C39.4808 92.9672 39.5983 92.6651 39.75 92.3799C39.8938 92.096 40.0718 91.8306 40.28 91.5899C40.4864 91.3555 40.7296 91.1562 41 90.9999C41.2057 90.8651 41.4443 90.789 41.69 90.7799C41.8825 90.775 42.0704 90.8389 42.22 90.9599C42.3807 91.091 42.5019 91.2641 42.57 91.4599C42.6438 91.72 42.6776 91.9897 42.67 92.2599ZM40.4 94.2599C40.3908 94.346 40.4013 94.4331 40.4308 94.5146C40.4602 94.596 40.5079 94.6696 40.57 94.7299C40.67 94.8099 40.8 94.7999 40.97 94.7299C41.1423 94.624 41.2809 94.4714 41.37 94.2899C41.4788 94.0831 41.5371 93.8535 41.54 93.6199C41.54 93.5099 41.54 93.3999 41.54 93.2799C41.546 93.1733 41.546 93.0665 41.54 92.9599C41.5493 92.8738 41.5387 92.7867 41.5093 92.7053C41.4798 92.6239 41.4322 92.5502 41.37 92.4899C41.27 92.4099 41.14 92.4199 40.97 92.4899C40.7978 92.5959 40.6591 92.7484 40.57 92.9299C40.4601 93.1398 40.4018 93.373 40.4 93.6099C40.3944 93.7199 40.3944 93.83 40.4 93.9399C40.3937 94.0498 40.3937 94.16 40.4 94.2699V94.2599Z" fill="white"/>
<path d="M45.53 88.48C45.5375 88.4715 45.5468 88.4646 45.5571 88.46C45.5675 88.4553 45.5787 88.4529 45.59 88.4529C45.6014 88.4529 45.6126 88.4553 45.623 88.46C45.6333 88.4646 45.6425 88.4715 45.65 88.48C45.6856 88.5215 45.7036 88.5754 45.7 88.63V89.63C45.6977 89.7026 45.6807 89.774 45.65 89.84C45.6203 89.8974 45.5795 89.9484 45.53 89.99L44.96 90.32C44.7592 90.4465 44.5982 90.6273 44.4956 90.8413C44.393 91.0554 44.3529 91.2941 44.38 91.53V93.9C44.3824 93.9732 44.3651 94.0457 44.33 94.11C44.3098 94.173 44.2671 94.2264 44.21 94.26L43.43 94.71C43.38 94.71 43.34 94.71 43.31 94.71C43.2902 94.6909 43.2752 94.6673 43.2665 94.6411C43.2578 94.615 43.2556 94.5871 43.26 94.56V90.08C43.2576 90.0068 43.2749 89.9342 43.31 89.87C43.3303 89.8069 43.373 89.7536 43.43 89.72L44.15 89.3C44.1673 89.287 44.1884 89.28 44.21 89.28C44.2317 89.28 44.2527 89.287 44.27 89.3C44.3056 89.3415 44.3235 89.3954 44.32 89.45V89.67C44.4177 89.4783 44.535 89.2974 44.67 89.13C44.8006 88.9595 44.9638 88.8168 45.15 88.71L45.53 88.48Z" fill="white"/>
<path d="M47.0699 90.64C47.0661 90.7521 47.083 90.864 47.1199 90.97C47.1318 91.0032 47.1504 91.0336 47.1745 91.0594C47.1985 91.0852 47.2276 91.1058 47.2599 91.12C47.2882 91.1327 47.3189 91.1392 47.3499 91.1392C47.3809 91.1392 47.4116 91.1327 47.4399 91.12C47.5084 91.108 47.5734 91.0807 47.6299 91.04C47.7427 90.9817 47.8443 90.9038 47.9299 90.81C48.0012 90.728 48.0616 90.6373 48.1099 90.54L48.2099 90.37L48.3199 90.29L49.1299 89.82C49.2299 89.77 49.2699 89.82 49.2699 89.95C49.2569 90.0898 49.2267 90.2276 49.1799 90.36C49.0991 90.5834 49.0022 90.8006 48.8899 91.01C48.747 91.268 48.5759 91.5095 48.3799 91.73C48.1673 91.9754 47.9135 92.1818 47.6299 92.34C47.4154 92.4825 47.1669 92.5653 46.9099 92.58C46.8119 92.5829 46.7143 92.5658 46.6232 92.5297C46.5321 92.4936 46.4493 92.4392 46.3799 92.37C46.2184 92.1927 46.1078 91.975 46.0599 91.74C45.9752 91.4135 45.9348 91.0772 45.9399 90.74C45.9397 90.37 45.9799 90.0012 46.0599 89.64C46.1279 89.2955 46.2353 88.96 46.3799 88.64C46.5171 88.3339 46.6954 88.0479 46.9099 87.79C47.1107 87.5444 47.3547 87.3377 47.6299 87.18C47.8586 87.0227 48.1327 86.9454 48.4099 86.96C48.619 86.9937 48.808 87.1042 48.9399 87.27C49.0834 87.47 49.1823 87.6985 49.2299 87.94C49.291 88.2293 49.3212 88.5243 49.3199 88.82V89.09C49.3175 89.1626 49.3005 89.2341 49.2699 89.3C49.2601 89.3301 49.2444 89.3579 49.2238 89.382C49.2032 89.406 49.1781 89.4257 49.1499 89.44L47.0699 90.64ZM47.6299 88.46C47.4487 88.5732 47.3085 88.7414 47.2299 88.94C47.144 89.1404 47.09 89.3529 47.0699 89.57L48.1999 88.92C48.1883 88.7566 48.1292 88.6002 48.0299 88.47C47.9399 88.37 47.8099 88.36 47.6299 88.46Z" fill="white"/>
<path d="M55 87.7399C55.0138 87.8126 55.0138 87.8872 55 87.9599C54.9706 88.0147 54.9296 88.0625 54.88 88.0999L54.12 88.5399C54.1027 88.5529 54.0816 88.5599 54.06 88.5599C54.0383 88.5599 54.0173 88.5529 54 88.5399C53.9644 88.4983 53.9465 88.4445 53.95 88.3899V85.9199C53.9702 85.7071 53.9321 85.4928 53.84 85.2999C53.76 85.2099 53.64 85.2099 53.49 85.2999C53.3426 85.393 53.2274 85.5292 53.16 85.6899C53.0697 85.9292 53.0288 86.1844 53.04 86.4399V88.9099C53.0424 88.9831 53.0251 89.0556 52.99 89.1199C52.9667 89.1785 52.9288 89.2301 52.88 89.2699L52.12 89.6999C52.12 89.6999 52.03 89.6999 52 89.6999C51.9644 89.6583 51.9465 89.6045 51.95 89.5499V87.0899C51.9712 86.8771 51.9331 86.6625 51.84 86.4699C51.76 86.3799 51.64 86.3799 51.49 86.4699C51.3423 86.5671 51.2273 86.7065 51.16 86.8699C51.0692 87.0986 51.0283 87.3441 51.04 87.5899V90.0799C51.0424 90.1531 51.0251 90.2256 50.99 90.2899C50.9695 90.35 50.9311 90.4024 50.88 90.4399L50.09 90.8999C50.0727 90.9129 50.0516 90.9199 50.03 90.9199C50.0083 90.9199 49.9873 90.9129 49.97 90.8999C49.9338 90.8548 49.9159 90.7976 49.92 90.7399V86.2599C49.9224 86.1873 49.9394 86.1158 49.97 86.0499C49.9931 85.9885 50.0351 85.9359 50.09 85.8999L50.84 85.4699C50.8866 85.4699 50.9266 85.4699 50.96 85.4699C50.9789 85.4917 50.993 85.5172 51.0016 85.5447C51.0102 85.5722 51.0131 85.6013 51.01 85.6299V85.8499C51.097 85.6299 51.2112 85.4216 51.35 85.2299C51.4701 85.0574 51.6273 84.9139 51.81 84.8099C51.979 84.7001 52.1788 84.6475 52.38 84.6599C52.4737 84.674 52.5624 84.7117 52.6376 84.7694C52.7128 84.8272 52.7721 84.903 52.81 84.9899C52.9177 84.6974 53.0658 84.4214 53.25 84.1699C53.4005 83.9641 53.591 83.7906 53.81 83.6599C53.9552 83.562 54.1249 83.5066 54.3 83.4999C54.3748 83.499 54.449 83.5136 54.5178 83.5429C54.5867 83.5722 54.6487 83.6154 54.7 83.6699C54.8259 83.827 54.9117 84.0123 54.95 84.2099C55.0207 84.5148 55.0543 84.827 55.05 85.1399L55 87.7399Z" fill="white"/>
<path d="M58.16 80.4C58.1577 80.4726 58.1406 80.544 58.11 80.61C58.1002 80.6401 58.0846 80.6679 58.064 80.692C58.0434 80.716 58.0183 80.7357 57.99 80.75L57.2 81.21C57.1822 81.2216 57.1613 81.2278 57.14 81.2278C57.1187 81.2278 57.0979 81.2216 57.08 81.21C57.0498 81.1847 57.0266 81.1522 57.0126 81.1154C56.9986 81.0786 56.9943 81.0389 57 81V80C57.0024 79.9273 57.0194 79.8559 57.05 79.79C57.0768 79.7334 57.1182 79.6851 57.17 79.65L57.96 79.19C57.9765 79.1752 57.9979 79.1671 58.02 79.1671C58.0421 79.1671 58.0635 79.1752 58.08 79.19C58.1156 79.2315 58.1335 79.2854 58.13 79.34L58.16 80.4ZM58.16 85.93C58.1577 86.0026 58.1406 86.074 58.11 86.14C58.0869 86.2014 58.0449 86.2539 57.99 86.29L57.2 86.74C57.1835 86.7547 57.1622 86.7629 57.14 86.7629C57.1179 86.7629 57.0965 86.7547 57.08 86.74C57.0444 86.6984 57.0265 86.6446 57.03 86.59V82.1C57.0324 82.0273 57.0494 81.9559 57.08 81.89C57.1068 81.8334 57.1482 81.7851 57.2 81.75L57.99 81.29C58.0073 81.277 58.0284 81.27 58.05 81.27C58.0716 81.27 58.0927 81.277 58.11 81.29C58.1456 81.3315 58.1635 81.3854 58.16 81.44V85.93Z" fill="white"/>
<path d="M60.8499 84.73C60.7505 84.7894 60.6426 84.8333 60.5299 84.86C60.4506 84.8753 60.3691 84.8753 60.2899 84.86C60.2275 84.8423 60.1696 84.8116 60.1199 84.77L60.0099 84.65V86.7C60.0075 86.7726 59.9905 86.844 59.9599 86.91C59.9368 86.9714 59.8947 87.0239 59.8399 87.06L59.0499 87.51C59.0334 87.5247 59.012 87.5329 58.9899 87.5329C58.9677 87.5329 58.9464 87.5247 58.9299 87.51C58.9114 87.4617 58.9114 87.4083 58.9299 87.36V81C58.9156 80.9307 58.9156 80.8592 58.9299 80.79C58.9566 80.7334 58.9981 80.6851 59.0499 80.65L59.8099 80.21C59.8264 80.1952 59.8477 80.1871 59.8699 80.1871C59.892 80.1871 59.9134 80.1952 59.9299 80.21C59.9654 80.2515 59.9834 80.3054 59.9799 80.36V80.58L60.0999 80.31C60.1456 80.2125 60.1991 80.1188 60.2599 80.03C60.3342 79.9351 60.4144 79.8449 60.4999 79.76C60.6026 79.6587 60.7208 79.5743 60.8499 79.51C61.0092 79.4076 61.1912 79.3458 61.3799 79.33C61.4596 79.3239 61.5396 79.334 61.6153 79.3598C61.6909 79.3856 61.7605 79.4265 61.8199 79.48C61.9599 79.623 62.0629 79.7981 62.1199 79.99C62.2068 80.2855 62.2506 80.592 62.2499 80.9V81.68C62.2445 82.0369 62.2009 82.3923 62.1199 82.74C62.0473 83.0355 61.9469 83.3234 61.8199 83.6C61.7015 83.8376 61.5537 84.0593 61.3799 84.26C61.2281 84.4426 61.0494 84.6011 60.8499 84.73ZM61.1299 82.24C61.1399 82.0601 61.1399 81.8798 61.1299 81.7C61.1304 81.5221 61.0782 81.3482 60.9799 81.2C60.8999 81.08 60.7599 81.08 60.5699 81.2C60.4772 81.2498 60.3956 81.3178 60.3299 81.4C60.2638 81.4873 60.2069 81.5811 60.1599 81.68C60.1176 81.7768 60.0841 81.8772 60.0599 81.98C60.0343 82.0817 60.0175 82.1854 60.0099 82.29C60.0099 82.39 60.0099 82.51 60.0099 82.64C60.0044 82.7466 60.0044 82.8534 60.0099 82.96C60.0139 83.0453 60.0307 83.1296 60.0599 83.21C60.0787 83.2799 60.1129 83.3448 60.1599 83.4C60.181 83.4245 60.207 83.4443 60.2363 83.4581C60.2656 83.4719 60.2975 83.4793 60.3299 83.48C60.4157 83.486 60.5008 83.4612 60.5699 83.41C60.7613 83.3016 60.9069 83.1275 60.9799 82.92C61.0709 82.7043 61.1217 82.4739 61.1299 82.24Z" fill="white"/>
<path d="M64.69 80.9199C64.6928 80.8943 64.6897 80.8684 64.6811 80.8442C64.6724 80.8199 64.6584 80.798 64.64 80.7799C64.5887 80.7588 64.5312 80.7588 64.48 80.7799L64.18 80.8699C64.0302 80.9303 63.8765 80.9804 63.72 81.0199C63.6006 81.0738 63.4682 81.0921 63.3387 81.0726C63.2092 81.0531 63.0881 80.9966 62.99 80.9099C62.7947 80.6491 62.7054 80.324 62.74 79.9999C62.7388 79.7728 62.7725 79.5468 62.84 79.3299C62.9109 79.0979 63.0118 78.876 63.14 78.6699C63.2674 78.4513 63.4219 78.2497 63.6 78.0699C63.7768 77.8858 63.9788 77.7276 64.2 77.5999C64.3846 77.4879 64.5878 77.41 64.8 77.3699C64.9544 77.3326 65.1155 77.3326 65.27 77.3699C65.402 77.4143 65.515 77.5025 65.59 77.6199C65.6686 77.7428 65.7134 77.8842 65.72 78.0299C65.7224 78.1031 65.7051 78.1757 65.67 78.2399C65.6403 78.2974 65.5995 78.3483 65.55 78.3899L64.8 78.8199C64.7842 78.8321 64.7649 78.8387 64.745 78.8387C64.7251 78.8387 64.7057 78.8321 64.69 78.8199L64.6 78.7699H64.45C64.3618 78.7896 64.2774 78.8234 64.2 78.8699C64.1076 78.9202 64.026 78.9881 63.96 79.0699C63.8958 79.1413 63.8601 79.2339 63.8599 79.3299C63.8452 79.3788 63.8452 79.431 63.8599 79.4799C63.8599 79.4799 63.92 79.4799 63.99 79.4799L64.25 79.3999L64.69 79.2499C65.07 79.1299 65.35 79.1599 65.52 79.3599C65.7091 79.6127 65.8013 79.9249 65.78 80.2399C65.7768 80.4675 65.7397 80.6933 65.67 80.9099C65.598 81.1496 65.4936 81.3784 65.3599 81.5899C65.2223 81.8214 65.0541 82.0333 64.8599 82.2199C64.6633 82.4224 64.4375 82.5943 64.19 82.7299C63.9906 82.8599 63.7654 82.9452 63.53 82.9799C63.3719 83.0123 63.2077 82.9948 63.06 82.9299C62.9342 82.8735 62.8293 82.7791 62.76 82.6599C62.6887 82.5344 62.6476 82.3941 62.64 82.2499C62.6385 82.1768 62.6557 82.1045 62.69 82.0399C62.7197 81.9825 62.7605 81.9315 62.81 81.8899L63.59 81.4499C63.59 81.4499 63.67 81.4499 63.69 81.4499C63.7117 81.4783 63.7389 81.5021 63.77 81.5199C63.77 81.5199 63.85 81.5199 63.91 81.5199C64.0116 81.5095 64.1084 81.4715 64.19 81.4099C64.3141 81.3428 64.4257 81.2549 64.52 81.1499C64.5987 81.0923 64.658 81.0121 64.69 80.9199Z" fill="white"/>
<path d="M66.3299 76.73C66.3332 76.6542 66.3501 76.5797 66.3799 76.51C66.4029 76.4511 66.4452 76.4017 66.4999 76.37L67.2899 75.92C67.3048 75.9059 67.3244 75.8981 67.3449 75.8981C67.3653 75.8981 67.385 75.9059 67.3999 75.92C67.4188 75.9418 67.4329 75.9672 67.4415 75.9948C67.4501 76.0223 67.453 76.0513 67.4499 76.08V78.51C67.4334 78.7172 67.475 78.925 67.5699 79.11C67.6499 79.23 67.7799 79.24 67.9699 79.11C68.1501 79.0029 68.2879 78.8369 68.3599 78.64C68.435 78.4006 68.4721 78.1509 68.4699 77.9V75.47C68.4561 75.4006 68.4561 75.3293 68.4699 75.26C68.4996 75.2025 68.5404 75.1516 68.5899 75.11L69.3799 74.66C69.4266 74.66 69.4666 74.66 69.4999 74.66C69.5345 74.706 69.5521 74.7625 69.5499 74.82V79.3C69.5475 79.3758 69.5306 79.4505 69.4999 79.52C69.4901 79.5501 69.4745 79.5779 69.4539 79.602C69.4333 79.626 69.4081 79.6457 69.3799 79.66L68.6499 80.08C68.635 80.094 68.6153 80.1019 68.5949 80.1019C68.5744 80.1019 68.5548 80.094 68.5399 80.08C68.5284 80.0566 68.5224 80.031 68.5224 80.005C68.5224 79.979 68.5284 79.9533 68.5399 79.93V79.71C68.5399 79.8 68.4599 79.89 68.4099 79.98C68.3647 80.085 68.304 80.1828 68.2299 80.27C68.1557 80.3681 68.0755 80.4616 67.9899 80.55C67.8867 80.6434 67.7725 80.724 67.6499 80.79C67.2499 81.03 66.9165 81.03 66.6499 80.79C66.3445 80.3687 66.2154 79.8449 66.2899 79.33L66.3299 76.73Z" fill="white"/>
<path d="M75.4499 76C75.4475 76.0726 75.4305 76.1441 75.3998 76.21C75.3901 76.2401 75.3744 76.2679 75.3538 76.2919C75.3332 76.316 75.3081 76.3357 75.2799 76.35L74.5198 76.79C74.5033 76.8047 74.482 76.8129 74.4598 76.8129C74.4377 76.8129 74.4163 76.8047 74.3998 76.79C74.3814 76.7417 74.3814 76.6883 74.3998 76.64V74.17C74.4287 73.9601 74.3902 73.7465 74.2899 73.56C74.2099 73.47 74.0999 73.47 73.9499 73.56C73.7967 73.6536 73.6775 73.7937 73.6098 73.96C73.5284 74.2013 73.4912 74.4554 73.4999 74.71V77.17C73.4975 77.2426 73.4805 77.3141 73.4499 77.38C73.4268 77.4414 73.3847 77.4939 73.3298 77.53L72.5699 77.97C72.552 77.9816 72.5312 77.9878 72.5099 77.9878C72.4886 77.9878 72.4677 77.9816 72.4499 77.97C72.4323 77.9181 72.4323 77.8619 72.4499 77.81V75.35C72.4762 75.137 72.4379 74.9209 72.3399 74.73C72.2599 74.64 72.1499 74.64 71.9999 74.73C71.8449 74.8169 71.7248 74.9546 71.6599 75.12C71.5794 75.3512 71.5421 75.5953 71.5498 75.84V78.34C71.5475 78.4126 71.5305 78.4841 71.4999 78.55C71.4999 78.62 71.4299 78.67 71.3799 78.69L70.5899 79.15C70.572 79.1616 70.5512 79.1678 70.5299 79.1678C70.5086 79.1678 70.4877 79.1616 70.4699 79.15C70.4343 79.1084 70.4164 79.0546 70.4199 79V74.51C70.4222 74.4373 70.4392 74.3659 70.4699 74.3C70.4996 74.2425 70.5403 74.1916 70.5899 74.15L71.3499 73.72C71.3574 73.7115 71.3666 73.7046 71.3769 73.7C71.3873 73.6953 71.3985 73.6929 71.4099 73.6929C71.4212 73.6929 71.4324 73.6953 71.4428 73.7C71.4531 73.7046 71.4623 73.7115 71.4699 73.72C71.5054 73.7615 71.5234 73.8154 71.5198 73.87V74C71.6035 73.7803 71.7144 73.572 71.8499 73.38C71.9781 73.2147 72.1336 73.0727 72.3099 72.96C72.4833 72.8519 72.6857 72.7995 72.8899 72.81C72.9809 72.8281 73.0664 72.8674 73.1393 72.9247C73.2123 72.9821 73.2707 73.0558 73.3099 73.14C73.4175 72.8505 73.5657 72.5778 73.7499 72.33C73.9002 72.1212 74.0906 71.9445 74.3099 71.81C74.4608 71.7163 74.6326 71.6614 74.8099 71.65C74.884 71.6498 74.9574 71.6658 75.0247 71.6969C75.0921 71.728 75.1519 71.7734 75.1999 71.83C75.3316 71.9807 75.4212 72.1635 75.4598 72.36C75.5266 72.6653 75.5568 72.9775 75.5498 73.29L75.4499 76Z" fill="white"/>
<path d="M26.1 112.69C25.974 112.69 25.8502 112.657 25.7412 112.594C25.6322 112.531 25.5421 112.44 25.48 112.33C25.4313 112.247 25.3994 112.156 25.3862 112.061C25.3729 111.966 25.3785 111.869 25.4026 111.776C25.4268 111.683 25.469 111.596 25.5269 111.519C25.5848 111.443 25.6572 111.378 25.74 111.33L84.38 77.4799C84.4623 77.4299 84.5539 77.3969 84.6492 77.3829C84.7446 77.3689 84.8417 77.3742 84.935 77.3985C85.0282 77.4227 85.1157 77.4654 85.1921 77.5241C85.2685 77.5827 85.3324 77.6562 85.38 77.7399C85.4283 77.8233 85.4596 77.9153 85.4721 78.0107C85.4846 78.1062 85.4782 78.2032 85.4531 78.2961C85.428 78.3891 85.3847 78.4761 85.3259 78.5523C85.267 78.6285 85.1936 78.6923 85.11 78.7399L26.47 112.59C26.3595 112.66 26.2306 112.695 26.1 112.69Z" fill="white"/>
<path d="M36.7499 112.88C36.5884 112.885 36.4299 112.835 36.3 112.739C36.17 112.643 36.0761 112.506 36.0334 112.351C35.9907 112.195 36.0017 112.029 36.0645 111.88C36.1273 111.731 36.2384 111.608 36.3799 111.53L73.7398 90C73.8222 89.9499 73.9137 89.917 74.0091 89.903C74.1044 89.889 74.2016 89.8942 74.2948 89.9185C74.3881 89.9427 74.4755 89.9854 74.552 90.0441C74.6284 90.1028 74.6923 90.1762 74.7398 90.26C74.7885 90.3427 74.8204 90.4342 74.8337 90.5292C74.847 90.6243 74.8414 90.721 74.8172 90.8139C74.7931 90.9068 74.7508 90.994 74.6929 91.0705C74.6351 91.147 74.5627 91.2114 74.4799 91.26L37.1299 112.82C37.0113 112.875 36.8796 112.896 36.7499 112.88Z" fill="white"/>
</svg>
