<svg width="140" height="295" viewBox="0 0 140 295" fill="none" xmlns="http://www.w3.org/2000/svg">
<path d="M125.78 233.34L63.21 269.47L0.640015 233.34L63.21 197.22L125.78 233.34Z" fill="#BA68C8"/>
<path opacity="0.1" d="M125.78 233.34L63.21 269.47L0.640015 233.34L63.21 197.22L125.78 233.34Z" fill="black"/>
<path opacity="0.1" d="M63.22 269.46L63.21 264.95L4.55001 231.08L0.640015 233.34L63.22 269.46Z" fill="black"/>
<path d="M63.22 269.46V294.19C64.6689 294.214 66.1003 293.87 67.38 293.19L94.49 277.53L123.28 260.91C124.01 260.436 124.617 259.795 125.052 259.04C125.486 258.286 125.736 257.439 125.78 256.57V233.34L63.22 269.46Z" fill="#BA68C8"/>
<path opacity="0.65" d="M63.22 269.46V294.19C64.6689 294.214 66.1003 293.87 67.38 293.19L94.49 277.53L123.28 260.91C124.01 260.436 124.617 259.795 125.052 259.04C125.486 258.286 125.736 257.439 125.78 256.57V233.34L63.22 269.46Z" fill="white"/>
<path d="M0.640015 233.34V256.58C0.686605 257.449 0.937222 258.295 1.37156 259.049C1.8059 259.803 2.41174 260.444 3.14001 260.92L28 275.28L59 293.2C60.2823 293.883 61.7176 294.227 63.17 294.2V269.46L0.640015 233.34Z" fill="#BA68C8"/>
<path opacity="0.5" d="M0.640015 233.34V256.58C0.686605 257.449 0.937222 258.295 1.37156 259.049C1.8059 259.803 2.41174 260.444 3.14001 260.92L28 275.28L59 293.2C60.2823 293.883 61.7176 294.227 63.17 294.2V269.46L0.640015 233.34Z" fill="white"/>
<path d="M125.78 206.25L63.21 242.38L0.640015 206.25L63.21 170.12L125.78 206.25Z" fill="#BA68C8"/>
<path opacity="0.1" d="M125.78 206.25L63.21 242.38L0.640015 206.25L63.21 170.12L125.78 206.25Z" fill="black"/>
<path opacity="0.1" d="M63.21 242.38V237.86L4.55001 203.99L0.640015 206.25L63.21 242.38Z" fill="black"/>
<path d="M125.78 224.31L63.21 260.44V242.38L125.78 206.25V224.31Z" fill="#BA68C8"/>
<path opacity="0.65" d="M125.78 224.31L63.21 260.44V242.38L125.78 206.25V224.31Z" fill="white"/>
<path d="M63.21 260.44L0.640015 224.31V206.25L63.21 242.38V260.44Z" fill="#BA68C8"/>
<path opacity="0.5" d="M63.21 260.44L0.640015 224.31V206.25L63.21 242.38V260.44Z" fill="white"/>
<path d="M117.96 233.34V228.83L63.21 260.44V264.95L117.96 233.34Z" fill="#455A64"/>
<path d="M4.55005 226.57V231.08L63.21 264.95V260.44L4.55005 226.57Z" fill="#BA68C8"/>
<path d="M4.55005 226.57V231.08L63.21 264.95V260.44L4.55005 226.57Z" fill="#37474F"/>
<path d="M125.78 179.15L63.21 215.28L0.640015 179.15L63.21 143.03L125.78 179.15Z" fill="#BA68C8"/>
<path opacity="0.1" d="M125.78 179.15L63.21 215.28L0.640015 179.15L63.21 143.03L125.78 179.15Z" fill="black"/>
<path opacity="0.1" d="M63.21 215.28V210.76L4.55001 176.9L0.640015 179.15L63.21 215.28Z" fill="black"/>
<path d="M125.78 197.22L63.21 233.34V215.28L125.78 179.15V197.22Z" fill="#BA68C8"/>
<path opacity="0.65" d="M125.78 197.22L63.21 233.34V215.28L125.78 179.15V197.22Z" fill="white"/>
<path d="M63.21 233.34L0.640015 197.22V179.15L63.21 215.28V233.34Z" fill="#BA68C8"/>
<path opacity="0.5" d="M63.21 233.34L0.640015 197.22V179.15L63.21 215.28V233.34Z" fill="white"/>
<path d="M117.96 206.25V201.73L63.21 233.34V237.86L117.96 206.25Z" fill="#455A64"/>
<path d="M4.55005 199.48V203.99L63.21 237.86V233.34L4.55005 199.48Z" fill="#37474F"/>
<path d="M117.96 179.15V174.64L63.21 206.25V210.76L117.96 179.15Z" fill="#455A64"/>
<path d="M4.55005 172.38V176.9L63.21 210.76V206.25L4.55005 172.38Z" fill="#37474F"/>
<path d="M125.78 152.06L63.21 188.19L0.640015 152.06L63.21 115.94L125.78 152.06Z" fill="#BA68C8"/>
<path opacity="0.15" d="M125.78 152.06L63.21 188.19L0.640015 152.06L63.21 115.94L125.78 152.06Z" fill="white"/>
<path opacity="0.75" d="M125.78 152.06L63.21 188.19L0.640015 152.06L63.21 115.94L125.78 152.06Z" fill="white"/>
<path d="M125.78 170.12L63.21 206.25V188.19L125.78 152.06V170.12Z" fill="#BA68C8"/>
<path opacity="0.65" d="M125.78 170.12L63.21 206.25V188.19L125.78 152.06V170.12Z" fill="white"/>
<path d="M63.21 206.25L0.640015 170.12V152.06L63.21 188.19V206.25Z" fill="#BA68C8"/>
<path opacity="0.5" d="M63.21 206.25L0.640015 170.12V152.06L63.21 188.19V206.25Z" fill="white"/>
<path d="M14.25 262.14C14.5025 262.304 14.7129 262.526 14.864 262.786C15.0151 263.047 15.1028 263.339 15.12 263.64C15.12 264.2 14.73 264.42 14.25 264.15C13.9967 263.984 13.786 263.761 13.6349 263.499C13.4837 263.236 13.3964 262.942 13.38 262.64C13.38 262.09 13.77 261.86 14.25 262.14Z" fill="#455A64"/>
<path d="M21.48 266.32C21.7325 266.484 21.9428 266.706 22.094 266.966C22.2451 267.227 22.3328 267.519 22.35 267.82C22.35 268.37 21.96 268.6 21.48 268.32C21.2288 268.155 21.02 267.934 20.8705 267.673C20.7211 267.412 20.6353 267.12 20.62 266.82C20.62 266.27 21 266.05 21.48 266.32Z" fill="#455A64"/>
<path d="M28.6 270.43C28.8499 270.594 29.0579 270.814 29.2072 271.073C29.3566 271.331 29.4432 271.622 29.46 271.92C29.46 272.47 29.07 272.69 28.6 272.42C28.3482 272.257 28.1383 272.038 27.9871 271.779C27.836 271.52 27.7479 271.229 27.73 270.93C27.73 270.38 28.12 270.15 28.6 270.43Z" fill="#455A64"/>
<path d="M35.77 274.57C36.0194 274.734 36.227 274.955 36.3763 275.213C36.5255 275.472 36.6124 275.762 36.63 276.06C36.63 276.61 36.24 276.83 35.77 276.56C35.519 276.397 35.3102 276.178 35.1607 275.919C35.0112 275.659 34.9253 275.369 34.91 275.07C34.91 274.52 35.29 274.3 35.77 274.57Z" fill="#455A64"/>
<g opacity="0.75">
<path d="M5.80998 240.82L13.16 245C13.7676 245.395 14.2735 245.928 14.6366 246.555C14.9998 247.182 15.2099 247.886 15.25 248.61V252.83C15.25 254.16 14.31 254.7 13.16 254.03L5.80998 249.81C5.20422 249.414 4.70025 248.881 4.33889 248.253C3.97754 247.626 3.76894 246.923 3.72998 246.2V242C3.72998 240.69 4.65998 240.15 5.80998 240.82Z" fill="white"/>
</g>
<path d="M7.79004 245.57L8.79004 245.02C8.99387 244.925 9.2194 244.888 9.44289 244.911C9.66638 244.933 9.87957 245.016 10.06 245.15C10.5876 245.494 11.0266 245.958 11.3411 246.503C11.6556 247.049 11.8368 247.661 11.87 248.29C11.8937 248.514 11.857 248.741 11.7639 248.947C11.6707 249.152 11.5244 249.33 11.34 249.46L10.45 249.97L10.29 249.7C10.1087 249.656 9.93382 249.589 9.77004 249.5C9.24245 249.156 8.80352 248.692 8.489 248.147C8.17447 247.601 7.99324 246.989 7.96004 246.36C7.95828 246.204 7.97848 246.05 8.02004 245.9L7.79004 245.57Z" fill="#BA68C8"/>
<path opacity="0.2" d="M7.79004 245.57L8.79004 245.02C8.99387 244.925 9.2194 244.888 9.44289 244.911C9.66638 244.933 9.87957 245.016 10.06 245.15C10.5876 245.494 11.0266 245.958 11.3411 246.503C11.6556 247.049 11.8368 247.661 11.87 248.29C11.8937 248.514 11.857 248.741 11.7639 248.947C11.6707 249.152 11.5244 249.33 11.34 249.46L10.45 249.97L10.29 249.7C10.1087 249.656 9.93382 249.589 9.77004 249.5C9.24245 249.156 8.80352 248.692 8.489 248.147C8.17447 247.601 7.99324 246.989 7.96004 246.36C7.95828 246.204 7.97848 246.05 8.02004 245.9L7.79004 245.57Z" fill="black"/>
<path d="M9.11005 245.68C9.63632 246.023 10.0744 246.485 10.3889 247.029C10.7033 247.572 10.8853 248.183 10.92 248.81C10.92 249.97 10.1101 250.44 9.11005 249.86C8.58246 249.516 8.14353 249.052 7.82901 248.507C7.51449 247.961 7.33325 247.349 7.30005 246.72C7.30005 245.57 8.11005 245.1 9.11005 245.68Z" fill="#BA68C8"/>
<g opacity="0.75">
<path d="M5.80998 213.7L13.16 217.93C13.7676 218.325 14.2735 218.858 14.6366 219.485C14.9998 220.112 15.2099 220.816 15.25 221.54V225.75C15.25 227.08 14.31 227.62 13.16 226.96L5.80998 222.73C5.20366 222.334 4.69927 221.801 4.33784 221.174C3.97642 220.547 3.76815 219.843 3.72998 219.12V214.9C3.72998 213.58 4.65998 213 5.80998 213.7Z" fill="white"/>
</g>
<path d="M7.79004 218.46L8.79004 217.91C8.98384 217.825 9.19533 217.789 9.40618 217.805C9.61703 217.821 9.82087 217.888 10 218C10.5276 218.344 10.9666 218.808 11.2811 219.353C11.5956 219.899 11.7768 220.511 11.81 221.14C11.8347 221.365 11.7986 221.592 11.7053 221.798C11.6121 222.003 11.4652 222.18 11.28 222.31L10.39 222.82L10.23 222.55C10.046 222.515 9.86977 222.448 9.71004 222.35C9.18245 222.006 8.74353 221.542 8.429 220.997C8.11448 220.451 7.93324 219.839 7.90004 219.21C7.89828 219.055 7.91847 218.9 7.96004 218.75L7.79004 218.46Z" fill="#BA68C8"/>
<path opacity="0.2" d="M7.79004 218.46L8.79004 217.91C8.98384 217.825 9.19533 217.789 9.40618 217.805C9.61703 217.821 9.82087 217.888 10 218C10.5276 218.344 10.9666 218.808 11.2811 219.353C11.5956 219.899 11.7768 220.511 11.81 221.14C11.8347 221.365 11.7986 221.592 11.7053 221.798C11.6121 222.003 11.4652 222.18 11.28 222.31L10.39 222.82L10.23 222.55C10.046 222.515 9.86977 222.448 9.71004 222.35C9.18245 222.006 8.74353 221.542 8.429 220.997C8.11448 220.451 7.93324 219.839 7.90004 219.21C7.89828 219.055 7.91847 218.9 7.96004 218.75L7.79004 218.46Z" fill="black"/>
<path d="M9.11005 218.56C9.63764 218.904 10.0766 219.368 10.3911 219.913C10.7056 220.459 10.8868 221.071 10.92 221.7C10.92 222.85 10.1101 223.32 9.11005 222.7C8.58378 222.357 8.14567 221.895 7.83121 221.351C7.51676 220.807 7.33479 220.197 7.30005 219.57C7.30005 218.45 8.11005 218 9.11005 218.56Z" fill="#BA68C8"/>
<g opacity="0.75">
<path d="M5.80998 186.6L13.16 190.83C13.7676 191.225 14.2735 191.758 14.6366 192.385C14.9998 193.012 15.2099 193.716 15.25 194.44V198.66C15.25 199.98 14.31 200.52 13.16 199.86L5.80998 195.63C5.20102 195.232 4.69499 194.696 4.33342 194.065C3.97185 193.434 3.76505 192.726 3.72998 192V187.79C3.72998 186.48 4.65998 185.94 5.80998 186.6Z" fill="white"/>
</g>
<path d="M7.79004 191.36L8.79004 190.81C8.99503 190.721 9.21962 190.686 9.4421 190.708C9.66457 190.731 9.87741 190.811 10.06 190.94C10.5876 191.284 11.0266 191.748 11.3411 192.293C11.6556 192.839 11.8368 193.451 11.87 194.08C11.8947 194.305 11.8586 194.532 11.7653 194.738C11.6721 194.943 11.5252 195.12 11.34 195.25L10.45 195.75L10.29 195.49C10.1069 195.447 9.93155 195.376 9.77004 195.28C9.24376 194.937 8.80566 194.475 8.4912 193.931C8.17675 193.387 7.99478 192.777 7.96004 192.15C7.95773 191.991 7.97794 191.833 8.02004 191.68L7.79004 191.36Z" fill="#BA68C8"/>
<path opacity="0.2" d="M7.79004 191.36L8.79004 190.81C8.99503 190.721 9.21962 190.686 9.4421 190.708C9.66457 190.731 9.87741 190.811 10.06 190.94C10.5876 191.284 11.0266 191.748 11.3411 192.293C11.6556 192.839 11.8368 193.451 11.87 194.08C11.8947 194.305 11.8586 194.532 11.7653 194.738C11.6721 194.943 11.5252 195.12 11.34 195.25L10.45 195.75L10.29 195.49C10.1069 195.447 9.93155 195.376 9.77004 195.28C9.24376 194.937 8.80566 194.475 8.4912 193.931C8.17675 193.387 7.99478 192.777 7.96004 192.15C7.95773 191.991 7.97794 191.833 8.02004 191.68L7.79004 191.36Z" fill="black"/>
<path d="M9.11005 191.46C9.63764 191.804 10.0766 192.268 10.3911 192.813C10.7056 193.359 10.8868 193.971 10.92 194.6C10.92 195.76 10.1101 196.22 9.11005 195.6C8.58246 195.256 8.14353 194.792 7.82901 194.247C7.51449 193.701 7.33325 193.089 7.30005 192.46C7.30005 191.35 8.11005 190.88 9.11005 191.46Z" fill="#BA68C8"/>
<g opacity="0.75">
<path d="M5.80998 159.54L13.16 163.76C13.767 164.156 14.2725 164.689 14.6356 165.316C14.9987 165.943 15.2091 166.646 15.25 167.37V171.59C15.25 172.92 14.31 173.46 13.16 172.79L5.80998 168.57C5.20891 168.178 4.70777 167.651 4.34661 167.032C3.98545 166.412 3.77428 165.716 3.72998 165V160.78C3.72998 159.41 4.65998 158.87 5.80998 159.54Z" fill="white"/>
</g>
<path d="M7.79004 164.3L8.79004 163.74C8.99436 163.648 9.21949 163.611 9.44256 163.634C9.66562 163.657 9.87867 163.738 10.06 163.87C10.5807 164.216 11.013 164.68 11.3221 165.223C11.6313 165.767 11.8087 166.375 11.84 167C11.8647 167.225 11.8286 167.452 11.7353 167.658C11.6421 167.863 11.4952 168.04 11.31 168.17L10.42 168.68L10.26 168.41C10.0773 168.371 9.9018 168.304 9.74004 168.21C9.21245 167.866 8.77352 167.402 8.459 166.857C8.14448 166.311 7.96324 165.699 7.93004 165.07C7.92828 164.915 7.94848 164.76 7.99004 164.61L7.79004 164.3Z" fill="#BA68C8"/>
<path opacity="0.2" d="M7.79004 164.3L8.79004 163.74C8.99436 163.648 9.21949 163.611 9.44256 163.634C9.66562 163.657 9.87867 163.738 10.06 163.87C10.5807 164.216 11.013 164.68 11.3221 165.223C11.6313 165.767 11.8087 166.375 11.84 167C11.8647 167.225 11.8286 167.452 11.7353 167.658C11.6421 167.863 11.4952 168.04 11.31 168.17L10.42 168.68L10.26 168.41C10.0773 168.371 9.9018 168.304 9.74004 168.21C9.21245 167.866 8.77352 167.402 8.459 166.857C8.14448 166.311 7.96324 165.699 7.93004 165.07C7.92828 164.915 7.94848 164.76 7.99004 164.61L7.79004 164.3Z" fill="black"/>
<path d="M9.11005 164.4C9.63764 164.744 10.0766 165.208 10.3911 165.753C10.7056 166.299 10.8868 166.911 10.92 167.54C10.92 168.69 10.1101 169.16 9.11005 168.54C8.58246 168.196 8.14353 167.732 7.82901 167.187C7.51449 166.641 7.33325 166.029 7.30005 165.4C7.30005 164.29 8.11005 163.82 9.11005 164.4Z" fill="#BA68C8"/>
<path d="M119.79 241.33L88.79 259.24C88.1829 259.636 87.6774 260.168 87.3143 260.796C86.9513 261.423 86.7408 262.126 86.7 262.85V267.07C86.7 268.4 87.64 268.94 88.79 268.27L119.79 250.36C120.396 249.964 120.9 249.43 121.261 248.803C121.622 248.176 121.831 247.473 121.87 246.75V242.53C121.87 241.2 120.94 240.66 119.79 241.33Z" fill="#455A64"/>
<path d="M119.67 244.9V247C119.663 247.144 119.622 247.284 119.551 247.409C119.48 247.534 119.38 247.64 119.26 247.72L118.79 247.99C118.56 248.12 118.37 247.99 118.37 247.75V245.7C118.379 245.556 118.422 245.415 118.495 245.29C118.568 245.165 118.669 245.059 118.79 244.98L119.26 244.71C119.49 244.53 119.67 244.63 119.67 244.9Z" fill="#BA68C8"/>
<path d="M117.57 246.11V248.16C117.562 248.305 117.52 248.446 117.447 248.571C117.374 248.696 117.272 248.802 117.15 248.88L116.68 249.15C116.45 249.29 116.26 249.15 116.26 248.91V246.91C116.268 246.764 116.311 246.622 116.384 246.495C116.457 246.368 116.558 246.26 116.68 246.18L117.15 245.91C117.38 245.74 117.57 245.85 117.57 246.11Z" fill="#BA68C8"/>
<path d="M115.46 247.33V249.38C115.45 249.524 115.407 249.664 115.334 249.789C115.261 249.914 115.161 250.02 115.04 250.1L114.57 250.37C114.34 250.5 114.16 250.37 114.16 250.13V248.08C114.167 247.936 114.208 247.796 114.279 247.671C114.35 247.546 114.45 247.439 114.57 247.36L115.04 247.09C115.27 247 115.46 247.06 115.46 247.33Z" fill="#BA68C8"/>
<path d="M113.35 248.54V250.54C113.344 250.685 113.303 250.827 113.23 250.952C113.156 251.078 113.054 251.183 112.93 251.26L112.47 251.53C112.24 251.67 112.05 251.53 112.05 251.29V249.29C112.058 249.144 112.101 249.002 112.174 248.875C112.247 248.749 112.348 248.641 112.47 248.56L112.93 248.29C113.17 248.17 113.35 248.28 113.35 248.54Z" fill="#37474F"/>
<path d="M111.24 249.76V251.76C111.233 251.905 111.193 252.047 111.122 252.174C111.051 252.301 110.951 252.409 110.83 252.49L110.36 252.76C110.13 252.89 109.94 252.76 109.94 252.52V250.47C109.948 250.325 109.99 250.184 110.063 250.059C110.136 249.934 110.238 249.828 110.36 249.75L110.83 249.48C111.06 249.38 111.24 249.49 111.24 249.76Z" fill="#37474F"/>
<path d="M109.14 251V253C109.131 253.144 109.088 253.285 109.015 253.41C108.942 253.535 108.841 253.641 108.72 253.72L108.25 253.99C108.02 254.12 107.84 253.99 107.84 253.75V251.75C107.848 251.606 107.889 251.467 107.96 251.342C108.032 251.217 108.131 251.11 108.25 251.03L108.72 250.76C109 250.6 109.14 250.71 109.14 251Z" fill="#BA68C8"/>
<path d="M107 252.19V254.19C106.992 254.336 106.949 254.478 106.876 254.605C106.803 254.731 106.702 254.839 106.58 254.92L106.12 255.19C105.89 255.32 105.7 255.19 105.7 254.95V252.9C105.708 252.755 105.75 252.614 105.823 252.489C105.896 252.364 105.998 252.258 106.12 252.18L106.58 251.91C106.84 251.81 107 251.92 107 252.19Z" fill="#BA68C8"/>
<path d="M104.92 253.4V255.45C104.913 255.594 104.872 255.734 104.801 255.859C104.73 255.984 104.63 256.09 104.51 256.17L104.04 256.44C103.81 256.57 103.62 256.44 103.62 256.2V254.15C103.629 254.006 103.672 253.865 103.745 253.74C103.818 253.615 103.919 253.509 104.04 253.43L104.51 253.16C104.74 253 104.92 253.14 104.92 253.4Z" fill="#BA68C8"/>
<path d="M102.82 254.62V256.62C102.812 256.765 102.77 256.906 102.697 257.031C102.624 257.156 102.522 257.262 102.4 257.34L101.93 257.61C101.7 257.75 101.51 257.61 101.51 257.37V255.37C101.518 255.225 101.56 255.084 101.633 254.959C101.706 254.834 101.808 254.728 101.93 254.65L102.4 254.38C102.63 254.24 102.82 254.35 102.82 254.62Z" fill="#BA68C8"/>
<path d="M100.71 255.83V257.88C100.701 258.024 100.658 258.165 100.585 258.29C100.512 258.415 100.411 258.521 100.29 258.6L99.8199 258.87C99.5899 259 99.4099 258.87 99.4099 258.63V256.58C99.4172 256.436 99.4581 256.296 99.5293 256.171C99.6005 256.046 99.7 255.939 99.8199 255.86L100.29 255.59C100.52 255.46 100.71 255.57 100.71 255.83Z" fill="#BA68C8"/>
<path d="M98.6 257.05V259.05C98.5944 259.194 98.5542 259.335 98.4828 259.46C98.4115 259.585 98.3111 259.691 98.19 259.77L97.72 260.04C97.49 260.18 97.3 260.04 97.3 259.8V257.8C97.3076 257.655 97.3497 257.514 97.4228 257.389C97.4958 257.264 97.5977 257.158 97.72 257.08L98.19 256.8C98.42 256.67 98.6 256.78 98.6 257.05Z" fill="#BA68C8"/>
<path d="M96.4999 258.26V260.31C96.4908 260.454 96.448 260.595 96.3751 260.72C96.3022 260.845 96.2011 260.951 96.0799 261.03L95.6099 261.3C95.3799 261.43 95.1899 261.3 95.1899 261.06V259C95.1991 258.855 95.2418 258.715 95.3148 258.59C95.3877 258.465 95.4887 258.359 95.6099 258.28L96.0799 258.01C96.3099 257.89 96.4999 258 96.4999 258.26Z" fill="#BA68C8"/>
<path d="M94.3901 259.47V261.47C94.3825 261.615 94.3404 261.756 94.2674 261.881C94.1943 262.006 94.0924 262.112 93.9701 262.19L93.5001 262.46C93.2701 262.6 93.0901 262.46 93.0901 262.22V260.22C93.0966 260.075 93.1371 259.933 93.2083 259.806C93.2795 259.679 93.3794 259.571 93.5001 259.49L93.9701 259.22C94.2001 259.1 94.3901 259.21 94.3901 259.47Z" fill="#37474F"/>
<path d="M92.28 260.69V262.69C92.2735 262.835 92.233 262.977 92.1618 263.104C92.0906 263.23 91.9906 263.339 91.87 263.42L91.4 263.69C91.17 263.82 90.98 263.69 90.98 263.45V261.4C90.9891 261.256 91.0319 261.115 91.1048 260.99C91.1777 260.865 91.2788 260.759 91.4 260.68L91.87 260.41C92.1 260.32 92.28 260.42 92.28 260.69Z" fill="#BA68C8"/>
<path d="M90.1801 261.9V264C90.1725 264.145 90.1305 264.286 90.0574 264.411C89.9843 264.536 89.8824 264.642 89.7601 264.72L89.2901 264.99C89.0601 265.13 88.8701 264.99 88.8701 264.75V262.75C88.8785 262.604 88.9209 262.462 88.9938 262.335C89.0667 262.208 89.1682 262.1 89.2901 262.02L89.7601 261.75C90.0001 261.53 90.1801 261.64 90.1801 261.9Z" fill="#BA68C8"/>
<path d="M119.79 214.24L88.79 232.15C88.1829 232.546 87.6774 233.078 87.3143 233.706C86.9513 234.333 86.7408 235.036 86.7 235.76V240C86.7 241.33 87.64 241.87 88.79 241.2L119.79 223.29C120.396 222.894 120.901 222.361 121.262 221.734C121.624 221.107 121.832 220.403 121.87 219.68V215.46C121.87 214.11 120.94 213.57 119.79 214.24Z" fill="#455A64"/>
<path d="M119.67 217.81V219.86C119.663 220.004 119.622 220.144 119.551 220.269C119.48 220.394 119.38 220.5 119.26 220.58L118.79 220.85C118.56 220.98 118.37 220.85 118.37 220.61V218.56C118.379 218.415 118.422 218.275 118.495 218.15C118.568 218.025 118.669 217.919 118.79 217.84L119.26 217.57C119.49 217.44 119.67 217.55 119.67 217.81Z" fill="#BA68C8"/>
<path d="M117.57 219V221C117.562 221.145 117.52 221.286 117.447 221.411C117.374 221.536 117.272 221.642 117.15 221.72L116.68 221.99C116.45 222.13 116.26 221.99 116.26 221.75V219.75C116.268 219.605 116.31 219.464 116.383 219.339C116.456 219.214 116.558 219.108 116.68 219.03L117.15 218.76C117.38 218.65 117.57 218.76 117.57 219Z" fill="#37474F"/>
<path d="M115.46 220.24V222.29C115.451 222.434 115.408 222.575 115.335 222.7C115.262 222.825 115.161 222.931 115.04 223.01L114.57 223.28C114.34 223.41 114.16 223.28 114.16 223.04V221C114.167 220.856 114.208 220.716 114.279 220.591C114.35 220.466 114.45 220.359 114.57 220.28L115 220C115.27 219.87 115.46 220 115.46 220.24Z" fill="#BA68C8"/>
<path d="M113.35 221.45V223.5C113.344 223.645 113.303 223.787 113.23 223.912C113.156 224.038 113.054 224.143 112.93 224.22L112.47 224.49C112.24 224.63 112.05 224.49 112.05 224.25V222.25C112.058 222.104 112.101 221.962 112.174 221.835C112.247 221.709 112.348 221.601 112.47 221.52L112.93 221.25C113.17 221.08 113.35 221.19 113.35 221.45Z" fill="#37474F"/>
<path d="M111.24 222.67V224.72C111.232 224.863 111.191 225.003 111.12 225.128C111.048 225.253 110.949 225.36 110.83 225.44L110.36 225.71C110.13 225.84 109.94 225.71 109.94 225.47V223.42C109.949 223.276 109.992 223.135 110.065 223.01C110.138 222.885 110.239 222.779 110.36 222.7L110.83 222.43C111.06 222.3 111.24 222.4 111.24 222.67Z" fill="#37474F"/>
<path d="M109.14 223.88V225.93C109.133 226.075 109.09 226.216 109.017 226.341C108.944 226.466 108.842 226.572 108.72 226.65L108.25 226.92C108.02 227.06 107.84 226.92 107.84 226.68V224.68C107.847 224.535 107.887 224.393 107.958 224.266C108.03 224.139 108.129 224.031 108.25 223.95L108.72 223.68C109 223.51 109.14 223.62 109.14 223.88Z" fill="#BA68C8"/>
<path d="M107 225.1V227.1C106.992 227.246 106.949 227.388 106.876 227.515C106.803 227.641 106.702 227.749 106.58 227.83L106.12 228.1C105.89 228.23 105.7 228.1 105.7 227.86V225.86C105.708 225.715 105.75 225.574 105.823 225.449C105.896 225.324 105.998 225.218 106.12 225.14L106.58 224.87C106.84 224.72 107 224.83 107 225.1Z" fill="#BA68C8"/>
<path d="M104.92 226.31V228.36C104.913 228.504 104.872 228.644 104.801 228.769C104.73 228.894 104.63 229 104.51 229.08L104.04 229.35C103.81 229.48 103.62 229.35 103.62 229.11V227.11C103.629 226.964 103.671 226.822 103.744 226.695C103.817 226.569 103.918 226.461 104.04 226.38L104.51 226.11C104.74 225.94 104.92 226.05 104.92 226.31Z" fill="#BA68C8"/>
<path d="M102.82 227.53V229.53C102.812 229.676 102.769 229.818 102.696 229.945C102.623 230.071 102.522 230.179 102.4 230.26L101.93 230.53C101.7 230.66 101.51 230.53 101.51 230.29V228.24C101.518 228.095 101.56 227.954 101.633 227.829C101.706 227.704 101.808 227.598 101.93 227.52L102.4 227.25C102.63 227.15 102.82 227.26 102.82 227.53Z" fill="#37474F"/>
<path d="M100.71 228.74V230.79C100.701 230.934 100.658 231.075 100.585 231.2C100.512 231.325 100.411 231.431 100.29 231.51L99.8199 231.78C99.5899 231.91 99.4099 231.78 99.4099 231.54V229.49C99.4172 229.346 99.4581 229.206 99.5293 229.081C99.6005 228.956 99.7 228.85 99.8199 228.77L100.29 228.5C100.52 228.37 100.71 228.48 100.71 228.74Z" fill="#BA68C8"/>
<path d="M98.6 230V232C98.5944 232.144 98.5542 232.285 98.4828 232.41C98.4115 232.535 98.3111 232.642 98.19 232.72L97.72 233C97.49 233.13 97.3 233 97.3 232.75V230.75C97.3076 230.605 97.3497 230.464 97.4228 230.339C97.4958 230.214 97.5977 230.108 97.72 230.03L98.19 229.76C98.42 229.58 98.6 229.69 98.6 230Z" fill="#37474F"/>
<path d="M96.4999 231.17V233.22C96.4908 233.364 96.448 233.505 96.3751 233.63C96.3022 233.755 96.2011 233.861 96.0799 233.94L95.6099 234.21C95.3799 234.34 95.1899 234.21 95.1899 233.97V231.92C95.1991 231.776 95.2418 231.635 95.3148 231.51C95.3877 231.385 95.4887 231.279 95.6099 231.2L96.0799 230.93C96.3099 230.8 96.4999 230.91 96.4999 231.17Z" fill="#BA68C8"/>
<path d="M94.3901 232.39V234.39C94.3825 234.535 94.3404 234.676 94.2674 234.801C94.1943 234.926 94.0924 235.032 93.9701 235.11L93.5001 235.38C93.2701 235.52 93.0901 235.38 93.0901 235.14V233.14C93.0958 232.996 93.136 232.855 93.2073 232.73C93.2787 232.605 93.3791 232.498 93.5001 232.42L93.9701 232.14C94.2001 232 94.3901 232.12 94.3901 232.39Z" fill="#37474F"/>
<path d="M92.28 233.6V235.6C92.2727 235.744 92.2318 235.884 92.1606 236.009C92.0894 236.134 91.9899 236.24 91.87 236.32L91.4 236.59C91.17 236.72 90.98 236.59 90.98 236.35V234.35C90.9891 234.205 91.0319 234.065 91.1048 233.94C91.1777 233.815 91.2788 233.709 91.4 233.63L91.87 233.36C92.1 233.23 92.28 233.33 92.28 233.6Z" fill="#BA68C8"/>
<path d="M90.1801 234.81V236.86C90.1725 237.005 90.1305 237.146 90.0574 237.271C89.9843 237.396 89.8824 237.502 89.7601 237.58L89.2901 237.85C89.0601 237.99 88.8701 237.85 88.8701 237.61V235.61C88.8785 235.464 88.9209 235.322 88.9938 235.195C89.0667 235.069 89.1682 234.961 89.2901 234.88L89.7601 234.61C90.0001 234.44 90.1801 234.55 90.1801 234.81Z" fill="#BA68C8"/>
<path d="M119.79 187.12L88.79 205.03C88.1829 205.426 87.6774 205.959 87.3143 206.586C86.9513 207.213 86.7408 207.916 86.7 208.64V212.86C86.7 214.19 87.64 214.73 88.79 214.06L119.79 196.15C120.396 195.754 120.901 195.221 121.262 194.594C121.624 193.967 121.832 193.263 121.87 192.54V188.32C121.87 187 120.94 186.45 119.79 187.12Z" fill="#455A64"/>
<path d="M119.67 190.69V192.74C119.663 192.884 119.622 193.024 119.551 193.149C119.48 193.274 119.38 193.38 119.26 193.46L118.79 193.73C118.56 193.86 118.37 193.73 118.37 193.49V191.44C118.379 191.296 118.422 191.155 118.495 191.03C118.568 190.905 118.669 190.799 118.79 190.72L119.26 190.45C119.49 190.32 119.67 190.43 119.67 190.69Z" fill="#BA68C8"/>
<path d="M117.57 191.91V193.91C117.562 194.055 117.52 194.196 117.447 194.321C117.374 194.446 117.272 194.552 117.15 194.63L116.68 194.9C116.45 195.04 116.26 194.9 116.26 194.66V192.66C116.268 192.515 116.31 192.374 116.383 192.249C116.456 192.124 116.558 192.018 116.68 191.94L117.15 191.67C117.38 191.53 117.57 191.64 117.57 191.91Z" fill="#BA68C8"/>
<path d="M115.46 193.12V195.17C115.451 195.314 115.408 195.455 115.335 195.58C115.262 195.705 115.161 195.811 115.04 195.89L114.57 196.16C114.34 196.29 114.16 196.16 114.16 195.92V193.87C114.167 193.726 114.208 193.586 114.279 193.461C114.35 193.336 114.45 193.229 114.57 193.15L115.04 192.88C115.27 192.75 115.46 192.85 115.46 193.12Z" fill="#BA68C8"/>
<path d="M113.35 194.33V196.38C113.344 196.525 113.303 196.667 113.23 196.792C113.156 196.918 113.054 197.023 112.93 197.1L112.47 197.37C112.24 197.51 112.05 197.37 112.05 197.13V195.13C112.058 194.984 112.101 194.842 112.174 194.715C112.247 194.588 112.348 194.481 112.47 194.4L112.93 194.13C113.17 194 113.35 194.07 113.35 194.33Z" fill="#BA68C8"/>
<path d="M111.24 195.55V197.6C111.232 197.744 111.191 197.883 111.12 198.008C111.048 198.133 110.949 198.24 110.83 198.32L110.36 198.59C110.13 198.72 109.94 198.59 109.94 198.35V196.3C109.949 196.156 109.992 196.015 110.065 195.89C110.138 195.765 110.239 195.659 110.36 195.58L110.83 195.31C111.06 195.18 111.24 195.28 111.24 195.55Z" fill="#37474F"/>
<path d="M109.14 196.76V198.81C109.133 198.955 109.09 199.096 109.017 199.221C108.944 199.346 108.842 199.452 108.72 199.53L108.25 199.8C108.02 199.94 107.84 199.8 107.84 199.56V197.56C107.847 197.415 107.887 197.273 107.958 197.146C108.03 197.019 108.129 196.911 108.25 196.83L108.72 196.56C109 196.39 109.14 196.5 109.14 196.76Z" fill="#37474F"/>
<path d="M107 198V200C106.992 200.146 106.949 200.288 106.876 200.415C106.803 200.541 106.702 200.649 106.58 200.73L106.12 201C105.89 201.13 105.7 201 105.7 200.76V198.76C105.708 198.615 105.75 198.474 105.823 198.349C105.896 198.224 105.998 198.118 106.12 198.04L106.58 197.77C106.84 197.6 107 197.71 107 198Z" fill="#BA68C8"/>
<path d="M104.92 199.19V201.24C104.913 201.384 104.872 201.524 104.801 201.649C104.73 201.774 104.63 201.88 104.51 201.96L104.04 202.23C103.81 202.36 103.62 202.23 103.62 201.99V199.94C103.63 199.796 103.673 199.656 103.746 199.531C103.819 199.406 103.919 199.3 104.04 199.22L104.51 198.95C104.74 198.82 104.92 198.93 104.92 199.19Z" fill="#BA68C8"/>
<path d="M102.82 200.41V202.41C102.812 202.556 102.769 202.698 102.696 202.825C102.623 202.951 102.522 203.059 102.4 203.14L101.93 203.41C101.7 203.54 101.51 203.41 101.51 203.17V201.17C101.518 201.025 101.56 200.884 101.633 200.759C101.706 200.634 101.808 200.528 101.93 200.45L102.4 200.18C102.63 200 102.82 200.14 102.82 200.41Z" fill="#BA68C8"/>
<path d="M100.71 201.62V203.67C100.701 203.814 100.658 203.955 100.585 204.08C100.512 204.205 100.411 204.311 100.29 204.39L99.8199 204.66C99.5899 204.79 99.4099 204.66 99.4099 204.42V202.37C99.4172 202.226 99.4581 202.086 99.5293 201.961C99.6005 201.836 99.7 201.73 99.8199 201.65L100.29 201.38C100.52 201.25 100.71 201.36 100.71 201.62Z" fill="#37474F"/>
<path d="M98.6 202.84V204.84C98.5944 204.984 98.5542 205.125 98.4828 205.25C98.4115 205.375 98.3111 205.482 98.19 205.56L97.72 205.84C97.49 205.97 97.3 205.84 97.3 205.59V203.59C97.3076 203.445 97.3497 203.304 97.4228 203.179C97.4958 203.054 97.5977 202.948 97.72 202.87L98.19 202.6C98.42 202.46 98.6 202.57 98.6 202.84Z" fill="#BA68C8"/>
<path d="M96.4999 204.05V206.1C96.4908 206.244 96.448 206.385 96.3751 206.51C96.3022 206.635 96.2011 206.741 96.0799 206.82L95.6099 207.09C95.3799 207.22 95.1899 207.09 95.1899 206.85V204.8C95.1991 204.655 95.2418 204.515 95.3148 204.39C95.3877 204.265 95.4887 204.159 95.6099 204.08L96.0799 203.81C96.3099 203.68 96.4999 203.79 96.4999 204.05Z" fill="#BA68C8"/>
<path d="M94.3901 205.27V207.27C94.3825 207.415 94.3404 207.556 94.2674 207.681C94.1943 207.806 94.0924 207.912 93.9701 207.99L93.5001 208.26C93.2701 208.4 93.0901 208.26 93.0901 208.02V206.02C93.0958 205.876 93.136 205.735 93.2073 205.61C93.2787 205.485 93.3791 205.378 93.5001 205.3L94.0001 205C94.2001 204.89 94.3901 205 94.3901 205.27Z" fill="#37474F"/>
<path d="M92.28 206.48V208.48C92.2727 208.624 92.2318 208.764 92.1606 208.889C92.0894 209.014 91.9899 209.12 91.87 209.2L91.4 209.47C91.17 209.6 90.98 209.47 90.98 209.23V207.23C90.9891 207.085 91.0319 206.945 91.1048 206.82C91.1777 206.695 91.2788 206.589 91.4 206.51L91.87 206.24C92.1 206.11 92.28 206.21 92.28 206.48Z" fill="#BA68C8"/>
<path d="M90.1801 207.69V209.74C90.1725 209.885 90.1305 210.026 90.0574 210.151C89.9843 210.276 89.8824 210.382 89.7601 210.46L89.2901 210.73C89.0601 210.87 88.8701 210.73 88.8701 210.49V208.49C88.8785 208.344 88.9209 208.202 88.9938 208.075C89.0667 207.949 89.1682 207.841 89.2901 207.76L89.7601 207.49C90.0001 207.32 90.1801 207.43 90.1801 207.69Z" fill="#37474F"/>
<path d="M119.79 160.05L88.79 177.96C88.1823 178.355 87.6764 178.888 87.3133 179.515C86.9502 180.142 86.74 180.846 86.7 181.57V185.79C86.7 187.12 87.64 187.66 88.79 186.99L119.79 169.08C120.396 168.684 120.9 168.151 121.261 167.523C121.622 166.896 121.831 166.193 121.87 165.47V161.25C121.87 159.92 120.94 159.38 119.79 160.05Z" fill="#455A64"/>
<path d="M119.67 163.62V165.62C119.664 165.765 119.623 165.907 119.552 166.034C119.481 166.16 119.381 166.269 119.26 166.35L118.79 166.62C118.56 166.75 118.37 166.62 118.37 166.38V164.33C118.378 164.185 118.42 164.044 118.493 163.919C118.566 163.794 118.668 163.688 118.79 163.61L119.26 163.34C119.49 163.24 119.67 163.35 119.67 163.62Z" fill="#BA68C8"/>
<path d="M117.57 164.83V166.88C117.561 167.024 117.518 167.165 117.445 167.29C117.372 167.415 117.271 167.521 117.15 167.6L116.68 167.87C116.45 168 116.26 167.87 116.26 167.63V165.58C116.27 165.436 116.313 165.296 116.386 165.171C116.459 165.046 116.559 164.94 116.68 164.86L117.15 164.59C117.38 164.46 117.57 164.57 117.57 164.83Z" fill="#37474F"/>
<path d="M115.46 166.05V168.05C115.452 168.196 115.409 168.338 115.336 168.465C115.263 168.591 115.162 168.699 115.04 168.78L114.57 169.05C114.34 169.18 114.16 169.05 114.16 168.81V166.8C114.166 166.656 114.206 166.515 114.277 166.39C114.348 166.265 114.449 166.158 114.57 166.08L115.04 165.81C115.27 165.67 115.46 165.78 115.46 166.05Z" fill="#BA68C8"/>
<path d="M113.35 167.26V169.31C113.343 169.455 113.302 169.596 113.228 169.721C113.155 169.847 113.053 169.953 112.93 170.03L112.47 170.3C112.24 170.43 112.05 170.3 112.05 170.06V168C112.059 167.855 112.102 167.715 112.175 167.59C112.248 167.465 112.349 167.359 112.47 167.28L112.93 167.01C113.17 166.89 113.35 167 113.35 167.26Z" fill="#BA68C8"/>
<path d="M111.24 168.48V170.48C111.234 170.624 111.194 170.765 111.123 170.89C111.051 171.015 110.951 171.122 110.83 171.2L110.36 171.47C110.13 171.61 109.94 171.47 109.94 171.23V169.23C109.948 169.085 109.99 168.944 110.063 168.819C110.136 168.694 110.238 168.588 110.36 168.51L110.83 168.24C111.06 168.1 111.24 168.21 111.24 168.48Z" fill="#BA68C8"/>
<path d="M109.14 169.69V171.74C109.131 171.884 109.088 172.025 109.015 172.15C108.942 172.275 108.841 172.381 108.72 172.46L108.25 172.73C108.02 172.86 107.84 172.73 107.84 172.49V170.44C107.847 170.296 107.888 170.156 107.959 170.031C108.031 169.906 108.13 169.8 108.25 169.72L108.72 169.45C109 169.32 109.14 169.42 109.14 169.69Z" fill="#37474F"/>
<path d="M107 170.91V172.91C106.992 173.055 106.95 173.196 106.877 173.321C106.804 173.446 106.702 173.552 106.58 173.63L106.12 173.9C105.89 174.04 105.7 173.9 105.7 173.66V171.66C105.708 171.515 105.75 171.374 105.823 171.249C105.896 171.124 105.998 171.018 106.12 170.94L106.58 170.66C106.84 170.53 107 170.64 107 170.91Z" fill="#37474F"/>
<path d="M104.92 172.12V174.17C104.912 174.313 104.871 174.453 104.8 174.578C104.729 174.703 104.629 174.81 104.51 174.89L104.04 175.16C103.81 175.29 103.62 175.16 103.62 174.92V172.87C103.629 172.725 103.672 172.585 103.745 172.46C103.818 172.335 103.919 172.229 104.04 172.15L104.51 171.88C104.74 171.75 104.92 171.85 104.92 172.12Z" fill="#BA68C8"/>
<path d="M102.82 173.33V175.38C102.812 175.525 102.77 175.666 102.697 175.791C102.624 175.916 102.522 176.022 102.4 176.1L101.93 176.37C101.7 176.51 101.51 176.37 101.51 176.13V174.13C101.518 173.984 101.561 173.842 101.634 173.715C101.707 173.588 101.808 173.481 101.93 173.4L102.4 173.13C102.63 173 102.82 173.07 102.82 173.33Z" fill="#37474F"/>
<path d="M100.71 174.55V176.55C100.702 176.696 100.659 176.838 100.586 176.965C100.513 177.091 100.412 177.199 100.29 177.28L99.8199 177.55C99.5899 177.68 99.4099 177.55 99.4099 177.31V175.3C99.4156 175.156 99.4558 175.015 99.5271 174.89C99.5985 174.765 99.6989 174.658 99.8199 174.58L100.29 174.31C100.52 174.18 100.71 174.28 100.71 174.55Z" fill="#BA68C8"/>
<path d="M98.6 175.76V177.81C98.5944 177.954 98.5542 178.095 98.4828 178.22C98.4115 178.345 98.3111 178.452 98.19 178.53L97.72 178.8C97.49 178.93 97.3 178.8 97.3 178.56V176.56C97.3085 176.414 97.3508 176.272 97.4237 176.145C97.4966 176.019 97.5981 175.911 97.72 175.83L98.19 175.56C98.42 175.39 98.6 175.5 98.6 175.76Z" fill="#BA68C8"/>
<path d="M96.4999 177V179C96.4915 179.146 96.4492 179.288 96.3763 179.415C96.3034 179.541 96.2019 179.649 96.0799 179.73L95.6099 180C95.3799 180.13 95.1899 180 95.1899 179.76V177.76C95.1975 177.615 95.2396 177.474 95.3127 177.349C95.3857 177.224 95.4876 177.118 95.6099 177.04L96.0799 176.77C96.3099 176.6 96.4999 176.71 96.4999 177Z" fill="#BA68C8"/>
<path d="M94.3901 178.19V180.24C94.3809 180.384 94.3382 180.525 94.2653 180.65C94.1924 180.775 94.0913 180.881 93.9701 180.96L93.5001 181.23C93.2701 181.36 93.0901 181.23 93.0901 180.99V178.94C93.0981 178.796 93.1393 178.657 93.2105 178.532C93.2816 178.407 93.3808 178.3 93.5001 178.22L94.0001 178C94.2001 177.82 94.3901 177.93 94.3901 178.19Z" fill="#37474F"/>
<path d="M92.28 179.41V181.41C92.2735 181.555 92.233 181.697 92.1618 181.824C92.0906 181.951 91.9906 182.059 91.87 182.14L91.4 182.41C91.17 182.54 90.98 182.41 90.98 182.16V180.16C90.9876 180.015 91.0296 179.874 91.1027 179.749C91.1757 179.624 91.2777 179.518 91.4 179.44L91.87 179.17C92.1 179 92.28 179.14 92.28 179.41Z" fill="#BA68C8"/>
<path d="M90.1801 180.62V182.67C90.1709 182.814 90.1282 182.955 90.0553 183.08C89.9824 183.205 89.8813 183.311 89.7601 183.39L89.2901 183.66C89.0601 183.79 88.8701 183.66 88.8701 183.42V181.37C88.8793 181.226 88.922 181.085 88.9949 180.96C89.0678 180.835 89.1689 180.729 89.2901 180.65L89.7601 180.38C90.0001 180.25 90.1801 180.36 90.1801 180.62Z" fill="#BA68C8"/>
<path d="M81.13 267L80.13 266.45C79.9266 266.356 79.7019 266.318 79.4789 266.339C79.2558 266.36 79.0423 266.44 78.86 266.57C78.3324 266.914 77.8935 267.378 77.579 267.923C77.2645 268.469 77.0832 269.081 77.05 269.71C77.0253 269.935 77.0615 270.162 77.1547 270.368C77.248 270.573 77.3949 270.75 77.58 270.88L78.47 271.39L78.63 271.12C78.8108 271.075 78.9855 271.007 79.15 270.92C79.6776 270.576 80.1165 270.112 80.4311 269.567C80.7456 269.021 80.9268 268.409 80.96 267.78C80.9617 267.621 80.9415 267.463 80.9 267.31L81.13 267Z" fill="#BA68C8"/>
<path opacity="0.4" d="M81.13 267L80.13 266.45C79.9266 266.356 79.7019 266.318 79.4789 266.339C79.2558 266.36 79.0423 266.44 78.86 266.57C78.3324 266.914 77.8935 267.378 77.579 267.923C77.2645 268.469 77.0832 269.081 77.05 269.71C77.0253 269.935 77.0615 270.162 77.1547 270.368C77.248 270.573 77.3949 270.75 77.58 270.88L78.47 271.39L78.63 271.12C78.8108 271.075 78.9855 271.007 79.15 270.92C79.6776 270.576 80.1165 270.112 80.4311 269.567C80.7456 269.021 80.9268 268.409 80.96 267.78C80.9617 267.621 80.9415 267.463 80.9 267.31L81.13 267Z" fill="black"/>
<path d="M79.81 267.06C79.2824 267.404 78.8435 267.868 78.529 268.413C78.2144 268.959 78.0332 269.571 78 270.2C78 271.36 78.81 271.82 79.81 271.25C80.3376 270.906 80.7765 270.442 81.091 269.897C81.4056 269.351 81.5868 268.739 81.62 268.11C81.62 267 80.81 266.49 79.81 267.06Z" fill="#BA68C8"/>
<path opacity="0.2" d="M79.81 267.06C79.2824 267.404 78.8435 267.868 78.529 268.413C78.2144 268.959 78.0332 269.571 78 270.2C78 271.36 78.81 271.82 79.81 271.25C80.3376 270.906 80.7765 270.442 81.091 269.897C81.4056 269.351 81.5868 268.739 81.62 268.11C81.62 267 80.81 266.49 79.81 267.06Z" fill="black"/>
<path d="M73.2599 271.5L72.2599 270.95C72.0532 270.861 71.827 270.826 71.603 270.848C71.3789 270.871 71.1645 270.951 70.9799 271.08C70.4523 271.424 70.0134 271.888 69.6989 272.433C69.3843 272.979 69.2031 273.591 69.1699 274.22C69.1452 274.445 69.1814 274.672 69.2746 274.878C69.3679 275.083 69.5148 275.26 69.6999 275.39L70.5899 275.9L70.7499 275.64C70.9336 275.599 71.1092 275.528 71.2699 275.43C71.7962 275.087 72.2343 274.625 72.5487 274.081C72.8632 273.537 73.0452 272.927 73.0799 272.3C73.0802 272.142 73.0635 271.984 73.0299 271.83L73.2599 271.5Z" fill="#BA68C8"/>
<path opacity="0.4" d="M73.2599 271.5L72.2599 270.95C72.0532 270.861 71.827 270.826 71.603 270.848C71.3789 270.871 71.1645 270.951 70.9799 271.08C70.4523 271.424 70.0134 271.888 69.6989 272.433C69.3843 272.979 69.2031 273.591 69.1699 274.22C69.1452 274.445 69.1814 274.672 69.2746 274.878C69.3679 275.083 69.5148 275.26 69.6999 275.39L70.5899 275.9L70.7499 275.64C70.9336 275.599 71.1092 275.528 71.2699 275.43C71.7962 275.087 72.2343 274.625 72.5487 274.081C72.8632 273.537 73.0452 272.927 73.0799 272.3C73.0802 272.142 73.0635 271.984 73.0299 271.83L73.2599 271.5Z" fill="black"/>
<path d="M71.9401 271.6C71.4125 271.944 70.9736 272.408 70.6591 272.953C70.3446 273.499 70.1633 274.111 70.1301 274.74C70.1301 275.9 70.9401 276.36 71.9401 275.79C72.4677 275.446 72.9066 274.982 73.2212 274.437C73.5357 273.891 73.7169 273.279 73.7501 272.65C73.7501 271.49 72.9401 271 71.9401 271.6Z" fill="#BA68C8"/>
<path opacity="0.2" d="M71.9401 271.6C71.4125 271.944 70.9736 272.408 70.6591 272.953C70.3446 273.499 70.1633 274.111 70.1301 274.74C70.1301 275.9 70.9401 276.36 71.9401 275.79C72.4677 275.446 72.9066 274.982 73.2212 274.437C73.5357 273.891 73.7169 273.279 73.7501 272.65C73.7501 271.49 72.9401 271 71.9401 271.6Z" fill="black"/>
<path d="M81.13 239.87L80.13 239.31C79.9257 239.218 79.7006 239.181 79.4775 239.204C79.2544 239.227 79.0414 239.308 78.86 239.44C78.3324 239.784 77.8935 240.248 77.579 240.793C77.2645 241.339 77.0832 241.951 77.05 242.58C77.0253 242.805 77.0615 243.032 77.1547 243.238C77.248 243.443 77.3949 243.62 77.58 243.75L78.47 244.26L78.63 243.99C78.8136 243.954 78.9895 243.886 79.15 243.79C79.6776 243.446 80.1165 242.982 80.4311 242.437C80.7456 241.891 80.9268 241.279 80.96 240.65C80.9618 240.495 80.9416 240.34 80.9 240.19L81.13 239.87Z" fill="#BA68C8"/>
<path opacity="0.4" d="M81.13 239.87L80.13 239.31C79.9257 239.218 79.7006 239.181 79.4775 239.204C79.2544 239.227 79.0414 239.308 78.86 239.44C78.3324 239.784 77.8935 240.248 77.579 240.793C77.2645 241.339 77.0832 241.951 77.05 242.58C77.0253 242.805 77.0615 243.032 77.1547 243.238C77.248 243.443 77.3949 243.62 77.58 243.75L78.47 244.26L78.63 243.99C78.8136 243.954 78.9895 243.886 79.15 243.79C79.6776 243.446 80.1165 242.982 80.4311 242.437C80.7456 241.891 80.9268 241.279 80.96 240.65C80.9618 240.495 80.9416 240.34 80.9 240.19L81.13 239.87Z" fill="black"/>
<path d="M79.81 240C79.2824 240.344 78.8435 240.807 78.529 241.353C78.2144 241.899 78.0332 242.511 78 243.14C78 244.29 78.81 244.76 79.81 244.14C80.3363 243.797 80.7744 243.335 81.0888 242.791C81.4033 242.247 81.5853 241.637 81.62 241.01C81.62 239.86 80.81 239.39 79.81 240Z" fill="#BA68C8"/>
<path opacity="0.2" d="M79.81 240C79.2824 240.344 78.8435 240.807 78.529 241.353C78.2144 241.899 78.0332 242.511 78 243.14C78 244.29 78.81 244.76 79.81 244.14C80.3363 243.797 80.7744 243.335 81.0888 242.791C81.4033 242.247 81.5853 241.637 81.62 241.01C81.62 239.86 80.81 239.39 79.81 240Z" fill="black"/>
<path d="M73.2599 244.41L72.2599 243.85C72.0548 243.764 71.831 243.733 71.6102 243.759C71.3894 243.786 71.1792 243.868 70.9999 244C70.4723 244.344 70.0334 244.808 69.7189 245.353C69.4044 245.899 69.2231 246.511 69.1899 247.14C69.1652 247.365 69.2014 247.592 69.2946 247.798C69.3879 248.003 69.5348 248.18 69.7199 248.31L70.6099 248.82L70.7699 248.55C70.9532 248.513 71.1289 248.445 71.2899 248.35C71.8175 248.006 72.2564 247.542 72.571 246.997C72.8855 246.451 73.0667 245.839 73.0999 245.21C73.0998 245.055 73.083 244.901 73.0499 244.75L73.2599 244.41Z" fill="#BA68C8"/>
<path opacity="0.4" d="M73.2599 244.41L72.2599 243.85C72.0548 243.764 71.831 243.733 71.6102 243.759C71.3894 243.786 71.1792 243.868 70.9999 244C70.4723 244.344 70.0334 244.808 69.7189 245.353C69.4044 245.899 69.2231 246.511 69.1899 247.14C69.1652 247.365 69.2014 247.592 69.2946 247.798C69.3879 248.003 69.5348 248.18 69.7199 248.31L70.6099 248.82L70.7699 248.55C70.9532 248.513 71.1289 248.445 71.2899 248.35C71.8175 248.006 72.2564 247.542 72.571 246.997C72.8855 246.451 73.0667 245.839 73.0999 245.21C73.0998 245.055 73.083 244.901 73.0499 244.75L73.2599 244.41Z" fill="black"/>
<path d="M71.9401 244.51C71.4125 244.854 70.9736 245.318 70.6591 245.863C70.3446 246.409 70.1633 247.021 70.1301 247.65C70.1301 248.8 70.9401 249.27 71.9401 248.65C72.4677 248.306 72.9066 247.842 73.2212 247.297C73.5357 246.751 73.7169 246.139 73.7501 245.51C73.7501 244.4 72.9401 243.93 71.9401 244.51Z" fill="#BA68C8"/>
<path opacity="0.2" d="M71.9401 244.51C71.4125 244.854 70.9736 245.318 70.6591 245.863C70.3446 246.409 70.1633 247.021 70.1301 247.65C70.1301 248.8 70.9401 249.27 71.9401 248.65C72.4677 248.306 72.9066 247.842 73.2212 247.297C73.5357 246.751 73.7169 246.139 73.7501 245.51C73.7501 244.4 72.9401 243.93 71.9401 244.51Z" fill="black"/>
<path d="M81.1299 212.77L80.1299 212.22C79.9261 212.126 79.7006 212.088 79.4771 212.111C79.2536 212.134 79.0404 212.216 78.8599 212.35C78.3323 212.694 77.8934 213.158 77.5789 213.703C77.2644 214.249 77.0831 214.861 77.0499 215.49C77.0263 215.714 77.063 215.941 77.1561 216.147C77.2493 216.353 77.3956 216.53 77.5799 216.66L78.4699 217.17L78.6299 216.9C78.8108 216.855 78.9854 216.788 79.1499 216.7C79.6775 216.356 80.1165 215.892 80.431 215.347C80.7455 214.801 80.9267 214.189 80.9599 213.56C80.9617 213.405 80.9415 213.25 80.8999 213.1L81.1299 212.77Z" fill="#BA68C8"/>
<path opacity="0.4" d="M81.1299 212.77L80.1299 212.22C79.9261 212.126 79.7006 212.088 79.4771 212.111C79.2536 212.134 79.0404 212.216 78.8599 212.35C78.3323 212.694 77.8934 213.158 77.5789 213.703C77.2644 214.249 77.0831 214.861 77.0499 215.49C77.0263 215.714 77.063 215.941 77.1561 216.147C77.2493 216.353 77.3956 216.53 77.5799 216.66L78.4699 217.17L78.6299 216.9C78.8108 216.855 78.9854 216.788 79.1499 216.7C79.6775 216.356 80.1165 215.892 80.431 215.347C80.7455 214.801 80.9267 214.189 80.9599 213.56C80.9617 213.405 80.9415 213.25 80.8999 213.1L81.1299 212.77Z" fill="black"/>
<path d="M79.81 212.88C79.285 213.222 78.8477 213.682 78.5334 214.224C78.219 214.766 78.0363 215.374 78 216C78 217.16 78.81 217.63 79.81 217.05C80.3376 216.706 80.7765 216.242 81.091 215.697C81.4056 215.151 81.5868 214.539 81.62 213.91C81.62 212.77 80.81 212.3 79.81 212.88Z" fill="#BA68C8"/>
<path opacity="0.2" d="M79.81 212.88C79.285 213.222 78.8477 213.682 78.5334 214.224C78.219 214.766 78.0363 215.374 78 216C78 217.16 78.81 217.63 79.81 217.05C80.3376 216.706 80.7765 216.242 81.091 215.697C81.4056 215.151 81.5868 214.539 81.62 213.91C81.62 212.77 80.81 212.3 79.81 212.88Z" fill="black"/>
<path d="M73.26 217.31L72.26 216.76C72.0544 216.666 71.8274 216.628 71.6024 216.651C71.3773 216.674 71.1625 216.756 70.98 216.89C70.4638 217.235 70.0351 217.696 69.7279 218.236C69.4207 218.776 69.2434 219.38 69.21 220C69.1856 220.226 69.2219 220.454 69.315 220.662C69.4082 220.869 69.5549 221.048 69.74 221.18L70.63 221.69L70.79 221.42C70.9719 221.378 71.1469 221.31 71.31 221.22C71.8376 220.876 72.2766 220.412 72.5911 219.867C72.9056 219.321 73.0868 218.709 73.12 218.08C73.1199 217.925 73.1031 217.771 73.07 217.62L73.26 217.31Z" fill="#BA68C8"/>
<path opacity="0.4" d="M73.26 217.31L72.26 216.76C72.0544 216.666 71.8274 216.628 71.6024 216.651C71.3773 216.674 71.1625 216.756 70.98 216.89C70.4638 217.235 70.0351 217.696 69.7279 218.236C69.4207 218.776 69.2434 219.38 69.21 220C69.1856 220.226 69.2219 220.454 69.315 220.662C69.4082 220.869 69.5549 221.048 69.74 221.18L70.63 221.69L70.79 221.42C70.9719 221.378 71.1469 221.31 71.31 221.22C71.8376 220.876 72.2766 220.412 72.5911 219.867C72.9056 219.321 73.0868 218.709 73.12 218.08C73.1199 217.925 73.1031 217.771 73.07 217.62L73.26 217.31Z" fill="black"/>
<path d="M71.9401 217.41C71.4125 217.754 70.9736 218.218 70.6591 218.763C70.3446 219.309 70.1633 219.921 70.1301 220.55C70.1301 221.71 70.9401 222.18 71.9401 221.6C72.4677 221.256 72.9066 220.792 73.2212 220.247C73.5357 219.701 73.7169 219.089 73.7501 218.46C73.7501 217.3 72.9401 216.84 71.9401 217.41Z" fill="#BA68C8"/>
<path opacity="0.2" d="M71.9401 217.41C71.4125 217.754 70.9736 218.218 70.6591 218.763C70.3446 219.309 70.1633 219.921 70.1301 220.55C70.1301 221.71 70.9401 222.18 71.9401 221.6C72.4677 221.256 72.9066 220.792 73.2212 220.247C73.5357 219.701 73.7169 219.089 73.7501 218.46C73.7501 217.3 72.9401 216.84 71.9401 217.41Z" fill="black"/>
<path d="M81.13 185.68L80.13 185.13C79.925 185.041 79.7004 185.006 79.478 185.028C79.2555 185.051 79.0427 185.131 78.86 185.26C78.3324 185.604 77.8935 186.068 77.579 186.613C77.2645 187.159 77.0832 187.771 77.05 188.4C77.0253 188.625 77.0615 188.852 77.1547 189.058C77.248 189.263 77.3949 189.44 77.58 189.57L78.47 190.08L78.63 189.82C78.8124 189.775 78.9874 189.704 79.15 189.61C79.6776 189.266 80.1165 188.802 80.4311 188.257C80.7456 187.711 80.9268 187.099 80.96 186.47C80.9618 186.315 80.9416 186.16 80.9 186.01L81.13 185.68Z" fill="#BA68C8"/>
<path opacity="0.4" d="M81.13 185.68L80.13 185.13C79.925 185.041 79.7004 185.006 79.478 185.028C79.2555 185.051 79.0427 185.131 78.86 185.26C78.3324 185.604 77.8935 186.068 77.579 186.613C77.2645 187.159 77.0832 187.771 77.05 188.4C77.0253 188.625 77.0615 188.852 77.1547 189.058C77.248 189.263 77.3949 189.44 77.58 189.57L78.47 190.08L78.63 189.82C78.8124 189.775 78.9874 189.704 79.15 189.61C79.6776 189.266 80.1165 188.802 80.4311 188.257C80.7456 187.711 80.9268 187.099 80.96 186.47C80.9618 186.315 80.9416 186.16 80.9 186.01L81.13 185.68Z" fill="black"/>
<path d="M79.81 185.78C79.2824 186.124 78.8435 186.588 78.529 187.133C78.2144 187.679 78.0332 188.291 78 188.92C78 190.07 78.81 190.54 79.81 189.92C80.3363 189.577 80.7744 189.115 81.0888 188.571C81.4033 188.027 81.5853 187.417 81.62 186.79C81.62 185.67 80.81 185.2 79.81 185.78Z" fill="#BA68C8"/>
<path opacity="0.2" d="M79.81 185.78C79.2824 186.124 78.8435 186.588 78.529 187.133C78.2144 187.679 78.0332 188.291 78 188.92C78 190.07 78.81 190.54 79.81 189.92C80.3363 189.577 80.7744 189.115 81.0888 188.571C81.4033 188.027 81.5853 187.417 81.62 186.79C81.62 185.67 80.81 185.2 79.81 185.78Z" fill="black"/>
<path d="M73.2599 190.22L72.2599 189.67C72.0538 189.578 71.8272 189.541 71.6025 189.564C71.3779 189.587 71.1632 189.668 70.9799 189.8C70.4523 190.144 70.0134 190.608 69.6989 191.153C69.3843 191.699 69.2031 192.311 69.1699 192.94C69.1452 193.165 69.1814 193.392 69.2746 193.598C69.3679 193.803 69.5148 193.98 69.6999 194.11L70.5899 194.62L70.7499 194.35C70.9344 194.317 71.1109 194.249 71.2699 194.15C71.7975 193.806 72.2364 193.342 72.5509 192.797C72.8655 192.251 73.0467 191.639 73.0799 191.01C73.0798 190.855 73.063 190.701 73.0299 190.55L73.2599 190.22Z" fill="#BA68C8"/>
<path opacity="0.4" d="M73.2599 190.22L72.2599 189.67C72.0538 189.578 71.8272 189.541 71.6025 189.564C71.3779 189.587 71.1632 189.668 70.9799 189.8C70.4523 190.144 70.0134 190.608 69.6989 191.153C69.3843 191.699 69.2031 192.311 69.1699 192.94C69.1452 193.165 69.1814 193.392 69.2746 193.598C69.3679 193.803 69.5148 193.98 69.6999 194.11L70.5899 194.62L70.7499 194.35C70.9344 194.317 71.1109 194.249 71.2699 194.15C71.7975 193.806 72.2364 193.342 72.5509 192.797C72.8655 192.251 73.0467 191.639 73.0799 191.01C73.0798 190.855 73.063 190.701 73.0299 190.55L73.2599 190.22Z" fill="black"/>
<path d="M71.9401 190.32C71.4125 190.664 70.9736 191.128 70.6591 191.673C70.3446 192.219 70.1633 192.831 70.1301 193.46C70.1301 194.61 70.9401 195.08 71.9401 194.46C72.4664 194.117 72.9045 193.655 73.219 193.111C73.5334 192.567 73.7154 191.957 73.7501 191.33C73.7501 190.21 72.9401 189.74 71.9401 190.32Z" fill="#BA68C8"/>
<path opacity="0.2" d="M71.9401 190.32C71.4125 190.664 70.9736 191.128 70.6591 191.673C70.3446 192.219 70.1633 192.831 70.1301 193.46C70.1301 194.61 70.9401 195.08 71.9401 194.46C72.4664 194.117 72.9045 193.655 73.219 193.111C73.5334 192.567 73.7154 191.957 73.7501 191.33C73.7501 190.21 72.9401 189.74 71.9401 190.32Z" fill="black"/>
<path d="M21.15 193.81L56.81 214.38C57.1437 214.601 57.4214 214.897 57.621 215.244C57.8206 215.591 57.9367 215.98 57.96 216.38V226.23C57.96 226.96 57.44 227.23 56.81 226.89L21.15 206.33C20.8163 206.109 20.5386 205.813 20.339 205.466C20.1394 205.119 20.0233 204.73 20 204.33V194.48C20 193.74 20.51 193.45 21.15 193.81Z" fill="#455A64"/>
<path d="M22.16 198.15C22.1889 198.539 22.309 198.915 22.5105 199.249C22.7121 199.582 22.9894 199.864 23.32 200.07L54.64 218.14C55.28 218.5 55.79 218.24 55.79 217.55C55.763 217.162 55.6448 216.786 55.445 216.452C55.2451 216.119 54.9693 215.837 54.64 215.63L23.32 197.57C22.68 197.2 22.16 197.46 22.16 198.15Z" fill="#BA68C8"/>
<path d="M22.16 203.16C22.1889 203.549 22.309 203.925 22.5105 204.259C22.7121 204.592 22.9894 204.874 23.32 205.08L54.64 223.14C55.28 223.51 55.79 223.25 55.79 222.56C55.7638 222.172 55.6459 221.795 55.446 221.462C55.2461 221.128 54.9699 220.846 54.64 220.64L23.32 202.57C22.68 202.21 22.16 202.47 22.16 203.16Z" fill="#263238"/>
<path d="M23.32 202.57L40.62 212.57V215.07L23.32 205.07C22.9894 204.864 22.7121 204.582 22.5105 204.249C22.309 203.915 22.1889 203.539 22.16 203.15C22.16 202.47 22.68 202.21 23.32 202.57Z" fill="#BA68C8"/>
<path d="M21.15 221L56.81 241.56C57.1437 241.781 57.4214 242.077 57.621 242.424C57.8206 242.771 57.9367 243.16 57.96 243.56V253.4C57.96 254.14 57.44 254.4 56.81 254.07L21.15 233.48C20.8157 233.259 20.5376 232.964 20.338 232.616C20.1383 232.269 20.0226 231.88 20 231.48V221.63C20 220.9 20.51 220.6 21.15 221Z" fill="#455A64"/>
<path d="M22.16 225.31C22.1881 225.697 22.3079 226.073 22.5096 226.405C22.7113 226.737 22.9891 227.016 23.32 227.22L54.64 245.29C55.28 245.66 55.79 245.4 55.79 244.7C55.7639 244.313 55.6459 243.938 55.4459 243.606C55.246 243.274 54.9697 242.994 54.64 242.79L23.32 224.72C22.68 224.35 22.16 224.62 22.16 225.31Z" fill="#BA68C8"/>
<path d="M22.16 230.31C22.1889 230.699 22.309 231.075 22.5105 231.409C22.7121 231.742 22.9894 232.024 23.32 232.23L54.64 250.29C55.28 250.66 55.79 250.4 55.79 249.71C55.763 249.322 55.6448 248.946 55.445 248.612C55.2451 248.279 54.9693 247.997 54.64 247.79L23.32 229.73C22.68 229.36 22.16 229.62 22.16 230.31Z" fill="#263238"/>
<path d="M23.32 229.73L45 242.2V244.7L23.32 232.23C22.9894 232.024 22.7121 231.742 22.5105 231.409C22.309 231.075 22.1889 230.699 22.16 230.31C22.16 229.62 22.68 229.36 23.32 229.73Z" fill="#BA68C8"/>
<path d="M21.15 247.92L56.81 268.49C57.1437 268.711 57.4214 269.007 57.621 269.354C57.8206 269.701 57.9367 270.09 57.96 270.49V280.34C57.96 281.07 57.44 281.34 56.81 281L21.15 260.44C20.8163 260.219 20.5386 259.923 20.339 259.576C20.1394 259.228 20.0233 258.84 20 258.44V248.59C20 247.86 20.51 247.56 21.15 247.92Z" fill="#455A64"/>
<path d="M22.16 252.26C22.1889 252.649 22.309 253.025 22.5105 253.359C22.7121 253.692 22.9894 253.974 23.32 254.18L54.64 272.25C55.28 272.61 55.79 272.35 55.79 271.66C55.763 271.272 55.6448 270.896 55.445 270.562C55.2451 270.229 54.9693 269.947 54.64 269.74L23.32 251.68C22.68 251.31 22.16 251.57 22.16 252.26Z" fill="#BA68C8"/>
<path d="M22.16 257.27C22.1889 257.659 22.309 258.035 22.5105 258.369C22.7121 258.702 22.9894 258.984 23.32 259.19L54.64 277.25C55.28 277.62 55.79 277.36 55.79 276.67C55.763 276.282 55.6448 275.906 55.445 275.572C55.2451 275.239 54.9693 274.957 54.64 274.75L23.32 256.68C22.68 256.32 22.16 256.58 22.16 257.27Z" fill="#263238"/>
<path d="M23.32 256.68L49.32 271.68V274.18L23.32 259.18C22.9894 258.973 22.7121 258.692 22.5105 258.359C22.309 258.025 22.1889 257.649 22.16 257.26C22.16 256.58 22.68 256.32 23.32 256.68Z" fill="#BA68C8"/>
<path d="M21.15 166.92L56.81 187.49C57.1443 187.711 57.4224 188.006 57.622 188.354C57.8217 188.701 57.9374 189.09 57.96 189.49V199.34C57.96 200.07 57.44 200.34 56.81 200L21.15 179.44C20.8163 179.219 20.5386 178.923 20.339 178.576C20.1394 178.229 20.0233 177.84 20 177.44V167.59C20 166.85 20.51 166.55 21.15 166.92Z" fill="#455A64"/>
<path d="M22.16 171.26C22.1889 171.649 22.309 172.025 22.5105 172.359C22.7121 172.692 22.9894 172.974 23.32 173.18L54.64 191.24C55.28 191.61 55.79 191.35 55.79 190.66C55.763 190.272 55.6448 189.896 55.445 189.562C55.2451 189.229 54.9693 188.947 54.64 188.74L23.32 170.68C22.68 170.31 22.16 170.57 22.16 171.26Z" fill="#BA68C8"/>
<path d="M22.16 176.27C22.1881 176.657 22.3079 177.033 22.5096 177.365C22.7113 177.697 22.9891 177.976 23.32 178.18L54.64 196.25C55.28 196.62 55.79 196.36 55.79 195.66C55.7639 195.273 55.6459 194.898 55.4459 194.566C55.246 194.234 54.9697 193.954 54.64 193.75L23.32 175.68C22.68 175.31 22.16 175.58 22.16 176.27Z" fill="#263238"/>
<path d="M23.32 175.68L51.46 191.91V194.41L23.32 178.18C22.9891 177.976 22.7113 177.697 22.5096 177.365C22.3079 177.033 22.1881 176.657 22.16 176.27C22.16 175.58 22.68 175.31 23.32 175.68Z" fill="#BA68C8"/>
<path d="M101.84 204.26C101.84 204.26 95.84 218.98 95.52 224.79C95.2 230.79 93.74 232.85 94.77 239.43C94.99 240.87 95.77 243.74 95.93 244.9C95.9939 245.145 96.0028 245.401 95.9563 245.65C95.9098 245.899 95.8089 246.134 95.6608 246.34C95.5128 246.545 95.3212 246.715 95.0998 246.838C94.8784 246.961 94.6326 247.033 94.38 247.05C91.75 247.6 87.38 242.66 85.31 237.29C83.1901 231.096 81.4535 224.777 80.11 218.37C80.0066 216.908 80.293 215.445 80.94 214.13C81.2761 213.362 81.6811 212.625 82.15 211.93C83.02 209.3 83.44 204.29 84.15 200.83L101.84 204.26Z" fill="#B16668"/>
<path d="M75 223.88C74.6504 224.501 74.4102 225.177 74.29 225.88C74.23 227.08 76.96 231.06 78.03 232.51C79.5475 234.465 80.2627 236.926 80.03 239.39C79.88 243.25 81.58 246.97 84.03 250.16C87.4538 254.31 92.0568 257.323 97.23 258.8C103.61 260.8 105.86 257.57 105.86 257.57C105.86 257.57 107.86 254.49 106.64 253.23C105.42 251.97 75 223.88 75 223.88Z" fill="#263238"/>
<path d="M82.15 211.93C81.96 211.93 81.61 211.87 81.15 212.47C80.96 212.7 79.8 215.57 78.84 217.07C77.88 218.57 75.34 221.44 75.02 223.88C76.49 228.61 80.92 231.88 81.59 236.36C82.26 240.84 82.33 246 89.19 251.46C96.05 256.92 103.1 257.46 105.63 256.04C108.16 254.62 107.94 251.88 104.4 246.71C100.65 241.22 98.13 229.33 98.13 229.33C97.8024 227.659 97.5786 225.969 97.46 224.27C97.4969 222.594 97.6573 220.922 97.94 219.27C98.0743 218.498 97.9623 217.704 97.62 217C97.139 216.382 96.4789 215.928 95.73 215.7C94.6037 215.176 93.4233 214.777 92.21 214.51C90.9849 214.245 89.7065 214.4 88.58 214.95C87.79 215.37 87.14 216.05 86.31 216.39C85.7481 216.613 85.135 216.676 84.5396 216.57C83.9443 216.464 83.3903 216.194 82.94 215.79C82.4863 215.433 82.1549 214.944 81.9919 214.39C81.8288 213.836 81.8421 213.246 82.03 212.7L82.15 211.93Z" fill="#37474F"/>
<path d="M85.1399 247.09C86.1483 245.372 87.6076 243.962 89.3597 243.014C91.1118 242.066 93.0899 241.615 95.0799 241.71C102.36 241.71 104.88 245.44 105.99 247.62C107.31 250.22 108.68 254.92 105.68 256.27C102.43 257.73 98.6799 257.27 92.7599 254.27C86.8399 251.27 85.1399 247.09 85.1399 247.09Z" fill="#FAFAFA"/>
<path d="M86.4699 225.15C86.5722 225.202 86.6853 225.229 86.7999 225.229C86.9146 225.229 87.0276 225.202 87.1299 225.15C88.2599 224.57 94.2099 223.33 97.6799 226.55C98.1199 226.19 98.0299 225.55 97.4599 224.6C93.3999 222.02 87.7699 223.17 86.4599 223.87C86.37 223.911 86.2902 223.971 86.2259 224.046C86.1617 224.122 86.1146 224.21 86.0879 224.305C86.0613 224.4 86.0557 224.5 86.0716 224.598C86.0875 224.695 86.1244 224.788 86.1799 224.87C86.2492 224.988 86.3495 225.085 86.4699 225.15Z" fill="#FAFAFA"/>
<path d="M98.4199 230.79C98.5135 230.447 98.5243 230.087 98.4513 229.739C98.3782 229.392 98.2235 229.066 97.9999 228.79C93.9999 226.62 88.7699 227.7 87.4699 228.37C87.3803 228.411 87.3007 228.472 87.2364 228.546C87.1721 228.621 87.1246 228.709 87.0971 228.804C87.0696 228.899 87.0628 228.998 87.0771 229.096C87.0914 229.194 87.1264 229.287 87.1799 229.37C87.2752 229.54 87.4313 229.667 87.6169 229.727C87.8025 229.786 88.0036 229.773 88.1799 229.69C89.2799 229.09 94.9299 227.92 98.4199 230.79Z" fill="#FAFAFA"/>
<path d="M101.39 240.63C101.398 239.668 101.069 238.734 100.46 237.99C96.46 235.56 90.92 236.68 89.58 237.37C89.4901 237.411 89.4103 237.471 89.346 237.546C89.2818 237.622 89.2347 237.71 89.208 237.805C89.1814 237.9 89.1758 238 89.1917 238.098C89.2076 238.195 89.2446 238.288 89.3 238.37C89.3764 238.51 89.4955 238.622 89.64 238.69C89.743 238.74 89.8558 238.765 89.97 238.765C90.0843 238.765 90.1971 238.74 90.3 238.69C91.49 238 98.05 236.69 101.39 240.63Z" fill="#FAFAFA"/>
<path d="M88.5801 234.15C88.6824 234.202 88.7954 234.229 88.9101 234.229C89.0248 234.229 89.1378 234.202 89.2401 234.15C90.3601 233.58 96.2401 232.37 99.6701 235.44C99.7406 235.059 99.7223 234.667 99.6165 234.294C99.5107 233.921 99.3203 233.577 99.0601 233.29C95.0601 231.12 89.8201 232.2 88.5201 232.87C88.4314 232.912 88.3527 232.973 88.2895 233.049C88.2262 233.124 88.1798 233.212 88.1532 233.306C88.1267 233.401 88.1208 233.5 88.1357 233.598C88.1507 233.695 88.1863 233.788 88.2401 233.87C88.3228 233.995 88.4413 234.093 88.5801 234.15Z" fill="#FAFAFA"/>
<path d="M108.31 222.34C108.31 222.34 111.31 240.34 114.6 247.27C117.89 254.2 119.6 257.6 124.17 262.88C125.17 264.02 127.43 266.16 128.24 267.09C128.432 267.272 128.582 267.493 128.679 267.74C128.775 267.986 128.816 268.251 128.797 268.515C128.779 268.779 128.703 269.035 128.574 269.266C128.444 269.497 128.266 269.696 128.05 269.85C126.05 271.79 117.42 272.25 112.6 268.64C107.78 265.03 103.39 257.33 100.52 254.42C99.4428 253.343 98.4214 252.212 97.46 251.03C96.52 249.89 96.78 248.8 96.7 247.52C96.7 246.9 96.7 245.21 96.7 245.21C96.04 242.21 94.25 237.44 93.3 234.5L108.31 222.34Z" fill="#B16668"/>
<path d="M95.0501 258.78C94.998 259.517 95.0724 260.258 95.27 260.97C95.75 262.14 100.1 264.69 101.76 265.58C104.06 266.763 105.826 268.775 106.7 271.21C108.28 274.94 111.56 277.7 115.34 279.6C120.434 281.997 126.135 282.792 131.69 281.88C138.6 280.88 139.3 276.88 139.3 276.88C139.3 276.88 139.8 273.09 138.11 272.42C136.42 271.75 95.0501 258.78 95.0501 258.78Z" fill="#263238"/>
<path d="M96.5 244.18C96.2882 244.27 96.1064 244.419 95.9755 244.608C95.8445 244.797 95.7698 245.02 95.76 245.25C95.8076 247.044 95.7609 248.84 95.62 250.63C95.36 252.63 94.26 256.32 95.05 258.78C98.56 262.6 104.22 263.78 106.84 267.65C109.46 271.52 111.84 276.45 120.78 278.55C129.72 280.65 136.63 278.04 138.39 275.55C140.15 273.06 138.71 270.55 133.05 267.27C127.05 263.75 119.35 253.62 119.35 253.62C118.291 252.187 117.326 250.687 116.46 249.13C115.742 247.526 115.143 245.872 114.67 244.18C114.454 243.392 113.996 242.693 113.36 242.18C112.627 241.814 111.801 241.679 110.99 241.79C109.688 241.791 108.389 241.938 107.12 242.23C105.85 242.518 104.714 243.222 103.89 244.23C103.431 245.048 102.93 245.843 102.39 246.61C101.991 247.058 101.476 247.387 100.902 247.563C100.329 247.738 99.7177 247.753 99.1362 247.606C98.5546 247.458 98.0246 247.154 97.6039 246.727C97.1831 246.299 96.8878 245.764 96.75 245.18L96.5 244.18Z" fill="#37474F"/>
<path d="M115 276.2C115 276.2 115.1 269.9 122 266.67C128.9 263.44 132.94 265.83 135 267.39C137.41 269.26 140.81 273.1 138.57 275.72C136.15 278.55 132.39 279.8 125.47 279.64C118.55 279.48 115 276.2 115 276.2Z" fill="#FAFAFA"/>
<path d="M106.49 254.85C106.611 254.851 106.73 254.824 106.839 254.772C106.948 254.72 107.044 254.644 107.12 254.55C107.93 253.5 113 249.67 117.72 251.16C117.98 250.62 117.6 250.04 116.64 249.42C111.64 248.79 106.84 252.42 105.86 253.66C105.751 253.815 105.707 254.008 105.739 254.195C105.771 254.382 105.875 254.549 106.03 254.66C106.159 254.771 106.32 254.838 106.49 254.85Z" fill="#FAFAFA"/>
<path d="M120.32 254.84C120.255 254.475 120.104 254.13 119.88 253.834C119.656 253.539 119.364 253.301 119.03 253.14C114.27 252.87 109.81 256.24 108.87 257.45C108.761 257.605 108.717 257.798 108.749 257.985C108.781 258.172 108.885 258.339 109.04 258.45C109.176 258.542 109.336 258.594 109.5 258.6C109.62 258.599 109.739 258.571 109.848 258.519C109.957 258.468 110.053 258.393 110.13 258.3C110.91 257.32 115.73 253.69 120.32 254.84Z" fill="#FAFAFA"/>
<path d="M127.53 262.83C127.104 261.92 126.376 261.185 125.47 260.75C120.56 260.25 115.85 263.75 114.89 265.02C114.78 265.174 114.734 265.366 114.764 265.553C114.794 265.74 114.897 265.908 115.05 266.02C115.187 266.117 115.352 266.169 115.52 266.17C115.639 266.17 115.757 266.143 115.864 266.091C115.972 266.039 116.066 265.964 116.14 265.87C117 264.8 122.6 260.6 127.53 262.83Z" fill="#FAFAFA"/>
<path d="M112.51 262.42C112.631 262.421 112.75 262.394 112.859 262.342C112.968 262.29 113.064 262.214 113.14 262.12C113.93 261.12 118.91 257.34 123.58 258.69C123.475 258.298 123.282 257.936 123.015 257.631C122.748 257.326 122.414 257.086 122.04 256.93C117.28 256.66 112.81 260.02 111.88 261.23C111.77 261.384 111.724 261.576 111.754 261.763C111.784 261.95 111.887 262.118 112.04 262.23C112.173 262.341 112.337 262.408 112.51 262.42Z" fill="#FAFAFA"/>
<path d="M68.68 120.06C76.04 125.46 101.68 140.27 112.1 149.9C115.1 152.69 116.1 156.35 115.36 164.34C114.36 175.19 105.84 212.14 105.84 212.14C104.66 214.22 102.6 210.26 102.6 210.26L62 158.67L68.68 120.06Z" fill="#BA68C8"/>
<path opacity="0.4" d="M68.68 120.06C76.04 125.46 101.68 140.27 112.1 149.9C115.1 152.69 116.1 156.35 115.36 164.34C114.36 175.19 105.84 212.14 105.84 212.14C104.66 214.22 102.6 210.26 102.6 210.26L62 158.67L68.68 120.06Z" fill="black"/>
<path opacity="0.3" d="M104.07 200.63C94.6701 192.77 64.3 144.85 64.3 144.85C68.44 141.35 70.57 129.24 70.57 129.24C72.21 133.91 70.48 140.96 69.21 143.54C71.6 145.61 85.11 156.72 94.5 164.15C96.85 166.01 99.2601 168.32 100.07 172.56C102 182.71 104.29 198.57 104.07 200.63Z" fill="black"/>
<path d="M68.68 120.06L16.37 131.65C18.92 141.25 19.65 146.21 22.37 151.26C25.09 156.31 28 161.74 41.56 168.44C54.66 174.89 70.66 181.54 73.86 183.06C76.28 184.21 77.43 189.06 78.52 195.28C79.66 201.84 79.76 206.98 86.25 220.74C92.61 234.22 93.9 237.14 93.9 237.14C93.9 237.14 103.73 238.14 110.26 232.42C110.26 232.42 101.36 186.2 99.46 177.88C98.4 173.23 98.38 170.78 92.61 165.68C87.61 161.3 65.61 144.58 65.61 144.58C65.61 144.58 74.34 132.79 68.68 120.06Z" fill="#BA68C8"/>
<path opacity="0.3" d="M68.68 120.06L16.37 131.65C18.92 141.25 19.65 146.21 22.37 151.26C25.09 156.31 28 161.74 41.56 168.44C54.66 174.89 70.66 181.54 73.86 183.06C76.28 184.21 77.43 189.06 78.52 195.28C79.66 201.84 79.76 206.98 86.25 220.74C92.61 234.22 93.9 237.14 93.9 237.14C93.9 237.14 103.73 238.14 110.26 232.42C110.26 232.42 101.36 186.2 99.46 177.88C98.4 173.23 98.38 170.78 92.61 165.68C87.61 161.3 65.61 144.58 65.61 144.58C65.61 144.58 74.34 132.79 68.68 120.06Z" fill="black"/>
<path opacity="0.4" d="M98.92 237C95.84 229.84 89.13 214 86.86 207C85.5005 202.364 84.4482 197.644 83.71 192.87C82.79 187.73 82.07 183.67 80.89 181.93C79.27 179.54 69.64 175.06 59.43 170.32C55.51 168.49 51.43 166.61 47.93 164.87C35.03 158.51 30.44 152.38 26.57 136.35L25.63 136.58C29.54 152.75 34.44 159.29 47.5 165.73C51.04 167.48 55.1 169.36 59.03 171.19C68.66 175.67 78.62 180.31 80.09 182.47C81.16 184.04 81.9 188.21 82.76 193.04C83.5205 197.857 84.603 202.618 86 207.29C88.24 214.29 94.83 229.81 98 237.12L98.92 237Z" fill="black"/>
<path d="M76.24 71.1C79.13 75.42 90.11 90.42 90.11 90.42C93.32 86.7 97.11 82.1299 100.36 78.1699C104.61 72.9699 106.3 71.8799 108.56 63.7899C109.27 61.8182 110.231 59.9461 111.42 58.2199C112.488 56.3638 113.216 54.3319 113.57 52.2199C113.68 51.2199 116.34 51.4799 116.83 54.8299C117.19 57.3199 116.38 59.9199 116.2 61.4399C117.48 61.1099 119.42 60.3 122.2 59.63C124.98 58.96 130.31 57.0999 130.2 60.5099C130.2 61.2799 129.8 62.0399 129.99 62.7799C130.11 63.1311 130.271 63.4668 130.47 63.7799C130.78 64.3959 130.919 65.084 130.871 65.772C130.824 66.46 130.592 67.1225 130.2 67.6899C129.992 67.9252 129.836 68.2011 129.74 68.4999C129.61 69.1099 130.02 69.72 130.07 70.32C130.106 71.0141 129.954 71.7051 129.63 72.32C129.18 73.24 128.88 73.0499 128.43 73.9699C128.13 74.5699 128.35 75.6299 127.52 76.6199C126.629 77.7663 125.396 78.5998 124 78.9999C122.18 79.4999 120.29 80.0499 117.66 80.7499C115.58 81.2999 113.96 83.0399 111.6 87.5499C105.6 97.9899 105.31 100.9 99.6 109.2C99.0982 109.945 98.5574 110.662 97.98 111.35C92.34 118.35 88.4 115.35 79.89 107.16C69.4 97 63.79 91.23 63.79 91.23L61.26 57.7499C67.45 59.8299 73.35 66.79 76.24 71.1Z" fill="#B16668"/>
<path d="M119.27 61.9999C117.2 62.3199 116.45 63.5299 116.06 66.3699C115.83 68.0499 114.84 71.0699 112.83 72.0199C113.72 72.0676 114.603 71.8407 115.36 71.3699C116.36 70.6199 116.62 70.5599 117.02 71.1399C117.321 71.533 117.712 71.8484 118.16 72.0599C117.795 72.3629 117.538 72.7764 117.428 73.2381C117.318 73.6998 117.361 74.1848 117.55 74.6199C118.2 76.2099 121.86 77.0799 126.28 75.1199C126.28 75.1199 120.13 76.5099 119.17 74.6599C118.21 72.8099 121.99 70.5799 124.17 70.3399C124.17 70.3399 118.26 71.3399 117.75 69.5499C117.24 67.7599 120.19 66.2699 123.29 65.9799C123.29 65.9799 118.29 66.6699 117.83 65.1399C117.2 63.2799 118.63 62.4799 119.27 61.9999Z" fill="#9A4A4D"/>
<path d="M90.1101 90.42C85.6501 94.9 83.4101 102.14 83.3501 104.83C83.3501 104.83 82.1001 97.36 88.4901 88.21L90.1101 90.42Z" fill="#F28F8F"/>
<path d="M58.0601 56.72C63.8801 57.72 68.4001 60 75.7201 69.72C83.0401 79.44 90.1101 89.94 90.1101 89.94L96.0001 83.5C94.1301 84.58 94.4501 92.83 97.4601 96.56C99.3574 98.8258 101.984 100.36 104.89 100.9C103.199 104.173 101.288 107.327 99.1701 110.34C96.1701 114.44 94.2601 115.49 91.7001 115.49C89.1401 115.49 86.3201 114.01 79.6301 107.65C72.9401 101.29 62.3101 91.1 62.3101 91.1L58.0601 56.72Z" fill="#BA68C8"/>
<path opacity="0.55" d="M58.0601 56.72C63.8801 57.72 68.4001 60 75.7201 69.72C83.0401 79.44 90.1101 89.94 90.1101 89.94L96.0001 83.5C94.1301 84.58 94.4501 92.83 97.4601 96.56C99.3574 98.8258 101.984 100.36 104.89 100.9C103.199 104.173 101.288 107.327 99.1701 110.34C96.1701 114.44 94.2601 115.49 91.7001 115.49C89.1401 115.49 86.3201 114.01 79.6301 107.65C72.9401 101.29 62.3101 91.1 62.3101 91.1L58.0601 56.72Z" fill="white"/>
<path opacity="0.35" d="M90.1101 89.9C87.0001 93.34 84.8001 99.34 85.0201 102.43C83.7201 98.82 85.0201 92.65 88.9601 88.21L90.1101 89.9Z" fill="#BA68C8"/>
<path opacity="0.35" d="M102.33 105.27C101.595 105.114 100.876 104.893 100.18 104.61C98.768 104.026 97.4789 103.182 96.38 102.12C94.2791 100.086 92.9112 97.4136 92.49 94.52C92.49 94.37 92.32 94.42 92.33 94.52C92.4891 97.6811 93.8694 100.657 96.18 102.82C97.8358 104.339 99.8589 105.401 102.05 105.9C102.18 105.68 102.31 105.47 102.43 105.25L102.33 105.27Z" fill="#BA68C8"/>
<path d="M67.9 77.84C67.09 61.58 63.41 57.1 55.17 56.19L41.56 54.75C37.56 55.58 23.63 60 18.95 61.63C15.95 62.68 14.64 69.07 13.95 79.1C13.42 87.24 13.34 94.1 13.61 105.31C13.83 114.74 14.06 125.49 16.95 138.6C28.2 142.87 59.03 137.09 72.01 122.22C71.01 118.86 68.51 114.49 67.85 107.74C68.32 93.59 68.15 83 67.9 77.84Z" fill="#263238"/>
<path d="M18.65 61.42L28.81 57.85C28.81 57.85 30.64 62.12 34.58 70.31C38.52 78.5 38.66 82.22 39.02 96.52C39.38 110.82 41.33 136.62 43.02 142.43C36.72 143.3 18.49 141.71 14.7 139.38C14.7 139.38 12.35 118.78 11.82 104.16C11.29 89.54 11.49 65.55 18.65 61.42Z" fill="#BA68C8"/>
<path opacity="0.35" d="M18.65 61.42L28.81 57.85C28.81 57.85 30.64 62.12 34.58 70.31C38.52 78.5 38.66 82.22 39.02 96.52C39.38 110.82 41.33 136.62 43.02 142.43C36.72 143.3 18.49 141.71 14.7 139.38C14.7 139.38 12.35 118.78 11.82 104.16C11.29 89.54 11.49 65.55 18.65 61.42Z" fill="white"/>
<path d="M38.46 83.7C36.87 70.86 31.46 70.2 30.25 74.42C25.58 67.42 25.38 61.42 25.46 59.02C26.73 56.82 27.73 54.96 28.15 54.13C28.71 53.03 29.35 53.26 29.35 53.26V56.52C29.35 56.52 30.1 60.26 33.94 64.98C36.79 68.44 37.79 72.87 38.46 83.7Z" fill="#BA68C8"/>
<path opacity="0.55" d="M38.46 83.7C36.87 70.86 31.46 70.2 30.25 74.42C25.58 67.42 25.38 61.42 25.46 59.02C26.73 56.82 27.73 54.96 28.15 54.13C28.71 53.03 29.35 53.26 29.35 53.26V56.52C29.35 56.52 30.1 60.26 33.94 64.98C36.79 68.44 37.79 72.87 38.46 83.7Z" fill="white"/>
<path d="M47.72 56.64C53.5 58.89 57.72 65.32 59.11 74.21C60.5 83.1 61.59 105.78 62.55 112.49C63.51 119.2 65.81 129 65.81 129C65.81 129 71.81 125.29 73.6 122.93C71.1841 118.775 69.6553 114.165 69.11 109.39C68.55 103.8 69.96 83.21 69.11 76.39C68.26 69.57 67.55 60.14 59.47 57C55.98 55.64 47.78 55.1 47.78 55.1L47.72 56.64Z" fill="#BA68C8"/>
<path opacity="0.35" d="M47.72 56.64C53.5 58.89 57.72 65.32 59.11 74.21C60.5 83.1 61.59 105.78 62.55 112.49C63.51 119.2 65.81 129 65.81 129C65.81 129 71.81 125.29 73.6 122.93C71.1841 118.775 69.6553 114.165 69.11 109.39C68.55 103.8 69.96 83.21 69.11 76.39C68.26 69.57 67.55 60.14 59.47 57C55.98 55.64 47.78 55.1 47.78 55.1L47.72 56.64Z" fill="white"/>
<path d="M59.73 79.34C58.94 72.79 55.22 61.09 48.14 58.71C47.8713 58.0525 47.7288 57.3502 47.72 56.64L47.78 53.24C49.8879 53.9866 51.9015 54.9767 53.78 56.19C56.84 58.19 62.11 64.48 63.48 69.57C60.45 67 59.23 71.2 59.73 79.34Z" fill="#BA68C8"/>
<path opacity="0.55" d="M59.73 79.34C58.94 72.79 55.22 61.09 48.14 58.71C47.8713 58.0525 47.7288 57.3502 47.72 56.64L47.78 53.24C49.8879 53.9866 51.9015 54.9767 53.78 56.19C56.84 58.19 62.11 64.48 63.48 69.57C60.45 67 59.23 71.2 59.73 79.34Z" fill="white"/>
<path d="M29.4 48.15C28.6 43.58 24.03 38.83 21.96 34.85C19.89 30.87 18.77 28.03 18.96 24.42C19.09 22.27 20.42 19.36 22.01 18.75C21.6334 17.4562 21.5237 16.0993 21.6878 14.7618C21.8518 13.4243 22.286 12.1341 22.9641 10.9696C23.6422 9.80517 24.55 8.79074 25.6323 7.98799C26.7146 7.18524 27.9489 6.61094 29.26 6.29997C30.7454 5.9782 32.2085 5.56066 33.64 5.04997C35.36 4.31997 35.74 2.92998 37.13 1.73998C39.51 -0.260024 43.55 -0.370024 45.13 2.73998C46.71 0.679976 48.87 0.739967 51.37 1.33997C52.4267 1.57152 53.3557 2.19641 53.9686 3.08783C54.5814 3.97925 54.8322 5.07043 54.67 6.13997C57.99 4.25997 61.07 6.59997 61.39 8.55997C61.62 10.01 61.32 11.23 62.27 12.56C63.22 13.89 65.36 13.98 65.97 12.79C66.33 14.85 65.53 16.42 63.3 16.32C63.6803 16.8899 63.9311 17.5362 64.0347 18.2134C64.1384 18.8907 64.0924 19.5824 63.9 20.24C63.6436 21.0727 63.138 21.8068 62.4513 22.3432C61.7647 22.8797 60.9301 23.1927 60.06 23.24C59.9683 24.3488 59.6264 25.4223 59.06 26.38C58.394 27.3742 57.4989 28.1939 56.45 28.77C53.08 30.39 49.34 30.93 45.71 31.71L41.39 32.62C41.14 32.67 39.84 32.76 39.68 32.98L29.4 48.15Z" fill="#263238"/>
<path d="M23.83 42.2599C24.6239 42.8297 25.584 43.121 26.5606 43.0885C27.5373 43.0559 28.4758 42.7013 29.23 42.0799L29.41 58.1899C34.41 62.9199 42.13 66.7599 47.79 66.5799C48.6714 63.3219 48.6472 59.8852 47.72 56.6399L47.78 52.4999C49.597 52.5268 51.4139 52.44 53.22 52.2399C56.81 51.7299 59.49 48.7999 60.5 44.9099C61.6091 39.8475 61.7313 34.6187 60.86 29.5099C60.6153 28.2691 60.5446 27.0003 60.65 25.7399C60.98 22.4099 60.37 20.4699 59.5 17.6699C55.5 14.5099 46.4 13.4699 37.91 18.6699C38.91 23.7299 36.91 27.7499 33.29 29.6699C33.47 31.0399 33.65 34.4899 31.4 34.4399C29.78 34.4399 29.67 32.3699 27.99 30.5899C26.31 28.8099 22.44 28.3399 20.99 30.9899C18.86 34.7399 20.29 40.1799 23.83 42.2599Z" fill="#B16668"/>
<path d="M47.7801 52.5C42.0901 51.86 37.7801 51.26 34.7801 47.15C33.3898 45.0366 32.2299 42.7804 31.3201 40.42C31.6949 43.35 32.5319 46.2021 33.8001 48.87C35.2501 51.49 38.8001 53.67 47.8001 54.4L47.7801 52.5Z" fill="#9A4A4D"/>
<path d="M45.3701 30.55C45.3544 30.8634 45.2469 31.1653 45.0609 31.418C44.875 31.6708 44.6188 31.8633 44.3243 31.9716C44.0297 32.0799 43.7099 32.0992 43.4044 32.0271C43.099 31.955 42.8216 31.7946 42.6066 31.566C42.3916 31.3374 42.2486 31.0507 42.1953 30.7414C42.1421 30.4322 42.1809 30.1141 42.3071 29.8267C42.4332 29.5394 42.641 29.2955 42.9047 29.1254C43.1684 28.9553 43.4763 28.8664 43.7901 28.87C44.2216 28.8856 44.6295 29.0708 44.9253 29.3853C45.2211 29.6999 45.3809 30.1184 45.3701 30.55Z" fill="#263238"/>
<path d="M44.91 25.3L41.29 26.79C41.1025 26.2943 41.1132 25.7455 41.3199 25.2576C41.5267 24.7696 41.9135 24.3801 42.4 24.17C42.6385 24.0743 42.8939 24.0277 43.1508 24.033C43.4078 24.0383 43.661 24.0954 43.8954 24.201C44.1298 24.3065 44.3404 24.4582 44.5147 24.647C44.6891 24.8359 44.8235 25.058 44.91 25.3Z" fill="#263238"/>
<path d="M58.6301 25.81L54.8301 24.81C54.886 24.5596 54.9921 24.3231 55.1419 24.1148C55.2917 23.9065 55.4822 23.7307 55.7018 23.598C55.9214 23.4653 56.1656 23.3784 56.4196 23.3427C56.6737 23.3069 56.9324 23.323 57.1801 23.39C57.6817 23.5373 58.1094 23.8681 58.3781 24.3166C58.6467 24.765 58.7367 25.2982 58.6301 25.81Z" fill="#263238"/>
<path d="M58.06 29.63C58.0424 29.9428 57.9332 30.2436 57.7462 30.495C57.5591 30.7464 57.3024 30.9373 57.0078 31.0441C56.7132 31.1509 56.3937 31.1688 56.089 31.0957C55.7843 31.0225 55.5078 30.8615 55.2938 30.6326C55.0798 30.4037 54.9377 30.117 54.8852 29.808C54.8327 29.4991 54.872 29.1816 54.9983 28.8948C55.1247 28.6081 55.3324 28.3647 55.5958 28.195C55.8592 28.0252 56.1667 27.9366 56.48 27.94C56.9124 27.9582 57.3203 28.1456 57.6158 28.4617C57.9114 28.7778 58.0709 29.1974 58.06 29.63Z" fill="#263238"/>
<path d="M56.4899 35.5899L50.9299 38.0799L49.1799 27.16C51.2399 26.41 53.9199 31.4199 56.4899 35.5899Z" fill="#9A4A4D"/>
<path d="M44.3199 40.65L51.0199 42.06C50.9469 42.5079 50.7842 42.9365 50.5415 43.32C50.2989 43.7035 49.9812 44.0341 49.6077 44.2918C49.2341 44.5496 48.8124 44.7292 48.3677 44.82C47.923 44.9107 47.4646 44.9107 47.0199 44.82C46.119 44.6071 45.3353 44.0544 44.8321 43.2774C44.329 42.5004 44.1455 41.5591 44.3199 40.65Z" fill="#9A4A4D"/>
<path d="M45.13 41.74C44.8542 41.7099 44.5759 41.7099 44.3 41.74C44.3782 42.4689 44.6795 43.1559 45.1627 43.7071C45.646 44.2584 46.2876 44.647 47 44.82C47.3643 44.8797 47.7358 44.8797 48.1 44.82C48.0884 44.0255 47.775 43.2652 47.2235 42.6932C46.672 42.1213 45.9236 41.7805 45.13 41.74Z" fill="#FFA8A7"/>
<path opacity="0.15" d="M113.73 151.82C113.268 151.115 112.721 150.47 112.1 149.9C105.85 144.11 94.0999 136.46 84.0999 130.1L38.6999 156.33C38.6352 156.365 38.5812 156.417 38.5436 156.481C38.5059 156.544 38.4861 156.616 38.4861 156.69C38.4861 156.764 38.5059 156.836 38.5436 156.899C38.5812 156.963 38.6352 157.015 38.6999 157.05L71.6999 176.1L113.73 151.82Z" fill="black"/>
<path d="M127.5 138.48V139.22C127.502 139.749 127.364 140.268 127.101 140.727C126.838 141.185 126.458 141.566 126 141.83L73.1899 172.32C72.7337 172.583 72.2163 172.721 71.6899 172.72C71.1567 172.724 70.632 172.586 70.1699 172.32L41.3799 155.75C40.9221 155.486 40.5423 155.105 40.2788 154.647C40.0154 154.188 39.8778 153.669 39.8799 153.14V152.14C39.8797 152.207 39.8972 152.273 39.9306 152.33C39.9639 152.388 40.012 152.437 40.0699 152.47L71.6799 170.73L127.5 138.48Z" fill="#37474F"/>
<path d="M71.6799 170.71V172.71C72.2098 172.712 72.7308 172.574 73.1899 172.31L126 141.83C126.46 141.567 126.841 141.187 127.107 140.728C127.372 140.27 127.511 139.75 127.51 139.22V138.48L71.6799 170.71Z" fill="#263238"/>
<path d="M127.51 138.48L96.1999 120.41C95.9259 120.253 95.6157 120.17 95.2999 120.17C94.9841 120.17 94.6739 120.253 94.3999 120.41L40.0799 151.77C40.0198 151.805 39.9699 151.856 39.9352 151.916C39.9006 151.977 39.8823 152.045 39.8823 152.115C39.8823 152.185 39.9006 152.253 39.9352 152.314C39.9699 152.374 40.0198 152.425 40.0799 152.46L71.6799 170.71L127.51 138.48Z" fill="#455A64"/>
<path d="M71.39 168.06L54.51 158.31L103.89 129.81L120.86 139.5L71.39 168.06Z" fill="#37474F"/>
<path d="M120.86 139.49L120.22 139.87L103.88 130.55L55.15 158.69L54.51 158.32L103.88 129.81L120.86 139.49Z" fill="#263238"/>
<path d="M63.0901 140.96L63.4101 141.14L71.6801 145.92L86.4001 137.42L86.7101 137.25L78.1201 132.29L63.0901 140.96Z" fill="#263238"/>
<path d="M63.4099 141.14L71.6799 145.92L86.3999 137.42L78.1199 132.64L63.4099 141.14Z" fill="#37474F"/>
<path d="M79.73 144.56C77.08 141.93 73.24 138.29 70.01 137.22C69.2694 136.935 68.5111 136.698 67.74 136.51C68.8601 136.364 69.9693 136.144 71.06 135.85C72.1544 135.516 73.1275 134.869 73.86 133.99C74.14 133.63 74.34 133.05 73.98 132.76C73.8495 132.656 73.6871 132.599 73.52 132.6C71.1 132.52 69.2 132.15 67 131.99C66.004 131.842 64.9905 131.859 64 132.04C63.1 132.29 62.2 132.55 61.31 132.85C57.31 134.24 53.5 133.85 47.96 131.33C42.42 128.81 22.49 116.5 22.49 116.5L26.72 139.92L42.52 146L42.69 146.06C44.4303 146.999 46.2427 147.799 48.11 148.45C51.68 149.55 56.26 148.25 59.37 148.08C62.48 147.91 67.75 149.35 70.63 150.52C73.51 151.69 76.98 147.25 78.43 147.79C79.88 148.33 82.38 147.18 79.73 144.56Z" fill="#B16668"/>
<path d="M66.4 134.8C64.9001 134.731 63.4022 134.973 62 135.51C63.9464 135.613 65.8736 135.948 67.74 136.51C68.8601 136.364 69.9693 136.144 71.06 135.85C72.0215 135.551 72.894 135.018 73.6 134.3C71.86 135.48 68.49 135 66.4 134.8Z" fill="#9A4A4D"/>
<path d="M72.53 171.16C73.0306 171.352 73.5676 171.43 74.1021 171.388C74.6366 171.347 75.1551 171.187 75.62 170.92L128.19 140.57C128.645 140.305 129.036 139.944 129.337 139.512C129.637 139.081 129.84 138.588 129.93 138.07L135.68 103.74C135.7 103.547 135.7 103.353 135.68 103.16C135.68 102.686 135.587 102.217 135.405 101.779C135.223 101.341 134.956 100.944 134.62 100.61L80 132.16C79.6648 132.358 79.376 132.625 79.1534 132.944C78.9308 133.264 78.7796 133.627 78.71 134.01L72.53 171.16Z" fill="#37474F"/>
<path d="M71.6799 170.71L72.0399 170.92C72.1982 171.01 72.3618 171.09 72.5299 171.16L78.7499 134C78.8195 133.617 78.9707 133.254 79.1933 132.934C79.4159 132.615 79.7047 132.348 80.0399 132.15L134.67 100.6C134.452 100.389 134.21 100.205 133.95 100.05L79.1999 131.67C78.8629 131.866 78.5729 132.132 78.35 132.452C78.1272 132.772 77.977 133.136 77.9099 133.52L71.6799 170.71Z" fill="#455A64"/>
<path d="M79.2599 132.86L78.4199 132.37C78.1604 132.707 77.9855 133.101 77.9099 133.52L71.6799 170.71L72.0399 170.92C72.1982 171.01 72.3618 171.09 72.5299 171.16L78.7499 134C78.8332 133.587 79.0075 133.197 79.2599 132.86Z" fill="#263238"/>
<path d="M102.14 139.47C102.53 137.17 104.9 134.12 107.44 132.66C109.98 131.2 111.73 131.86 111.35 134.16C110.97 136.46 108.59 139.51 106.05 140.98C103.51 142.45 101.76 141.77 102.14 139.47Z" fill="#BA68C8"/>
<path d="M37.84 127.43C29.42 121.34 22.49 116.5 22.49 116.5L24.9 90.62C24.9 90.62 26.72 77.82 23.83 70.62C20.83 63.1 17.88 62.04 17.88 62.04C14.9388 63.1208 12.1905 64.6672 9.73997 66.62C6.47997 69.47 4.91997 76.1 4.13997 85.44C3.44997 93.65 2.13997 114.24 1.93997 119.05C1.67997 125.14 1.93997 130.05 8.40997 132.99C15.22 136.06 35.64 143 35.64 143L37.84 127.43Z" fill="#B16668"/>
<path d="M18.65 61.42C12.03 63.54 8.65001 64.76 5.85001 72.51C3.05001 80.26 3.15001 94.51 2.30001 105.93C1.45001 117.35 0.810015 124.79 2.64001 128.4C3.64001 130.4 5.48002 132.19 12.04 134.66C18.6 137.13 24.9 139.38 24.9 139.38C24.9 139.38 25.52 129.3 32.72 122.51L22.84 116.51C22.84 116.51 25.1 93.2 25.65 86.83C26.2 80.46 26.88 66.94 18.65 61.42Z" fill="#BA68C8"/>
<path opacity="0.55" d="M18.65 61.42C12.03 63.54 8.65001 64.76 5.85001 72.51C3.05001 80.26 3.15001 94.51 2.30001 105.93C1.45001 117.35 0.810015 124.79 2.64001 128.4C3.64001 130.4 5.48002 132.19 12.04 134.66C18.6 137.13 24.9 139.38 24.9 139.38C24.9 139.38 25.52 129.3 32.72 122.51L22.84 116.51C22.84 116.51 25.1 93.2 25.65 86.83C26.2 80.46 26.88 66.94 18.65 61.42Z" fill="white"/>
<path opacity="0.35" d="M22.84 116.5C18.97 114.68 11.29 116.32 9.65002 117.7C11.65 114.33 16.83 113.11 23.09 113.89L22.84 116.5Z" fill="#BA68C8"/>
<path opacity="0.35" d="M25.33 123.52C24.1327 124.389 23.1593 125.53 22.49 126.85C21.7907 128.091 21.2593 129.419 20.91 130.8C20.5019 132.375 20.2771 133.993 20.24 135.62C20.2051 136.313 20.2051 137.007 20.24 137.7L21 138C20.7888 135.678 20.9817 133.336 21.57 131.08C21.9202 129.731 22.4305 128.428 23.09 127.2C23.8005 126 24.5784 124.842 25.42 123.73C25.45 123.64 25.44 123.46 25.33 123.52Z" fill="#BA68C8"/>
</svg>
