<svg width="89" height="179" viewBox="0 0 89 179" fill="none" xmlns="http://www.w3.org/2000/svg">
<path d="M88.4601 4.79997V127.62C88.4 128.647 88.0967 129.645 87.5751 130.532C87.0535 131.418 86.3286 132.169 85.4601 132.72L7.05008 178C6.74838 178.182 6.40266 178.279 6.05008 178.28C5.92384 178.295 5.79632 178.295 5.67007 178.28L5.42007 178.2L5.26008 178.11L5.09007 177.99C5.03019 177.951 4.97629 177.904 4.93008 177.85C4.69637 177.629 4.50934 177.364 4.38007 177.07C4.17461 176.6 4.06904 176.093 4.07008 175.58V53.46C4.13172 52.4333 4.43572 51.4359 4.95718 50.5494C5.47864 49.663 6.20271 48.9126 7.07008 48.36L85.5301 3.11997C85.8161 2.91476 86.149 2.78439 86.4983 2.74072C86.8476 2.69705 87.2023 2.74149 87.5301 2.86997C87.6203 2.90749 87.7045 2.95802 87.7801 3.01997C88.027 3.24102 88.2176 3.5179 88.3359 3.82752C88.4542 4.13715 88.4968 4.47055 88.4601 4.79997Z" fill="#455A64"/>
<path d="M86.8201 3.72C86.9134 3.71975 87.0056 3.74025 87.09 3.78C87.2133 3.91313 87.3058 4.07168 87.3611 4.24446C87.4164 4.41725 87.4331 4.60006 87.4101 4.78V127.62C87.3562 128.468 87.107 129.292 86.682 130.027C86.257 130.763 85.6676 131.39 84.9601 131.86L6.50005 177.14C6.35756 177.235 6.19105 177.287 6.02005 177.29C5.96039 177.299 5.89971 177.299 5.84005 177.29H5.77005L5.67005 177.23V177.18C5.54098 177.055 5.43888 176.906 5.37006 176.74C5.21731 176.397 5.13893 176.025 5.14005 175.65V53.46C5.20205 52.6142 5.45466 51.7934 5.87896 51.0591C6.30326 50.3248 6.88823 49.6961 7.59005 49.22L86.0001 4C86.2421 3.84134 86.5212 3.74829 86.8101 3.73M86.8101 2.73C86.3462 2.74807 85.8949 2.88587 85.5001 3.13L7.05006 48.36C6.18269 48.9127 5.45862 49.663 4.93716 50.5495C4.4157 51.436 4.1117 52.4334 4.05006 53.46V175.54C4.04902 176.053 4.15459 176.56 4.36005 177.03C4.48932 177.324 4.67635 177.589 4.91006 177.81C4.95627 177.864 5.01017 177.911 5.07005 177.95L5.24005 178.07L5.40005 178.16L5.65005 178.24C5.7763 178.255 5.90381 178.255 6.03005 178.24C6.36249 178.231 6.68663 178.134 6.97005 177.96L85.43 132.67C86.2985 132.119 87.0235 131.369 87.5451 130.482C88.0667 129.595 88.37 128.597 88.43 127.57V4.8C88.4631 4.46812 88.4158 4.13315 88.2923 3.82336C88.1687 3.51357 87.9724 3.23804 87.7201 3.02C87.6445 2.95806 87.5603 2.90752 87.4701 2.87C87.2578 2.76874 87.0252 2.71743 86.79 2.72L86.8101 2.73Z" fill="#455A64"/>
<g opacity="0.8">
<path d="M88.4601 4.79997V127.62C88.4 128.647 88.0967 129.645 87.5751 130.532C87.0535 131.418 86.3286 132.169 85.4601 132.72L7.05008 178C6.74838 178.182 6.40266 178.279 6.05008 178.28C5.92384 178.295 5.79632 178.295 5.67007 178.28L5.42007 178.2L5.26008 178.11L5.09007 177.99C5.03019 177.951 4.97629 177.904 4.93008 177.85C4.69637 177.629 4.50934 177.364 4.38007 177.07C4.17461 176.6 4.06904 176.093 4.07008 175.58V53.46C4.13172 52.4333 4.43572 51.4359 4.95718 50.5494C5.47864 49.663 6.20271 48.9126 7.07008 48.36L85.5301 3.11997C85.8161 2.91476 86.149 2.78439 86.4983 2.74072C86.8476 2.69705 87.2023 2.74149 87.5301 2.86997C87.6203 2.90749 87.7045 2.95802 87.7801 3.01997C88.027 3.24102 88.2176 3.5179 88.3359 3.82752C88.4542 4.13715 88.4968 4.47055 88.4601 4.79997Z" fill="#455A64"/>
</g>
<path d="M87.5 2.86997C87.1723 2.74149 86.8176 2.69705 86.4683 2.74072C86.1189 2.78438 85.7861 2.91476 85.5 3.11997L7.05004 48.36C6.18268 48.9126 5.4586 49.663 4.93714 50.5494C4.41568 51.4359 4.11168 52.4333 4.05004 53.46V63.1L0.290039 60.89V51.33C0.345809 50.3089 0.640974 49.3152 1.1517 48.4293C1.66242 47.5433 2.37438 46.7899 3.23004 46.23L81.75 0.999967C82.0566 0.778132 82.4179 0.644141 82.795 0.612422C83.1721 0.580704 83.5507 0.652461 83.89 0.819967C84.42 1.12997 86.87 2.53997 87.5 2.86997Z" fill="#BA68C8"/>
<path d="M88.4601 4.79997C88.4601 2.93997 87.1301 2.18997 85.4601 3.11997L7.00006 48.36C6.14439 48.9199 5.43244 49.6733 4.92172 50.5593C4.411 51.4452 4.11583 52.4389 4.06006 53.46V63.1L88.4201 14.47L88.4601 4.79997Z" fill="#BA68C8"/>
<g opacity="0.4">
<path d="M88.4601 4.79997C88.4601 2.93997 87.1301 2.18997 85.4601 3.11997L7.00006 48.36C6.14439 48.9199 5.43244 49.6733 4.92172 50.5593C4.411 51.4452 4.11583 52.4389 4.06006 53.46V63.1L88.4201 14.47L88.4601 4.79997Z" fill="white"/>
</g>
<path opacity="0.65" d="M85.51 3.11998L7.05001 48.36C6.19227 48.9046 5.48689 49.6582 5.00001 50.55L1.26001 48.38C1.73166 47.5013 2.42013 46.7577 3.26001 46.22L81.75 0.999983C82.0557 0.776081 82.4171 0.640813 82.7947 0.609056C83.1723 0.577299 83.5512 0.650283 83.89 0.819982C84.42 1.14998 86.89 2.53998 87.48 2.86998C87.1563 2.74678 86.8073 2.70514 86.4638 2.74874C86.1202 2.79234 85.7926 2.91984 85.51 3.11998Z" fill="white"/>
<g opacity="0.2">
<path d="M0.330078 60.91V51.32C0.369625 50.2785 0.679812 49.2652 1.23008 48.38L5.00008 50.54C4.45379 51.4221 4.15022 52.4329 4.12008 53.47V63.1L0.330078 60.91Z" fill="white"/>
</g>
<path d="M70.7 15.77C70.1638 16.1876 69.7314 16.7235 69.4365 17.3358C69.1416 17.9482 68.9922 18.6204 69 19.3C69 20.72 69.7401 21.43 70.6601 20.9C71.1906 20.4814 71.6173 19.9459 71.9069 19.3354C72.1966 18.7248 72.3414 18.0557 72.33 17.38C72.37 16 71.62 15.24 70.7 15.77Z" fill="#455A64"/>
<path d="M76.7 12.31C76.164 12.7255 75.7316 13.2596 75.4366 13.8703C75.1417 14.4811 74.9922 15.1518 75 15.83C75 17.25 75.75 17.97 76.67 17.43C77.1999 17.0114 77.6255 16.4757 77.9135 15.865C78.2015 15.2542 78.3441 14.5851 78.33 13.91C78.36 12.49 77.62 11.78 76.7 12.31Z" fill="#455A64"/>
<path d="M82.69 8.84C82.1552 9.25604 81.7243 9.79047 81.431 10.4013C81.1378 11.012 80.9902 11.6825 81 12.36C81 13.78 81.74 14.5 82.66 13.97C83.1913 13.5498 83.6184 13.0127 83.908 12.4004C84.1977 11.7881 84.3421 11.1172 84.33 10.44C84.36 9 83.61 8.31 82.69 8.84Z" fill="#455A64"/>
<path d="M5.18016 178L4.81015 177.79C4.54015 177.62 4.23016 177.45 3.90016 177.27L3.41016 176.98L2.63015 176.53L1.99015 176.16L1.62016 175.96C1.42748 175.859 1.25738 175.719 1.12016 175.55C0.951573 175.376 0.816036 175.173 0.720157 174.95C0.494213 174.465 0.378117 173.935 0.380153 173.4V60.89L4.14016 63.1V175.54C4.15834 176.051 4.26316 176.554 4.45015 177.03C4.57942 177.324 4.76645 177.589 5.00016 177.81C5.03864 177.871 5.09428 177.92 5.16016 177.95L5.18016 178Z" fill="#37474F"/>
<path d="M11.4701 67.19C11.4736 67.0452 11.515 66.9038 11.5901 66.78L13.1601 63.52L13.2301 63.43C13.2301 63.43 13.3201 63.43 13.3501 63.43C13.3726 63.4496 13.3898 63.4745 13.4003 63.5024C13.4108 63.5303 13.4141 63.5604 13.4101 63.59V64.68C13.4279 64.7926 13.4279 64.9074 13.4101 65.02C13.3881 65.1248 13.351 65.2258 13.3001 65.32L12.4701 67L13.3001 67.76C13.3523 67.805 13.3904 67.864 13.4101 67.93C13.4306 68.0289 13.4306 68.131 13.4101 68.23V69.33C13.4077 69.407 13.3871 69.4824 13.3501 69.55C13.327 69.6114 13.285 69.664 13.2301 69.7C13.2199 69.7073 13.2076 69.7113 13.1951 69.7113C13.1825 69.7113 13.1703 69.7073 13.1601 69.7L11.5901 68.26C11.5477 68.2276 11.5143 68.1848 11.4933 68.1357C11.4723 68.0867 11.4643 68.033 11.4701 67.98V67.19Z" fill="#BA68C8"/>
<path d="M17.23 59C17.2628 58.8908 17.3029 58.7839 17.35 58.68C17.3989 58.5748 17.4793 58.4875 17.58 58.43L18.17 58.09C18.1881 58.0745 18.2112 58.066 18.235 58.066C18.2588 58.066 18.2819 58.0745 18.3 58.09C18.3192 58.1416 18.3192 58.1984 18.3 58.25C18.3033 58.2899 18.3033 58.3301 18.3 58.37L15.6 69.87C15.5752 69.9772 15.5383 70.0812 15.49 70.18C15.4436 70.2925 15.3585 70.3847 15.25 70.44L14.69 70.77C14.6816 70.7788 14.6715 70.7857 14.6603 70.7905C14.6492 70.7953 14.6372 70.7977 14.625 70.7977C14.6129 70.7977 14.6008 70.7953 14.5897 70.7905C14.5785 70.7857 14.5684 70.7788 14.56 70.77C14.5229 70.7253 14.5049 70.6678 14.51 70.61C14.5068 70.5701 14.5068 70.5299 14.51 70.49L17.23 59Z" fill="#BA68C8"/>
<path d="M21.4102 62.2699C21.4053 62.4145 21.364 62.5555 21.2902 62.6799L19.7202 65.9299C19.7042 65.9679 19.6803 66.002 19.6502 66.0299C19.6337 66.0447 19.6123 66.0529 19.5902 66.0529C19.568 66.0529 19.5467 66.0447 19.5302 66.0299C19.509 66.0094 19.4926 65.9843 19.4822 65.9567C19.4719 65.929 19.4677 65.8994 19.4702 65.8699V64.7699C19.4573 64.6603 19.4573 64.5496 19.4702 64.4399C19.4967 64.3365 19.5336 64.236 19.5802 64.1399L20.4102 62.4199L19.5802 61.66C19.5333 61.6106 19.496 61.5529 19.4702 61.4899C19.4562 61.3904 19.4562 61.2895 19.4702 61.1899V60.0899C19.4714 60.0127 19.492 59.9371 19.5302 59.8699C19.5533 59.8085 19.5953 59.756 19.6502 59.7199C19.6608 59.7138 19.6729 59.7106 19.6852 59.7106C19.6975 59.7106 19.7095 59.7138 19.7202 59.7199L21.2902 61.16C21.3334 61.1917 21.3673 61.2343 21.3884 61.2836C21.4095 61.3328 21.417 61.3868 21.4102 61.4399V62.2699Z" fill="#BA68C8"/>
<path d="M25.7802 61.51C25.8015 61.4929 25.8279 61.4836 25.8552 61.4836C25.8824 61.4836 25.9089 61.4929 25.9302 61.51C25.9564 61.5357 25.9763 61.5672 25.9885 61.6018C26.0006 61.6365 26.0046 61.6735 26.0002 61.71V62.91C26.0009 63.0046 25.9768 63.0977 25.9302 63.18C25.9022 63.258 25.8496 63.3247 25.7802 63.37L25.0402 63.8C25.0189 63.817 24.9924 63.8263 24.9652 63.8263C24.9379 63.8263 24.9115 63.817 24.8902 63.8C24.8416 63.745 24.8164 63.6732 24.8202 63.6V62.4C24.8246 62.3061 24.8484 62.2142 24.8902 62.13C24.9181 62.052 24.9708 61.9853 25.0402 61.94L25.7802 61.51Z" fill="#BA68C8"/>
<path d="M28.2702 60.0799C28.2906 60.061 28.3174 60.0504 28.3452 60.0504C28.373 60.0504 28.3998 60.061 28.4202 60.0799C28.4427 60.1058 28.4596 60.136 28.4699 60.1687C28.4803 60.2014 28.4837 60.2359 28.4802 60.2699V61.4799C28.4795 61.5732 28.459 61.6652 28.4202 61.7499C28.3829 61.8224 28.332 61.8869 28.2702 61.9399L27.5202 62.3599C27.4998 62.3789 27.473 62.3895 27.4452 62.3895C27.4174 62.3895 27.3905 62.3789 27.3702 62.3599C27.3477 62.3341 27.3308 62.3039 27.3204 62.2712C27.3101 62.2385 27.3066 62.204 27.3102 62.1699V60.9999C27.3109 60.9067 27.3313 60.8147 27.3702 60.7299C27.398 60.6545 27.451 60.5909 27.5202 60.5499L28.2702 60.0799Z" fill="#BA68C8"/>
<path d="M30.7502 58.64C30.7715 58.6229 30.798 58.6136 30.8252 58.6136C30.8525 58.6136 30.8789 58.6229 30.9002 58.64C30.9435 58.6973 30.9648 58.7683 30.9602 58.84V60.05C30.9595 60.1432 30.9391 60.2352 30.9002 60.32C30.8724 60.3954 30.8194 60.459 30.7502 60.5L30.0102 60.93C29.9874 60.9478 29.9592 60.9575 29.9302 60.9575C29.9012 60.9575 29.8731 60.9478 29.8502 60.93C29.8052 60.8735 29.7837 60.8019 29.7902 60.73V59.53C29.7909 59.4367 29.8114 59.3447 29.8502 59.26C29.8874 59.1846 29.9423 59.1194 30.0102 59.07L30.7502 58.64Z" fill="#BA68C8"/>
<g opacity="0.4">
<path d="M11.4701 67.19C11.4736 67.0452 11.515 66.9038 11.5901 66.78L13.1601 63.52L13.2301 63.43C13.2301 63.43 13.3201 63.43 13.3501 63.43C13.3726 63.4496 13.3898 63.4745 13.4003 63.5024C13.4108 63.5303 13.4141 63.5604 13.4101 63.59V64.68C13.4279 64.7926 13.4279 64.9074 13.4101 65.02C13.3881 65.1248 13.351 65.2258 13.3001 65.32L12.4701 67L13.3001 67.76C13.3523 67.805 13.3904 67.864 13.4101 67.93C13.4306 68.0289 13.4306 68.131 13.4101 68.23V69.33C13.4077 69.407 13.3871 69.4824 13.3501 69.55C13.327 69.6114 13.285 69.664 13.2301 69.7C13.2199 69.7073 13.2076 69.7113 13.1951 69.7113C13.1825 69.7113 13.1703 69.7073 13.1601 69.7L11.5901 68.26C11.5477 68.2276 11.5143 68.1848 11.4933 68.1357C11.4723 68.0867 11.4643 68.033 11.4701 67.98V67.19Z" fill="white"/>
<path d="M17.23 59C17.2628 58.8908 17.3029 58.7839 17.35 58.68C17.3989 58.5748 17.4793 58.4875 17.58 58.43L18.17 58.09C18.1881 58.0745 18.2112 58.066 18.235 58.066C18.2588 58.066 18.2819 58.0745 18.3 58.09C18.3192 58.1416 18.3192 58.1984 18.3 58.25C18.3033 58.2899 18.3033 58.3301 18.3 58.37L15.6 69.87C15.5752 69.9772 15.5383 70.0812 15.49 70.18C15.4436 70.2925 15.3585 70.3847 15.25 70.44L14.69 70.77C14.6816 70.7788 14.6715 70.7857 14.6603 70.7905C14.6492 70.7953 14.6372 70.7977 14.625 70.7977C14.6129 70.7977 14.6008 70.7953 14.5897 70.7905C14.5785 70.7857 14.5684 70.7788 14.56 70.77C14.5229 70.7253 14.5049 70.6678 14.51 70.61C14.5068 70.5701 14.5068 70.5299 14.51 70.49L17.23 59Z" fill="white"/>
<path d="M21.4102 62.27C21.4053 62.4146 21.364 62.5556 21.2902 62.68L19.7202 65.93C19.7042 65.9679 19.6803 66.002 19.6502 66.03C19.6337 66.0448 19.6123 66.0529 19.5902 66.0529C19.568 66.0529 19.5467 66.0448 19.5302 66.03C19.509 66.0094 19.4926 65.9844 19.4822 65.9567C19.4719 65.9291 19.4677 65.8995 19.4702 65.87V64.77C19.4573 64.6604 19.4573 64.5496 19.4702 64.44C19.4967 64.3366 19.5336 64.2361 19.5802 64.14L20.4102 62.42L19.5802 61.66C19.5333 61.6106 19.496 61.553 19.4702 61.49C19.4562 61.3905 19.4562 61.2895 19.4702 61.19V60.09C19.4714 60.0128 19.492 59.9371 19.5302 59.87C19.5533 59.8086 19.5953 59.756 19.6502 59.72C19.6608 59.7139 19.6729 59.7106 19.6852 59.7106C19.6975 59.7106 19.7095 59.7139 19.7202 59.72L21.2902 61.16C21.3334 61.1917 21.3673 61.2344 21.3884 61.2836C21.4095 61.3329 21.417 61.3869 21.4102 61.44V62.27Z" fill="white"/>
<path d="M25.7802 61.51C25.8015 61.4929 25.8279 61.4836 25.8552 61.4836C25.8824 61.4836 25.9089 61.4929 25.9302 61.51C25.9564 61.5357 25.9763 61.5672 25.9885 61.6018C26.0006 61.6365 26.0046 61.6735 26.0002 61.71V62.91C26.0009 63.0046 25.9768 63.0977 25.9302 63.18C25.9022 63.258 25.8496 63.3247 25.7802 63.37L25.0402 63.8C25.0189 63.817 24.9924 63.8263 24.9652 63.8263C24.9379 63.8263 24.9115 63.817 24.8902 63.8C24.8416 63.745 24.8164 63.6732 24.8202 63.6V62.4C24.8246 62.3061 24.8484 62.2142 24.8902 62.13C24.9181 62.052 24.9708 61.9853 25.0402 61.94L25.7802 61.51Z" fill="white"/>
<path d="M28.2702 60.08C28.2906 60.061 28.3174 60.0505 28.3452 60.0505C28.373 60.0505 28.3998 60.061 28.4202 60.08C28.4427 60.1059 28.4596 60.1361 28.4699 60.1688C28.4803 60.2015 28.4837 60.2359 28.4802 60.27V61.48C28.4795 61.5732 28.459 61.6653 28.4202 61.75C28.3829 61.8224 28.332 61.887 28.2702 61.94L27.5202 62.36C27.4998 62.379 27.473 62.3895 27.4452 62.3895C27.4174 62.3895 27.3905 62.379 27.3702 62.36C27.3477 62.3341 27.3308 62.3039 27.3204 62.2712C27.3101 62.2386 27.3066 62.2041 27.3102 62.17V61C27.3109 60.9068 27.3313 60.8148 27.3702 60.73C27.398 60.6546 27.451 60.591 27.5202 60.55L28.2702 60.08Z" fill="white"/>
<path d="M30.7502 58.64C30.7715 58.6229 30.798 58.6136 30.8252 58.6136C30.8525 58.6136 30.8789 58.6229 30.9002 58.64C30.9435 58.6973 30.9648 58.7683 30.9602 58.84V60.05C30.9595 60.1432 30.9391 60.2352 30.9002 60.32C30.8724 60.3954 30.8194 60.459 30.7502 60.5L30.0102 60.93C29.9874 60.9478 29.9592 60.9575 29.9302 60.9575C29.9012 60.9575 29.8731 60.9478 29.8502 60.93C29.8052 60.8735 29.7837 60.8019 29.7902 60.73V59.53C29.7909 59.4367 29.8114 59.3447 29.8502 59.26C29.8874 59.1846 29.9423 59.1194 30.0102 59.07L30.7502 58.64Z" fill="white"/>
</g>
<path d="M12.1401 76L62.9401 46.67C63.3701 46.42 63.7201 46.6 63.7201 47.07C63.6996 47.3309 63.6183 47.5834 63.4829 47.8074C63.3475 48.0313 63.1616 48.2206 62.9401 48.36L12.1401 77.69C11.7101 77.94 11.3601 77.76 11.3601 77.3C11.3791 77.0373 11.4596 76.7828 11.5951 76.557C11.7306 76.3312 11.9173 76.1404 12.1401 76Z" fill="#BA68C8"/>
<path d="M23.81 89.45L74.62 60.12C75.05 59.87 75.39 60.05 75.39 60.52C75.3714 60.7802 75.292 61.0324 75.1583 61.2565C75.0246 61.4805 74.8402 61.67 74.62 61.81L23.81 91.14C23.38 91.39 23.03 91.21 23.03 90.75C23.0491 90.4873 23.1296 90.2328 23.2651 90.007C23.4006 89.7812 23.5872 89.5904 23.81 89.45Z" fill="#BA68C8"/>
<path d="M23.81 96.19L55.65 77.82C56.08 77.57 56.42 77.75 56.42 78.22C56.4014 78.4802 56.322 78.7325 56.1883 78.9565C56.0546 79.1805 55.8702 79.3701 55.65 79.51L23.81 97.88C23.38 98.13 23.03 97.95 23.03 97.49C23.0491 97.2273 23.1296 96.9728 23.2651 96.747C23.4006 96.5212 23.5872 96.3304 23.81 96.19Z" fill="#BA68C8"/>
<path d="M23.81 102.93L55.65 84.56C56.08 84.31 56.42 84.49 56.42 84.96C56.4014 85.2202 56.322 85.4724 56.1883 85.6965C56.0546 85.9205 55.8702 86.1101 55.65 86.25L23.81 104.62C23.38 104.87 23.03 104.69 23.03 104.23C23.0491 103.967 23.1296 103.713 23.2651 103.487C23.4006 103.261 23.5872 103.07 23.81 102.93Z" fill="#BA68C8"/>
<path d="M66.0002 44.9L80.4902 36.5C80.9202 36.25 81.2702 36.43 81.2702 36.89C81.2512 37.1526 81.1707 37.4071 81.0352 37.633C80.8997 37.8588 80.713 38.0496 80.4902 38.19L66.0002 46.59C65.5702 46.83 65.2202 46.66 65.2202 46.19C65.2408 45.9291 65.322 45.6765 65.4574 45.4526C65.5928 45.2286 65.7787 45.0394 66.0002 44.9Z" fill="#BA68C8"/>
<path d="M24.6601 143L62.9401 120.83C63.3701 120.58 63.7201 120.75 63.7201 121.22C63.6996 121.481 63.6184 121.733 63.4829 121.957C63.3475 122.181 63.1616 122.371 62.9401 122.51L24.6601 144.69C24.2301 144.94 23.8801 144.76 23.8801 144.29C23.9007 144.029 23.9819 143.777 24.1173 143.553C24.2527 143.329 24.4386 143.139 24.6601 143Z" fill="#BA68C8"/>
<path d="M66.0002 119L80.4902 110.6C80.9202 110.36 81.2702 110.53 81.2702 111C81.2497 111.261 81.1684 111.513 81.033 111.737C80.8976 111.961 80.7117 112.151 80.4902 112.29L66.0002 120.72C65.5702 120.97 65.2202 120.79 65.2202 120.33C65.2346 120.062 65.3129 119.802 65.4486 119.57C65.5843 119.339 65.7735 119.143 66.0002 119Z" fill="#BA68C8"/>
<path d="M31.2002 118.86L80.4502 90.45C80.8802 90.2 81.2302 90.38 81.2302 90.84C81.2111 91.1026 81.1306 91.3572 80.9951 91.583C80.8597 91.8088 80.673 91.9996 80.4502 92.14L31.2002 120.54C30.7702 120.79 30.4202 120.61 30.4202 120.15C30.4384 119.888 30.5186 119.635 30.6542 119.411C30.7899 119.186 30.977 118.998 31.2002 118.86Z" fill="#BA68C8"/>
<path d="M18.8401 133L80.4501 97.23C80.8801 96.98 81.2301 97.16 81.2301 97.62C81.2119 97.8815 81.1316 98.1349 80.996 98.3592C80.8603 98.5836 80.6732 98.7724 80.4501 98.91L18.8401 134.69C18.4101 134.93 18.0601 134.76 18.0601 134.29C18.0806 134.029 18.1618 133.777 18.2972 133.553C18.4327 133.329 18.6185 133.139 18.8401 133Z" fill="#BA68C8"/>
<path d="M21.7402 137.91L62.9402 114C63.3702 113.75 63.7202 113.93 63.7202 114.4C63.6997 114.661 63.6184 114.913 63.483 115.137C63.3476 115.361 63.1617 115.551 62.9402 115.69L21.7402 139.56C21.3102 139.81 20.9602 139.63 20.9602 139.17C20.9852 138.914 21.0685 138.668 21.2038 138.449C21.339 138.231 21.5225 138.046 21.7402 137.91Z" fill="#BA68C8"/>
<path d="M18.8401 126L26.9801 121.3C27.4101 121.05 27.7601 121.23 27.7601 121.69C27.7472 121.953 27.6715 122.209 27.5393 122.437C27.407 122.665 27.2221 122.858 27.0001 123L18.8601 127.71C18.4301 127.95 18.0801 127.78 18.0801 127.31C18.0954 127.047 18.1721 126.792 18.3041 126.564C18.4361 126.337 18.6197 126.144 18.8401 126Z" fill="#BA68C8"/>
<path d="M12.1401 82.7299L47.7801 62.1399C48.2101 61.8899 48.5601 62.0699 48.5601 62.5399C48.5396 62.8009 48.4583 63.0534 48.3229 63.2773C48.1875 63.5013 48.0016 63.6905 47.7801 63.8299L12.1401 84.4199C11.7101 84.6599 11.3601 84.4899 11.3601 84.0199C11.3807 83.759 11.4619 83.5065 11.5973 83.2825C11.7327 83.0586 11.9186 82.8694 12.1401 82.7299Z" fill="#BA68C8"/>
<path opacity="0.6" d="M12.1401 82.7299L47.7801 62.1399C48.2101 61.8899 48.5601 62.0699 48.5601 62.5399C48.5396 62.8009 48.4583 63.0534 48.3229 63.2773C48.1875 63.5013 48.0016 63.6905 47.7801 63.8299L12.1401 84.4199C11.7101 84.6599 11.3601 84.4899 11.3601 84.0199C11.3807 83.759 11.4619 83.5065 11.5973 83.2825C11.7327 83.0586 11.9186 82.8694 12.1401 82.7299Z" fill="white"/>
<path d="M12.1401 89.46L19.3401 85.3C19.7701 85.05 20.1101 85.22 20.1101 85.69C20.0914 85.9502 20.0121 86.2024 19.8784 86.4265C19.7446 86.6505 19.5603 86.8401 19.3401 86.98L12.1401 91.14C11.7101 91.39 11.3601 91.21 11.3601 90.75C11.3791 90.4887 11.4597 90.2355 11.5952 90.0113C11.7308 89.7871 11.9175 89.5982 12.1401 89.46Z" fill="#BA68C8"/>
<path opacity="0.6" d="M12.1401 89.46L19.3401 85.3C19.7701 85.05 20.1101 85.22 20.1101 85.69C20.0914 85.9502 20.0121 86.2024 19.8784 86.4265C19.7446 86.6505 19.5603 86.8401 19.3401 86.98L12.1401 91.14C11.7101 91.39 11.3601 91.21 11.3601 90.75C11.3791 90.4887 11.4597 90.2355 11.5952 90.0113C11.7308 89.7871 11.9175 89.5982 12.1401 89.46Z" fill="white"/>
<path d="M12.1401 96.2L19.3401 92.04C19.7701 91.79 20.1101 91.96 20.1101 92.43C20.0914 92.6902 20.0121 92.9424 19.8784 93.1665C19.7446 93.3905 19.5603 93.58 19.3401 93.72L12.1401 97.88C11.7101 98.13 11.3601 97.95 11.3601 97.49C11.3791 97.2287 11.4597 96.9755 11.5952 96.7513C11.7308 96.5271 11.9175 96.3382 12.1401 96.2Z" fill="#BA68C8"/>
<path opacity="0.6" d="M12.1401 96.2L19.3401 92.04C19.7701 91.79 20.1101 91.96 20.1101 92.43C20.0914 92.6902 20.0121 92.9424 19.8784 93.1665C19.7446 93.3905 19.5603 93.58 19.3401 93.72L12.1401 97.88C11.7101 98.13 11.3601 97.95 11.3601 97.49C11.3791 97.2287 11.4597 96.9755 11.5952 96.7513C11.7308 96.5271 11.9175 96.3382 12.1401 96.2Z" fill="white"/>
<path d="M12.1401 102.94L19.3401 98.78C19.7701 98.53 20.1101 98.7 20.1101 99.17C20.0914 99.4302 20.0121 99.6824 19.8784 99.9064C19.7446 100.13 19.5603 100.32 19.3401 100.46L12.1401 104.62C11.7101 104.87 11.3601 104.69 11.3601 104.23C11.3783 103.968 11.4585 103.715 11.5942 103.491C11.7298 103.266 11.917 103.078 12.1401 102.94Z" fill="#BA68C8"/>
<path opacity="0.6" d="M12.1401 102.94L19.3401 98.78C19.7701 98.53 20.1101 98.7 20.1101 99.17C20.0914 99.4302 20.0121 99.6824 19.8784 99.9064C19.7446 100.13 19.5603 100.32 19.3401 100.46L12.1401 104.62C11.7101 104.87 11.3601 104.69 11.3601 104.23C11.3783 103.968 11.4585 103.715 11.5942 103.491C11.7298 103.266 11.917 103.078 12.1401 102.94Z" fill="white"/>
<path d="M12.1401 109.68L19.3401 105.51C19.7701 105.27 20.1101 105.44 20.1101 105.91C20.0914 106.17 20.0121 106.422 19.8784 106.646C19.7446 106.87 19.5603 107.06 19.3401 107.2L12.1401 111.36C11.7101 111.61 11.3601 111.43 11.3601 110.97C11.3783 110.708 11.4585 110.455 11.5942 110.231C11.7298 110.006 11.917 109.818 12.1401 109.68Z" fill="#BA68C8"/>
<path opacity="0.6" d="M12.1401 109.68L19.3401 105.51C19.7701 105.27 20.1101 105.44 20.1101 105.91C20.0914 106.17 20.0121 106.422 19.8784 106.646C19.7446 106.87 19.5603 107.06 19.3401 107.2L12.1401 111.36C11.7101 111.61 11.3601 111.43 11.3601 110.97C11.3783 110.708 11.4585 110.455 11.5942 110.231C11.7298 110.006 11.917 109.818 12.1401 109.68Z" fill="white"/>
<path d="M23.81 150.35L55.65 132C56.08 131.75 56.42 131.92 56.42 132.39C56.4029 132.651 56.3242 132.903 56.1904 133.128C56.0565 133.352 55.8713 133.541 55.65 133.68L23.81 152C23.38 152.25 23.03 152.08 23.03 151.61C23.0551 151.354 23.1384 151.108 23.2736 150.889C23.4088 150.671 23.5923 150.486 23.81 150.35Z" fill="#BA68C8"/>
<path d="M23.81 157.09L55.65 138.72C56.08 138.47 56.42 138.64 56.42 139.11C56.4029 139.371 56.3242 139.623 56.1904 139.848C56.0565 140.072 55.8713 140.261 55.65 140.4L23.81 158.77C23.38 159.02 23.03 158.85 23.03 158.38C23.0506 158.119 23.1318 157.867 23.2672 157.643C23.4026 157.419 23.5885 157.229 23.81 157.09Z" fill="#BA68C8"/>
<path d="M60.28 129.3L80.28 117.79C80.71 117.54 81.06 117.72 81.06 118.18C81.0418 118.441 80.9616 118.695 80.8259 118.919C80.6903 119.144 80.5031 119.332 80.28 119.47L60.28 130.98C59.85 131.23 59.5 131.05 59.5 130.59C59.5182 130.328 59.5984 130.075 59.7341 129.851C59.8697 129.626 60.0569 129.438 60.28 129.3Z" fill="#BA68C8"/>
<path d="M60.28 136L80.28 124.49C80.71 124.24 81.06 124.42 81.06 124.88C81.0418 125.141 80.9616 125.395 80.8259 125.619C80.6903 125.844 80.5031 126.032 80.28 126.17L60.28 137.68C59.85 137.93 59.5 137.75 59.5 137.29C59.5182 137.028 59.5984 136.775 59.7341 136.551C59.8697 136.326 60.0569 136.138 60.28 136Z" fill="#BA68C8"/>
<path d="M12.1401 157.09L19.3401 152.93C19.7701 152.68 20.1101 152.86 20.1101 153.32C20.093 153.582 20.0143 153.836 19.8805 154.062C19.7468 154.288 19.5616 154.479 19.3401 154.62L12.1401 158.78C11.7101 159.02 11.3601 158.85 11.3601 158.38C11.3807 158.119 11.4619 157.867 11.5973 157.643C11.7327 157.419 11.9186 157.229 12.1401 157.09Z" fill="#BA68C8"/>
<path opacity="0.6" d="M12.1401 157.09L19.3401 152.93C19.7701 152.68 20.1101 152.86 20.1101 153.32C20.093 153.582 20.0143 153.836 19.8805 154.062C19.7468 154.288 19.5616 154.479 19.3401 154.62L12.1401 158.78C11.7101 159.02 11.3601 158.85 11.3601 158.38C11.3807 158.119 11.4619 157.867 11.5973 157.643C11.7327 157.419 11.9186 157.229 12.1401 157.09Z" fill="white"/>
<path d="M12.1401 163.83L19.3401 159.67C19.7701 159.42 20.1101 159.6 20.1101 160.06C20.0938 160.321 20.0154 160.574 19.8815 160.798C19.7476 161.023 19.5619 161.212 19.3401 161.35L12.1401 165.52C11.7101 165.76 11.3601 165.59 11.3601 165.12C11.3807 164.859 11.4619 164.607 11.5973 164.383C11.7327 164.159 11.9186 163.969 12.1401 163.83Z" fill="#BA68C8"/>
<path opacity="0.6" d="M12.1401 163.83L19.3401 159.67C19.7701 159.42 20.1101 159.6 20.1101 160.06C20.0938 160.321 20.0154 160.574 19.8815 160.798C19.7476 161.023 19.5619 161.212 19.3401 161.35L12.1401 165.52C11.7101 165.76 11.3601 165.59 11.3601 165.12C11.3807 164.859 11.4619 164.607 11.5973 164.383C11.7327 164.159 11.9186 163.969 12.1401 163.83Z" fill="white"/>
<path d="M50.8 60.4L60 55.09C60.43 54.84 60.78 55.02 60.78 55.48C60.761 55.7427 60.6805 55.9972 60.545 56.223C60.4095 56.4488 60.2228 56.6396 60 56.78L50.78 62.09C50.35 62.33 50 62.16 50 61.69C50.0227 61.4273 50.107 61.1736 50.246 60.9495C50.385 60.7254 50.5748 60.5371 50.8 60.4Z" fill="#BA68C8"/>
<path opacity="0.6" d="M50.8 60.4L60 55.09C60.43 54.84 60.78 55.02 60.78 55.48C60.761 55.7427 60.6805 55.9972 60.545 56.223C60.4095 56.4488 60.2228 56.6396 60 56.78L50.78 62.09C50.35 62.33 50 62.16 50 61.69C50.0227 61.4273 50.107 61.1736 50.246 60.9495C50.385 60.7254 50.5748 60.5371 50.8 60.4Z" fill="white"/>
<path d="M23.26 109.94L68.26 84.0199C68.69 83.7699 69.04 83.9499 69.04 84.4199C69.0194 84.6809 68.9382 84.9334 68.8028 85.1574C68.6674 85.3813 68.4815 85.5705 68.26 85.7099L23.26 111.62C22.83 111.87 22.48 111.69 22.48 111.23C22.4982 110.968 22.5784 110.715 22.7141 110.491C22.8497 110.266 23.0368 110.078 23.26 109.94Z" fill="#BA68C8"/>
<path d="M12.1401 123.26L80.4501 83.72C80.8801 83.47 81.2301 83.65 81.2301 84.11C81.2119 84.3715 81.1317 84.6249 80.996 84.8493C80.8604 85.0736 80.6732 85.2624 80.4501 85.4L12.1401 125C11.7101 125.25 11.3601 125.07 11.3601 124.6C11.3729 124.33 11.4505 124.068 11.5863 123.835C11.722 123.601 11.912 123.404 12.1401 123.26Z" fill="#BA68C8"/>
<path d="M71.2302 82.28L80.4502 76.97C80.8802 76.72 81.2302 76.9 81.2302 77.36C81.212 77.6215 81.1318 77.8749 80.9961 78.0993C80.8605 78.3236 80.6733 78.5124 80.4502 78.65L71.2302 84C70.8002 84.24 70.4502 84.07 70.4502 83.6C70.4661 83.3339 70.5452 83.0754 70.6808 82.8458C70.8165 82.6163 71.0048 82.4223 71.2302 82.28Z" fill="#BA68C8"/>
<g opacity="0.4">
<path d="M21.7402 137.91L62.9402 114C63.3702 113.75 63.7202 113.93 63.7202 114.4C63.6997 114.661 63.6184 114.913 63.483 115.137C63.3476 115.361 63.1617 115.551 62.9402 115.69L21.7402 139.56C21.3102 139.81 20.9602 139.63 20.9602 139.17C20.9852 138.914 21.0685 138.668 21.2038 138.449C21.339 138.231 21.5225 138.046 21.7402 137.91Z" fill="white"/>
</g>
<g opacity="0.4">
<path d="M23.26 109.94L68.26 84.0199C68.69 83.7699 69.04 83.9499 69.04 84.4199C69.0194 84.6809 68.9382 84.9334 68.8028 85.1574C68.6674 85.3813 68.4815 85.5705 68.26 85.7099L23.26 111.62C22.83 111.87 22.48 111.69 22.48 111.23C22.4982 110.968 22.5784 110.715 22.7141 110.491C22.8497 110.266 23.0368 110.078 23.26 109.94Z" fill="white"/>
</g>
<g opacity="0.4">
<path d="M12.1401 123.26L80.4501 83.72C80.8801 83.47 81.2301 83.65 81.2301 84.11C81.2119 84.3715 81.1317 84.6249 80.996 84.8493C80.8604 85.0736 80.6732 85.2624 80.4501 85.4L12.1401 125C11.7101 125.25 11.3601 125.07 11.3601 124.6C11.3729 124.33 11.4505 124.068 11.5863 123.835C11.722 123.601 11.912 123.404 12.1401 123.26Z" fill="white"/>
</g>
<g opacity="0.4">
<path d="M71.2302 82.28L80.4502 76.97C80.8802 76.72 81.2302 76.9 81.2302 77.36C81.212 77.6215 81.1318 77.8749 80.9961 78.0993C80.8605 78.3236 80.6733 78.5124 80.4502 78.65L71.2302 84C70.8002 84.24 70.4502 84.07 70.4502 83.6C70.4661 83.3339 70.5452 83.0754 70.6808 82.8458C70.8165 82.6163 71.0048 82.4223 71.2302 82.28Z" fill="white"/>
</g>
<path d="M23.81 82.72L59.45 62.13C59.88 61.88 60.23 62.06 60.23 62.52C60.2118 62.7815 60.1316 63.0349 59.996 63.2593C59.8603 63.4836 59.6732 63.6724 59.45 63.81L23.81 84.4C23.38 84.65 23.03 84.47 23.03 84.01C23.049 83.7487 23.1296 83.4955 23.2652 83.2713C23.4007 83.0471 23.5874 82.8582 23.81 82.72Z" fill="#BA68C8"/>
<path opacity="0.6" d="M23.81 82.72L59.45 62.13C59.88 61.88 60.23 62.06 60.23 62.52C60.2118 62.7815 60.1316 63.0349 59.996 63.2593C59.8603 63.4836 59.6732 63.6724 59.45 63.81L23.81 84.4C23.38 84.65 23.03 84.47 23.03 84.01C23.049 83.7487 23.1296 83.4955 23.2652 83.2713C23.4007 83.0471 23.5874 82.8582 23.81 82.72Z" fill="white"/>
<path d="M62.4702 60.39L71.7002 55.08C72.1302 54.83 72.4802 55.01 72.4802 55.47C72.4612 55.7313 72.3806 55.9844 72.2451 56.2086C72.1095 56.4328 71.9228 56.6218 71.7002 56.76L62.4702 62.07C62.0402 62.32 61.6902 62.15 61.6902 61.68C61.7107 61.4191 61.7919 61.1666 61.9274 60.9426C62.0628 60.7186 62.2487 60.5294 62.4702 60.39Z" fill="#BA68C8"/>
<path opacity="0.6" d="M62.4702 60.39L71.7002 55.08C72.1302 54.83 72.4802 55.01 72.4802 55.47C72.4612 55.7313 72.3806 55.9844 72.2451 56.2086C72.1095 56.4328 71.9228 56.6218 71.7002 56.76L62.4702 62.07C62.0402 62.32 61.6902 62.15 61.6902 61.68C61.7107 61.4191 61.7919 61.1666 61.9274 60.9426C62.0628 60.7186 62.2487 60.5294 62.4702 60.39Z" fill="white"/>
</svg>
