<svg width="4656" height="500" viewBox="0 0 4656 500" fill="none" xmlns="http://www.w3.org/2000/svg">
<path d="M895.015 143.8H959.859V226.6H895.015C857.267 226.6 826.666 258.03 826.666 296.8V475H746.05V296.8C746.05 212.301 812.744 143.8 895.015 143.8Z" fill="#4CABE1"/>
<path d="M1681.25 233.35L1817.09 475H1545.42L1681.25 233.35Z" fill="#60FDF4"/>
<path d="M605.409 106H644.841V475H605.409V106Z" fill="#60FDF4"/>
<path d="M558.528 48.3999L691.721 103.092V133.969L558.528 185.2V48.3999Z" fill="#FB72FF"/>
<path d="M399.924 106.9H319.308V385.9H399.924V106.9Z" fill="#FFD526"/>
<path d="M319.308 326.5H399.924V385.9H319.308V326.5Z" fill="#4CABE1"/>
<path d="M359.218 125.8C372.661 125.8 383.576 137.01 383.576 150.817C383.576 164.624 372.661 175.834 359.218 175.834C345.775 175.834 334.86 164.624 334.86 150.817C334.86 137.01 345.775 125.8 359.218 125.8Z" fill="black"/>
<path d="M4559.14 191.95C4559.14 214.318 4541.48 232.45 4519.71 232.45C4497.93 232.45 4480.27 214.318 4480.27 191.95C4480.27 169.582 4497.93 151.45 4519.71 151.45C4541.48 151.45 4559.14 169.582 4559.14 191.95Z" fill="#4CABE1"/>
<path d="M4519.71 233.35L4655.54 475H4383.87L4519.71 233.35Z" fill="#60FDF4"/>
<path d="M4332.39 106H4253.53V172.6H4124.72V253.6H4253.53V475H4332.39V106Z" fill="#FB72FF"/>
<path d="M3823.28 293.2C3823.52 393.647 3902.87 475 4000.73 475C4098.58 475 4177.93 393.647 4178.17 293.2H4098.43C4098.19 348.415 4054.54 393.1 4000.73 393.1C3946.91 393.1 3903.26 348.415 3903.02 293.2H3823.28Z" fill="#62EB9A"/>
<path d="M3782.54 102.4C3782.54 124.768 3764.88 142.9 3743.1 142.9C3721.33 142.9 3703.67 124.768 3703.67 102.4C3703.67 80.0322 3721.33 61.8999 3743.1 61.8999C3764.88 61.8999 3782.54 80.0322 3782.54 102.4Z" fill="#FFD426"/>
<path d="M3733.47 143.8H3798.31V226.6H3733.47C3695.72 226.6 3665.12 258.03 3665.12 296.8V475H3584.5V296.8C3584.5 212.301 3651.19 143.8 3733.47 143.8Z" fill="#4CABE1"/>
<path d="M3443.86 106H3483.29V475H3443.86V106Z" fill="#60FDF4"/>
<path d="M3396.98 48.3999L3530.17 103.092V133.969L3396.98 185.2V48.3999Z" fill="#FB72FF"/>
<path d="M3238.77 107.027H3158.15V386.027H3238.77V107.027Z" fill="#FFD526"/>
<path d="M3157.76 326.5H3238.37V385.9H3157.76V326.5Z" fill="#4CABE1"/>
<path d="M3197.67 125.8C3211.11 125.8 3222.03 137.01 3222.03 150.817C3222.03 164.624 3211.11 175.835 3197.67 175.835C3184.23 175.835 3173.31 164.624 3173.31 150.817C3173.31 137.01 3184.23 125.8 3197.67 125.8Z" fill="black"/>
<path d="M2884.37 139.391C2974.62 139.391 3047.79 214.54 3047.79 307.241C3047.79 399.942 2974.62 475.091 2884.37 475.091V139.391Z" fill="#62EB9A"/>
<path d="M310.609 262.744C339.289 349.376 293.071 444.484 207.379 475.174C121.687 505.864 28.9704 460.514 0.291244 373.882L310.609 262.744Z" fill="#62EB9A"/>
<path d="M2693.36 172.299L2690.62 189.439L2420.6 143.827L2423.34 126.688L2693.36 172.299Z" fill="#FB72FF"/>
<path d="M2693.36 457.862L2690.62 475.001L2420.6 429.389L2423.34 412.25L2693.36 457.862Z" fill="#FB72FF"/>
<path d="M2515.48 314.761L2518.22 331.901L2788.24 286.289L2785.5 269.149L2515.48 314.761Z" fill="#FB72FF"/>
<path d="M2266.38 475.9H2346.99V494.8H2266.38V475.9Z" fill="#62EB9A"/>
<path d="M2006.34 212.604C1984.97 217.757 1971.46 239.482 1976.18 261.129C1980.9 282.777 2002.06 296.148 2023.43 290.995C2044.8 285.842 2058.31 264.117 2053.59 242.47C2048.87 220.822 2027.72 207.451 2006.34 212.604ZM2092.51 421.028L2015.11 439.688L1984.73 300.325L1847.12 333.498L1830.03 255.107L1967.64 221.934L1937.26 82.5712L2014.66 63.9114L2045.04 203.274L2182.65 170.101L2199.74 248.492L2062.13 281.665L2092.51 421.028Z" fill="#FFD426"/>
<path d="M2190.35 434.898C2190.35 457.265 2172.7 475.398 2150.92 475.398C2129.14 475.398 2111.49 457.265 2111.49 434.898C2111.49 412.53 2129.14 394.398 2150.92 394.398C2172.7 394.398 2190.35 412.53 2190.35 434.898Z" fill="#4CABE1"/>
<path d="M1717.59 186.778L1655.65 136.142L1615.39 188.162L1514.22 105.456L1465.26 168.724L1566.42 251.43L1432.58 424.364L1494.52 475L1717.59 186.778Z" fill="#FB72FF"/>
<path d="M984.833 293.2C985.07 393.647 1064.42 475 1162.28 475C1260.13 475 1339.48 393.647 1339.72 293.2H1259.98C1259.74 348.415 1216.09 393.1 1162.28 393.1C1108.46 393.1 1064.81 348.415 1064.57 293.2H984.833Z" fill="#62EB9A"/>
<path d="M990.318 434.5C990.318 456.868 972.664 475 950.886 475C929.108 475 911.454 456.868 911.454 434.5C911.454 412.132 929.108 394 950.886 394C972.664 394 990.318 412.132 990.318 434.5Z" fill="#FFD426"/>
</svg>
