<svg width="4782" height="500" viewBox="0 0 4782 500" fill="none" xmlns="http://www.w3.org/2000/svg">
<path d="M919.345 143.8H985.945V226.6H919.345C880.575 226.6 849.145 258.03 849.145 296.8V475H766.345V296.8C766.345 212.301 834.846 143.8 919.345 143.8Z" fill="#4CABE1"/>
<path d="M1726.88 233.35L1866.4 475H1587.36L1726.88 233.35Z" fill="#60FDF4"/>
<path d="M621.895 106H662.395V475H621.895V106Z" fill="#60FDF4"/>
<path d="M573.745 48.3999L710.545 103.092V133.969L573.745 185.2V48.3999Z" fill="#FB72FF"/>
<path d="M410.845 106.9H328.045V385.9H410.845V106.9Z" fill="#FFD526"/>
<path d="M328.045 326.5H410.845V385.9H328.045V326.5Z" fill="#4CABE1"/>
<path d="M369.036 125.8C382.843 125.8 394.054 137.01 394.054 150.817C394.054 164.624 382.843 175.834 369.036 175.834C355.229 175.834 344.019 164.624 344.019 150.817C344.019 137.01 355.229 125.8 369.036 125.8Z" fill="black"/>
<path d="M4682.7 191.95C4682.7 214.318 4664.57 232.45 4642.2 232.45C4619.84 232.45 4601.7 214.318 4601.7 191.95C4601.7 169.582 4619.84 151.45 4642.2 151.45C4664.57 151.45 4682.7 169.582 4682.7 191.95Z" fill="#4CABE1"/>
<path d="M4642.2 233.35L4781.72 475H4502.69L4642.2 233.35Z" fill="#60FDF4"/>
<path d="M4449.82 106H4368.82V172.6H4236.52V253.6H4368.82V475H4449.82V106Z" fill="#FB72FF"/>
<path d="M3926.92 293.2C3927.16 393.647 4008.67 475 4109.17 475C4209.67 475 4291.18 393.647 4291.42 293.2H4209.52C4209.28 348.415 4164.44 393.1 4109.17 393.1C4053.9 393.1 4009.06 348.415 4008.82 293.2H3926.92Z" fill="#62EB9A"/>
<path d="M3885.07 102.4C3885.07 124.768 3866.94 142.9 3844.57 142.9C3822.2 142.9 3804.07 124.768 3804.07 102.4C3804.07 80.0322 3822.2 61.8999 3844.57 61.8999C3866.94 61.8999 3885.07 80.0322 3885.07 102.4Z" fill="#FFD426"/>
<path d="M3834.67 143.8H3901.27V226.6H3834.67C3795.9 226.6 3764.47 258.03 3764.47 296.8V475H3681.67V296.8C3681.67 212.301 3750.17 143.8 3834.67 143.8Z" fill="#4CABE1"/>
<path d="M3537.22 106H3577.72V475H3537.22V106Z" fill="#60FDF4"/>
<path d="M3489.07 48.3999L3625.87 103.092V133.969L3489.07 185.2V48.3999Z" fill="#FB72FF"/>
<path d="M3326.57 107.027H3243.77V386.027H3326.57V107.027Z" fill="#FFD526"/>
<path d="M3243.37 326.5H3326.17V385.9H3243.37V326.5Z" fill="#4CABE1"/>
<path d="M3284.36 125.8C3298.17 125.8 3309.38 137.01 3309.38 150.817C3309.38 164.624 3298.17 175.835 3284.36 175.835C3270.55 175.835 3259.34 164.624 3259.34 150.817C3259.34 137.01 3270.55 125.8 3284.36 125.8Z" fill="black"/>
<path d="M2962.57 139.391C3055.28 139.391 3130.42 214.54 3130.42 307.241C3130.42 399.942 3055.28 475.091 2962.57 475.091V139.391Z" fill="#62EB9A"/>
<path d="M317.8 262.744C347.98 350.395 301.391 445.916 213.741 476.096C126.091 506.277 30.5695 459.688 0.389104 372.038L317.8 262.744Z" fill="#62EB9A"/>
<path d="M2766.4 172.299L2763.58 189.439L2486.25 143.827L2489.06 126.688L2766.4 172.299Z" fill="#FB72FF"/>
<path d="M2766.4 457.862L2763.58 475.001L2486.25 429.389L2489.06 412.25L2766.4 457.862Z" fill="#FB72FF"/>
<path d="M2583.7 314.761L2586.51 331.901L2863.85 286.289L2861.03 269.149L2583.7 314.761Z" fill="#FB72FF"/>
<path d="M2327.85 475.9H2410.65V494.8H2327.85V475.9Z" fill="#62EB9A"/>
<path d="M2060.5 212.324C2038.69 217.322 2025.07 239.047 2030.07 260.849C2035.07 282.651 2056.79 296.274 2078.59 291.276C2100.4 286.278 2114.02 264.552 2109.02 242.75C2104.02 220.948 2082.3 207.326 2060.5 212.324ZM2150.25 422.585L2071.29 440.684L2039.12 300.325L1898.76 332.501L1880.66 253.549L2021.02 221.373L1988.84 81.014L2067.79 62.9148L2099.97 203.274L2240.33 171.098L2258.43 250.05L2118.07 282.226L2150.25 422.585Z" fill="#FFD426"/>
<path d="M2249.76 434.898C2249.76 457.265 2231.63 475.398 2209.26 475.398C2186.89 475.398 2168.76 457.265 2168.76 434.898C2168.76 412.53 2186.89 394.398 2209.26 394.398C2231.63 394.398 2249.76 412.53 2249.76 434.898Z" fill="#4CABE1"/>
<path d="M1764.2 186.218L1700.81 135.794L1659.35 187.916L1555.81 105.557L1505.39 168.948L1608.93 251.307L1471.1 424.576L1534.49 475L1764.2 186.218Z" fill="#FB72FF"/>
<path d="M1011.6 293.2C1011.84 393.647 1093.34 475 1193.84 475C1294.35 475 1375.85 393.647 1376.09 293.2H1294.19C1293.95 348.415 1249.12 393.1 1193.84 393.1C1138.57 393.1 1093.74 348.415 1093.5 293.2H1011.6Z" fill="#62EB9A"/>
<path d="M1017.23 434.5C1017.23 456.868 999.097 475 976.729 475C954.361 475 936.229 456.868 936.229 434.5C936.229 412.132 954.361 394 976.729 394C999.097 394 1017.23 412.132 1017.23 434.5Z" fill="#FFD426"/>
</svg>
