<svg width="201" height="369" viewBox="0 0 201 369" fill="none" xmlns="http://www.w3.org/2000/svg">
<path d="M15.7201 368.56C15.0627 368.558 14.4176 368.382 13.8501 368.05C13.2779 367.726 12.8029 367.254 12.4741 366.685C12.1453 366.115 11.9748 365.468 11.9801 364.81V284.71C11.9801 284.577 12.0328 284.45 12.1266 284.357C12.2203 284.263 12.3475 284.21 12.4801 284.21C12.6127 284.21 12.7399 284.263 12.8337 284.357C12.9274 284.45 12.9801 284.577 12.9801 284.71V364.81C12.9766 365.299 13.1035 365.78 13.3479 366.204C13.5922 366.627 13.9451 366.978 14.3701 367.22C14.7939 367.466 15.2752 367.595 15.7651 367.595C16.2551 367.595 16.7363 367.466 17.1601 367.22L26.9701 361.52C27.0247 361.485 27.086 361.461 27.1501 361.45C27.2142 361.439 27.2799 361.441 27.3431 361.456C27.4064 361.472 27.4659 361.5 27.518 361.538C27.5701 361.577 27.6138 361.626 27.6464 361.683C27.6789 361.739 27.6997 361.801 27.7075 361.866C27.7152 361.931 27.7097 361.996 27.6914 362.059C27.673 362.121 27.6421 362.179 27.6007 362.229C27.5592 362.279 27.508 362.32 27.4501 362.35L17.6401 368.05C17.0578 368.39 16.3944 368.566 15.7201 368.56Z" fill="#263238"/>
<path d="M27.5401 359.46C28.6201 358.84 29.5401 359.34 29.5401 360.59C29.4975 361.271 29.294 361.933 28.9464 362.52C28.5987 363.108 28.1168 363.605 27.5401 363.97C26.4601 364.6 25.5901 364.09 25.5901 362.85C25.6248 362.171 25.8196 361.51 26.1585 360.921C26.4974 360.332 26.9708 359.831 27.5401 359.46Z" fill="#263238"/>
<path d="M12.46 282.45C13.54 281.83 14.41 282.34 14.41 283.58C14.3737 284.258 14.1782 284.919 13.8395 285.508C13.5007 286.097 13.0282 286.598 12.46 286.97C11.38 287.59 10.46 287.09 10.46 285.84C10.5018 285.157 10.7049 284.494 11.0525 283.905C11.4001 283.315 11.8825 282.817 12.46 282.45Z" fill="#263238"/>
<path d="M4.89998 280L20 271.27C21.2134 270.479 22.2232 269.413 22.9477 268.158C23.6722 266.904 24.091 265.496 24.17 264.05V246.64C24.17 243.98 22.3 242.91 20 244.23L4.89998 253C3.68659 253.791 2.67673 254.857 1.95224 256.112C1.22775 257.366 0.809005 258.774 0.72998 260.22V277.68C0.72998 280.3 2.59998 281.37 4.89998 280Z" fill="#BA68C8"/>
<path d="M18.8101 255.52V266.11L14.7901 268.43V261.03L11.1301 263.14V270.54L7.1001 272.87V262.28L12.9601 251.96L18.8101 255.52Z" fill="white"/>
<path d="M166.82 278.89C166.713 278.892 166.608 278.858 166.523 278.793C166.437 278.728 166.376 278.637 166.348 278.534C166.321 278.43 166.329 278.321 166.371 278.222C166.413 278.123 166.486 278.042 166.58 277.99L178.58 270.99C179.476 270.471 180.219 269.725 180.737 268.829C181.255 267.932 181.528 266.915 181.53 265.88V226C181.53 225.872 181.58 225.749 181.67 225.657C181.76 225.565 181.882 225.513 182.01 225.51C182.074 225.51 182.137 225.523 182.196 225.547C182.255 225.572 182.308 225.608 182.353 225.654C182.398 225.7 182.433 225.754 182.456 225.813C182.48 225.873 182.491 225.936 182.49 226V265.91C182.49 267.114 182.173 268.297 181.571 269.339C180.969 270.382 180.103 271.248 179.06 271.85L167.06 278.85C166.984 278.881 166.902 278.895 166.82 278.89Z" fill="#455A64"/>
<path d="M182.05 223.75C183.13 223.13 184.05 223.63 184.05 224.88C184.007 225.561 183.804 226.223 183.456 226.81C183.109 227.398 182.627 227.895 182.05 228.26C180.97 228.89 180.1 228.38 180.1 227.13C180.136 226.453 180.332 225.794 180.671 225.207C181.009 224.619 181.482 224.12 182.05 223.75Z" fill="#455A64"/>
<path d="M166.82 276.15C167.9 275.52 168.77 276.03 168.77 277.28C168.734 277.957 168.538 278.616 168.199 279.203C167.861 279.791 167.388 280.29 166.82 280.66C165.74 281.28 164.82 280.78 164.82 279.53C164.863 278.849 165.066 278.187 165.414 277.6C165.761 277.012 166.243 276.515 166.82 276.15Z" fill="#455A64"/>
<path d="M174.49 224.72L189.62 216C190.83 215.204 191.837 214.135 192.559 212.879C193.282 211.624 193.7 210.216 193.78 208.77V191.32C193.78 188.66 191.91 187.59 189.61 188.92L174.49 197.65C173.277 198.439 172.267 199.503 171.542 200.756C170.818 202.009 170.399 203.415 170.32 204.86V222.32C170.32 225 172.19 226.06 174.49 224.72Z" fill="#BA68C8"/>
<path d="M182.05 213.66L180.7 213.3C178.18 212.62 176.9 211.03 176.9 208.56C176.9 206.42 178.1 203.99 179.57 203.14C179.786 202.981 180.039 202.88 180.305 202.846C180.571 202.812 180.841 202.847 181.09 202.947C181.338 203.047 181.557 203.21 181.725 203.419C181.893 203.627 182.005 203.876 182.05 204.14C182.363 202.596 183.249 201.227 184.53 200.31C186.01 199.45 187.21 200.5 187.21 202.64C187.21 205.11 185.93 208.18 183.4 211.77L182.05 213.66Z" fill="white"/>
<path d="M189 34C188.932 34 188.865 33.9865 188.803 33.9603C188.74 33.934 188.683 33.8955 188.636 33.8471C188.588 33.7987 188.551 33.7413 188.526 33.6783C188.501 33.6152 188.489 33.5478 188.49 33.48V3.23002C188.49 2.33002 188.28 1.70002 187.89 1.48002C187.5 1.26002 186.89 1.39001 186.08 1.84001L169.08 11.67C169.021 11.7069 168.955 11.7315 168.886 11.7423C168.817 11.7532 168.747 11.7501 168.679 11.7332C168.611 11.7163 168.548 11.6859 168.492 11.6439C168.437 11.602 168.39 11.5492 168.355 11.4888C168.32 11.4284 168.298 11.3616 168.289 11.2924C168.281 11.2232 168.286 11.153 168.305 11.0859C168.324 11.0188 168.357 10.9563 168.401 10.902C168.444 10.8478 168.499 10.8029 168.56 10.77L185.56 0.950014C187 0.120014 187.9 0.290013 188.41 0.590013C188.92 0.890013 189.52 1.59002 189.52 3.23002V33.45C189.524 33.5208 189.514 33.5916 189.49 33.6582C189.465 33.7248 189.428 33.7858 189.379 33.8373C189.33 33.8888 189.271 33.9298 189.206 33.9578C189.141 33.9858 189.071 34.0001 189 34Z" fill="#455A64"/>
<path d="M189 35.71C189.577 35.3448 190.059 34.848 190.406 34.2605C190.754 33.6729 190.957 33.0114 191 32.3301C191 31.0801 190.12 30.57 189 31.2C188.423 31.5647 187.94 32.0614 187.593 32.649C187.245 33.2367 187.042 33.8985 187 34.5801C187 35.8301 187.89 36.33 189 35.71Z" fill="#455A64"/>
<path d="M168.77 13.47C169.348 13.1059 169.831 12.6095 170.178 12.0217C170.526 11.4339 170.729 10.7717 170.77 10.09C170.77 8.84 169.89 8.34 168.77 8.96C168.201 9.33128 167.727 9.83194 167.388 10.4211C167.05 11.0103 166.855 11.6712 166.82 12.35C166.82 13.59 167.69 14.1 168.77 13.47Z" fill="#455A64"/>
<path d="M181.41 70.8L196.54 62C197.752 61.2082 198.76 60.1418 199.483 58.8874C200.206 57.6329 200.623 56.2258 200.7 54.78V37.4C200.7 34.74 198.84 33.67 196.53 34.99L181.41 43.72C180.198 44.5118 179.19 45.5782 178.467 46.8327C177.744 48.0871 177.327 49.4943 177.25 50.94V68.4C177.25 71.06 179.11 72.13 181.41 70.8Z" fill="#BA68C8"/>
<path d="M185.07 52C184.901 51.9976 184.735 51.9523 184.588 51.8684C184.441 51.7844 184.318 51.6645 184.23 51.52C184.11 51.2966 184.08 51.036 184.145 50.791C184.21 50.5459 184.365 50.3347 184.58 50.2L192.4 45.69C192.507 45.5816 192.638 45.499 192.781 45.4486C192.925 45.3983 193.079 45.3815 193.23 45.3994C193.381 45.4174 193.526 45.4698 193.654 45.5524C193.782 45.6351 193.89 45.7459 193.968 45.8764C194.047 46.007 194.095 46.1537 194.108 46.3055C194.121 46.4573 194.1 46.6101 194.045 46.7523C193.99 46.8945 193.903 47.0222 193.792 47.1258C193.68 47.2294 193.546 47.3061 193.4 47.35L185.59 51.87C185.432 51.9599 185.252 52.0048 185.07 52Z" fill="white"/>
<path d="M185.07 56.12C184.901 56.1176 184.735 56.0723 184.588 55.9884C184.441 55.9044 184.318 55.7846 184.23 55.64C184.11 55.4166 184.08 55.156 184.145 54.911C184.21 54.6659 184.365 54.4547 184.58 54.32L192.4 49.81C192.624 49.6902 192.884 49.6596 193.129 49.7246C193.374 49.7896 193.585 49.9452 193.72 50.16C193.839 50.3846 193.868 50.6461 193.801 50.8912C193.734 51.1364 193.577 51.3469 193.36 51.48L185.55 56C185.403 56.0796 185.238 56.1209 185.07 56.12Z" fill="white"/>
<path d="M185.07 60.28C184.872 60.2571 184.685 60.1755 184.533 60.0455C184.382 59.9155 184.273 59.7431 184.22 59.5506C184.167 59.3581 184.173 59.1542 184.238 58.9652C184.302 58.7762 184.421 58.6107 184.58 58.49L192.4 54C192.508 53.8948 192.639 53.8155 192.782 53.768C192.925 53.7204 193.077 53.7059 193.227 53.7254C193.376 53.745 193.52 53.7981 193.646 53.8809C193.772 53.9636 193.878 54.0738 193.955 54.2032C194.033 54.3327 194.08 54.4779 194.093 54.6282C194.107 54.7785 194.086 54.9298 194.032 55.0709C193.979 55.212 193.894 55.3392 193.785 55.4429C193.675 55.5467 193.544 55.6243 193.4 55.67L185.59 60.18C185.429 60.2595 185.249 60.294 185.07 60.28Z" fill="white"/>
</svg>
