<svg width="143" height="117" viewBox="0 0 143 117" fill="none" xmlns="http://www.w3.org/2000/svg">
<path d="M44.23 7.88001C44.1586 6.57972 43.7819 5.31454 43.1304 4.18699C42.4789 3.05943 41.5709 2.10123 40.48 1.39001C39.3203 0.798301 38.0369 0.489807 36.735 0.489807C35.4331 0.489807 34.1497 0.798301 32.99 1.39001L4.51001 17.7C3.41857 18.4106 2.51016 19.3687 1.85858 20.4964C1.20699 21.6241 0.830611 22.8895 0.76001 24.19V54.93C0.831433 56.2317 1.20809 57.4982 1.85953 58.6274C2.51097 59.7566 3.41892 60.7166 4.51001 61.43C5.6711 62.0171 6.95395 62.3229 8.25501 62.3229C9.55607 62.3229 10.8389 62.0171 12 61.43L40.83 44.86C44.2 42.94 44.23 41.02 44.23 38.62V7.88001Z" fill="#37474F"/>
<path d="M0.76001 54.93C0.831433 56.2316 1.20809 57.4982 1.85953 58.6274C2.51097 59.7566 3.41892 60.7166 4.51001 61.43C5.5646 61.9642 6.72071 62.2681 7.90168 62.3216C9.08264 62.375 10.2615 62.1768 11.36 61.74C9.60001 62.41 8.26001 61.4 8.26001 59.26V28.51C8.30652 27.2078 8.68147 25.9385 9.35001 24.82L1.86001 20.5C1.18391 21.6157 0.805184 22.8862 0.76001 24.19V54.93Z" fill="#263238"/>
<path d="M44.11 6.81999C43.67 5.22999 42.22 4.71999 40.49 5.71999L12 22C10.892 22.6885 9.98224 23.6535 9.36 24.8L1.87 20.49C2.49224 19.3435 3.40203 18.3785 4.50999 17.69L33 1.39999C34.1628 0.812847 35.4473 0.506958 36.75 0.506958C38.0527 0.506958 39.3371 0.812847 40.5 1.39999C41.4372 2.01207 42.2404 2.80805 42.8609 3.7397C43.4815 4.67135 43.9064 5.71927 44.11 6.81999Z" fill="#455A64"/>
<path d="M36.57 15.55C36.5874 16.3592 36.4081 17.1605 36.0476 17.8851C35.687 18.6097 35.1559 19.2359 34.5 19.71C33.28 20.41 32.5 19.55 32.5 17.9C32.457 17.093 32.6177 16.2881 32.9672 15.5595C33.3167 14.8308 33.8438 14.2017 34.5 13.73C35.77 13 36.54 13.85 36.57 15.55Z" fill="#BA68C8"/>
<path d="M36.4401 20.93L36.0901 40.17L32.0701 42.49L32.4301 23.24L36.4401 20.93Z" fill="#BA68C8"/>
<path d="M25.48 20L20.48 22.92L15.21 52.21L19.21 49.9L20.44 42.47L25.31 39.65L26.63 45.65L30.77 43.26L25.48 20ZM21 37.7C21 37.7 22.54 27.7 22.79 26.03C23.04 27.46 24.72 35.55 24.72 35.55L21 37.7Z" fill="#BA68C8"/>
<path d="M142.51 8.57004C142.439 7.26957 142.063 6.00409 141.411 4.87641C140.76 3.74873 139.851 2.79067 138.76 2.08004C137.597 1.4929 136.313 1.18701 135.01 1.18701C133.707 1.18701 132.423 1.4929 131.26 2.08004L102.79 18.38C101.699 19.0934 100.791 20.0535 100.14 21.1826C99.4881 22.3118 99.1115 23.5784 99.04 24.88V55.62C99.1106 56.9205 99.487 58.186 100.139 59.3137C100.79 60.4413 101.699 61.3994 102.79 62.11C103.951 62.7018 105.237 63.0103 106.54 63.0103C107.844 63.0103 109.129 62.7018 110.29 62.11L139.12 45.56C142.49 43.64 142.52 41.71 142.52 39.32L142.51 8.57004Z" fill="#37474F"/>
<path d="M99 55.6201C99.0706 56.9205 99.447 58.186 100.099 59.3137C100.75 60.4414 101.659 61.3994 102.75 62.1101C103.806 62.6461 104.963 62.9518 106.146 63.007C107.328 63.0621 108.509 62.8655 109.61 62.4301C107.85 63.1001 106.5 62.09 106.5 59.9501V29.2001C106.544 27.896 106.923 26.6252 107.6 25.5101L100.11 21.1801C99.4339 22.2994 99.0552 23.5731 99.01 24.8801L99 55.6201Z" fill="#263238"/>
<path d="M142.38 7.50007C141.95 5.91007 140.5 5.41007 138.76 6.40007L110.28 22.7101C109.17 23.3957 108.259 24.3614 107.64 25.5101L100.15 21.1901C100.775 20.0457 101.684 19.0815 102.79 18.3901L131.26 2.08007C132.424 1.49826 133.708 1.19537 135.01 1.19537C136.312 1.19537 137.596 1.49826 138.76 2.08007C139.7 2.69029 140.506 3.48558 141.128 4.41743C141.75 5.34928 142.176 6.39815 142.38 7.50007Z" fill="#455A64"/>
<path fill-rule="evenodd" clip-rule="evenodd" d="M136.28 34.5401C136.276 36.3472 135.798 38.1215 134.892 39.6853C133.986 41.2491 132.686 42.5474 131.12 43.4501C129.996 44.2181 128.632 44.5521 127.28 44.3901L127.94 39.9301C129.02 40.1902 130.158 40.0256 131.12 39.4701C131.589 39.2484 131.986 38.8991 132.265 38.4622C132.545 38.0254 132.695 37.5186 132.7 37.0001C132.7 36.0701 132.34 35.8401 130.96 35.9101C128.49 36.0701 127.54 34.5501 127.57 32.3601C127.58 30.6075 128.028 28.8853 128.873 27.3501C129.719 25.8149 130.934 24.5155 132.41 23.5701C133.401 22.9112 134.583 22.5983 135.77 22.6801L135.12 27.0001C134.235 26.8218 133.316 26.9786 132.54 27.4401C132.12 27.6637 131.767 27.996 131.519 28.4023C131.271 28.8087 131.137 29.2741 131.13 29.7501C131.13 30.6101 131.59 30.7501 133.04 30.7501C135.31 30.6401 136.25 31.8601 136.28 34.5401Z" fill="#BA68C8"/>
<path fill-rule="evenodd" clip-rule="evenodd" d="M124.81 23.1901C123.72 22.4701 122.09 22.7401 119.81 24.0601C118.05 25.0578 116.378 26.2018 114.81 27.4801V52.3901L118.48 50.2801V41.2801C118.92 41.105 119.345 40.8943 119.75 40.6501C122.058 39.3167 123.911 37.3203 125.07 34.9201C126.089 32.7573 126.602 30.3907 126.57 28.0001C126.57 25.5501 125.87 23.8501 124.81 23.1901ZM119.7 36.2501C119.318 36.495 118.904 36.6868 118.47 36.8201V29.3701C118.931 28.9364 119.445 28.5633 120 28.2601C121.86 27.1901 122.9 27.9701 122.91 30.2601C122.951 31.453 122.676 32.6356 122.113 33.6878C121.549 34.7399 120.716 35.6239 119.7 36.2501Z" fill="#BA68C8"/>
<path d="M82.77 62.15C82.6972 60.8477 82.3178 59.5811 81.6626 58.4533C81.0075 57.3255 80.0952 56.3684 79 55.66C77.8372 55.0729 76.5527 54.767 75.25 54.767C73.9474 54.767 72.6629 55.0729 71.5 55.66L43.05 72C41.9586 72.7106 41.0502 73.6687 40.3986 74.7964C39.747 75.924 39.3707 77.1895 39.3 78.49V109.2C39.3707 110.5 39.747 111.766 40.3986 112.894C41.0502 114.021 41.9586 114.979 43.05 115.69C44.2129 116.277 45.4974 116.583 46.8 116.583C48.1027 116.583 49.3872 116.277 50.55 115.69L79.38 99.13C82.75 97.21 82.78 95.28 82.78 92.89L82.77 62.15Z" fill="#37474F"/>
<path d="M39.3 109.2C39.3707 110.5 39.747 111.766 40.3986 112.894C41.0502 114.021 41.9586 114.979 43.05 115.69C44.1071 116.222 45.2647 116.525 46.4469 116.578C47.6291 116.631 48.8093 116.434 49.91 116C48.15 116.67 46.8 115.66 46.8 113.52V82.78C46.8452 81.4762 47.2239 80.2058 47.9 79.09L40.41 74.77C39.7327 75.8852 39.3539 77.156 39.31 78.46L39.3 109.2Z" fill="#263238"/>
<path d="M82.64 61.09C82.21 59.5 80.76 58.99 79.02 59.98L50.54 76.29C49.4297 76.9757 48.5192 77.9413 47.9 79.09L40.41 74.77C41.0354 73.6337 41.945 72.6792 43.05 72L71.52 55.69C72.6829 55.1029 73.9674 54.797 75.27 54.797C76.5727 54.797 77.8572 55.1029 79.02 55.69C79.9577 56.298 80.7621 57.0902 81.3844 58.0184C82.0066 58.9467 82.4338 59.9917 82.64 61.09Z" fill="#455A64"/>
<path d="M57.9401 80.57V86.52L62.9001 76.47L57.9401 80.57Z" fill="#BA68C8"/>
<path d="M71.2201 72.76L65.7001 74.57L71.2201 79.38V72.76Z" fill="#BA68C8"/>
<path d="M70.8101 80.53L64.7601 75.25L58.7001 87.53L59.1501 87.27L64.2901 84.3L70.8101 80.53Z" fill="#BA68C8"/>
<path d="M53.9701 91.57L62.4201 100.08L57.1401 89.74L53.9701 91.57Z" fill="#BA68C8"/>
<path d="M67.9501 94.41L74.8401 79.52L72.2601 81.01L67.9501 94.41Z" fill="#BA68C8"/>
<path d="M64.46 101.57L70.79 81.86L58.12 89.18L64.46 101.57Z" fill="#BA68C8"/>
<path d="M56.8 83.33L54.16 90.15L56.75 88.65L56.8 88.63V83.33Z" fill="#BA68C8"/>
<path d="M72.4701 79.58L75.2901 77.95L72.3501 73.77V79.65L72.4701 79.58Z" fill="#BA68C8"/>
</svg>
