<svg width="433" height="91" viewBox="0 0 433 91" fill="none" xmlns="http://www.w3.org/2000/svg">
<path d="M187 57.68C186.806 57.6802 186.617 57.6284 186.45 57.53L183.45 55.81C183.204 55.6689 183.021 55.439 182.94 55.1675C182.858 54.896 182.883 54.6035 183.01 54.35L185.74 48.84C185.776 48.7581 185.795 48.6696 185.795 48.58C185.795 48.4904 185.776 48.4018 185.74 48.32C185.323 47.6489 184.987 46.9305 184.74 46.18L180.69 48C180.558 48.0698 180.409 48.103 180.26 48.0962C180.11 48.0893 179.965 48.0428 179.84 47.9612C179.715 47.8797 179.613 47.7661 179.546 47.6323C179.48 47.4985 179.45 47.3492 179.46 47.2V41.89C179.47 41.6351 179.537 41.3857 179.654 41.1593C179.772 40.9329 179.938 40.7352 180.14 40.58L184.36 37.58C184.541 37.4221 184.676 37.2183 184.75 36.99C185.03 35.7542 185.39 34.5383 185.83 33.35C185.847 33.2864 185.849 33.2196 185.835 33.1552C185.821 33.0908 185.792 33.0307 185.75 32.98L183.37 30.98C183.166 30.7945 183.03 30.5462 182.983 30.2746C182.936 30.0029 182.98 29.7233 183.11 29.48L186.51 23.6C186.651 23.361 186.871 23.1779 187.131 23.0814C187.391 22.9848 187.677 22.9808 187.94 23.07L190.94 24.07C191.002 24.0859 191.067 24.0851 191.129 24.0675C191.19 24.0499 191.246 24.0163 191.29 23.97C192.101 22.9958 192.973 22.0739 193.9 21.21C194.07 21.0349 194.182 20.8113 194.22 20.57L194.69 15.44C194.72 15.1858 194.806 14.9415 194.943 14.7252C195.08 14.5088 195.263 14.326 195.48 14.19L200.1 11.53C200.223 11.4454 200.366 11.3956 200.515 11.3857C200.664 11.3758 200.813 11.4062 200.946 11.4738C201.079 11.5413 201.191 11.6435 201.271 11.7695C201.351 11.8956 201.396 12.0408 201.4 12.19L201.85 16.68C202.619 16.4963 203.409 16.4123 204.2 16.43C204.376 16.4202 204.542 16.3411 204.66 16.21L208 11.1C208.156 10.864 208.396 10.697 208.672 10.6336C208.947 10.5703 209.237 10.6156 209.48 10.76L212.48 12.47C212.724 12.6128 212.905 12.8427 212.987 13.1136C213.068 13.3844 213.045 13.6761 212.92 13.93L210.19 19.45C210.156 19.5306 210.138 19.6174 210.138 19.705C210.138 19.7926 210.156 19.8794 210.19 19.96C210.613 20.6314 210.949 21.3538 211.19 22.11L215.3 20.27C215.431 20.2008 215.577 20.1647 215.725 20.1647C215.873 20.1647 216.019 20.2008 216.15 20.27C216.272 20.355 216.37 20.469 216.436 20.6017C216.503 20.7345 216.535 20.8817 216.53 21.03V26.36C216.52 26.6163 216.453 26.8672 216.336 27.0952C216.218 27.3232 216.053 27.5228 215.85 27.68L211.63 30.68C211.449 30.8416 211.314 31.0488 211.24 31.28C210.964 32.5166 210.603 33.7328 210.16 34.92C210.143 34.9819 210.141 35.0472 210.155 35.1101C210.169 35.1729 210.198 35.2312 210.24 35.28L212.62 37.28C212.825 37.4645 212.963 37.7128 213.01 37.9849C213.057 38.257 213.011 38.5371 212.88 38.78L209.48 44.65C209.339 44.8873 209.122 45.0699 208.864 45.168C208.606 45.2661 208.323 45.2738 208.06 45.19L205.06 44.19C204.997 44.1782 204.932 44.1821 204.871 44.2013C204.81 44.2205 204.755 44.2544 204.71 44.3C203.902 45.2766 203.03 46.1986 202.1 47.06C201.928 47.23 201.816 47.451 201.78 47.69L201.32 52.83C201.286 53.0829 201.197 53.3252 201.059 53.5396C200.92 53.7539 200.736 53.9351 200.52 54.07L195.9 56.74C195.776 56.8187 195.633 56.8646 195.486 56.8733C195.339 56.8821 195.193 56.8534 195.06 56.79C194.929 56.7182 194.818 56.6146 194.738 56.4888C194.658 56.363 194.61 56.219 194.6 56.07L194.15 51.59C193.379 51.7657 192.59 51.8463 191.8 51.83C191.71 51.8269 191.62 51.8452 191.538 51.8834C191.457 51.9216 191.385 51.9788 191.33 52.05L188 57.18C187.892 57.3444 187.743 57.4772 187.567 57.5651C187.392 57.6529 187.196 57.6926 187 57.68ZM184.78 45.16C184.915 45.16 185.048 45.1908 185.17 45.25C185.302 45.3091 185.419 45.396 185.514 45.5047C185.609 45.6135 185.679 45.7415 185.72 45.88C185.935 46.5515 186.227 47.1958 186.59 47.8C186.718 48.0234 186.792 48.2735 186.805 48.5305C186.819 48.7875 186.773 49.0442 186.67 49.28L184 54.8C183.984 54.8219 183.976 54.8481 183.976 54.875C183.976 54.9019 183.984 54.9281 184 54.95L187 56.66C187.021 56.677 187.048 56.6863 187.075 56.6863C187.102 56.6863 187.129 56.677 187.15 56.66L190.56 51.53C190.715 51.3255 190.914 51.1589 191.143 51.0428C191.371 50.9267 191.624 50.8642 191.88 50.86C192.586 50.8774 193.291 50.8069 193.98 50.65C194.12 50.616 194.266 50.6126 194.407 50.6403C194.549 50.6679 194.683 50.7258 194.8 50.81C194.916 50.8902 195.013 50.9958 195.082 51.1189C195.151 51.2419 195.192 51.379 195.2 51.52L195.64 55.8L200.08 53.24C200.235 53.1263 200.342 52.9586 200.38 52.77L200.84 47.63C200.903 47.1435 201.129 46.6925 201.48 46.35C202.378 45.5098 203.22 44.6112 204 43.66C204.173 43.4553 204.404 43.3069 204.662 43.2339C204.921 43.1608 205.195 43.1665 205.45 43.25L208.45 44.25C208.493 44.2584 208.537 44.2544 208.578 44.2385C208.619 44.2225 208.654 44.1953 208.68 44.16L212 38.32C212.024 38.2848 212.038 38.2429 212.038 38.2C212.038 38.1571 212.024 38.1152 212 38.08L209.62 36.08C209.425 35.8956 209.286 35.6594 209.221 35.3989C209.155 35.1385 209.165 34.8648 209.25 34.61C209.678 33.4648 210.029 32.2922 210.3 31.1C210.424 30.6241 210.702 30.2024 211.09 29.9L215.3 26.9C215.449 26.7741 215.543 26.5944 215.56 26.4V21.26L211.62 23C211.491 23.0579 211.351 23.0879 211.21 23.0879C211.069 23.0879 210.929 23.0579 210.8 23C210.668 22.9409 210.551 22.854 210.456 22.7453C210.361 22.6365 210.291 22.5085 210.25 22.37C210.045 21.6934 209.756 21.0451 209.39 20.44C209.265 20.2232 209.191 19.9804 209.176 19.7306C209.16 19.4807 209.203 19.2307 209.3 19L212 13.49C212.017 13.4687 212.026 13.4423 212.026 13.415C212.026 13.3877 212.017 13.3613 212 13.34L209 11.62C208.979 11.603 208.952 11.5937 208.925 11.5937C208.898 11.5937 208.871 11.603 208.85 11.62L205.44 16.75C205.292 16.9611 205.094 17.1319 204.864 17.2472C204.633 17.3624 204.377 17.4184 204.12 17.41C203.414 17.402 202.709 17.4759 202.02 17.63C201.88 17.6597 201.735 17.6608 201.594 17.6333C201.453 17.6058 201.319 17.5503 201.2 17.47C201.087 17.3864 200.993 17.2799 200.924 17.1576C200.855 17.0353 200.813 16.8998 200.8 16.76L200.37 12.47L195.92 15.03C195.765 15.1487 195.659 15.3191 195.62 15.51L195.16 20.64C195.097 21.1265 194.871 21.5775 194.52 21.92C193.621 22.7668 192.779 23.6721 192 24.63C191.823 24.8305 191.592 24.9758 191.335 25.0485C191.078 25.1212 190.805 25.1183 190.55 25.04L187.55 24.04C187.506 24.0308 187.459 24.0343 187.417 24.0503C187.374 24.0662 187.337 24.0938 187.31 24.13L184 30C183.976 30.0372 183.963 30.0806 183.963 30.125C183.963 30.1694 183.976 30.2128 184 30.25L186.38 32.25C186.578 32.4306 186.718 32.6651 186.784 32.9246C186.849 33.1841 186.838 33.4571 186.75 33.71C186.323 34.8591 185.973 36.0349 185.7 37.23C185.578 37.7044 185.3 38.1238 184.91 38.42L180.7 41.42C180.553 41.5434 180.46 41.7191 180.44 41.91V47L184.37 45.23C184.509 45.1739 184.66 45.1499 184.81 45.16H184.78ZM194.49 44.71C193.691 44.7178 192.905 44.5142 192.21 44.12C190.58 43.18 189.68 41.23 189.68 38.64C189.68 33.52 193.28 27.27 197.68 24.71C199.92 23.41 202.06 23.22 203.68 24.16C205.3 25.1 206.22 27.05 206.22 29.64C206.22 34.76 202.61 41.01 198.17 43.57C197.071 44.2569 195.814 44.6495 194.52 44.71H194.49ZM201.49 24.57C200.345 24.619 199.232 24.9635 198.26 25.57C196.067 27.0051 194.241 28.9357 192.932 31.2061C191.622 33.4764 190.864 36.0229 190.72 38.64C190.72 40.86 191.44 42.5 192.72 43.26C194 44.02 195.81 43.82 197.72 42.71C199.916 41.2766 201.743 39.3466 203.055 37.076C204.366 34.8055 205.125 32.2581 205.27 29.64C205.27 27.42 204.54 25.79 203.27 25.03C202.725 24.72 202.107 24.5612 201.48 24.57H201.49Z" fill="#EBEBEB"/>
<path d="M227.92 34.08C227.786 34.0808 227.653 34.0547 227.53 34.0031C227.406 33.9516 227.294 33.8757 227.2 33.78C227.096 33.6634 227.024 33.5226 226.989 33.3706C226.954 33.2186 226.958 33.0602 227 32.91L227.79 29.68C227.798 29.6195 227.787 29.558 227.759 29.5041C227.73 29.4503 227.685 29.4068 227.63 29.38C227.408 29.2738 227.197 29.1465 227 29C226.95 29 226.8 29 226.66 29.1L224.48 31.28C224.357 31.4184 224.2 31.5224 224.025 31.582C223.85 31.6416 223.662 31.6547 223.48 31.62C223.341 31.5919 223.212 31.5283 223.105 31.4354C222.998 31.3425 222.917 31.2235 222.87 31.09L222.09 29.03C222.009 28.7542 221.995 28.4628 222.051 28.1807C222.107 27.8985 222.23 27.6341 222.41 27.41L224.51 24.7C224.698 24.4345 224.812 24.1239 224.84 23.8C224.83 23.2491 224.853 22.6981 224.91 22.15C224.91 22.07 224.84 22.05 224.8 22.05H223.32C223.158 22.0581 222.997 22.0266 222.849 21.9583C222.702 21.89 222.574 21.787 222.476 21.658C222.377 21.5291 222.311 21.3782 222.284 21.2182C222.257 21.0583 222.27 20.8942 222.32 20.74L223.48 17.06C223.585 16.782 223.751 16.5309 223.966 16.325C224.18 16.1192 224.438 15.9637 224.72 15.87L226.47 15.33C226.772 15.2133 227.025 14.9985 227.19 14.72C227.52 14.07 227.88 13.44 228.25 12.83C228.401 12.5845 228.471 12.2976 228.45 12.01L227.95 9.88002C227.912 9.59608 227.934 9.30716 228.017 9.03284C228.1 8.75852 228.241 8.5052 228.43 8.29002L230.85 5.53002C230.961 5.39136 231.103 5.28098 231.264 5.20796C231.426 5.13493 231.603 5.10137 231.78 5.11002C231.918 5.12586 232.051 5.17391 232.167 5.25033C232.284 5.32674 232.381 5.42939 232.45 5.55002L233.32 7.04002C233.32 7.04002 233.39 7.04002 233.49 6.93002C233.86 6.66002 234.23 6.42002 234.6 6.20002C234.9 6.01374 235.145 5.75154 235.31 5.44002L236.58 2.10002C236.704 1.81116 236.899 1.55858 237.148 1.36612C237.396 1.17366 237.689 1.04767 238 1.00002L239.85 0.710023C240.013 0.677378 240.182 0.685884 240.341 0.734773C240.499 0.783662 240.644 0.871391 240.76 0.990024C240.865 1.10614 240.938 1.24693 240.973 1.39914C241.008 1.55135 241.003 1.70996 240.96 1.86002L240.17 5.08002C240.163 5.14035 240.175 5.20131 240.203 5.25488C240.232 5.30844 240.276 5.35208 240.33 5.38002C240.549 5.48165 240.757 5.60565 240.95 5.75002C241.011 5.76759 241.076 5.7665 241.137 5.74691C241.197 5.72731 241.251 5.6901 241.29 5.64002L243.47 3.47002C243.593 3.33068 243.749 3.22528 243.924 3.16398C244.099 3.10267 244.287 3.08753 244.47 3.12002C244.609 3.15176 244.737 3.21783 244.844 3.31218C244.951 3.40653 245.032 3.52614 245.08 3.66002L245.87 5.71002C245.947 5.98793 245.958 6.27985 245.902 6.56273C245.847 6.84561 245.726 7.11171 245.55 7.34002L243.44 10.05C243.25 10.3097 243.139 10.6187 243.12 10.94C243.127 11.4911 243.101 12.0422 243.04 12.59C243.04 12.68 243.11 12.69 243.16 12.69H244.63C244.79 12.6853 244.949 12.7191 245.094 12.7887C245.238 12.8584 245.364 12.9617 245.46 13.09C245.551 13.2191 245.611 13.3679 245.633 13.5244C245.656 13.6808 245.641 13.8404 245.59 13.99L244.44 17.67C244.335 17.951 244.168 18.2047 243.952 18.4124C243.735 18.6201 243.475 18.7765 243.19 18.87L241.44 19.41C241.138 19.5267 240.885 19.7416 240.72 20.02C240.39 20.66 240.04 21.29 239.66 21.9C239.51 22.1496 239.44 22.4394 239.46 22.73L239.96 24.85C240 25.1356 239.978 25.4264 239.895 25.7025C239.812 25.9787 239.671 26.2337 239.48 26.45L237 29.26C236.891 29.4006 236.749 29.5124 236.587 29.5856C236.425 29.6588 236.248 29.6912 236.07 29.68C235.932 29.6685 235.798 29.6233 235.682 29.5483C235.565 29.4734 235.468 29.3709 235.4 29.25L234.54 27.75C234.54 27.75 234.46 27.75 234.36 27.87C234.006 28.1286 233.639 28.3689 233.26 28.59C232.956 28.7755 232.71 29.0422 232.55 29.36L231.27 32.69C231.158 32.9573 230.985 33.1944 230.764 33.3821C230.544 33.5698 230.282 33.7027 230 33.77L228.15 34.06L227.92 34.08ZM226.92 28C227.16 27.9971 227.395 28.0707 227.59 28.21C227.736 28.3117 227.89 28.402 228.05 28.48C228.313 28.6047 228.526 28.8153 228.653 29.0771C228.78 29.3388 228.814 29.6362 228.75 29.92L228 33.06L229.82 32.78C229.941 32.7529 230.055 32.6994 230.154 32.6234C230.252 32.5473 230.333 32.4506 230.39 32.34L231.65 29C231.893 28.4712 232.29 28.0285 232.79 27.73C233.12 27.54 233.46 27.31 233.79 27.06C233.93 26.9496 234.09 26.8694 234.263 26.8246C234.435 26.7799 234.614 26.7715 234.79 26.8C235.047 26.8593 235.269 27.0175 235.41 27.24L236.22 28.64L238.64 25.89C238.809 25.692 238.901 25.4401 238.9 25.18L238.4 23.06C238.314 22.512 238.428 21.9515 238.72 21.48C239.08 20.89 239.42 20.28 239.72 19.66C240.014 19.1446 240.482 18.751 241.04 18.55L242.78 18.02C243.041 17.9207 243.253 17.7233 243.37 17.47L244.52 13.79H243.04C242.882 13.7925 242.725 13.7607 242.58 13.6968C242.435 13.633 242.305 13.5385 242.2 13.42C242.097 13.3102 242.02 13.1785 241.975 13.0348C241.93 12.8911 241.918 12.739 241.94 12.59C242.025 12.0636 242.078 11.5327 242.1 11C242.116 10.4478 242.301 9.91379 242.63 9.47002L244.74 6.77002C244.878 6.57946 244.939 6.34361 244.91 6.11002L244.19 4.22002L242 6.39002C241.797 6.61506 241.52 6.75994 241.219 6.79845C240.918 6.83697 240.613 6.76658 240.36 6.60002C240.216 6.49154 240.062 6.39774 239.9 6.32002C239.641 6.19298 239.432 5.98357 239.306 5.72472C239.179 5.46587 239.142 5.17226 239.2 4.89002L239.97 1.75002L238.15 2.03002C238.029 2.05903 237.916 2.11322 237.818 2.18906C237.72 2.26489 237.639 2.36064 237.58 2.47002L236.31 5.81002C236.067 6.33617 235.669 6.77571 235.17 7.07002C234.825 7.27848 234.491 7.50548 234.17 7.75002C234.029 7.8569 233.867 7.93487 233.696 7.97948C233.524 8.02409 233.346 8.03447 233.17 8.01002C233.043 7.98147 232.923 7.92671 232.818 7.84924C232.713 7.77176 232.625 7.67327 232.56 7.56002L231.74 6.16002V6.21002L229.26 9.00002C229.087 9.1951 228.998 9.44983 229.01 9.71002L229.5 11.83C229.586 12.378 229.472 12.9385 229.18 13.41C228.82 13.99 228.48 14.6 228.18 15.22C227.886 15.739 227.413 16.1335 226.85 16.33L225.11 16.87C224.85 16.9661 224.639 17.1599 224.52 17.41L223.37 21.09H224.86C225.016 21.0921 225.17 21.126 225.313 21.1896C225.456 21.2532 225.584 21.3452 225.69 21.46C225.79 21.5736 225.866 21.7073 225.91 21.8521C225.955 21.9969 225.969 22.1496 225.95 22.3C225.901 22.8051 225.881 23.3126 225.89 23.82C225.867 24.3726 225.679 24.9056 225.35 25.35L223.24 28C223.168 28.0927 223.115 28.1988 223.084 28.312C223.053 28.4253 223.045 28.5436 223.06 28.66L223.78 30.55L226 28.41C226.246 28.1592 226.579 28.0124 226.93 28H226.92ZM231.34 24.86C231.167 24.8751 230.993 24.8751 230.82 24.86C230.342 24.7639 229.899 24.5402 229.539 24.2127C229.178 23.8853 228.912 23.4662 228.77 23C227.77 20.38 229.15 15.86 231.93 12.71C233.66 10.71 235.6 9.71002 237.14 10.01C237.615 10.104 238.057 10.3231 238.419 10.6449C238.781 10.9666 239.051 11.3792 239.2 11.84C240.2 14.46 238.82 18.98 236.04 22.14C234.5 23.87 232.79 24.86 231.35 24.86H231.34ZM236.61 11C235.48 11 234.01 11.88 232.68 13.4C230.21 16.2 228.85 20.4 229.68 22.67C229.776 22.9636 229.95 23.2261 230.182 23.4301C230.414 23.6341 230.696 23.7722 231 23.83C232.16 24.04 233.81 23.13 235.28 21.46C237.79 18.61 239.13 14.46 238.28 12.18C238.188 11.8887 238.022 11.6266 237.797 11.4196C237.573 11.2126 237.298 11.0679 237 11H236.61Z" fill="#EBEBEB"/>
<path d="M370.89 73.69C370.662 73.6895 370.439 73.631 370.24 73.52L366.3 71.24C366.01 71.0737 365.795 70.8029 365.698 70.4832C365.602 70.1635 365.631 69.819 365.78 69.52L369.41 62.19C369.462 62.0541 369.483 61.9085 369.473 61.7634C369.462 61.6183 369.42 61.4773 369.35 61.35C368.814 60.4651 368.387 59.5182 368.08 58.53C368.074 58.505 368.063 58.4814 368.047 58.4608C368.032 58.4401 368.012 58.4229 367.99 58.41C367.97 58.4003 367.947 58.3952 367.925 58.3952C367.902 58.3952 367.88 58.4003 367.86 58.41L362.4 60.87C362.248 60.9578 362.075 61.004 361.9 61.004C361.724 61.004 361.552 60.9578 361.4 60.87C361.266 60.7701 361.159 60.638 361.089 60.486C361.019 60.334 360.988 60.1669 361 60V52.89C361.014 52.5766 361.096 52.2701 361.242 51.992C361.387 51.7139 361.591 51.4709 361.84 51.28L367.43 47.34C367.711 47.109 367.917 46.799 368.02 46.45C368.391 44.8162 368.873 43.2093 369.46 41.64C369.491 41.5247 369.492 41.4033 369.462 41.2876C369.432 41.1719 369.373 41.0659 369.29 40.98L366.14 38.26C365.894 38.0406 365.729 37.7442 365.673 37.4191C365.616 37.0941 365.672 36.7595 365.83 36.47L370.34 28.66C370.504 28.3818 370.757 28.166 371.057 28.0465C371.358 27.9271 371.689 27.9107 372 28L376 29.41C376.117 29.4349 376.239 29.4306 376.354 29.3975C376.469 29.3644 376.574 29.3034 376.66 29.22C377.722 27.92 378.875 26.6969 380.11 25.56C380.36 25.3014 380.527 24.9741 380.59 24.62L381.2 17.8C381.242 17.4852 381.353 17.1837 381.526 16.9173C381.699 16.651 381.929 16.4264 382.2 16.26L388.33 12.73C388.477 12.633 388.646 12.5763 388.822 12.5658C388.997 12.5553 389.173 12.5912 389.33 12.67C389.479 12.7513 389.605 12.8692 389.696 13.0127C389.787 13.1562 389.84 13.3204 389.85 13.49L390.45 19.44C390.451 19.4631 390.457 19.4856 390.468 19.5062C390.478 19.5268 390.492 19.5452 390.51 19.56C390.533 19.5708 390.559 19.5764 390.585 19.5764C390.611 19.5764 390.636 19.5708 390.66 19.56C391.668 19.3372 392.698 19.2332 393.73 19.25C393.875 19.2421 394.017 19.2052 394.147 19.1417C394.278 19.0782 394.394 18.9892 394.49 18.88L399.02 12.07C399.204 11.7914 399.488 11.5938 399.813 11.5176C400.139 11.4414 400.481 11.4923 400.77 11.66L404.63 14C404.916 14.1698 405.128 14.4406 405.224 14.7589C405.321 15.0773 405.294 15.4202 405.15 15.72L401.51 23C401.463 23.1369 401.444 23.2818 401.455 23.4261C401.465 23.5704 401.504 23.7112 401.57 23.84C402.11 24.7193 402.537 25.6635 402.84 26.65C402.856 26.7042 402.892 26.7505 402.94 26.78C402.982 26.7945 403.028 26.7945 403.07 26.78L408.52 24.32C408.672 24.2323 408.844 24.1861 409.02 24.1861C409.195 24.1861 409.368 24.2323 409.52 24.32C409.658 24.4157 409.77 24.5447 409.845 24.695C409.92 24.8453 409.956 25.0121 409.95 25.18V32.3C409.937 32.6126 409.856 32.9186 409.713 33.1967C409.569 33.4748 409.367 33.7182 409.12 33.91L403.52 37.91C403.239 38.135 403.036 38.443 402.94 38.79C402.565 40.4263 402.084 42.0364 401.5 43.61C401.465 43.7243 401.462 43.8458 401.49 43.9618C401.518 44.0779 401.577 44.1843 401.66 44.27L404.82 46.99C405.065 47.2108 405.227 47.5078 405.282 47.8328C405.336 48.1577 405.279 48.4916 405.12 48.78L400.62 56.58C400.449 56.8613 400.188 57.0765 399.88 57.1909C399.571 57.3052 399.233 57.312 398.92 57.21L395 55.79C394.884 55.76 394.763 55.7619 394.649 55.7953C394.534 55.8288 394.431 55.8926 394.35 55.98C393.28 57.2698 392.127 58.489 390.9 59.63C390.639 59.9045 390.471 60.2545 390.42 60.63L389.8 67.45C389.757 67.7631 389.644 68.0626 389.471 68.3272C389.299 68.5917 389.069 68.8147 388.8 68.98L382.67 72.52C382.523 72.6171 382.354 72.6738 382.178 72.6843C382.002 72.6948 381.827 72.6589 381.67 72.58C381.521 72.4988 381.395 72.3809 381.304 72.2374C381.213 72.0939 381.16 71.9296 381.15 71.76L380.55 65.76C380.551 65.739 380.547 65.718 380.538 65.6989C380.53 65.6797 380.517 65.663 380.5 65.65C380.475 65.6377 380.448 65.6313 380.42 65.6313C380.392 65.6313 380.365 65.6377 380.34 65.65C379.332 65.8733 378.302 65.9774 377.27 65.96C377.125 65.9613 376.981 65.9941 376.85 66.0563C376.719 66.1184 376.603 66.2084 376.51 66.32L372 73.11C371.877 73.2904 371.711 73.4377 371.517 73.5389C371.324 73.64 371.108 73.6919 370.89 73.69ZM367.94 57.4C368.098 57.4 368.254 57.4306 368.4 57.49C368.551 57.5635 368.686 57.667 368.796 57.7943C368.906 57.9215 368.989 58.0697 369.04 58.23C369.323 59.1394 369.712 60.0122 370.2 60.83C370.358 61.1005 370.45 61.4043 370.469 61.7169C370.488 62.0296 370.434 62.3424 370.31 62.63L366.67 70C366.637 70.0723 366.632 70.1543 366.656 70.2301C366.68 70.3059 366.731 70.3701 366.8 70.41L370.74 72.69C370.81 72.7266 370.891 72.7366 370.969 72.7183C371.046 72.6999 371.114 72.6544 371.16 72.59L375.69 65.78C375.877 65.5271 376.121 65.3219 376.403 65.1811C376.684 65.0404 376.995 64.9681 377.31 64.97C378.261 64.9885 379.212 64.8912 380.14 64.68C380.3 64.6422 380.466 64.6388 380.627 64.6699C380.788 64.701 380.941 64.7659 381.075 64.8604C381.209 64.955 381.322 65.0769 381.405 65.2182C381.489 65.3595 381.542 65.5169 381.56 65.68L382.16 71.68L388.28 68.13C388.406 68.0432 388.513 67.9322 388.595 67.8034C388.678 67.6746 388.734 67.5307 388.76 67.38L389.37 60.56C389.453 59.9531 389.734 59.3907 390.17 58.96C391.37 57.8549 392.492 56.6688 393.53 55.41C393.742 55.166 394.02 54.9895 394.331 54.9024C394.642 54.8153 394.972 54.8214 395.28 54.92L399.21 56.29C399.304 56.3152 399.404 56.3104 399.495 56.2764C399.587 56.2423 399.665 56.1807 399.72 56.1L404.23 48.3C404.271 48.2131 404.284 48.1157 404.268 48.0209C404.252 47.9261 404.207 47.8386 404.14 47.77L401 45C400.761 44.7806 400.591 44.4963 400.511 44.182C400.432 43.8677 400.445 43.5369 400.55 43.23C401.118 41.6987 401.585 40.132 401.95 38.54C402.111 37.9501 402.463 37.4299 402.95 37.06L408.55 33.12C408.787 32.9179 408.934 32.6304 408.96 32.32V25.22L403.52 27.69C403.364 27.7639 403.193 27.8023 403.02 27.8023C402.847 27.8023 402.676 27.7639 402.52 27.69C402.366 27.6196 402.23 27.5171 402.12 27.3895C402.009 27.2618 401.927 27.112 401.88 26.95C401.596 26.0427 401.203 25.173 400.71 24.36C400.552 24.0875 400.46 23.7816 400.443 23.467C400.426 23.1525 400.483 22.8383 400.61 22.55L404.24 15.22C404.274 15.1489 404.28 15.0677 404.258 14.9921C404.236 14.9164 404.187 14.8516 404.12 14.81L400.17 12.53C400.099 12.4955 400.019 12.4866 399.942 12.5048C399.865 12.5231 399.797 12.5673 399.75 12.63L395.22 19.45C395.034 19.7016 394.791 19.906 394.511 20.0467C394.232 20.1874 393.923 20.2604 393.61 20.26C392.658 20.2361 391.707 20.3336 390.78 20.55C390.609 20.5909 390.432 20.5951 390.26 20.5624C390.087 20.5296 389.924 20.4607 389.78 20.36C389.647 20.2643 389.536 20.1402 389.457 19.9967C389.377 19.8532 389.33 19.6938 389.32 19.53L388.72 13.58L382.6 17.12C382.473 17.2076 382.364 17.3201 382.282 17.4507C382.199 17.5814 382.144 17.7274 382.12 17.88L381.5 24.69C381.418 25.2953 381.141 25.8571 380.71 26.29C379.512 27.4011 378.39 28.5904 377.35 29.85C377.134 30.0918 376.854 30.2665 376.542 30.3534C376.23 30.4402 375.899 30.4356 375.59 30.34L371.71 29C371.616 28.9791 371.517 28.9859 371.427 29.0196C371.336 29.0533 371.257 29.1125 371.2 29.19L366.7 37C366.657 37.0867 366.643 37.1844 366.659 37.2796C366.676 37.3747 366.721 37.4623 366.79 37.53L369.94 40.25C370.178 40.4679 370.347 40.7504 370.427 41.063C370.507 41.3756 370.494 41.7047 370.39 42.01C369.825 43.5312 369.361 45.0879 369 46.67C368.836 47.2617 368.485 47.7845 368 48.16L362.4 52.1C362.165 52.2998 362.018 52.5833 361.99 52.89V60L367.44 57.54C367.592 57.4526 367.764 57.4045 367.94 57.4ZM380.84 56.47C379.807 56.4831 378.788 56.2208 377.89 55.71C375.77 54.49 374.61 51.95 374.61 48.57C374.61 41.82 379.37 33.57 385.21 30.21C388.14 28.52 390.91 28.21 393.03 29.49C395.15 30.77 396.31 33.24 396.31 36.62C396.31 43.37 391.56 51.62 385.71 54.98C384.245 55.8938 382.566 56.4075 380.84 56.47ZM390.08 29.73C388.53 29.7917 387.024 30.257 385.71 31.08C380.14 34.29 375.61 42.14 375.61 48.57C375.61 51.57 376.61 53.81 378.39 54.84C380.17 55.87 382.61 55.62 385.21 54.12C390.78 50.9 395.31 43.05 395.31 36.62C395.31 33.62 394.31 31.39 392.53 30.35C391.783 29.9282 390.937 29.7141 390.08 29.73Z" fill="#EBEBEB"/>
<path d="M432.59 53.41L431.59 50.68C431.44 50.27 430.99 50.27 430.59 50.68L427.69 53.57C427.535 53.7591 427.316 53.8849 427.075 53.9236C426.833 53.9623 426.586 53.9112 426.38 53.78C426.154 53.6142 425.913 53.4702 425.66 53.35C425.447 53.254 425.274 53.0864 425.172 52.8763C425.07 52.6662 425.044 52.427 425.1 52.2L426.1 47.91C426.22 47.43 425.89 47.11 425.37 47.2L422.91 47.58C422.636 47.6376 422.378 47.7578 422.158 47.9313C421.938 48.1048 421.76 48.3268 421.64 48.58L419.94 53C419.671 53.5579 419.243 54.024 418.71 54.34C418.25 54.61 417.78 54.93 417.3 55.27C416.82 55.61 416.3 55.6 416.1 55.27L414.95 53.27C414.73 52.9 414.26 52.94 413.89 53.35L410.68 57C410.499 57.2082 410.363 57.4515 410.28 57.7148C410.197 57.9781 410.17 58.2557 410.2 58.53L410.85 61.35C410.919 61.9064 410.8 62.4699 410.51 62.95C410.02 63.75 409.56 64.57 409.13 65.4C408.828 65.9327 408.345 66.3403 407.77 66.55L405.46 67.26C405.185 67.3531 404.933 67.5051 404.722 67.7054C404.511 67.9058 404.347 68.1496 404.24 68.42L402.71 73.3C402.669 73.4009 402.654 73.5107 402.667 73.6189C402.68 73.7271 402.721 73.8301 402.785 73.9182C402.849 74.0064 402.935 74.0767 403.034 74.1225C403.132 74.1683 403.241 74.1881 403.35 74.18H405.35C405.462 74.1734 405.575 74.1915 405.68 74.2331C405.784 74.2747 405.879 74.3388 405.956 74.4208C406.033 74.5028 406.092 74.6007 406.127 74.7077C406.162 74.8147 406.173 74.9282 406.16 75.04C406.083 75.7406 406.05 76.4453 406.06 77.15C406.03 77.7306 405.832 78.2899 405.49 78.76L402.69 82.36C402.525 82.5709 402.411 82.8164 402.356 83.0781C402.3 83.3397 402.305 83.6106 402.37 83.87L403.37 86.6C403.53 87.01 403.97 87.01 404.37 86.6L407.27 83.71C407.425 83.521 407.644 83.3952 407.885 83.3565C408.127 83.3178 408.374 83.3689 408.58 83.5C408.806 83.6659 409.047 83.8099 409.3 83.93C409.515 84.0244 409.69 84.1913 409.794 84.4015C409.898 84.6118 409.925 84.8519 409.87 85.08L408.82 89.37C408.7 89.85 409.03 90.17 409.55 90.08L412.01 89.7C412.286 89.6439 412.546 89.5243 412.768 89.3508C412.99 89.1772 413.169 88.9545 413.29 88.7L414.98 84.26C415.249 83.7048 415.672 83.2394 416.2 82.92C416.673 82.64 417.143 82.33 417.61 81.99C418.07 81.65 418.61 81.66 418.81 81.99L419.97 83.99C420.18 84.36 420.65 84.32 420.97 83.91L424.18 80.25C424.363 80.0427 424.501 79.7997 424.585 79.5364C424.67 79.2731 424.699 78.9951 424.67 78.72L424.06 76C423.991 75.4437 424.11 74.8802 424.4 74.4C424.9 73.6 425.4 72.78 425.78 71.95C426.088 71.4218 426.568 71.0157 427.14 70.8L429.46 70.09C429.735 69.997 429.987 69.845 430.198 69.6447C430.409 69.4443 430.573 69.2005 430.68 68.93L432.21 64C432.251 63.8991 432.266 63.7894 432.253 63.6812C432.24 63.573 432.199 63.47 432.135 63.3819C432.071 63.2937 431.985 63.2234 431.886 63.1776C431.788 63.1318 431.679 63.112 431.57 63.12H429.57C429.458 63.1252 429.347 63.1059 429.243 63.0637C429.14 63.0214 429.047 62.9571 428.971 62.8753C428.895 62.7935 428.837 62.6961 428.803 62.5898C428.768 62.4836 428.757 62.371 428.77 62.26C428.844 61.5593 428.874 60.8546 428.86 60.15C428.896 59.5707 429.093 59.013 429.43 58.54L432.23 54.94C432.404 54.73 432.527 54.4826 432.589 54.2172C432.652 53.9518 432.652 53.6756 432.59 53.41ZM419.69 74.47C416.21 78.47 412.38 79.03 411.15 75.82C409.92 72.61 411.74 66.82 415.22 62.82C418.7 58.82 422.53 58.25 423.77 61.47C425.01 64.69 423.18 70.51 419.69 74.47Z" fill="#EBEBEB"/>
<path d="M24.76 67.52C24.567 67.5353 24.373 67.5353 24.18 67.52C23.6565 67.4193 23.1694 67.1809 22.7686 66.8294C22.3679 66.4778 22.0681 66.0259 21.9 65.52C20.9 62.86 22.26 58.31 25.04 55.15C26.83 53.15 28.8 52.15 30.43 52.41C30.9534 52.5108 31.4406 52.7492 31.8413 53.1007C32.2421 53.4522 32.5419 53.9042 32.71 54.41C33.71 57.07 32.35 61.62 29.57 64.78C28 66.53 26.27 67.52 24.76 67.52ZM29.86 54C28.86 54 27.52 54.84 26.3 56.22C23.98 58.85 22.69 62.82 23.48 64.87C23.5368 65.1134 23.6606 65.336 23.8373 65.5127C24.014 65.6894 24.2366 65.8132 24.48 65.87C25.48 66.05 26.98 65.19 28.31 63.68C30.63 61 31.92 57 31.14 55C31.0755 54.7667 30.9481 54.5556 30.7718 54.3898C30.5954 54.2241 30.3768 54.11 30.14 54.06C30.0494 54.0287 29.9554 54.0086 29.86 54Z" fill="#EBEBEB"/>
<path d="M24.76 35.64C24.5672 35.6602 24.3728 35.6602 24.18 35.64C23.6565 35.5393 23.1694 35.3009 22.7686 34.9494C22.3679 34.5978 22.0681 34.1459 21.9 33.64C20.9 30.98 22.26 26.42 25.04 23.26C26.83 21.26 28.8 20.26 30.43 20.53C30.9534 20.6308 31.4406 20.8692 31.8413 21.2207C32.2421 21.5722 32.5419 22.0241 32.71 22.53C33.71 25.19 32.35 29.75 29.57 32.91C28 34.65 26.27 35.64 24.76 35.64ZM29.86 22.12C28.4328 22.3702 27.1574 23.162 26.3 24.33C24 27 22.69 30.93 23.48 33C23.5335 33.2449 23.6562 33.4693 23.8335 33.6465C24.0107 33.8238 24.2351 33.9465 24.48 34C25.48 34.18 26.98 33.32 28.31 31.81C30.63 29.17 31.92 25.21 31.14 23.16C31.0853 22.9156 30.9623 22.6919 30.7852 22.5148C30.6081 22.3377 30.3844 22.2147 30.14 22.16C30.0486 22.1355 29.9546 22.1221 29.86 22.12Z" fill="#EBEBEB"/>
<path d="M3.22996 57.3C3.03691 57.3148 2.84301 57.3148 2.64996 57.3C2.1265 57.1993 1.63934 56.9609 1.23861 56.6093C0.837876 56.2578 0.538038 55.8059 0.369957 55.3C-0.630043 52.65 0.729957 48.09 3.50996 44.93C5.29996 42.93 7.25996 41.93 8.90996 42.2C9.43341 42.3007 9.92057 42.5391 10.3213 42.8907C10.722 43.2422 11.0219 43.6941 11.19 44.2C12.19 46.86 10.83 51.42 8.04996 54.57C6.46996 56.31 4.73996 57.3 3.22996 57.3ZM8.32996 43.77C7.32996 43.77 5.98996 44.61 4.77996 45.99C2.45996 48.63 1.15996 52.59 1.94996 54.64C2.0035 54.8849 2.12617 55.1093 2.30343 55.2865C2.48068 55.4638 2.70507 55.5865 2.94996 55.64C3.94996 55.82 5.44996 54.96 6.77996 53.45C9.09996 50.81 10.4 46.85 9.60996 44.8C9.55642 44.5551 9.43375 44.3307 9.25649 44.1535C9.07924 43.9762 8.85485 43.8535 8.60996 43.8C8.51803 43.7796 8.42412 43.7696 8.32996 43.77Z" fill="#EBEBEB"/>
<path d="M22.1047 32.675L9.96362 44.3301L11.134 45.5492L23.2751 33.8941L22.1047 32.675Z" fill="#EBEBEB"/>
<path d="M9.14302 51.2893L8.4613 52.8357L23.3488 59.3988L24.0306 57.8524L9.14302 51.2893Z" fill="#EBEBEB"/>
<path d="M69.4499 7.26998C66.2999 9.08998 63.7499 13.96 63.7499 18.16C63.7499 22.36 66.2999 24.28 69.4499 22.47C72.5999 20.66 75.1499 15.77 75.1499 11.58C75.1499 7.38998 72.5999 5.44998 69.4499 7.26998ZM74.4499 22.45L64.5499 28.17C62.2599 29.49 60.2999 32.82 59.9099 36.06L59.2299 41.82C59.1599 42.37 59.4499 42.66 59.8399 42.44L73.8399 34.33L74.2699 30.73C74.6119 27.7448 76.0348 24.988 78.2699 22.98C77.4599 21.77 75.9999 21.51 74.3999 22.45H74.4499Z" fill="#F0F0F0"/>
<path d="M84.7 19C87.48 17.39 89.7 13.09 89.7 9.39C89.7 5.69 87.45 3.98 84.7 5.59C81.95 7.2 79.7 11.49 79.7 15.2C79.7 18.91 81.93 20.57 84.7 19ZM93.16 21.22C92.82 18.76 91.1 17.81 89.07 18.98L80.33 23.98C78.33 25.14 76.58 28.09 76.24 30.98L75.64 36.07C75.58 36.55 75.84 36.81 76.18 36.61L93.18 26.76C93.3639 26.631 93.5106 26.4559 93.6053 26.2523C93.7001 26.0487 93.7397 25.8237 93.72 25.6L93.16 21.22Z" fill="#F0F0F0"/>
<path d="M288.26 42.25L289.49 41.25C290.11 40.69 290.29 40.12 290.62 38.46L296 12.34L299.07 10.57L304.38 30.57C304.69 31.69 304.79 32.15 305.51 31.93L306.51 31.66V33.87L299 38.22V36.05L300.31 35.05C301 34.49 301.08 33.94 300.8 32.8L299.88 29L293.72 32.55L292.83 37.21C292.55 38.64 292.67 39.15 293.42 38.96L294.67 38.55V40.72L288.26 44.42V42.25ZM299.36 26.77L296.93 16.65L296.83 16.71L294.26 29.71L299.36 26.77Z" fill="#EBEBEB"/>
<path d="M307.93 28.13C307.934 26.4681 308.33 24.8307 309.088 23.3516C309.846 21.8725 310.943 20.5938 312.29 19.62C313.29 18.83 314.16 18.23 315.19 17.55V14.67C315.19 11.67 314.44 11.04 312.96 11.9C312.032 12.4695 311.27 13.273 310.75 14.23C311.08 14.7961 311.298 15.421 311.39 16.07C311.38 16.6735 311.218 17.2647 310.919 17.7891C310.62 18.3135 310.194 18.754 309.68 19.07C308.52 19.73 308.04 18.99 308.04 17.65C308.04 14.77 310.57 10.81 313.37 9.2C316.17 7.59 318.37 7.94 318.37 13.86V22.73C318.37 24.35 318.94 24.58 320.55 22.94L320.86 24.53C320.25 25.826 319.304 26.9345 318.12 27.74C316.73 28.54 315.89 27.8 315.63 25.93C314.76 28.57 313.56 30.37 311.76 31.41C309.96 32.45 307.93 32 307.93 28.13ZM315.19 22.61V19.88C314.447 20.3157 313.751 20.8249 313.11 21.4C312.496 21.9303 312.007 22.59 311.679 23.3318C311.35 24.0736 311.19 24.879 311.21 25.69C311.21 27.62 311.98 28.04 313.01 27.45C314.04 26.86 315.19 25.33 315.19 22.61Z" fill="#EBEBEB"/>
</svg>
