<svg width="573" height="551" viewBox="0 0 573 551" fill="none" xmlns="http://www.w3.org/2000/svg">
<path d="M286.38 551C444.543 551 572.76 479.572 572.76 391.462C572.76 303.351 444.543 231.923 286.38 231.923C128.217 231.923 0 303.351 0 391.462C0 479.572 128.217 551 286.38 551Z" fill="#49BBBD"/>
<path d="M340.08 526.433C390.455 526.433 431.292 502.542 431.292 473.071C431.292 443.6 390.455 419.709 340.08 419.709C289.704 419.709 248.867 443.6 248.867 473.071C248.867 502.542 289.704 526.433 340.08 526.433Z" fill="#E0E0E0"/>
<path d="M266.373 408.4L430.839 312.144C432.787 311.011 432.787 309.164 430.839 308.031L358.704 265.825C357.615 265.26 356.409 264.965 355.185 264.965C353.961 264.965 352.755 265.26 351.666 265.825L187.2 362.144C185.252 363.278 185.252 365.124 187.2 366.258L259.348 408.463C260.44 409.019 261.647 409.303 262.868 409.292C264.09 409.281 265.291 408.975 266.373 408.4Z" fill="#E0E0E0"/>
<path d="M127.783 427.707L22.6463 366.194C20.711 365.061 20.711 363.214 22.6463 362.081L193.761 261.954C194.852 261.395 196.057 261.104 197.279 261.104C198.502 261.104 199.707 261.395 200.798 261.954L305.935 323.466C307.883 324.613 307.883 326.446 305.935 327.593L134.821 427.707C133.73 428.265 132.524 428.556 131.302 428.556C130.079 428.556 128.874 428.265 127.783 427.707Z" fill="#E0E0E0"/>
<path d="M183.166 252.529L25.2099 344.964C24.61 345.357 24.1104 345.889 23.7522 346.515C23.394 347.142 23.1872 347.845 23.1489 348.568V352.784C23.1872 353.507 23.394 354.21 23.7522 354.837C24.1104 355.463 24.61 355.995 25.2099 356.388L129.065 417.162C129.702 417.489 130.406 417.659 131.12 417.659C131.833 417.659 132.537 417.489 133.174 417.162L291.168 324.714C291.765 324.318 292.261 323.786 292.616 323.16C292.972 322.534 293.178 321.832 293.217 321.11V316.895C293.178 316.172 292.972 315.468 292.614 314.842C292.255 314.215 291.756 313.684 291.156 313.291L187.276 252.529C186.639 252.202 185.935 252.032 185.221 252.032C184.507 252.032 183.803 252.202 183.166 252.529Z" fill="#37474F"/>
<path d="M129.064 408.132L25.2094 347.371C24.9625 347.284 24.7484 347.122 24.5968 346.906C24.4452 346.691 24.3638 346.432 24.3638 346.167C24.3638 345.903 24.4452 345.644 24.5968 345.429C24.7484 345.213 24.9625 345.051 25.2094 344.964L183.166 252.529C183.803 252.202 184.507 252.032 185.221 252.032C185.934 252.032 186.638 252.202 187.275 252.529L291.155 313.291C291.398 313.38 291.608 313.543 291.756 313.757C291.904 313.971 291.983 314.226 291.983 314.488C291.983 314.749 291.904 315.005 291.756 315.219C291.608 315.433 291.398 315.596 291.155 315.685L133.174 408.132C132.537 408.459 131.833 408.629 131.119 408.629C130.405 408.629 129.701 408.459 129.064 408.132Z" fill="#455A64"/>
<path d="M131.251 408.629V417.646C130.498 417.687 129.748 417.524 129.077 417.175L25.1974 356.388C24.6021 355.994 24.1066 355.463 23.7507 354.84C23.3949 354.216 23.1888 353.516 23.1489 352.796V348.581C23.184 347.936 23.3506 347.305 23.6383 346.729C23.926 346.152 24.3285 345.642 24.8204 345.231C24.0915 345.906 24.2171 346.785 25.1974 347.358L129.077 408.132C129.746 408.49 130.496 408.661 131.251 408.629Z" fill="black"/>
<path d="M266.348 322.027L262.025 324.574L277.369 207.254L281.705 204.72L266.348 322.027Z" fill="black"/>
<path d="M262.025 324.574L169.443 270.423L184.787 153.115L277.369 207.254L262.025 324.574Z" fill="#FAFAFA"/>
<path d="M281.705 204.72L277.369 207.254L184.787 153.115L189.186 150.543L281.705 204.72Z" fill="black"/>
<path d="M272.531 209.025L187.677 159.394L173.753 266.589L258.606 316.143L272.531 209.025Z" fill="#29A09A" fill-opacity="0.49"/>
<path opacity="0.8" d="M272.531 209.025L187.677 159.394L173.753 266.589L258.606 316.143L272.531 209.025Z" fill="white"/>
<path d="M182.852 225.301L204.631 204.389C206.906 202.211 209.595 202.886 210.601 205.892L226.209 252.478C226.284 252.726 226.447 252.936 226.666 253.068C226.886 253.201 227.146 253.246 227.396 253.196C227.646 253.145 227.869 253.002 228.022 252.794C228.174 252.586 228.244 252.328 228.22 252.071L227.541 242.252L241.428 232.343C241.997 231.908 242.655 231.608 243.354 231.465C244.053 231.322 244.774 231.34 245.465 231.517C246.156 231.694 246.799 232.026 247.347 232.489C247.894 232.952 248.332 233.533 248.629 234.19L264.966 267.302L259.16 311.877L177.612 264.246L182.852 225.301Z" fill="#29A09A" fill-opacity="0.49"/>
<path d="M256.684 209.317C252.913 207.076 249.269 208.604 248.678 212.718C248.088 216.831 250.764 222.002 254.635 224.269C258.506 226.536 262.088 225.02 262.64 220.881C263.193 216.742 260.517 211.533 256.684 209.317Z" fill="#29A09A" fill-opacity="0.49"/>
<path d="M191.523 161.661L177.612 264.246L173.766 266.513L187.678 159.394L191.523 161.661Z" fill="black"/>
<path d="M177.612 264.246L259.16 311.928L258.607 316.143L173.766 266.513L177.612 264.246Z" fill="black"/>
<path d="M243.325 335.552L238.989 338.087L254.346 220.78L258.682 218.245L243.325 335.552Z" fill="black"/>
<path d="M238.989 338.087L146.407 283.935L161.752 166.628L254.346 220.779L238.989 338.087Z" fill="#FAFAFA"/>
<path d="M258.682 218.245L254.347 220.779L161.752 166.628L166.15 164.055L258.682 218.245Z" fill="black"/>
<path d="M249.508 222.537L164.654 172.919L150.73 280.102L235.583 329.669L249.508 222.537Z" fill="#29A09A" fill-opacity="0.49"/>
<path opacity="0.8" d="M249.508 222.537L164.654 172.919L150.73 280.102L235.583 329.669L249.508 222.537Z" fill="white"/>
<path d="M159.817 238.813L181.583 217.914C183.858 215.723 186.61 216.398 187.552 219.404L203.161 265.991C203.236 266.238 203.399 266.448 203.618 266.581C203.837 266.713 204.097 266.759 204.348 266.708C204.598 266.657 204.821 266.514 204.973 266.306C205.126 266.098 205.196 265.841 205.171 265.583L204.493 255.764L218.38 245.869C218.95 245.433 219.609 245.133 220.308 244.99C221.008 244.847 221.731 244.865 222.423 245.042C223.115 245.219 223.759 245.551 224.307 246.014C224.856 246.476 225.295 247.058 225.593 247.715L241.93 280.828L236.137 325.402L154.576 277.733L159.817 238.813Z" fill="#29A09A" fill-opacity="0.49"/>
<path d="M233.648 222.817C229.815 220.576 226.246 222.091 225.655 226.205C225.065 230.318 227.729 235.502 231.612 237.769C235.495 240.036 239.064 238.507 239.605 234.368C240.145 230.229 237.481 225.059 233.648 222.817Z" fill="#29A09A" fill-opacity="0.49"/>
<path d="M168.5 175.173L154.576 277.771L150.743 280.025L164.655 172.919L168.5 175.173Z" fill="black"/>
<path d="M154.576 277.771L236.124 325.44L235.583 329.669L150.743 280.025L154.576 277.771Z" fill="black"/>
<path d="M220.29 349.077L215.967 351.612L231.311 234.305L235.647 231.757L220.29 349.077Z" fill="black"/>
<path d="M215.967 351.612L123.372 297.46L138.729 180.153L231.311 234.305L215.967 351.612Z" fill="#FAFAFA"/>
<path d="M235.646 231.758L231.311 234.305L138.729 180.153L143.127 177.58L235.646 231.758Z" fill="black"/>
<path d="M226.472 236.062L141.619 186.432L127.694 293.627L212.548 343.181L226.472 236.062Z" fill="#29A09A" fill-opacity="0.49"/>
<path opacity="0.8" d="M226.472 236.062L141.619 186.432L127.694 293.627L212.548 343.181L226.472 236.062Z" fill="white"/>
<path d="M136.768 252.338L158.534 231.426C160.809 229.249 163.486 229.924 164.504 232.929L180.099 279.516C180.174 279.763 180.337 279.974 180.557 280.106C180.776 280.239 181.036 280.284 181.286 280.233C181.537 280.183 181.76 280.039 181.912 279.832C182.064 279.624 182.135 279.366 182.11 279.108L181.431 269.289L195.331 259.381C195.9 258.946 196.558 258.646 197.257 258.503C197.955 258.36 198.677 258.377 199.368 258.555C200.059 258.732 200.702 259.064 201.25 259.527C201.797 259.989 202.235 260.571 202.532 261.228L218.869 294.34L213.076 338.915L131.527 291.245L136.768 252.338Z" fill="#29A09A" fill-opacity="0.49"/>
<path d="M210.625 236.33C206.792 234.088 203.21 235.616 202.62 239.73C202.029 243.844 204.706 249.014 208.577 251.281C212.447 253.548 216.029 252.033 216.569 247.893C217.11 243.754 214.445 238.609 210.625 236.33Z" fill="#29A09A" fill-opacity="0.49"/>
<path d="M145.465 188.699L131.553 291.296L127.708 293.551L141.619 186.432L145.465 188.699Z" fill="black"/>
<path d="M131.553 291.296L213.101 338.965L212.548 343.181L127.708 293.55L131.553 291.296Z" fill="black"/>
<path d="M197.254 362.59L192.931 365.124L208.288 247.817L212.611 245.283L197.254 362.59Z" fill="black"/>
<path d="M192.931 365.124L100.349 310.973L115.693 193.666L208.288 247.817L192.931 365.124Z" fill="#FAFAFA"/>
<path d="M212.611 245.283L208.288 247.817L115.693 193.665L120.092 191.093L212.611 245.283Z" fill="black"/>
<path d="M203.45 249.575L118.596 199.957L104.672 307.139L189.525 356.706L203.45 249.575Z" fill="#29A09A" fill-opacity="0.49"/>
<path opacity="0.8" d="M203.45 249.575L118.596 199.957L104.672 307.139L189.525 356.706L203.45 249.575Z" fill="white"/>
<path d="M113.758 265.851L135.512 244.977C137.786 242.799 140.539 243.462 141.481 246.467L157.09 293.054C157.165 293.301 157.328 293.511 157.547 293.644C157.766 293.777 158.026 293.822 158.277 293.771C158.527 293.72 158.75 293.577 158.902 293.369C159.054 293.162 159.125 292.904 159.1 292.646L158.422 282.827L172.246 272.932C172.816 272.496 173.475 272.196 174.174 272.053C174.874 271.91 175.597 271.928 176.289 272.105C176.981 272.282 177.625 272.614 178.173 273.077C178.722 273.539 179.161 274.121 179.459 274.778L195.796 307.891L189.99 352.465L108.518 304.834L113.758 265.851Z" fill="#29A09A" fill-opacity="0.49"/>
<path d="M187.59 249.855C183.757 247.613 180.176 249.129 179.598 253.242C179.02 257.356 181.671 262.539 185.542 264.806C189.413 267.073 193.007 265.558 193.547 261.406C194.088 257.254 191.423 252.096 187.59 249.855Z" fill="#29A09A" fill-opacity="0.49"/>
<path d="M122.429 202.224L108.517 304.809L104.672 307.063L118.596 199.957L122.429 202.224Z" fill="black"/>
<path d="M108.517 304.809L190.066 352.478L189.525 356.706L104.672 307.063L108.517 304.809Z" fill="black"/>
<path d="M174.231 376.102L169.908 378.65L185.252 261.33L189.588 258.795L174.231 376.102Z" fill="black"/>
<path d="M169.908 378.649L77.313 324.498L92.67 207.191L185.252 261.329L169.908 378.649Z" fill="#FAFAFA"/>
<path d="M189.587 258.795L185.252 261.33L92.6694 207.191L97.0554 204.618L189.587 258.795Z" fill="black"/>
<path d="M180.413 263.1L95.5601 213.469L81.6357 320.664L166.489 370.219L180.413 263.1Z" fill="#29A09A" fill-opacity="0.49"/>
<path opacity="0.8" d="M180.413 263.1L95.5601 213.469L81.6357 320.664L166.489 370.219L180.413 263.1Z" fill="white"/>
<path d="M90.7346 279.363L112.501 258.451C114.776 256.273 117.452 256.948 118.458 259.954L134.066 306.541C134.141 306.788 134.304 306.998 134.523 307.131C134.743 307.264 135.003 307.309 135.253 307.258C135.504 307.207 135.727 307.064 135.879 306.856C136.031 306.648 136.102 306.391 136.077 306.133L135.398 296.314L149.335 286.419C149.905 285.993 150.561 285.702 151.256 285.565C151.95 285.428 152.666 285.449 153.352 285.627C154.037 285.805 154.675 286.135 155.219 286.594C155.764 287.052 156.201 287.627 156.498 288.278L172.836 321.39L167.042 365.965L85.4941 318.334L90.7346 279.363Z" fill="#29A09A" fill-opacity="0.49"/>
<path d="M164.554 263.367C160.784 261.138 157.152 262.654 156.561 266.768C155.971 270.881 158.647 276.052 162.518 278.319C166.389 280.586 169.97 279.07 170.511 274.931C171.051 270.792 168.387 265.609 164.554 263.367Z" fill="#29A09A" fill-opacity="0.49"/>
<path d="M99.4058 215.736L85.494 318.334L81.6484 320.588L95.5603 213.469L99.4058 215.736Z" fill="black"/>
<path d="M85.494 318.334L167.042 366.003L166.489 370.219L81.6484 320.588L85.494 318.334Z" fill="black"/>
<path d="M151.196 389.628L146.873 392.162L162.217 274.855L166.553 272.32L151.196 389.628Z" fill="black"/>
<path d="M146.872 392.162L54.2896 338.01L69.634 220.703L162.216 274.855L146.872 392.162Z" fill="#FAFAFA"/>
<path d="M166.553 272.32L162.217 274.855L69.6353 220.703L74.0338 218.13L166.553 272.32Z" fill="black"/>
<path d="M157.378 276.612L72.5375 226.994L58.6006 334.177L143.454 383.744L157.378 276.612Z" fill="#29A09A" fill-opacity="0.49"/>
<path opacity="0.8" d="M157.378 276.612L72.5375 226.994L58.6006 334.177L143.454 383.744L157.378 276.612Z" fill="white"/>
<path d="M67.6487 292.888L89.415 271.989C91.6897 269.811 94.4419 270.474 95.3844 273.479L111.043 320.117C111.118 320.364 111.281 320.575 111.5 320.707C111.72 320.84 111.98 320.885 112.23 320.834C112.481 320.783 112.704 320.64 112.856 320.432C113.008 320.225 113.078 319.967 113.054 319.709L112.375 309.89L126.199 299.995C126.768 299.559 127.426 299.259 128.125 299.116C128.824 298.973 129.545 298.991 130.236 299.168C130.928 299.345 131.571 299.678 132.118 300.14C132.666 300.603 133.104 301.184 133.4 301.841L149.737 334.954L143.931 379.528L62.4585 331.846L67.6487 292.888Z" fill="#29A09A" fill-opacity="0.49"/>
<path d="M141.531 276.892C137.761 274.651 134.116 276.166 133.538 280.293C132.96 284.419 135.612 289.577 139.482 291.844C143.353 294.111 146.935 292.595 147.488 288.444C148.041 284.292 145.364 279.134 141.531 276.892Z" fill="#29A09A" fill-opacity="0.49"/>
<path d="M76.3707 229.261L62.4588 331.846L58.6133 334.113L72.5377 226.994L76.3707 229.261Z" fill="black"/>
<path d="M62.4588 331.846L144.007 379.516L143.454 383.744L58.6133 334.113L62.4588 331.846Z" fill="black"/>
<path d="M183.166 104.351L25.2099 196.786C24.6083 197.18 24.1077 197.714 23.7494 198.342C23.3911 198.971 23.1853 199.677 23.1489 200.403V204.618C23.1873 205.343 23.3939 206.048 23.7521 206.677C24.1102 207.305 24.6097 207.839 25.2099 208.235L129.065 268.996C129.702 269.323 130.406 269.493 131.12 269.493C131.833 269.493 132.537 269.323 133.174 268.996L291.168 176.549C291.765 176.153 292.261 175.62 292.616 174.994C292.972 174.368 293.178 173.666 293.217 172.945V168.729C293.178 168.006 292.972 167.303 292.614 166.676C292.255 166.05 291.756 165.518 291.156 165.125L187.276 104.364C186.64 104.035 185.936 103.862 185.223 103.86C184.509 103.858 183.804 104.026 183.166 104.351Z" fill="#37474F"/>
<path d="M129.064 259.954L25.2094 199.193C24.9625 199.106 24.7484 198.944 24.5968 198.728C24.4452 198.512 24.3638 198.254 24.3638 197.989C24.3638 197.724 24.4452 197.466 24.5968 197.25C24.7484 197.035 24.9625 196.872 25.2094 196.786L183.166 104.351C183.803 104.024 184.507 103.854 185.221 103.854C185.934 103.854 186.638 104.024 187.275 104.351L291.155 165.112C292.299 165.775 292.299 166.844 291.155 167.519L133.174 259.954C132.539 260.287 131.834 260.46 131.119 260.46C130.404 260.46 129.699 260.287 129.064 259.954Z" fill="#455A64"/>
<path d="M131.251 260.451V269.48C130.498 269.511 129.749 269.344 129.077 268.996L25.1974 208.209C24.6021 207.815 24.1066 207.285 23.7507 206.661C23.3949 206.037 23.1888 205.337 23.1489 204.618V200.403C23.184 199.758 23.3506 199.127 23.6383 198.55C23.926 197.974 24.3285 197.464 24.8204 197.053C24.0915 197.728 24.2171 198.607 25.1974 199.193L129.077 259.954C129.744 260.318 130.496 260.489 131.251 260.451Z" fill="black"/>
<path d="M266.348 172.894L262.025 175.428L277.369 58.1208L281.705 55.5864L266.348 172.894Z" fill="black"/>
<path d="M262.025 175.428L169.443 121.277L184.787 3.96924L277.369 58.1209L262.025 175.428Z" fill="#FAFAFA"/>
<path d="M281.705 55.5864L277.369 58.1208L184.787 3.96919L189.186 1.39661L281.705 55.5864Z" fill="black"/>
<path d="M272.531 59.8784L187.677 10.2606L173.753 117.443L258.606 167.01L272.531 59.8784Z" fill="#29A09A" fill-opacity="0.49"/>
<path opacity="0.8" d="M272.531 59.8784L187.677 10.2606L173.753 117.443L258.606 167.01L272.531 59.8784Z" fill="white"/>
<path d="M182.852 76.1544L204.631 55.2172C206.906 53.0267 209.595 53.7016 210.601 56.7072L226.209 103.294C226.284 103.541 226.447 103.752 226.666 103.884C226.886 104.017 227.146 104.062 227.396 104.011C227.647 103.96 227.869 103.817 228.022 103.609C228.174 103.402 228.244 103.144 228.22 102.886L227.541 93.0673L241.415 83.2354C241.983 82.7975 242.64 82.4947 243.339 82.3494C244.037 82.2042 244.759 82.2203 245.451 82.3964C246.143 82.5726 246.787 82.9043 247.334 83.3671C247.882 83.8298 248.32 84.4116 248.616 85.0693L264.953 118.182L259.147 162.756L177.612 115.074L182.852 76.1544Z" fill="#29A09A" fill-opacity="0.49"/>
<path d="M256.684 60.1585C252.913 57.917 249.269 59.4326 248.678 63.5462C248.088 67.6598 250.764 72.8431 254.635 75.1101C258.506 77.377 262.088 75.8487 262.64 71.7097C263.193 67.5706 260.517 62.4 256.684 60.1585Z" fill="#29A09A" fill-opacity="0.49"/>
<path d="M191.523 12.5148L177.612 115.113L173.766 117.367L187.678 10.2606L191.523 12.5148Z" fill="black"/>
<path d="M177.612 115.113L259.16 162.782L258.607 167.01L173.766 117.367L177.612 115.113Z" fill="black"/>
<path d="M243.325 186.406L238.989 188.941L254.346 71.6333L258.682 69.0989L243.325 186.406Z" fill="black"/>
<path d="M238.989 188.941L146.407 134.802L161.752 17.4944L254.346 71.6333L238.989 188.941Z" fill="#FAFAFA"/>
<path d="M258.682 69.0988L254.347 71.6332L161.752 17.4943L166.15 14.9218L258.682 69.0988Z" fill="black"/>
<path d="M249.508 73.4036L164.654 23.7731L150.73 130.956L235.583 180.522L249.508 73.4036Z" fill="#29A09A" fill-opacity="0.49"/>
<path opacity="0.8" d="M249.508 73.4036L164.654 23.7731L150.73 130.956L235.583 180.522L249.508 73.4036Z" fill="white"/>
<path d="M159.817 89.6669L181.583 68.7678C183.858 66.59 186.61 67.265 187.552 70.2706L203.161 116.857C203.235 117.107 203.398 117.32 203.62 117.454C203.841 117.588 204.104 117.633 204.356 117.58C204.608 117.527 204.832 117.381 204.983 117.169C205.134 116.958 205.201 116.696 205.171 116.437L204.493 106.631L218.38 96.7224C218.95 96.2871 219.609 95.987 220.308 95.8439C221.008 95.7008 221.731 95.7185 222.423 95.8957C223.115 96.0729 223.759 96.405 224.307 96.8676C224.856 97.3302 225.295 97.9116 225.593 98.569L241.93 131.681L236.137 176.256L154.576 128.587L159.817 89.6669Z" fill="#29A09A" fill-opacity="0.49"/>
<path d="M233.648 73.6709C229.815 71.4295 226.246 72.9577 225.655 77.0713C225.065 81.1849 227.729 86.3555 231.612 88.6225C235.495 90.8894 239.064 89.3739 239.605 85.2348C240.145 81.0958 237.481 75.9124 233.648 73.6709Z" fill="#29A09A" fill-opacity="0.49"/>
<path d="M168.5 26.04L154.576 128.625L150.743 130.892L164.655 23.7731L168.5 26.04Z" fill="black"/>
<path d="M154.576 128.625L236.124 176.294L235.583 180.522L150.743 130.892L154.576 128.625Z" fill="black"/>
<path d="M220.29 199.931L215.967 202.466L231.311 85.1584L235.647 82.624L220.29 199.931Z" fill="black"/>
<path d="M215.967 202.466L123.372 148.314L138.729 31.0068L231.311 85.1585L215.967 202.466Z" fill="#FAFAFA"/>
<path d="M235.646 82.624L231.311 85.1584L138.729 31.0068L143.127 28.4342L235.646 82.624Z" fill="black"/>
<path d="M226.472 86.9159L141.619 37.2854L127.694 144.481L212.548 194.035L226.472 86.9159Z" fill="#29A09A" fill-opacity="0.49"/>
<path opacity="0.8" d="M226.472 86.9159L141.619 37.2854L127.694 144.481L212.548 194.035L226.472 86.9159Z" fill="white"/>
<path d="M136.768 103.192L158.534 82.293C160.809 80.1025 163.486 80.7774 164.504 83.783L180.125 130.357C180.2 130.604 180.363 130.815 180.582 130.947C180.801 131.08 181.061 131.125 181.312 131.074C181.562 131.024 181.785 130.88 181.937 130.673C182.09 130.465 182.16 130.207 182.135 129.949L181.457 120.13L195.356 110.235C195.924 109.797 196.581 109.494 197.28 109.349C197.978 109.204 198.7 109.22 199.392 109.396C200.084 109.572 200.727 109.904 201.275 110.366C201.823 110.829 202.261 111.411 202.557 112.069L218.894 145.181L213.101 189.756L131.553 142.086L136.768 103.192Z" fill="#29A09A" fill-opacity="0.49"/>
<path d="M210.625 87.1961C206.792 84.9546 203.21 86.4702 202.62 90.5838C202.029 94.6973 204.706 99.8807 208.577 102.148C212.447 104.415 216.029 102.886 216.569 98.7473C217.11 94.6082 214.445 89.4376 210.625 87.1961Z" fill="#29A09A" fill-opacity="0.49"/>
<path d="M145.465 39.5523L131.553 142.15L127.708 144.404L141.619 37.2854L145.465 39.5523Z" fill="black"/>
<path d="M131.553 142.15L213.101 189.819L212.548 194.035L127.708 144.404L131.553 142.15Z" fill="black"/>
<path d="M197.254 213.444L192.931 215.978L208.288 98.6709L212.611 96.1365L197.254 213.444Z" fill="black"/>
<path d="M192.931 215.978L100.349 161.839L115.693 44.532L208.288 98.6709L192.931 215.978Z" fill="#FAFAFA"/>
<path d="M212.611 96.1364L208.288 98.6708L115.693 44.5319L120.092 41.9594L212.611 96.1364Z" fill="black"/>
<path d="M203.45 100.428L118.596 50.8107L104.672 157.993L189.525 207.56L203.45 100.428Z" fill="#29A09A" fill-opacity="0.49"/>
<path opacity="0.8" d="M203.45 100.428L118.596 50.8107L104.672 157.993L189.525 207.56L203.45 100.428Z" fill="white"/>
<path d="M113.758 116.704L135.512 95.8054C137.787 93.6276 140.539 94.3026 141.481 97.3082L157.09 143.895C157.165 144.142 157.328 144.353 157.547 144.485C157.766 144.618 158.027 144.663 158.277 144.612C158.527 144.561 158.75 144.418 158.902 144.21C159.055 144.003 159.125 143.745 159.101 143.487L158.422 133.668L172.246 123.76C172.816 123.325 173.475 123.025 174.175 122.881C174.874 122.738 175.597 122.756 176.289 122.933C176.981 123.11 177.625 123.443 178.173 123.905C178.722 124.368 179.162 124.949 179.459 125.607L195.797 158.719L189.991 203.294L108.442 155.612L113.758 116.704Z" fill="#29A09A" fill-opacity="0.49"/>
<path d="M187.59 100.709C183.757 98.4671 180.176 99.9953 179.598 104.109C179.02 108.222 181.671 113.393 185.542 115.66C189.413 117.927 193.007 116.411 193.547 112.272C194.088 108.133 191.423 102.95 187.59 100.709Z" fill="#29A09A" fill-opacity="0.49"/>
<path d="M122.429 53.0776L108.517 155.663L104.672 157.929L118.596 50.8107L122.429 53.0776Z" fill="black"/>
<path d="M108.517 155.663L190.066 203.345L189.525 207.56L104.672 157.93L108.517 155.663Z" fill="black"/>
<path d="M174.231 226.969L169.908 229.503L185.252 112.196L189.588 109.662L174.231 226.969Z" fill="black"/>
<path d="M169.908 229.503L77.313 175.352L92.67 58.0444L185.252 112.196L169.908 229.503Z" fill="#FAFAFA"/>
<path d="M189.587 109.662L185.252 112.196L92.6694 58.0444L97.0554 55.4718L189.587 109.662Z" fill="black"/>
<path d="M180.413 113.954L95.5601 64.3358L81.6357 171.518L166.489 221.085L180.413 113.954Z" fill="#29A09A" fill-opacity="0.49"/>
<path opacity="0.8" d="M180.413 113.954L95.5601 64.3358L81.6357 171.518L166.489 221.085L180.413 113.954Z" fill="white"/>
<path d="M90.7346 130.23L112.501 109.331C114.776 107.14 117.452 107.815 118.458 110.821L134.066 157.407C134.141 157.655 134.304 157.865 134.523 157.998C134.743 158.13 135.003 158.175 135.253 158.125C135.504 158.074 135.727 157.931 135.879 157.723C136.031 157.515 136.102 157.257 136.077 157L135.398 147.181L149.335 137.285C149.904 136.847 150.562 136.544 151.262 136.399C151.961 136.254 152.684 136.27 153.377 136.446C154.069 136.622 154.714 136.954 155.263 137.416C155.812 137.879 156.252 138.461 156.549 139.119L172.886 172.232L167.093 216.806L85.4941 169.188L90.7346 130.23Z" fill="#29A09A" fill-opacity="0.49"/>
<path d="M164.554 114.234C160.784 111.992 157.152 113.508 156.561 117.621C155.971 121.735 158.647 126.918 162.518 129.185C166.389 131.452 169.97 129.924 170.511 125.785C171.051 121.646 168.387 116.475 164.554 114.234Z" fill="#29A09A" fill-opacity="0.49"/>
<path d="M99.4058 66.59L85.494 169.188L81.6484 171.442L95.5603 64.3358L99.4058 66.59Z" fill="black"/>
<path d="M85.494 169.188L167.042 216.857L166.489 221.085L81.6484 171.442L85.494 169.188Z" fill="black"/>
<path d="M151.196 240.481L146.873 243.016L162.217 125.709L166.553 123.174L151.196 240.481Z" fill="black"/>
<path d="M146.872 243.016L54.2896 188.877L69.634 71.5696L162.216 125.708L146.872 243.016Z" fill="#FAFAFA"/>
<path d="M166.553 123.174L162.217 125.709L69.6353 71.5697L74.0338 68.9971L166.553 123.174Z" fill="black"/>
<path d="M157.378 127.479L72.5375 77.8483L58.6006 185.031L143.454 234.598L157.378 127.479Z" fill="#29A09A" fill-opacity="0.49"/>
<path opacity="0.8" d="M157.378 127.479L72.5375 77.8483L58.6006 185.031L143.454 234.598L157.378 127.479Z" fill="white"/>
<path d="M67.6487 143.755L89.4653 122.843C91.7399 120.665 94.4921 121.34 95.4347 124.346L111.043 170.932C111.118 171.18 111.281 171.39 111.5 171.523C111.72 171.655 111.98 171.701 112.23 171.65C112.481 171.599 112.704 171.456 112.856 171.248C113.008 171.04 113.078 170.783 113.054 170.525L112.375 160.706L126.199 150.798C126.768 150.362 127.426 150.062 128.125 149.919C128.824 149.776 129.545 149.794 130.236 149.971C130.928 150.148 131.571 150.481 132.118 150.943C132.666 151.406 133.104 151.987 133.4 152.644L149.737 185.757L143.931 230.331L62.4585 182.7L67.6487 143.755Z" fill="#29A09A" fill-opacity="0.49"/>
<path d="M141.531 127.81C137.761 125.568 134.116 127.097 133.538 131.21C132.96 135.324 135.612 140.494 139.482 142.761C143.353 145.028 146.935 143.513 147.488 139.374C148.041 135.235 145.364 129.988 141.531 127.81Z" fill="#29A09A" fill-opacity="0.49"/>
<path d="M76.3707 80.1152L62.4588 182.7L58.6133 184.967L72.5377 77.8483L76.3707 80.1152Z" fill="black"/>
<path d="M62.4588 182.7L144.007 230.369L143.454 234.598L58.6133 184.967L62.4588 182.7Z" fill="black"/>
<path d="M432.347 8.50299V294.149C432.238 296.208 431.651 298.212 430.633 299.998C429.615 301.784 428.196 303.301 426.491 304.427L264.563 399.077C263.983 399.445 263.312 399.639 262.628 399.638C262.374 399.633 262.122 399.603 261.874 399.548C261.7 399.508 261.532 399.448 261.371 399.37L261.07 399.192L260.718 398.963C260.603 398.872 260.494 398.774 260.391 398.67C259.937 398.229 259.574 397.701 259.323 397.116C258.912 396.169 258.702 395.145 258.707 394.11V109.98C258.817 107.921 259.405 105.917 260.423 104.132C261.44 102.346 262.859 100.828 264.563 99.7024L426.491 5.07712C427.057 4.67646 427.712 4.42183 428.397 4.33528C429.083 4.24873 429.778 4.33288 430.425 4.58043C430.605 4.65295 430.775 4.75161 430.927 4.87335C431.075 4.9806 431.206 5.10934 431.317 5.25542C431.382 5.32172 431.441 5.39421 431.493 5.47192C431.572 5.56269 431.635 5.66595 431.681 5.77758C431.83 6.01449 431.944 6.27183 432.021 6.54171C432.095 6.70691 432.141 6.88331 432.159 7.06387C432.168 7.08164 432.172 7.10127 432.172 7.12118C432.172 7.14108 432.168 7.16071 432.159 7.17849C432.208 7.35724 432.237 7.54087 432.247 7.72612C432.294 7.98302 432.328 8.24237 432.347 8.50299Z" fill="#455A64"/>
<path d="M430.424 4.58053C429.778 4.33298 429.082 4.24883 428.397 4.33538C427.712 4.42193 427.057 4.67656 426.491 5.07722L264.563 99.6642C262.847 100.79 261.418 102.311 260.393 104.104C259.369 105.898 258.778 107.911 258.669 109.98V129.338L251.192 124.893V105.637C251.311 103.594 251.902 101.608 252.917 99.8382C253.932 98.0687 255.343 96.5652 257.036 95.4488L419.014 0.798071C419.627 0.345417 420.352 0.0736879 421.108 0.012995C421.865 -0.047698 422.623 0.105015 423.299 0.45421C424.317 1.09099 429.18 3.91829 430.424 4.58053Z" fill="#E6A960"/>
<path d="M432.335 8.46486C432.335 4.72061 429.709 3.20507 426.492 5.08994L264.564 99.6643C262.849 100.791 261.421 102.313 260.397 104.106C259.372 105.899 258.781 107.912 258.67 109.98V129.338L432.335 27.9375V8.46486Z" fill="#E6A960"/>
<g opacity="0.4">
<path d="M426.491 5.08995L264.564 99.6643C262.849 100.762 261.432 102.277 260.442 104.071L253.015 99.7025C253.985 97.9305 255.387 96.4398 257.086 95.3724L419.014 0.798071C419.627 0.345417 420.352 0.0736879 421.109 0.012995C421.865 -0.047698 422.623 0.105015 423.299 0.45421C424.355 1.10372 429.219 3.90555 430.45 4.58053C429.8 4.32701 429.098 4.24084 428.407 4.32975C427.717 4.41865 427.058 4.67986 426.491 5.08995Z" fill="white"/>
</g>
<path opacity="0.15" d="M251.217 124.919V105.637C251.295 103.536 251.91 101.491 253.001 99.7025L260.454 104.045C259.353 105.83 258.737 107.877 258.669 109.98V129.338L251.217 124.919Z" fill="black"/>
<path d="M397.084 30.5483C395.262 31.6181 393.779 34.802 393.779 37.642C393.779 40.4821 395.262 41.9466 397.084 40.8769C398.906 39.8071 400.389 36.6232 400.389 33.7832C400.389 30.9431 398.906 29.4785 397.084 30.5483Z" fill="#455A64"/>
<path d="M408.985 23.5693C407.163 24.6391 405.68 27.823 405.68 30.663C405.68 33.5031 407.163 34.9677 408.985 33.8979C410.807 32.8281 412.29 29.6442 412.29 26.8041C412.29 23.9641 410.82 22.4995 408.985 23.5693Z" fill="#455A64"/>
<path d="M420.898 16.5902C419.064 17.66 417.593 20.8439 417.593 23.6839C417.593 26.5239 419.064 27.9885 420.898 26.9187C422.733 25.8489 424.204 22.6651 424.204 19.825C424.204 16.985 422.721 15.5331 420.898 16.5902Z" fill="#455A64"/>
<path d="M260.856 399.077C260.642 398.937 260.391 398.797 260.127 398.644C259.587 398.313 258.971 397.957 258.317 397.613L257.337 397.052H257.262C256.721 396.747 256.206 396.428 255.716 396.161L254.459 395.422C254.224 395.273 253.98 395.137 253.73 395.015C253.346 394.806 253.005 394.525 252.725 394.187C252.403 393.833 252.14 393.429 251.946 392.99C251.492 392.005 251.26 390.931 251.267 389.844V124.944L258.669 129.338V394.136C258.695 395.167 258.904 396.185 259.285 397.142C259.536 397.726 259.899 398.254 260.353 398.695C260.441 398.815 260.552 398.915 260.68 398.988C260.732 399.03 260.792 399.06 260.856 399.077Z" fill="#37474F"/>
<path d="M273.084 145.449C273.093 145.06 273.196 144.679 273.386 144.341L277.596 135.515C277.636 135.415 277.701 135.327 277.784 135.26C277.784 135.26 277.872 135.184 277.897 135.184C277.942 135.142 278 135.118 278.061 135.118C278.121 135.118 278.18 135.142 278.224 135.184C278.274 135.243 278.313 135.312 278.336 135.386C278.36 135.46 278.369 135.539 278.362 135.617V138.571C278.372 138.88 278.343 139.188 278.274 139.488C278.208 139.772 278.107 140.046 277.973 140.303L275.761 144.965L277.973 147.028C278.112 147.151 278.216 147.309 278.274 147.486C278.347 147.751 278.377 148.027 278.362 148.301V151.269C278.359 151.476 278.311 151.68 278.224 151.867C278.156 152.032 278.043 152.174 277.897 152.275H277.784C277.755 152.29 277.723 152.297 277.69 152.297C277.657 152.297 277.625 152.29 277.596 152.275L273.386 148.365C273.278 148.275 273.194 148.159 273.141 148.028C273.089 147.897 273.069 147.754 273.084 147.614V145.449Z" fill="#E6A960"/>
<path d="M288.478 123.314C288.556 123.014 288.666 122.724 288.805 122.448C288.933 122.162 289.149 121.925 289.421 121.773L291.004 120.844C291.05 120.804 291.108 120.782 291.168 120.782C291.228 120.782 291.285 120.804 291.331 120.844C291.43 120.964 291.48 121.12 291.469 121.277C291.48 121.387 291.48 121.498 291.469 121.608L284.243 152.772C284.181 153.063 284.083 153.345 283.954 153.612C283.814 153.908 283.591 154.156 283.313 154.325L281.793 155.217C281.747 155.256 281.689 155.278 281.629 155.278C281.569 155.278 281.511 155.256 281.466 155.217C281.414 155.158 281.375 155.09 281.351 155.015C281.328 154.941 281.319 154.862 281.328 154.784C281.317 154.674 281.317 154.563 281.328 154.453L288.478 123.314Z" fill="#E6A960"/>
<path d="M299.651 132.114C299.642 132.503 299.539 132.884 299.349 133.222L295.114 142.048C295.07 142.146 295.006 142.232 294.926 142.303C294.863 142.303 294.838 142.379 294.813 142.379C294.767 142.419 294.709 142.44 294.649 142.44C294.589 142.44 294.531 142.419 294.486 142.379C294.387 142.253 294.338 142.094 294.348 141.934V138.979C294.338 138.671 294.367 138.363 294.436 138.062C294.502 137.778 294.603 137.505 294.737 137.247L296.949 132.586L294.737 130.523C294.598 130.4 294.494 130.241 294.436 130.064C294.363 129.799 294.333 129.524 294.348 129.249V126.282C294.352 126.074 294.399 125.87 294.486 125.683C294.554 125.518 294.667 125.377 294.813 125.275H294.926C294.987 125.252 295.054 125.252 295.114 125.275L299.324 129.185C299.432 129.275 299.516 129.391 299.569 129.522C299.621 129.653 299.641 129.796 299.626 129.937L299.651 132.114Z" fill="#E6A960"/>
<path d="M311.351 130.064C311.407 130.016 311.478 129.99 311.552 129.99C311.625 129.99 311.696 130.016 311.753 130.064C311.816 130.137 311.864 130.222 311.894 130.314C311.924 130.405 311.936 130.502 311.929 130.599V133.859C311.925 134.116 311.865 134.368 311.753 134.598C311.671 134.801 311.531 134.974 311.351 135.095L309.365 136.266C309.308 136.317 309.234 136.346 309.158 136.346C309.081 136.346 309.008 136.317 308.95 136.266C308.888 136.196 308.842 136.113 308.814 136.023C308.786 135.933 308.777 135.838 308.787 135.744V132.471C308.787 132.22 308.842 131.972 308.95 131.745C309.033 131.536 309.178 131.358 309.365 131.236L311.351 130.064Z" fill="#E6A960"/>
<path d="M317.987 126.18C318.042 126.13 318.113 126.102 318.188 126.102C318.262 126.102 318.333 126.13 318.389 126.18C318.454 126.251 318.504 126.335 318.534 126.428C318.565 126.52 318.575 126.618 318.565 126.715V129.975C318.568 130.232 318.507 130.486 318.389 130.714C318.31 130.918 318.169 131.092 317.987 131.21L316.001 132.382C315.946 132.432 315.874 132.46 315.8 132.46C315.726 132.46 315.654 132.432 315.599 132.382C315.534 132.31 315.485 132.226 315.454 132.134C315.424 132.041 315.413 131.944 315.423 131.847V128.574C315.427 128.322 315.488 128.074 315.599 127.848C315.677 127.64 315.818 127.462 316.001 127.339L317.987 126.18Z" fill="#E6A960"/>
<path d="M324.621 122.295C324.679 122.244 324.752 122.216 324.829 122.216C324.905 122.216 324.979 122.244 325.036 122.295C325.097 122.369 325.143 122.454 325.171 122.546C325.199 122.638 325.209 122.735 325.199 122.83V126.091C325.201 126.346 325.145 126.599 325.036 126.829C324.954 127.035 324.808 127.209 324.621 127.326L322.636 128.498C322.58 128.548 322.509 128.575 322.435 128.575C322.36 128.575 322.289 128.548 322.234 128.498C322.171 128.425 322.124 128.34 322.096 128.248C322.068 128.156 322.059 128.058 322.07 127.963V124.702C322.07 124.451 322.126 124.203 322.234 123.976C322.312 123.768 322.453 123.59 322.636 123.467L324.621 122.295Z" fill="#E6A960"/>
<path d="M274.856 169.251L372.151 112.336C373.294 111.661 374.237 112.132 374.237 113.393C374.183 114.102 373.967 114.787 373.604 115.396C373.242 116.004 372.744 116.518 372.151 116.896L274.856 173.824C273.712 174.499 272.782 174.015 272.782 172.754C272.833 172.046 273.048 171.361 273.408 170.753C273.768 170.144 274.264 169.63 274.856 169.251Z" fill="#E6A960"/>
<path d="M306.073 205.79L403.367 148.862C404.511 148.187 405.454 148.671 405.454 149.932C405.401 150.638 405.185 151.323 404.822 151.929C404.46 152.535 403.961 153.047 403.367 153.421L306.073 210.349C304.929 211.024 303.999 210.54 303.999 209.279C304.049 208.573 304.263 207.889 304.623 207.283C304.984 206.677 305.48 206.165 306.073 205.79Z" fill="white"/>
<path d="M306.073 242.315L352.646 215.087C353.79 214.412 354.72 214.896 354.72 216.156C354.669 216.864 354.455 217.549 354.094 218.158C353.734 218.766 353.238 219.28 352.646 219.659L306.073 246.875C304.929 247.55 303.999 247.078 303.999 245.818C304.05 245.11 304.264 244.425 304.625 243.816C304.985 243.208 305.481 242.694 306.073 242.315Z" fill="#E0E0E0"/>
<path d="M380.218 107.611L418.976 84.8528C420.119 84.1778 421.049 84.6617 421.049 85.9226C420.999 86.6286 420.785 87.3126 420.425 87.919C420.064 88.5254 419.568 89.0369 418.976 89.4121L380.218 112.183C379.062 112.858 378.132 112.374 378.132 111.113C378.184 110.405 378.4 109.718 378.762 109.11C379.125 108.501 379.624 107.988 380.218 107.611Z" fill="#E6A960"/>
<path d="M274.856 370.142L372.151 313.214C373.294 312.552 374.237 313.023 374.237 314.284C374.183 314.992 373.967 315.678 373.604 316.286C373.242 316.895 372.744 317.408 372.151 317.786L274.856 374.714C273.712 375.376 272.782 374.905 272.782 373.644C272.833 372.937 273.048 372.252 273.408 371.643C273.768 371.035 274.264 370.521 274.856 370.142Z" fill="#E6A960"/>
<path d="M380.218 308.502L418.976 285.731C420.119 285.056 421.049 285.527 421.049 286.788C420.998 287.495 420.784 288.181 420.424 288.789C420.063 289.397 419.567 289.912 418.976 290.29L380.218 313.049C379.062 313.724 378.132 313.252 378.132 311.992C378.186 311.285 378.403 310.601 378.765 309.995C379.127 309.389 379.625 308.877 380.218 308.502Z" fill="#E6A960"/>
<path d="M380.218 253.803L418.976 231.044C420.119 230.369 421.049 230.853 421.049 232.114C420.998 232.822 420.784 233.507 420.424 234.115C420.063 234.724 419.567 235.238 418.976 235.616L380.218 258.375C379.062 259.05 378.132 258.566 378.132 257.305C378.184 256.596 378.4 255.91 378.762 255.301C379.125 254.693 379.624 254.179 380.218 253.803Z" fill="#E6A960"/>
<path d="M380.218 272.066L418.976 249.307C420.119 248.632 421.049 249.103 421.049 250.364C420.998 251.072 420.784 251.757 420.424 252.365C420.063 252.974 419.567 253.488 418.976 253.867L380.218 276.638C379.062 277.3 378.132 276.829 378.132 275.568C378.184 274.859 378.4 274.173 378.762 273.564C379.125 272.955 379.624 272.442 380.218 272.066Z" fill="#E6A960"/>
<path d="M347.167 273.084L368.933 260.349C370.09 259.674 371.02 260.158 371.02 261.419C370.968 262.128 370.752 262.814 370.39 263.423C370.027 264.031 369.528 264.544 368.933 264.921L347.167 277.656C346.011 278.331 345.081 277.848 345.081 276.587C345.133 275.878 345.348 275.191 345.711 274.583C346.073 273.974 346.572 273.461 347.167 273.084Z" fill="#E6A960"/>
<path d="M274.856 187.565L331.559 154.338C332.702 153.663 333.632 154.147 333.632 155.395C333.582 156.103 333.368 156.789 333.008 157.397C332.648 158.005 332.151 158.519 331.559 158.897L274.856 192.124C273.712 192.799 272.782 192.328 272.782 191.067C272.833 190.36 273.048 189.674 273.408 189.066C273.768 188.458 274.264 187.944 274.856 187.565Z" fill="#E6A960"/>
<path opacity="0.6" d="M274.856 187.565L331.559 154.338C332.702 153.663 333.632 154.147 333.632 155.395C333.582 156.103 333.368 156.789 333.008 157.397C332.648 158.005 332.151 158.519 331.559 158.897L274.856 192.124C273.712 192.799 272.782 192.328 272.782 191.067C272.833 190.36 273.048 189.674 273.408 189.066C273.768 188.458 274.264 187.944 274.856 187.565Z" fill="white"/>
<path d="M274.856 205.79L294.109 194.519C295.265 193.844 296.195 194.315 296.195 195.576C296.151 196.293 295.939 196.99 295.576 197.608C295.213 198.226 294.71 198.748 294.109 199.129L274.856 210.413C273.712 211.075 272.782 210.604 272.782 209.343C272.826 208.627 273.036 207.931 273.397 207.313C273.757 206.696 274.257 206.173 274.856 205.79Z" fill="#E6A960"/>
<path opacity="0.6" d="M274.856 205.79L294.109 194.519C295.265 193.844 296.195 194.315 296.195 195.576C296.151 196.293 295.939 196.99 295.576 197.608C295.213 198.226 294.71 198.748 294.109 199.129L274.856 210.413C273.712 211.075 272.782 210.604 272.782 209.343C272.826 208.627 273.036 207.931 273.397 207.313C273.757 206.696 274.257 206.173 274.856 205.79Z" fill="white"/>
<path d="M274.856 224.053L294.109 212.782C295.265 212.107 296.195 212.578 296.195 213.839C296.143 214.547 295.927 215.234 295.565 215.843C295.203 216.451 294.704 216.964 294.109 217.341L274.856 228.625C273.712 229.3 272.782 228.816 272.782 227.555C272.833 226.847 273.048 226.162 273.408 225.554C273.768 224.945 274.264 224.431 274.856 224.053Z" fill="#E6A960"/>
<path opacity="0.6" d="M274.856 224.053L294.109 212.782C295.265 212.107 296.195 212.578 296.195 213.839C296.143 214.547 295.927 215.234 295.565 215.843C295.203 216.451 294.704 216.964 294.109 217.341L274.856 228.625C273.712 229.3 272.782 228.816 272.782 227.555C272.833 226.847 273.048 226.162 273.408 225.554C273.768 224.945 274.264 224.431 274.856 224.053Z" fill="white"/>
<path d="M274.856 242.315L294.109 231.044C295.265 230.369 296.195 230.841 296.195 232.101C296.143 232.81 295.927 233.497 295.565 234.105C295.203 234.714 294.704 235.227 294.109 235.604L274.856 246.887C273.712 247.562 272.782 247.078 272.782 245.818C272.833 245.11 273.048 244.425 273.408 243.816C273.768 243.208 274.264 242.694 274.856 242.315Z" fill="#E6A960"/>
<path opacity="0.6" d="M274.856 242.315L294.109 231.032C295.265 230.357 296.195 230.841 296.195 232.101C296.143 232.81 295.927 233.497 295.565 234.105C295.203 234.714 294.704 235.227 294.109 235.604L274.856 246.875C273.712 247.55 272.782 247.078 272.782 245.818C272.833 245.11 273.048 244.425 273.408 243.816C273.768 243.208 274.264 242.694 274.856 242.315Z" fill="white"/>
<path d="M306.073 224.053L362.826 190.825C363.969 190.151 364.899 190.622 364.899 191.883C364.848 192.59 364.634 193.275 364.274 193.884C363.914 194.492 363.418 195.006 362.826 195.385L306.073 228.612C304.929 229.287 303.999 228.816 303.999 227.555C304.049 226.847 304.263 226.161 304.623 225.553C304.984 224.944 305.48 224.431 306.073 224.053Z" fill="#E6A960"/>
<path d="M370.881 186.101L395.563 171.709C396.707 171.034 397.637 171.518 397.637 172.779C397.585 173.487 397.371 174.172 397.011 174.78C396.651 175.389 396.155 175.903 395.563 176.281L370.881 190.673C369.738 191.348 368.808 190.864 368.808 189.603C368.859 188.895 369.073 188.21 369.433 187.602C369.793 186.993 370.289 186.479 370.881 186.101Z" fill="#E6A960"/>
<path d="M274.856 260.578L294.109 249.307C295.265 248.632 296.195 249.103 296.195 250.364C296.147 251.078 295.933 251.769 295.57 252.382C295.208 252.996 294.707 253.513 294.109 253.892L274.856 265.176C273.712 265.851 272.782 265.367 272.782 264.106C272.83 263.394 273.042 262.704 273.402 262.091C273.763 261.478 274.261 260.959 274.856 260.578Z" fill="#E6A960"/>
<path opacity="0.6" d="M274.856 260.578L294.109 249.307C295.265 248.632 296.195 249.103 296.195 250.364C296.147 251.078 295.933 251.769 295.57 252.382C295.208 252.996 294.707 253.513 294.109 253.892L274.856 265.176C273.712 265.851 272.782 265.367 272.782 264.106C272.83 263.394 273.042 262.704 273.402 262.091C273.763 261.478 274.261 260.959 274.856 260.578Z" fill="white"/>
<path d="M339.665 149.613L364.347 135.222C365.49 134.56 366.433 135.031 366.433 136.292C366.379 137 366.163 137.686 365.8 138.294C365.438 138.902 364.94 139.416 364.347 139.794L339.665 154.185C338.521 154.86 337.591 154.376 337.591 153.115C337.642 152.408 337.857 151.723 338.217 151.114C338.577 150.506 339.073 149.992 339.665 149.613Z" fill="#E6A960"/>
<path opacity="0.6" d="M339.665 149.613L364.347 135.222C365.49 134.56 366.433 135.031 366.433 136.292C366.379 137 366.163 137.686 365.8 138.294C365.438 138.902 364.94 139.416 364.347 139.794L339.665 154.185C338.521 154.86 337.591 154.376 337.591 153.115C337.642 152.408 337.857 151.723 338.217 151.114C338.577 150.506 339.073 149.992 339.665 149.613Z" fill="white"/>
<path d="M329.485 246.849L386.238 213.622C387.382 212.947 388.312 213.431 388.312 214.692C388.261 215.399 388.047 216.085 387.686 216.693C387.326 217.301 386.83 217.815 386.238 218.194L329.485 251.421C328.342 252.083 327.412 251.612 327.412 250.351C327.463 249.644 327.677 248.959 328.037 248.35C328.397 247.742 328.893 247.228 329.485 246.849Z" fill="#E0E0E0"/>
<path d="M362.222 246.034L418.976 212.807C420.119 212.132 421.062 212.616 421.062 213.877C421.009 214.584 420.793 215.268 420.431 215.874C420.068 216.481 419.57 216.992 418.976 217.366L362.222 250.593C361.079 251.268 360.149 250.797 360.149 249.536C360.2 248.829 360.414 248.143 360.775 247.535C361.135 246.927 361.631 246.413 362.222 246.034Z" fill="white"/>
<path d="M394.294 208.91L418.976 194.519C420.12 193.844 421.05 194.315 421.05 195.576C420.999 196.283 420.784 196.969 420.424 197.577C420.064 198.185 419.568 198.699 418.976 199.078L394.294 213.469C393.151 214.144 392.221 213.673 392.221 212.412C392.271 211.704 392.485 211.019 392.845 210.41C393.205 209.802 393.702 209.288 394.294 208.91Z" fill="#E0E0E0"/>
<path d="M394.294 281.248L418.976 266.857C420.12 266.182 421.05 266.653 421.05 267.914C420.999 268.621 420.784 269.307 420.424 269.915C420.064 270.523 419.568 271.037 418.976 271.416L394.294 285.807C393.151 286.482 392.221 285.998 392.221 284.737C392.271 284.031 392.485 283.347 392.845 282.741C393.205 282.135 393.702 281.623 394.294 281.248Z" fill="#E0E0E0"/>
<path d="M306.073 187.527L362.826 154.3C363.969 153.625 364.899 154.109 364.899 155.37C364.848 156.077 364.634 156.762 364.274 157.371C363.914 157.979 363.418 158.493 362.826 158.872L306.073 192.099C304.929 192.761 303.999 192.29 303.999 191.029C304.05 190.322 304.264 189.636 304.625 189.028C304.985 188.42 305.481 187.906 306.073 187.527Z" fill="#E6A960"/>
<path opacity="0.6" d="M306.073 187.527L362.826 154.3C363.969 153.625 364.899 154.109 364.899 155.37C364.848 156.077 364.634 156.762 364.274 157.371C363.914 157.979 363.418 158.493 362.826 158.872L306.073 192.099C304.929 192.761 303.999 192.29 303.999 191.029C304.05 190.322 304.264 189.636 304.625 189.028C304.985 188.42 305.481 187.906 306.073 187.527Z" fill="white"/>
<path d="M370.881 149.588L395.563 135.196C396.707 134.521 397.637 134.993 397.637 136.254C397.585 136.961 397.371 137.646 397.011 138.255C396.651 138.863 396.155 139.377 395.563 139.756L370.881 154.147C369.738 154.822 368.808 154.351 368.808 153.09C368.856 152.382 369.069 151.695 369.429 151.086C369.79 150.478 370.287 149.964 370.881 149.588Z" fill="#E6A960"/>
<path opacity="0.6" d="M370.881 149.588L395.563 135.196C396.707 134.521 397.637 134.993 397.637 136.254C397.585 136.961 397.371 137.646 397.011 138.255C396.651 138.863 396.155 139.377 395.563 139.756L370.881 154.147C369.738 154.822 368.808 154.351 368.808 153.09C368.856 152.382 369.069 151.695 369.429 151.086C369.79 150.478 370.287 149.964 370.881 149.588Z" fill="white"/>
<path opacity="0.6" d="M306.073 224.053L362.826 190.825C363.969 190.151 364.899 190.622 364.899 191.883C364.848 192.59 364.634 193.275 364.274 193.884C363.914 194.492 363.418 195.006 362.826 195.385L306.073 228.612C304.929 229.287 303.999 228.816 303.999 227.555C304.049 226.847 304.263 226.161 304.623 225.553C304.984 224.944 305.48 224.431 306.073 224.053Z" fill="white"/>
<path opacity="0.6" d="M370.881 186.101L395.563 171.709C396.707 171.034 397.637 171.518 397.637 172.779C397.585 173.487 397.371 174.172 397.011 174.78C396.651 175.389 396.155 175.903 395.563 176.281L370.881 190.673C369.738 191.348 368.808 190.864 368.808 189.603C368.859 188.895 369.073 188.21 369.433 187.602C369.793 186.993 370.289 186.479 370.881 186.101Z" fill="white"/>
<path opacity="0.5" d="M499.819 32.293L486.285 40.1509L472.674 38.8773C472.516 38.8631 472.356 38.8893 472.209 38.9537C473.303 38.3042 485.166 31.427 485.656 31.1596C485.826 31.0561 486.026 31.0156 486.222 31.045L499.819 32.293Z" fill="white"/>
<path opacity="0.5" d="M541.882 35.0439L532.168 40.7749L483.219 12.1326L492.946 6.40161L541.882 35.0439Z" fill="white"/>
<path opacity="0.15" d="M541.882 35.0439L532.168 40.7749L528.574 110.158L538.301 104.427L541.882 35.0439Z" fill="black"/>
<path opacity="0.5" d="M507.687 33.6302L527.14 45.0031L524.275 102.084L507.687 103.332V33.6302Z" fill="white"/>
<path d="M522.516 47.9069L520.468 94.6591L507.687 95.3978L494.919 79.7076L494.265 66.5008L498.89 69.2007L499.267 77.084L507.687 87.7692L516.107 86.9286L517.539 52.1733L493.235 37.9477L492.87 30.561L522.516 47.9069Z" fill="white"/>
<path opacity="0.35" d="M541.882 152.542L532.168 158.261L528.574 227.657L538.301 221.926L541.882 152.542Z" fill="black"/>
<path opacity="0.25" d="M483.219 129.631L484.577 157.484L472.688 156.439C472.488 156.423 472.288 156.468 472.113 156.569C471.938 156.669 471.797 156.82 471.708 157.002C471.619 157.184 471.586 157.389 471.613 157.591C471.639 157.793 471.725 157.981 471.859 158.133L485.331 172.919L486.801 203.217L507.687 228.281L528.574 227.657L532.168 158.261L483.219 129.631Z" fill="black"/>
<path d="M492.87 148.059L493.172 155.408L517.539 169.659L516.949 184.152L493.813 170.614L494.114 177.962L516.66 191.156L516.107 204.427L507.687 205.267L499.267 194.57L498.89 186.699L494.265 183.999L494.919 197.206L507.687 212.896L520.468 212.157L522.516 165.392L492.87 148.059Z" fill="white"/>
<path opacity="0.25" d="M541.882 270.015L532.168 275.746L483.219 247.104L492.946 241.385L541.882 270.015Z" fill="black"/>
<path opacity="0.55" d="M541.882 270.015L532.168 275.746L528.574 345.13L538.301 339.399L541.882 270.015Z" fill="black"/>
<path opacity="0.25" d="M499.819 267.264L486.285 275.122L472.674 273.912C472.516 273.898 472.356 273.924 472.209 273.989C473.303 273.339 485.166 266.449 485.656 266.182C485.83 266.09 486.026 266.051 486.222 266.067L499.819 267.264Z" fill="black"/>
<path opacity="0.4" d="M483.219 247.104L484.577 274.969L472.688 273.912C472.488 273.896 472.288 273.941 472.113 274.041C471.938 274.142 471.797 274.293 471.708 274.475C471.619 274.657 471.586 274.862 471.613 275.064C471.639 275.265 471.725 275.454 471.859 275.606L485.331 290.392L486.801 320.69L507.687 345.753L528.574 345.129L532.168 275.746L483.219 247.104Z" fill="black"/>
<path d="M522.516 282.878L492.87 265.532L494.114 295.448L516.66 308.629L516.107 321.912L507.687 322.74L499.267 312.055L498.89 304.172L494.265 301.472L494.919 314.691L507.687 330.369L520.468 329.63L521.561 304.325L498.437 290.799L497.834 275.619L522.152 289.844L522.516 282.878Z" fill="white"/>
<path d="M286.706 418.41C283.187 429.057 280.171 442.811 275.396 463.532C270.935 482.941 270.909 496.644 277.105 501.357C283.301 506.069 301.058 503.191 312.293 478.942C315.812 471.301 329.045 447.931 329.045 447.931C329.045 447.931 338.847 444.352 342.228 441.665C342.228 441.665 374.902 442.633 390.787 439.334C406.672 436.036 423.562 416.41 417.053 414.449C405.365 410.96 374.224 409.635 347.845 407.916L286.706 418.41Z" fill="white"/>
<path d="M375.23 435.183C368.079 436.864 357.485 434.622 351.515 432.865C351.872 430.75 351.803 428.584 351.314 426.497C350.982 429.335 350.08 432.075 348.663 434.546C347.682 435.106 346.853 435.577 346.25 435.896C342.279 437.946 331.37 443.601 329.347 441.818C326.302 437.831 321.976 435.051 317.119 433.96C320.537 436.291 330.44 443.486 326.921 451.79L329.07 447.969C329.07 447.969 338.873 444.39 342.253 441.703C342.253 441.703 360.539 442.238 376.386 441.143L395.237 427.936C395.237 427.936 386.188 427.363 375.23 435.183Z" fill="#263238"/>
<path d="M356.907 457.776C354.523 460.145 351.608 461.893 348.411 462.87C347.36 463.105 346.27 463.105 345.219 462.87C341.549 462.093 335.668 462.106 333.607 469.53C331.282 477.949 321.995 481.948 319.519 487.717C318.263 490.595 317.634 498.937 318.841 504.069C319.846 508.272 327.876 505.152 330.855 500.019C333.833 494.887 340.217 488.124 344.427 484.227C351.276 480.317 358.88 474.586 362.122 472.281L356.907 457.776Z" fill="#F28F8F"/>
<path d="M405.214 411.584C426.289 413.01 427.006 424.319 421.74 432.928C416.072 442.162 395.349 454.579 384.038 461.15C373.721 467.174 356.114 477.847 356.114 477.847C356.114 477.847 347.204 470.791 348.36 462.857C360.023 454.617 375.732 431.158 395.173 427.898L405.214 411.584Z" fill="white"/>
<path d="M322.02 506.655C320.808 506.839 319.572 506.547 318.564 505.84C317.622 505.165 315.536 499.217 317.308 492.009C318.604 486.658 321.295 481.758 325.099 477.821C327.399 475.351 328.228 472.511 329.058 468.906C329.887 465.302 332.476 460.883 334.273 460.386C336.07 459.89 338.797 461.303 338.797 461.303L322.02 506.655Z" fill="#263238"/>
<path d="M349.806 481.184C349.366 483.476 347.506 484.062 345.508 484.864C342.781 485.959 340.192 488.812 337.729 491.996C336.057 494.161 334.675 496.326 333.154 498.593C331.634 500.86 330.352 504.133 328.718 505.865C326.318 508.412 321.467 507.928 320.135 504.324C318.979 501.217 318.489 493.499 321.982 486.112C323.892 482.075 329.171 478.165 330.553 472.676C331.47 469.008 332.74 464.64 335.404 461.851C336.987 460.195 338.433 460.577 340.431 461.163C343.057 461.898 345.727 462.464 348.424 462.857C348.365 465.121 347.691 467.324 346.476 469.225C345.996 469.83 345.653 470.534 345.47 471.288C345.422 471.81 345.469 472.337 345.608 472.842C345.759 473.555 346.011 474.383 346.702 474.587C346.989 474.627 347.279 474.648 347.569 474.65C348.65 474.79 349.178 476.051 349.454 477.121C349.807 478.27 349.955 479.473 349.894 480.674C349.874 480.846 349.845 481.016 349.806 481.184Z" fill="black"/>
<path opacity="0.4" d="M349.806 481.184C349.366 483.476 347.506 484.062 345.508 484.864C342.781 485.959 340.192 488.812 337.729 491.996C336.057 494.161 334.675 496.326 333.154 498.593C331.634 500.86 330.352 504.133 328.718 505.865C326.318 508.412 321.467 507.928 320.135 504.324C318.979 501.217 318.489 493.499 321.982 486.112C323.892 482.075 329.171 478.165 330.553 472.676C331.47 469.008 332.74 464.64 335.404 461.851C336.987 460.195 338.433 460.577 340.431 461.163C343.057 461.898 345.727 462.464 348.424 462.857C348.365 465.121 347.691 467.324 346.476 469.225C345.996 469.83 345.653 470.534 345.47 471.288C345.422 471.81 345.469 472.337 345.608 472.842C345.759 473.555 346.011 474.383 346.702 474.587C346.989 474.627 347.279 474.648 347.569 474.65C348.65 474.79 349.178 476.051 349.454 477.121C349.807 478.27 349.955 479.473 349.894 480.674C349.874 480.846 349.845 481.016 349.806 481.184Z" fill="black"/>
<path d="M340.192 489.029C340.716 488.86 341.19 488.56 341.57 488.158C341.95 487.755 342.224 487.262 342.366 486.724C342.932 485.17 342.253 482.113 341.11 480.101C341.017 479.897 340.872 479.722 340.691 479.593C340.51 479.464 340.298 479.386 340.077 479.366C339.857 479.347 339.635 479.387 339.434 479.482C339.234 479.578 339.062 479.725 338.936 479.91C338.765 480.126 338.664 480.389 338.646 480.664C338.628 480.94 338.694 481.215 338.835 481.451C340.248 483.7 340.736 486.42 340.192 489.029Z" fill="white"/>
<path d="M336.585 493.524C337.133 493.261 337.609 492.867 337.974 492.377C338.34 491.887 338.583 491.315 338.684 490.71C339.002 488.215 338.531 485.682 337.339 483.476C337.242 483.286 337.099 483.124 336.924 483.004C336.748 482.885 336.546 482.813 336.335 482.794C336.125 482.775 335.913 482.81 335.72 482.895C335.526 482.981 335.357 483.115 335.228 483.285C335.063 483.491 334.966 483.744 334.951 484.009C334.935 484.274 335.001 484.537 335.14 484.762C336.018 486.017 336.604 487.458 336.855 488.975C337.105 490.493 337.013 492.048 336.585 493.524Z" fill="white"/>
<path d="M333.155 498.593C333.673 498.272 334.118 497.842 334.458 497.333C334.798 496.823 335.027 496.245 335.128 495.638C335.396 493.222 334.898 490.783 333.708 488.672C333.611 488.482 333.468 488.32 333.292 488.2C333.117 488.081 332.915 488.009 332.704 487.99C332.494 487.971 332.282 488.006 332.088 488.092C331.895 488.177 331.726 488.311 331.597 488.481C331.429 488.688 331.331 488.944 331.315 489.212C331.299 489.479 331.367 489.745 331.509 489.971C332.432 491.176 333.062 492.585 333.348 494.083C333.634 495.581 333.568 497.126 333.155 498.593Z" fill="white"/>
<path d="M348.499 460.934C352.269 459.979 357.723 458.629 359.985 455.598C362.247 452.567 366.96 449.638 373.319 453.878C377.341 456.566 382.116 457.444 386.892 457.763C389.016 457.711 391.141 457.813 393.251 458.068C395.761 458.764 398.139 459.879 400.288 461.367C401.648 462.141 402.841 463.185 403.794 464.436C404.571 465.608 404.995 466.982 405.015 468.393C405.035 469.803 404.65 471.19 403.908 472.383C403.649 472.813 403.312 473.189 402.915 473.491C402.419 473.845 401.853 474.084 401.256 474.192C399.057 474.688 397.222 473.988 395.148 473.402C393.427 472.918 391.667 472.549 389.92 472.23C385.944 471.475 381.922 470.999 377.881 470.804C376.159 470.74 372.578 470.46 370.856 470.588C363.668 471.084 353.501 475.185 353.501 475.185L348.499 460.934Z" fill="#FFA8A7"/>
<path d="M273.75 495.868C274.931 503.229 283.087 506.782 300.568 503.242C318.049 499.701 359.633 473.147 359.633 473.147C359.633 473.147 358.012 462.959 348.449 460.234C348.449 460.234 339.752 461.838 325.551 464.971C319.149 466.397 312.827 468.17 306.613 470.282C297.011 483.336 287.033 478.063 283.439 482.648C277.52 490.277 273.75 495.868 273.75 495.868Z" fill="white"/>
<path d="M405.704 472.791C406.738 472.118 407.48 471.07 407.778 469.861C408.042 468.728 405.755 462.87 399.748 458.591C395.293 455.437 390.085 453.55 384.667 453.127C381.337 452.809 378.861 451.229 375.87 449.09C372.879 446.95 368.091 445.346 366.407 446.173C364.723 447.001 363.604 449.879 363.604 449.879L405.704 472.791Z" fill="#263238"/>
<path d="M368.267 472.179C370.089 473.606 371.874 472.804 373.897 472.078C376.662 471.084 380.47 471.492 384.391 472.243C387.055 472.753 389.506 473.517 392.12 474.153C394.734 474.79 397.825 476.446 400.188 476.701C403.631 476.994 406.974 473.402 405.642 469.811C404.486 466.703 399.836 460.565 392.396 457.343C388.349 455.585 381.84 456.158 377.228 452.961C374.149 450.822 370.353 448.364 366.533 448.058C364.271 447.867 363.441 449.141 362.31 450.886C360.815 453.195 359.178 455.407 357.409 457.508C358.932 459.181 360.88 460.397 363.039 461.023C363.79 461.162 364.505 461.457 365.138 461.889C365.51 462.258 365.816 462.688 366.043 463.163C366.395 463.787 366.734 464.589 366.344 465.2C366.156 465.421 365.955 465.629 365.741 465.824C365.025 466.665 365.452 467.951 365.93 468.945C366.416 470.043 367.088 471.047 367.915 471.912C368.027 472.008 368.145 472.097 368.267 472.179Z" fill="black"/>
<path opacity="0.4" d="M368.267 472.179C370.089 473.606 371.874 472.804 373.897 472.078C376.662 471.084 380.47 471.492 384.391 472.243C387.055 472.753 389.506 473.517 392.12 474.153C394.734 474.79 397.825 476.446 400.188 476.701C403.631 476.994 406.974 473.402 405.642 469.811C404.486 466.703 399.836 460.565 392.396 457.343C388.349 455.585 381.84 456.158 377.228 452.961C374.149 450.822 370.353 448.364 366.533 448.058C364.271 447.867 363.441 449.141 362.31 450.886C360.815 453.195 359.178 455.407 357.409 457.508C358.932 459.181 360.88 460.397 363.039 461.023C363.79 461.162 364.505 461.457 365.138 461.889C365.51 462.258 365.816 462.688 366.043 463.163C366.395 463.787 366.734 464.589 366.344 465.2C366.156 465.421 365.955 465.629 365.741 465.824C365.025 466.665 365.452 467.951 365.93 468.945C366.416 470.043 367.088 471.047 367.915 471.912C368.027 472.008 368.145 472.097 368.267 472.179Z" fill="black"/>
<path d="M380.57 471.67C380.067 471.894 379.517 471.985 378.97 471.936C378.423 471.887 377.897 471.699 377.441 471.39C375.996 470.6 374.525 467.849 374.073 465.57C374.01 465.354 374.005 465.125 374.059 464.906C374.112 464.687 374.221 464.487 374.376 464.325C374.53 464.163 374.724 464.046 374.938 463.985C375.152 463.924 375.378 463.921 375.594 463.978C375.86 464.026 376.105 464.155 376.296 464.349C376.487 464.542 376.615 464.791 376.662 465.06C377.06 467.697 378.464 470.07 380.57 471.67Z" fill="white"/>
<path d="M386.25 472.638C385.665 472.805 385.049 472.827 384.453 472.7C383.858 472.574 383.302 472.303 382.832 471.912C380.966 470.24 379.672 468.01 379.137 465.544C379.096 465.342 379.104 465.133 379.16 464.934C379.216 464.735 379.32 464.554 379.461 464.405C379.602 464.255 379.776 464.143 379.97 464.078C380.163 464.012 380.369 463.995 380.57 464.029C380.827 464.076 381.063 464.203 381.246 464.392C381.428 464.582 381.548 464.824 381.588 465.086C381.756 466.618 382.263 468.093 383.07 469.4C383.877 470.708 384.964 471.814 386.25 472.638Z" fill="white"/>
<path d="M392.119 474.217C391.521 474.322 390.907 474.296 390.32 474.14C389.732 473.984 389.185 473.702 388.714 473.313C386.943 471.673 385.733 469.506 385.258 467.123C385.208 466.916 385.21 466.699 385.264 466.493C385.318 466.287 385.422 466.098 385.568 465.943C385.713 465.788 385.894 465.673 386.095 465.608C386.295 465.543 386.509 465.529 386.716 465.57C386.975 465.614 387.214 465.741 387.399 465.93C387.584 466.12 387.705 466.364 387.746 466.627C387.839 468.15 388.283 469.631 389.043 470.949C389.802 472.267 390.856 473.386 392.119 474.217Z" fill="white"/>
<path d="M318.728 466.576C318.728 466.576 306.99 468.906 298.281 474.841C298.281 474.841 307.229 464.22 321.052 462.322L318.728 466.576Z" fill="#263238"/>
<path d="M362.687 375.873L348.059 333.999L344.201 335.399L346.514 381.655L349.027 388.532C355.574 385.068 360.915 382.521 362.687 375.873Z" fill="#FFA8A7"/>
<path d="M328.278 322.995C337.339 323.097 345.608 326.434 349.039 333.629C352.47 340.825 362.976 373.517 362.976 373.517C362.976 373.517 354.355 383.795 341.612 382.967L328.278 322.995Z" fill="black"/>
<path opacity="0.1" d="M328.278 322.995C337.339 323.097 345.608 326.434 349.039 333.629C352.47 340.825 362.976 373.517 362.976 373.517C362.976 373.517 354.355 383.795 341.612 382.967L328.278 322.995Z" fill="#EE158A"/>
<path d="M309.692 323.555C296.986 325.937 288.516 328.65 286.116 331.057C280.712 342.277 287.737 379.885 287.737 379.885L288.994 397.778L286.757 418.41C300.493 430.178 342.53 424.396 350.02 407.916C350.02 407.916 347.921 354.274 347.921 344.76C347.921 335.247 342.718 323.848 328.329 322.995L309.692 323.555Z" fill="black"/>
<path d="M300.442 410.323C296.76 404.605 296.911 390.061 296.911 390.061C296.911 390.061 303.345 352.109 301.862 343.066L284.884 359.597C285.965 370.46 287.737 379.974 287.737 379.974L288.994 397.867L286.757 418.499C297.74 427.911 326.821 426.14 341.864 416.551C319.783 425.427 304.112 416.041 300.442 410.323Z" fill="black"/>
<path d="M302.654 293.372C302.654 293.372 304.564 307.649 305.582 310.043C306.266 311.524 307.485 312.683 308.988 313.278L309.516 303.382L302.654 293.372Z" fill="#263238"/>
<path d="M307.87 273.467C306.848 273.263 305.793 273.3 304.786 273.573C303.78 273.847 302.849 274.351 302.064 275.046C299.45 277.376 300.229 285.362 302.68 293.309L308.197 294.378L307.87 273.467Z" fill="#263238"/>
<path d="M309.856 294.506C308.699 295.091 307.267 292.812 305.997 291.245C304.728 289.679 300.393 287.348 297.804 291.958C295.215 296.569 298.935 303.42 302.391 304.809C308.335 307.203 309.541 303.319 309.541 303.319L308.285 326.039C313.802 338.214 335.819 333.871 328.304 325.504L328.706 319.735C331.748 320.189 334.818 320.423 337.893 320.435C342.43 320.066 344.491 317.073 346.212 312.259C348.977 304.541 350.284 298.25 349.568 282.572C348.801 265.418 329.297 263.762 318.263 269.684C307.229 275.606 309.856 294.506 309.856 294.506Z" fill="#FFA8A7"/>
<path d="M309.465 264.233C313.281 262.913 317.231 262.029 321.241 261.597C329.887 260.323 338.684 259.305 346.752 255.904C347.703 255.376 348.789 255.149 349.869 255.255C351.905 255.675 352.608 258.26 352.533 260.349C352.47 262.299 352.079 264.225 351.377 266.042C352.039 265.484 352.892 265.216 353.75 265.295C354.607 265.373 355.399 265.793 355.951 266.462C356.473 267.156 356.832 267.963 357 268.819C357.167 269.675 357.14 270.559 356.919 271.403C356.414 273.296 355.465 275.036 354.152 276.475C352.838 277.915 351.201 279.01 349.379 279.669C345.727 280.961 341.844 281.443 337.993 281.082C332.612 280.83 327.271 280.011 322.058 278.637C320.814 278.221 319.509 278.027 318.2 278.064C317.542 278.087 316.904 278.297 316.36 278.671C315.815 279.045 315.385 279.568 315.121 280.178C314.404 282.279 312.733 296.836 309.767 296.734C309.214 296.734 307.392 292.914 306.11 291.462C304.514 289.679 303.71 277.032 303.597 274.702C303.567 274.519 303.498 274.345 303.396 274.192C301.661 271.289 304.275 266.831 306.776 265.507C307.649 265.033 308.547 264.607 309.465 264.233Z" fill="#263238"/>
<path d="M304.451 274.422C303.691 275.2 302.657 275.641 301.577 275.647C300.496 275.653 299.457 275.224 298.689 274.453C297.921 273.683 297.486 272.635 297.48 271.54C297.474 270.445 297.898 269.393 298.658 268.614L304.451 274.422Z" fill="#263238"/>
<path d="M328.693 319.735C328.693 319.735 318.778 318.003 315.422 315.914C313.449 314.672 311.89 312.857 310.948 310.705C311.32 312.818 312.111 314.833 313.273 316.627C315.586 320.13 328.417 323.555 328.417 323.555L328.693 319.735Z" fill="#F28F8F"/>
<path d="M329.699 293.372C329.654 293.769 329.494 294.143 329.24 294.449C328.986 294.755 328.65 294.978 328.272 295.091C327.894 295.205 327.491 295.203 327.114 295.086C326.737 294.969 326.402 294.743 326.151 294.435C325.9 294.127 325.744 293.751 325.702 293.354C325.66 292.956 325.735 292.555 325.916 292.201C326.097 291.846 326.377 291.553 326.721 291.358C327.065 291.163 327.459 291.075 327.852 291.105C328.12 291.131 328.381 291.21 328.619 291.337C328.857 291.465 329.068 291.64 329.24 291.85C329.411 292.061 329.54 292.304 329.619 292.565C329.698 292.826 329.725 293.1 329.699 293.372Z" fill="#263238"/>
<path d="M328.141 285.527L323.679 287.603C323.416 286.983 323.4 286.284 323.634 285.653C323.869 285.021 324.335 284.506 324.936 284.215C325.231 284.082 325.549 284.01 325.871 284.004C326.194 283.999 326.514 284.059 326.813 284.181C327.113 284.304 327.384 284.486 327.612 284.717C327.84 284.948 328.02 285.224 328.141 285.527Z" fill="#263238"/>
<path d="M328.693 307.483L333.142 309.572C333.017 309.874 332.832 310.147 332.601 310.375C332.369 310.604 332.094 310.783 331.793 310.902C331.492 311.02 331.17 311.077 330.847 311.067C330.524 311.057 330.206 310.982 329.912 310.845C329.313 310.56 328.849 310.048 328.621 309.418C328.393 308.789 328.419 308.093 328.693 307.483Z" fill="#F28F8F"/>
<path d="M347.443 288.736L343.761 285.387C343.963 285.133 344.214 284.923 344.5 284.771C344.785 284.619 345.098 284.527 345.419 284.502C345.741 284.477 346.064 284.519 346.368 284.625C346.673 284.731 346.953 284.9 347.192 285.12C347.682 285.575 347.982 286.204 348.028 286.877C348.075 287.55 347.866 288.215 347.443 288.736Z" fill="#263238"/>
<path d="M345.847 294.034C345.802 294.431 345.642 294.806 345.388 295.111C345.134 295.417 344.798 295.64 344.42 295.754C344.042 295.867 343.639 295.865 343.262 295.748C342.885 295.631 342.55 295.405 342.299 295.097C342.048 294.789 341.892 294.413 341.85 294.016C341.808 293.619 341.883 293.218 342.064 292.863C342.245 292.508 342.525 292.215 342.869 292.02C343.213 291.826 343.606 291.738 344 291.767C344.54 291.822 345.038 292.091 345.384 292.516C345.729 292.94 345.896 293.486 345.847 294.034Z" fill="#263238"/>
<path d="M335.63 291.946L335.379 304.197L341.838 302.504L335.63 291.946Z" fill="#F28F8F"/>
<path d="M271.437 416.792C263.294 408.489 261.987 405.776 263.093 400.593C265.279 390.404 274.215 357.789 277.608 348.097C281.868 335.922 283.766 331.057 290.854 329.49C296.572 334.075 302.164 351.242 294.473 366.703L285.198 400.453" fill="#FFA8A7"/>
<path d="M296.936 326.485C285.99 327.758 281.353 332.241 277.407 344.225C273.461 356.209 266.523 383.795 266.523 383.795C266.523 383.795 275.71 393.881 288.591 392.824L299.324 356.783C299.324 356.783 306.877 330.573 296.936 326.485Z" fill="black"/>
<path opacity="0.1" d="M296.936 326.485C285.99 327.758 281.353 332.241 277.407 344.225C273.461 356.209 266.523 383.795 266.523 383.795C266.523 383.795 275.71 393.881 288.591 392.824L299.324 356.783C299.324 356.783 306.877 330.573 296.936 326.485Z" fill="#EE158A"/>
<path d="M294.397 450.631V451.905C294.401 452.544 294.568 453.171 294.883 453.725C295.198 454.279 295.65 454.74 296.195 455.063L330.453 475.032C330.997 475.35 331.615 475.517 332.243 475.517C332.872 475.517 333.489 475.35 334.034 475.032L396.87 438.265C397.417 437.948 397.871 437.49 398.187 436.937C398.502 436.385 398.668 435.757 398.667 435.119V434.228L332.25 473.096L294.397 450.631Z" fill="#EBEBEB"/>
<path d="M398.668 434.24L361.419 412.45C361.093 412.256 360.722 412.154 360.344 412.154C359.966 412.154 359.595 412.256 359.27 412.45L294.637 450.262C294.564 450.304 294.503 450.365 294.461 450.439C294.418 450.513 294.396 450.597 294.396 450.682C294.396 450.767 294.418 450.851 294.461 450.925C294.503 450.999 294.564 451.06 294.637 451.102L332.25 473.109L398.668 434.24Z" fill="white"/>
<path d="M382.103 412.157C376.988 402.962 362.687 375.873 362.687 375.873L349.039 388.609C354.606 399.281 369.725 420.753 369.725 420.753C376.674 425.351 385.044 417.455 382.103 412.157Z" fill="#FFA8A7"/>
<path d="M331.898 469.9L311.803 458.158L370.567 423.784L390.763 435.463L331.898 469.9Z" fill="black"/>
<path d="M322.033 437.233L322.397 437.45L332.25 443.206L349.768 432.967L350.12 432.75L339.903 426.777L322.033 437.233Z" fill="#E0E0E0"/>
<path d="M322.397 437.45L332.25 443.206L349.768 432.967L339.903 427.197L322.397 437.45Z" fill="white"/>
<path d="M332.25 473.109V475.491C332.877 475.495 333.493 475.327 334.035 475.007L396.87 438.239C397.417 437.922 397.871 437.464 398.187 436.912C398.503 436.359 398.668 435.732 398.667 435.094V434.202L332.25 473.109Z" fill="#EBEBEB"/>
<path d="M332.25 473.109V475.491C332.877 475.495 333.493 475.327 334.035 475.007L396.87 438.239C397.417 437.922 397.871 437.464 398.187 436.912C398.503 436.359 398.668 435.732 398.667 435.094V434.202L332.25 473.109Z" fill="#E0E0E0"/>
<path d="M333.255 473.644C333.848 473.88 334.486 473.978 335.121 473.929C335.757 473.881 336.373 473.687 336.924 473.364L399.484 436.749C400.027 436.434 400.495 436.002 400.853 435.482C401.212 434.962 401.452 434.369 401.557 433.744L408.406 392.353C408.425 392.116 408.425 391.877 408.406 391.64C408.407 391.071 408.296 390.508 408.081 389.984C407.865 389.459 407.548 388.983 407.15 388.583L342.14 426.624C341.738 426.858 341.392 427.179 341.127 427.565C340.862 427.95 340.684 428.39 340.607 428.853L333.255 473.644Z" fill="black"/>
<g opacity="0.7">
<path d="M333.255 473.644C333.848 473.88 334.486 473.978 335.121 473.929C335.757 473.881 336.373 473.687 336.924 473.364L399.484 436.749C400.027 436.434 400.495 436.002 400.853 435.482C401.212 434.962 401.452 434.369 401.557 433.744L408.406 392.353C408.425 392.116 408.425 391.877 408.406 391.64C408.407 391.071 408.296 390.508 408.081 389.984C407.865 389.459 407.548 388.983 407.15 388.583L342.14 426.624C341.738 426.858 341.392 427.179 341.127 427.565C340.862 427.95 340.684 428.39 340.607 428.853L333.255 473.644Z" fill="#E6A960"/>
</g>
<path d="M332.25 473.109L332.677 473.364C332.864 473.47 333.057 473.564 333.255 473.644L340.657 428.853C340.735 428.39 340.913 427.95 341.178 427.565C341.443 427.179 341.789 426.858 342.191 426.624L407.2 388.583C406.942 388.321 406.65 388.094 406.333 387.908L341.185 426.026C340.785 426.26 340.44 426.581 340.177 426.966C339.914 427.352 339.739 427.792 339.665 428.254L332.25 473.109Z" fill="white"/>
<path d="M368.493 435.437C368.946 432.661 371.773 428.98 374.777 427.21C377.78 425.44 379.879 426.255 379.414 429.031C378.949 431.808 376.134 435.476 373.131 437.246C370.127 439.016 368.003 438.214 368.493 435.437Z" fill="black"/>
<path d="M285.199 400.453C285.199 400.453 289.899 408.362 295.328 415.735C300.757 423.109 306.638 430.878 311.037 432.19C315.171 433.463 320.022 434.902 321.43 436.214C324.811 439.691 327.96 443.393 330.855 447.294C332.112 449.472 335.266 453.904 330.855 455.318C326.821 456.591 323.528 454.859 320.261 452.579C318.72 451.462 317.255 450.241 315.875 448.924C312.602 449.288 309.298 448.621 306.412 447.014C303.898 445.588 299.751 443.091 299.751 443.091C296.308 440.697 279.204 424.65 271.438 416.754" fill="#FFA8A7"/>
</svg>
