<svg width="573" height="533" viewBox="0 0 573 533" fill="none" xmlns="http://www.w3.org/2000/svg">
<path d="M286.38 533C444.543 533 572.76 463.906 572.76 378.673C572.76 293.441 444.543 224.347 286.38 224.347C128.217 224.347 0 293.441 0 378.673C0 463.906 128.217 533 286.38 533Z" fill="#49BBBD"/>
<path d="M340.08 509.236C390.455 509.236 431.292 486.125 431.292 457.617C431.292 429.109 390.455 405.998 340.08 405.998C289.704 405.998 248.867 429.109 248.867 457.617C248.867 486.125 289.704 509.236 340.08 509.236Z" fill="#E0E0E0"/>
<path d="M266.373 395.058L430.839 301.947C432.787 300.851 432.787 299.064 430.839 297.968L358.704 257.141C357.615 256.594 356.409 256.309 355.185 256.309C353.961 256.309 352.755 256.594 351.666 257.141L187.2 350.314C185.252 351.41 185.252 353.196 187.2 354.293L259.348 395.12C260.44 395.657 261.647 395.932 262.868 395.921C264.09 395.911 265.291 395.615 266.373 395.058Z" fill="#E0E0E0"/>
<path d="M127.783 413.735L22.6463 354.231C20.711 353.135 20.711 351.349 22.6463 350.252L193.761 253.396C194.852 252.856 196.057 252.574 197.279 252.574C198.502 252.574 199.707 252.856 200.798 253.396L305.935 312.899C307.883 314.008 307.883 315.782 305.935 316.891L134.821 413.735C133.73 414.275 132.524 414.556 131.302 414.556C130.079 414.556 128.874 414.275 127.783 413.735Z" fill="#E0E0E0"/>
<path d="M183.166 244.28L25.2099 333.695C24.61 334.075 24.1104 334.589 23.7522 335.195C23.394 335.801 23.1872 336.482 23.1489 337.181V341.259C23.1872 341.959 23.394 342.639 23.7522 343.245C24.1104 343.851 24.61 344.365 25.2099 344.746L129.065 403.534C129.702 403.85 130.406 404.015 131.12 404.015C131.833 404.015 132.537 403.85 133.174 403.534L291.168 314.107C291.765 313.724 292.261 313.209 292.616 312.603C292.972 311.997 293.178 311.318 293.217 310.62V306.543C293.178 305.843 292.972 305.163 292.614 304.557C292.255 303.951 291.756 303.437 291.156 303.056L187.276 244.28C186.639 243.964 185.935 243.799 185.221 243.799C184.507 243.799 183.803 243.964 183.166 244.28Z" fill="#37474F"/>
<path d="M129.064 394.8L25.2094 336.023C24.9625 335.94 24.7484 335.782 24.5968 335.574C24.4452 335.365 24.3638 335.115 24.3638 334.859C24.3638 334.603 24.4452 334.353 24.5968 334.145C24.7484 333.936 24.9625 333.779 25.2094 333.695L183.166 244.28C183.803 243.964 184.507 243.799 185.221 243.799C185.934 243.799 186.638 243.964 187.275 244.28L291.155 303.056C291.398 303.143 291.608 303.3 291.756 303.507C291.904 303.714 291.983 303.961 291.983 304.214C291.983 304.467 291.904 304.714 291.756 304.921C291.608 305.129 291.398 305.286 291.155 305.372L133.174 394.8C132.537 395.116 131.833 395.281 131.119 395.281C130.405 395.281 129.701 395.116 129.064 394.8Z" fill="#455A64"/>
<path d="M131.251 395.28V404.002C130.498 404.042 129.748 403.884 129.077 403.547L25.1974 344.746C24.6021 344.364 24.1066 343.851 23.7507 343.248C23.3949 342.644 23.1888 341.967 23.1489 341.271V337.194C23.184 336.57 23.3506 335.96 23.6383 335.402C23.926 334.844 24.3285 334.351 24.8204 333.954C24.0915 334.607 24.2171 335.457 25.1974 336.011L129.077 394.8C129.746 395.146 130.496 395.311 131.251 395.28Z" fill="black"/>
<path d="M266.348 311.507L262.025 313.971L277.369 200.484L281.705 198.032L266.348 311.507Z" fill="black"/>
<path d="M262.025 313.971L169.443 261.589L184.787 148.114L277.369 200.484L262.025 313.971Z" fill="#FAFAFA"/>
<path d="M281.705 198.032L277.369 200.484L184.787 148.114L189.186 145.625L281.705 198.032Z" fill="black"/>
<path d="M272.531 202.196L187.677 154.187L173.753 257.88L258.606 305.816L272.531 202.196Z" fill="#29A09A" fill-opacity="0.49"/>
<path opacity="0.8" d="M272.531 202.196L187.677 154.187L173.753 257.88L258.606 305.816L272.531 202.196Z" fill="white"/>
<path d="M182.852 217.941L204.631 197.712C206.906 195.605 209.595 196.258 210.601 199.166L226.209 244.23C226.284 244.47 226.447 244.673 226.666 244.801C226.886 244.93 227.146 244.973 227.396 244.924C227.646 244.875 227.869 244.737 228.022 244.536C228.174 244.335 228.244 244.085 228.22 243.836L227.541 234.338L241.428 224.753C241.997 224.332 242.655 224.042 243.354 223.904C244.053 223.765 244.774 223.782 245.465 223.954C246.156 224.125 246.799 224.447 247.347 224.894C247.894 225.342 248.332 225.904 248.629 226.54L264.966 258.57L259.16 301.689L177.612 255.614L182.852 217.941Z" fill="#29A09A" fill-opacity="0.49"/>
<path d="M256.684 202.48C252.913 200.311 249.269 201.79 248.678 205.769C248.088 209.748 250.764 214.75 254.635 216.943C258.506 219.136 262.088 217.67 262.64 213.666C263.193 209.662 260.517 204.623 256.684 202.48Z" fill="#29A09A" fill-opacity="0.49"/>
<path d="M191.523 156.38L177.612 255.614L173.766 257.807L187.678 154.187L191.523 156.38Z" fill="black"/>
<path d="M177.612 255.614L259.16 301.738L258.607 305.816L173.766 257.807L177.612 255.614Z" fill="black"/>
<path d="M243.325 324.591L238.989 327.042L254.346 213.567L258.682 211.115L243.325 324.591Z" fill="black"/>
<path d="M238.989 327.042L146.407 274.66L161.752 161.185L254.346 213.567L238.989 327.042Z" fill="#FAFAFA"/>
<path d="M258.682 211.116L254.347 213.567L161.752 161.185L166.15 158.696L258.682 211.116Z" fill="black"/>
<path d="M249.508 215.267L164.654 167.271L150.73 270.952L235.583 318.899L249.508 215.267Z" fill="#29A09A" fill-opacity="0.49"/>
<path opacity="0.8" d="M249.508 215.267L164.654 167.271L150.73 270.952L235.583 318.899L249.508 215.267Z" fill="white"/>
<path d="M159.817 231.012L181.583 210.795C183.858 208.676 186.61 209.329 187.552 212.237L203.161 257.301C203.236 257.541 203.399 257.744 203.618 257.872C203.837 258.001 204.097 258.044 204.348 257.995C204.598 257.946 204.821 257.808 204.973 257.607C205.126 257.406 205.196 257.156 205.171 256.907L204.493 247.409L218.38 237.837C218.95 237.416 219.609 237.125 220.308 236.987C221.008 236.848 221.731 236.866 222.423 237.037C223.115 237.208 223.759 237.53 224.307 237.977C224.856 238.425 225.295 238.987 225.593 239.623L241.93 271.654L236.137 314.772L154.576 268.66L159.817 231.012Z" fill="#29A09A" fill-opacity="0.49"/>
<path d="M233.648 215.538C229.815 213.37 226.246 214.836 225.655 218.815C225.065 222.795 227.729 227.809 231.612 230.001C235.495 232.194 239.064 230.716 239.605 226.712C240.145 222.708 237.481 217.707 233.648 215.538Z" fill="#29A09A" fill-opacity="0.49"/>
<path d="M168.5 169.451L154.576 268.697L150.743 270.878L164.655 167.271L168.5 169.451Z" fill="black"/>
<path d="M154.576 268.697L236.124 314.809L235.583 318.899L150.743 270.878L154.576 268.697Z" fill="black"/>
<path d="M220.29 337.674L215.967 340.126L231.311 226.65L235.647 224.187L220.29 337.674Z" fill="black"/>
<path d="M215.967 340.126L123.372 287.743L138.729 174.268L231.311 226.65L215.967 340.126Z" fill="#FAFAFA"/>
<path d="M235.646 224.187L231.311 226.65L138.729 174.268L143.127 171.779L235.646 224.187Z" fill="black"/>
<path d="M226.472 228.35L141.619 180.341L127.694 284.035L212.548 331.97L226.472 228.35Z" fill="#29A09A" fill-opacity="0.49"/>
<path opacity="0.8" d="M226.472 228.35L141.619 180.341L127.694 284.035L212.548 331.97L226.472 228.35Z" fill="white"/>
<path d="M136.768 244.095L158.534 223.866C160.809 221.76 163.486 222.412 164.504 225.32L180.099 270.385C180.174 270.624 180.337 270.827 180.557 270.956C180.776 271.084 181.036 271.128 181.286 271.079C181.537 271.029 181.76 270.891 181.912 270.69C182.064 270.489 182.135 270.24 182.11 269.99L181.431 260.492L195.331 250.908C195.9 250.487 196.558 250.196 197.257 250.058C197.955 249.92 198.677 249.937 199.368 250.108C200.059 250.28 200.702 250.601 201.25 251.048C201.797 251.496 202.235 252.058 202.532 252.694L218.869 284.725L213.076 327.843L131.527 281.731L136.768 244.095Z" fill="#29A09A" fill-opacity="0.49"/>
<path d="M210.625 228.609C206.792 226.441 203.21 227.919 202.62 231.899C202.029 235.878 204.706 240.879 208.577 243.072C212.447 245.265 216.029 243.799 216.569 239.795C217.11 235.791 214.445 230.814 210.625 228.609Z" fill="#29A09A" fill-opacity="0.49"/>
<path d="M145.465 182.534L131.553 281.78L127.708 283.961L141.619 180.341L145.465 182.534Z" fill="black"/>
<path d="M131.553 281.78L213.101 327.892L212.548 331.97L127.708 283.961L131.553 281.78Z" fill="black"/>
<path d="M197.254 350.745L192.931 353.197L208.288 239.722L212.611 237.27L197.254 350.745Z" fill="black"/>
<path d="M192.931 353.197L100.349 300.814L115.693 187.339L208.288 239.721L192.931 353.197Z" fill="#FAFAFA"/>
<path d="M212.611 237.27L208.288 239.721L115.693 187.339L120.092 184.85L212.611 237.27Z" fill="black"/>
<path d="M203.45 241.422L118.596 193.425L104.672 297.106L189.525 345.054L203.45 241.422Z" fill="#29A09A" fill-opacity="0.49"/>
<path opacity="0.8" d="M203.45 241.422L118.596 193.425L104.672 297.106L189.525 345.054L203.45 241.422Z" fill="white"/>
<path d="M113.758 257.166L135.512 236.974C137.786 234.868 140.539 235.508 141.481 238.416L157.09 283.48C157.165 283.72 157.328 283.923 157.547 284.051C157.766 284.18 158.026 284.223 158.277 284.174C158.527 284.125 158.75 283.987 158.902 283.786C159.054 283.585 159.125 283.335 159.1 283.086L158.422 273.588L172.246 264.016C172.816 263.595 173.475 263.304 174.174 263.166C174.874 263.027 175.597 263.045 176.289 263.216C176.981 263.387 177.625 263.709 178.173 264.156C178.722 264.604 179.161 265.166 179.459 265.802L195.796 297.833L189.99 340.951L108.518 294.876L113.758 257.166Z" fill="#29A09A" fill-opacity="0.49"/>
<path d="M187.59 241.693C183.757 239.524 180.176 240.99 179.598 244.97C179.02 248.949 181.671 253.963 185.542 256.156C189.413 258.349 193.007 256.883 193.547 252.866C194.088 248.85 191.423 243.861 187.59 241.693Z" fill="#29A09A" fill-opacity="0.49"/>
<path d="M122.429 195.618L108.517 294.851L104.672 297.032L118.596 193.425L122.429 195.618Z" fill="black"/>
<path d="M108.517 294.851L190.066 340.963L189.525 345.053L104.672 297.032L108.517 294.851Z" fill="black"/>
<path d="M174.231 363.816L169.908 366.28L185.252 252.792L189.588 250.341L174.231 363.816Z" fill="black"/>
<path d="M169.908 366.28L77.313 313.897L92.67 200.422L185.252 252.792L169.908 366.28Z" fill="#FAFAFA"/>
<path d="M189.587 250.341L185.252 252.792L92.6694 200.422L97.0554 197.934L189.587 250.341Z" fill="black"/>
<path d="M180.413 254.505L95.5601 206.496L81.6357 310.189L166.489 358.125L180.413 254.505Z" fill="#29A09A" fill-opacity="0.49"/>
<path opacity="0.8" d="M180.413 254.505L95.5601 206.496L81.6357 310.189L166.489 358.125L180.413 254.505Z" fill="white"/>
<path d="M90.7346 270.237L112.501 250.008C114.776 247.902 117.452 248.555 118.458 251.462L134.066 296.527C134.141 296.766 134.304 296.97 134.523 297.098C134.743 297.226 135.003 297.27 135.253 297.221C135.504 297.172 135.727 297.033 135.879 296.832C136.031 296.631 136.102 296.382 136.077 296.133L135.398 286.634L149.335 277.062C149.905 276.651 150.561 276.369 151.256 276.236C151.95 276.104 152.666 276.124 153.352 276.297C154.037 276.469 154.675 276.788 155.219 277.231C155.764 277.675 156.201 278.231 156.498 278.861L172.836 310.891L167.042 354.01L85.4941 307.935L90.7346 270.237Z" fill="#29A09A" fill-opacity="0.49"/>
<path d="M164.554 254.764C160.784 252.608 157.152 254.074 156.561 258.053C155.971 262.032 158.647 267.034 162.518 269.227C166.389 271.42 169.97 269.954 170.511 265.95C171.051 261.946 168.387 256.932 164.554 254.764Z" fill="#29A09A" fill-opacity="0.49"/>
<path d="M99.4058 208.689L85.494 307.935L81.6484 310.115L95.5603 206.496L99.4058 208.689Z" fill="black"/>
<path d="M85.494 307.935L167.042 354.047L166.489 358.125L81.6484 310.115L85.494 307.935Z" fill="black"/>
<path d="M151.196 376.899L146.873 379.351L162.217 265.876L166.553 263.424L151.196 376.899Z" fill="black"/>
<path d="M146.872 379.351L54.2896 326.968L69.634 213.493L162.216 265.876L146.872 379.351Z" fill="#FAFAFA"/>
<path d="M166.553 263.424L162.217 265.876L69.6353 213.493L74.0338 211.005L166.553 263.424Z" fill="black"/>
<path d="M157.378 267.576L72.5375 219.579L58.6006 323.26L143.454 371.208L157.378 267.576Z" fill="#29A09A" fill-opacity="0.49"/>
<path opacity="0.8" d="M157.378 267.576L72.5375 219.579L58.6006 323.26L143.454 371.208L157.378 267.576Z" fill="white"/>
<path d="M67.6487 283.32L89.415 263.104C91.6897 260.997 94.4419 261.638 95.3844 264.545L111.043 309.66C111.118 309.899 111.281 310.102 111.5 310.231C111.72 310.359 111.98 310.403 112.23 310.353C112.481 310.304 112.704 310.166 112.856 309.965C113.008 309.764 113.078 309.515 113.054 309.265L112.375 299.767L126.199 290.195C126.768 289.774 127.426 289.483 128.125 289.345C128.824 289.207 129.545 289.224 130.236 289.395C130.928 289.567 131.571 289.888 132.118 290.336C132.666 290.783 133.104 291.345 133.4 291.981L149.737 324.012L143.931 367.13L62.4585 321.006L67.6487 283.32Z" fill="#29A09A" fill-opacity="0.49"/>
<path d="M141.531 267.847C137.761 265.679 134.116 267.145 133.538 271.136C132.96 275.128 135.612 280.117 139.482 282.31C143.353 284.503 146.935 283.037 147.488 279.021C148.041 275.005 145.364 270.015 141.531 267.847Z" fill="#29A09A" fill-opacity="0.49"/>
<path d="M76.3707 221.772L62.4588 321.006L58.6133 323.199L72.5377 219.579L76.3707 221.772Z" fill="black"/>
<path d="M62.4588 321.006L144.007 367.118L143.454 371.208L58.6133 323.198L62.4588 321.006Z" fill="black"/>
<path d="M183.166 100.942L25.2099 190.357C24.6083 190.739 24.1077 191.255 23.7494 191.863C23.3911 192.472 23.1853 193.155 23.1489 193.856V197.934C23.1873 198.635 23.3939 199.317 23.7521 199.925C24.1102 200.533 24.6097 201.05 25.2099 201.433L129.065 260.209C129.702 260.525 130.406 260.69 131.12 260.69C131.833 260.69 132.537 260.525 133.174 260.209L291.168 170.782C291.765 170.398 292.261 169.883 292.616 169.278C292.972 168.672 293.178 167.993 293.217 167.295V163.217C293.178 162.518 292.972 161.837 292.614 161.231C292.255 160.625 291.756 160.111 291.156 159.731L187.276 100.954C186.64 100.636 185.936 100.47 185.223 100.468C184.509 100.465 183.804 100.628 183.166 100.942Z" fill="#37474F"/>
<path d="M129.064 251.462L25.2094 192.686C24.9625 192.602 24.7484 192.445 24.5968 192.236C24.4452 192.027 24.3638 191.778 24.3638 191.521C24.3638 191.265 24.4452 191.016 24.5968 190.807C24.7484 190.598 24.9625 190.441 25.2094 190.357L183.166 100.942C183.803 100.626 184.507 100.461 185.221 100.461C185.934 100.461 186.638 100.626 187.275 100.942L291.155 159.719C292.299 160.359 292.299 161.394 291.155 162.047L133.174 251.462C132.539 251.784 131.834 251.952 131.119 251.952C130.404 251.952 129.699 251.784 129.064 251.462Z" fill="#455A64"/>
<path d="M131.251 251.943V260.677C130.498 260.706 129.749 260.545 129.077 260.209L25.1974 201.408C24.6021 201.027 24.1066 200.514 23.7507 199.91C23.3949 199.307 23.1888 198.63 23.1489 197.934V193.856C23.184 193.232 23.3506 192.622 23.6383 192.064C23.926 191.507 24.3285 191.013 24.8204 190.616C24.0915 191.269 24.2171 192.119 25.1974 192.686L129.077 251.462C129.744 251.814 130.496 251.98 131.251 251.943Z" fill="black"/>
<path d="M266.348 167.246L262.025 169.697L277.369 56.2221L281.705 53.7705L266.348 167.246Z" fill="black"/>
<path d="M262.025 169.697L169.443 117.315L184.787 3.8396L277.369 56.2222L262.025 169.697Z" fill="#FAFAFA"/>
<path d="M281.705 53.7706L277.369 56.2222L184.787 3.83961L189.186 1.35107L281.705 53.7706Z" fill="black"/>
<path d="M272.531 57.9224L187.677 9.92554L173.753 113.607L258.606 161.554L272.531 57.9224Z" fill="#29A09A" fill-opacity="0.49"/>
<path opacity="0.8" d="M272.531 57.9224L187.677 9.92554L173.753 113.607L258.606 161.554L272.531 57.9224Z" fill="white"/>
<path d="M182.852 73.6667L204.631 53.4134C206.906 51.2944 209.595 51.9474 210.601 54.8548L226.209 99.9196C226.284 100.159 226.447 100.362 226.666 100.491C226.886 100.619 227.146 100.663 227.396 100.613C227.647 100.564 227.869 100.426 228.022 100.225C228.174 100.024 228.244 99.7745 228.22 99.5254L227.541 90.027L241.415 80.5163C241.983 80.0927 242.64 79.7998 243.339 79.6593C244.037 79.5188 244.759 79.5343 245.451 79.7048C246.143 79.8752 246.787 80.1961 247.334 80.6437C247.882 81.0913 248.32 81.6541 248.616 82.2904L264.953 114.321L259.147 157.439L177.612 111.315L182.852 73.6667Z" fill="#29A09A" fill-opacity="0.49"/>
<path d="M256.684 58.1934C252.913 56.0251 249.269 57.4912 248.678 61.4704C248.088 65.4496 250.764 70.4636 254.635 72.6565C258.506 74.8494 262.088 73.371 262.64 69.3672C263.193 65.3633 260.517 60.3616 256.684 58.1934Z" fill="#29A09A" fill-opacity="0.49"/>
<path d="M191.523 12.1061L177.612 111.352L173.766 113.533L187.678 9.92554L191.523 12.1061Z" fill="black"/>
<path d="M177.612 111.352L259.16 157.464L258.607 161.554L173.766 113.533L177.612 111.352Z" fill="black"/>
<path d="M243.325 180.317L238.989 182.769L254.346 69.2934L258.682 66.8418L243.325 180.317Z" fill="black"/>
<path d="M238.989 182.768L146.407 130.398L161.752 16.9229L254.346 69.2931L238.989 182.768Z" fill="#FAFAFA"/>
<path d="M258.682 66.8416L254.347 69.2932L161.752 16.9229L166.15 14.4343L258.682 66.8416Z" fill="black"/>
<path d="M249.508 71.0058L164.654 22.9966L150.73 126.678L235.583 174.625L249.508 71.0058Z" fill="#29A09A" fill-opacity="0.49"/>
<path opacity="0.8" d="M249.508 71.0058L164.654 22.9966L150.73 126.678L235.583 174.625L249.508 71.0058Z" fill="white"/>
<path d="M159.817 86.7378L181.583 66.5215C183.858 64.4148 186.61 65.0678 187.552 67.9752L203.161 113.04C203.235 113.282 203.398 113.488 203.62 113.617C203.841 113.747 204.104 113.79 204.356 113.739C204.608 113.688 204.832 113.546 204.983 113.342C205.134 113.137 205.201 112.884 205.171 112.633L204.493 103.147L218.38 93.5628C218.95 93.1418 219.609 92.8514 220.308 92.7131C221.008 92.5747 221.731 92.5918 222.423 92.7632C223.115 92.9345 223.759 93.2558 224.307 93.7033C224.856 94.1508 225.295 94.7132 225.593 95.3491L241.93 127.38L236.137 170.498L154.576 124.386L159.817 86.7378Z" fill="#29A09A" fill-opacity="0.49"/>
<path d="M233.648 71.2645C229.815 69.0963 226.246 70.5746 225.655 74.5538C225.065 78.533 227.729 83.5347 231.612 85.7276C235.495 87.9205 239.064 86.4545 239.605 82.4506C240.145 78.4468 237.481 73.4327 233.648 71.2645Z" fill="#29A09A" fill-opacity="0.49"/>
<path d="M168.5 25.1895L154.576 124.423L150.743 126.616L164.655 22.9966L168.5 25.1895Z" fill="black"/>
<path d="M154.576 124.423L236.124 170.535L235.583 174.625L150.743 126.616L154.576 124.423Z" fill="black"/>
<path d="M220.29 193.4L215.967 195.852L231.311 82.3766L235.647 79.925L220.29 193.4Z" fill="black"/>
<path d="M215.967 195.852L123.372 143.469L138.729 29.9939L231.311 82.3765L215.967 195.852Z" fill="#FAFAFA"/>
<path d="M235.646 79.9249L231.311 82.3765L138.729 29.9939L143.127 27.5054L235.646 79.9249Z" fill="black"/>
<path d="M226.472 84.0766L141.619 36.0674L127.694 139.761L212.548 187.696L226.472 84.0766Z" fill="#29A09A" fill-opacity="0.49"/>
<path opacity="0.8" d="M226.472 84.0766L141.619 36.0674L127.694 139.761L212.548 187.696L226.472 84.0766Z" fill="white"/>
<path d="M136.768 99.8209L158.534 79.6046C160.809 77.4856 163.486 78.1385 164.504 81.0459L180.125 126.098C180.2 126.338 180.363 126.541 180.582 126.669C180.801 126.798 181.061 126.841 181.312 126.792C181.562 126.743 181.785 126.605 181.937 126.404C182.09 126.203 182.16 125.953 182.135 125.704L181.457 116.206L195.356 106.634C195.924 106.21 196.581 105.917 197.28 105.777C197.978 105.636 198.7 105.652 199.392 105.822C200.084 105.992 200.727 106.313 201.275 106.761C201.823 107.209 202.261 107.771 202.557 108.408L218.894 140.438L213.101 183.557L131.553 137.445L136.768 99.8209Z" fill="#29A09A" fill-opacity="0.49"/>
<path d="M210.625 84.3477C206.792 82.1794 203.21 83.6455 202.62 87.6247C202.029 91.6039 204.706 96.6179 208.577 98.8108C212.447 101.004 216.029 99.5253 216.569 95.5215C217.11 91.5176 214.445 86.5159 210.625 84.3477Z" fill="#29A09A" fill-opacity="0.49"/>
<path d="M145.465 38.2603L131.553 137.506L127.708 139.687L141.619 36.0674L145.465 38.2603Z" fill="black"/>
<path d="M131.553 137.506L213.101 183.618L212.548 187.696L127.708 139.687L131.553 137.506Z" fill="black"/>
<path d="M197.254 206.471L192.931 208.923L208.288 95.4477L212.611 92.9961L197.254 206.471Z" fill="black"/>
<path d="M192.931 208.923L100.349 156.552L115.693 43.0771L208.288 95.4474L192.931 208.923Z" fill="#FAFAFA"/>
<path d="M212.611 92.9961L208.288 95.4477L115.693 43.0774L120.092 40.5889L212.611 92.9961Z" fill="black"/>
<path d="M203.45 97.1478L118.596 49.1509L104.672 152.832L189.525 200.78L203.45 97.1478Z" fill="#29A09A" fill-opacity="0.49"/>
<path opacity="0.8" d="M203.45 97.1478L118.596 49.1509L104.672 152.832L189.525 200.78L203.45 97.1478Z" fill="white"/>
<path d="M113.758 112.892L135.512 92.6758C137.787 90.5691 140.539 91.2221 141.481 94.1295L157.09 139.194C157.165 139.434 157.328 139.637 157.547 139.765C157.766 139.893 158.027 139.937 158.277 139.888C158.527 139.839 158.75 139.701 158.902 139.5C159.055 139.298 159.125 139.049 159.101 138.8L158.422 129.302L172.246 119.717C172.816 119.296 173.475 119.006 174.175 118.867C174.874 118.729 175.597 118.746 176.289 118.917C176.981 119.089 177.625 119.41 178.173 119.858C178.722 120.305 179.162 120.868 179.459 121.503L195.797 153.534L189.991 196.653L108.442 150.528L113.758 112.892Z" fill="#29A09A" fill-opacity="0.49"/>
<path d="M187.59 97.4188C183.757 95.2506 180.176 96.7289 179.598 100.708C179.02 104.687 181.671 109.689 185.542 111.882C189.413 114.075 193.007 112.609 193.547 108.605C194.088 104.601 191.423 99.587 187.59 97.4188Z" fill="#29A09A" fill-opacity="0.49"/>
<path d="M122.429 51.3438L108.517 150.578L104.672 152.77L118.596 49.1509L122.429 51.3438Z" fill="black"/>
<path d="M108.517 150.577L190.066 196.702L189.525 200.779L104.672 152.77L108.517 150.577Z" fill="black"/>
<path d="M174.231 219.554L169.908 222.006L185.252 108.531L189.588 106.079L174.231 219.554Z" fill="black"/>
<path d="M169.908 222.006L77.313 169.624L92.67 56.1484L185.252 108.531L169.908 222.006Z" fill="#FAFAFA"/>
<path d="M189.587 106.079L185.252 108.531L92.6694 56.1482L97.0554 53.6597L189.587 106.079Z" fill="black"/>
<path d="M180.413 110.231L95.5601 62.2341L81.6357 165.915L166.489 213.863L180.413 110.231Z" fill="#29A09A" fill-opacity="0.49"/>
<path opacity="0.8" d="M180.413 110.231L95.5601 62.2341L81.6357 165.915L166.489 213.863L180.413 110.231Z" fill="white"/>
<path d="M90.7346 125.975L112.501 105.759C114.776 103.64 117.452 104.293 118.458 107.2L134.066 152.265C134.141 152.505 134.304 152.708 134.523 152.836C134.743 152.964 135.003 153.008 135.253 152.959C135.504 152.91 135.727 152.772 135.879 152.571C136.031 152.369 136.102 152.12 136.077 151.871L135.398 142.373L149.335 132.8C149.904 132.377 150.562 132.084 151.262 131.943C151.961 131.803 152.684 131.818 153.377 131.989C154.069 132.159 154.714 132.48 155.263 132.927C155.812 133.375 156.252 133.938 156.549 134.574L172.886 166.605L167.093 209.724L85.4941 163.661L90.7346 125.975Z" fill="#29A09A" fill-opacity="0.49"/>
<path d="M164.554 110.502C160.784 108.334 157.152 109.8 156.561 113.779C155.971 117.758 158.647 122.772 162.518 124.965C166.389 127.158 169.97 125.68 170.511 121.676C171.051 117.672 168.387 112.67 164.554 110.502Z" fill="#29A09A" fill-opacity="0.49"/>
<path d="M99.4058 64.4147L85.494 163.661L81.6484 165.841L95.5603 62.2341L99.4058 64.4147Z" fill="black"/>
<path d="M85.494 163.661L167.042 209.773L166.489 213.863L81.6484 165.841L85.494 163.661Z" fill="black"/>
<path d="M151.196 232.626L146.873 235.077L162.217 121.602L166.553 119.15L151.196 232.626Z" fill="black"/>
<path d="M146.872 235.077L54.2896 182.707L69.634 69.2317L162.216 121.602L146.872 235.077Z" fill="#FAFAFA"/>
<path d="M166.553 119.15L162.217 121.602L69.6353 69.2317L74.0338 66.7432L166.553 119.15Z" fill="black"/>
<path d="M157.378 123.314L72.5375 75.3052L58.6006 178.986L143.454 226.934L157.378 123.314Z" fill="#29A09A" fill-opacity="0.49"/>
<path opacity="0.8" d="M157.378 123.314L72.5375 75.3052L58.6006 178.986L143.454 226.934L157.378 123.314Z" fill="white"/>
<path d="M67.6487 139.059L89.4653 118.83C91.7399 116.723 94.4921 117.376 95.4347 120.284L111.043 165.349C111.118 165.588 111.281 165.791 111.5 165.92C111.72 166.048 111.98 166.092 112.23 166.042C112.481 165.993 112.704 165.855 112.856 165.654C113.008 165.453 113.078 165.204 113.054 164.954L112.375 155.456L126.199 145.871C126.768 145.45 127.426 145.16 128.125 145.022C128.824 144.883 129.545 144.901 130.236 145.072C130.928 145.243 131.571 145.565 132.118 146.012C132.666 146.46 133.104 147.022 133.4 147.658L149.737 179.688L143.931 222.807L62.4585 176.732L67.6487 139.059Z" fill="#29A09A" fill-opacity="0.49"/>
<path d="M141.531 123.635C137.761 121.466 134.116 122.945 133.538 126.924C132.96 130.903 135.612 135.905 139.482 138.098C143.353 140.291 146.935 138.825 147.488 134.821C148.041 130.817 145.364 125.741 141.531 123.635Z" fill="#29A09A" fill-opacity="0.49"/>
<path d="M76.3707 77.4981L62.4588 176.732L58.6133 178.925L72.5377 75.3052L76.3707 77.4981Z" fill="black"/>
<path d="M62.4588 176.732L144.007 222.844L143.454 226.934L58.6133 178.925L62.4588 176.732Z" fill="black"/>
<path d="M432.347 8.22538V284.54C432.238 286.532 431.651 288.471 430.633 290.198C429.615 291.926 428.196 293.393 426.491 294.482L264.563 386.04C263.983 386.396 263.312 386.584 262.628 386.583C262.374 386.578 262.122 386.549 261.874 386.496C261.7 386.457 261.532 386.4 261.371 386.324L261.07 386.151L260.718 385.93C260.603 385.842 260.494 385.747 260.391 385.646C259.937 385.22 259.574 384.709 259.323 384.143C258.912 383.227 258.702 382.237 258.707 381.236V106.387C258.817 104.396 259.405 102.457 260.423 100.73C261.44 99.0027 262.859 97.5348 264.563 96.4455L426.491 4.91143C427.057 4.52386 427.712 4.27754 428.397 4.19382C429.083 4.1101 429.778 4.1915 430.425 4.43097C430.605 4.50111 430.775 4.59655 430.927 4.71431C431.075 4.81806 431.206 4.94259 431.317 5.0839C431.382 5.14803 431.441 5.21816 431.493 5.29333C431.572 5.38114 431.635 5.48102 431.681 5.589C431.83 5.81818 431.944 6.06711 432.021 6.32817C432.095 6.48797 432.141 6.65861 432.159 6.83327C432.168 6.85046 432.172 6.86945 432.172 6.88871C432.172 6.90796 432.168 6.92695 432.159 6.94414C432.208 7.11706 432.237 7.29469 432.247 7.47388C432.294 7.7224 432.328 7.97327 432.347 8.22538Z" fill="#455A64"/>
<path d="M430.424 4.4309C429.778 4.19143 429.082 4.11003 428.397 4.19375C427.712 4.27747 427.057 4.52379 426.491 4.91136L264.563 96.4085C262.847 97.4973 261.418 98.9692 260.393 100.704C259.369 102.438 258.778 104.386 258.669 106.387V125.113L251.192 120.813V102.186C251.311 100.21 251.902 98.2885 252.917 96.5768C253.932 94.865 255.343 93.4107 257.036 92.3307L419.014 0.772C419.627 0.334133 420.352 0.0712807 421.108 0.0125705C421.865 -0.0461398 422.623 0.101584 423.299 0.439372C424.317 1.05535 429.18 3.79028 430.424 4.4309Z" fill="#E6A960"/>
<path d="M432.335 8.18836C432.335 4.56642 429.709 3.1004 426.492 4.92369L264.564 96.4085C262.849 97.4987 261.421 98.971 260.397 100.705C259.372 102.439 258.781 104.386 258.67 106.387V125.113L432.335 27.0249V8.18836Z" fill="#E6A960"/>
<g opacity="0.4">
<path d="M426.491 4.92368L264.564 96.4084C262.849 97.4706 261.432 98.9358 260.442 100.671L253.015 96.4454C253.985 94.7313 255.387 93.2894 257.086 92.2568L419.014 0.772C419.627 0.334133 420.352 0.0712807 421.109 0.0125705C421.865 -0.0461398 422.623 0.101584 423.299 0.439372C424.355 1.06767 429.219 3.77796 430.45 4.4309C429.8 4.18566 429.098 4.1023 428.407 4.1883C427.717 4.27431 427.058 4.52697 426.491 4.92368Z" fill="white"/>
</g>
<path opacity="0.15" d="M251.217 120.838V102.186C251.295 100.154 251.91 98.1755 253.001 96.4453L260.454 100.646C259.353 102.372 258.737 104.353 258.669 106.387V125.113L251.217 120.838Z" fill="black"/>
<path d="M397.084 29.5504C395.262 30.5853 393.779 33.6651 393.779 36.4124C393.779 39.1596 395.262 40.5764 397.084 39.5416C398.906 38.5067 400.389 35.4268 400.389 32.6796C400.389 29.9323 398.906 28.5156 397.084 29.5504Z" fill="#455A64"/>
<path d="M408.985 22.7992C407.163 23.834 405.68 26.9139 405.68 29.6612C405.68 32.4084 407.163 33.8252 408.985 32.7903C410.807 31.7555 412.29 28.6756 412.29 25.9284C412.29 23.1811 410.82 21.7644 408.985 22.7992Z" fill="#455A64"/>
<path d="M420.898 16.0481C419.064 17.083 417.593 20.1629 417.593 22.9101C417.593 25.6574 419.064 27.0741 420.898 26.0393C422.733 25.0044 424.204 21.9246 424.204 19.1773C424.204 16.43 422.721 15.0256 420.898 16.0481Z" fill="#455A64"/>
<path d="M260.856 386.041C260.642 385.905 260.391 385.77 260.127 385.622C259.587 385.301 258.971 384.956 258.317 384.624L257.337 384.082H257.262C256.721 383.786 256.206 383.478 255.716 383.219L254.459 382.505C254.224 382.361 253.98 382.229 253.73 382.111C253.346 381.909 253.005 381.637 252.725 381.31C252.403 380.968 252.14 380.577 251.946 380.152C251.492 379.199 251.26 378.16 251.267 377.109V120.863L258.669 125.113V381.261C258.695 382.258 258.904 383.243 259.285 384.168C259.536 384.734 259.899 385.244 260.353 385.671C260.441 385.787 260.552 385.883 260.68 385.954C260.732 385.995 260.792 386.024 260.856 386.041Z" fill="#37474F"/>
<path d="M273.084 140.697C273.093 140.321 273.196 139.953 273.386 139.625L277.596 131.088C277.636 130.991 277.701 130.906 277.784 130.842C277.784 130.842 277.872 130.768 277.897 130.768C277.942 130.727 278 130.704 278.061 130.704C278.121 130.704 278.18 130.727 278.224 130.768C278.274 130.825 278.313 130.892 278.336 130.963C278.36 131.035 278.369 131.111 278.362 131.187V134.045C278.372 134.343 278.343 134.641 278.274 134.932C278.208 135.206 278.107 135.471 277.973 135.72L275.761 140.229L277.973 142.225C278.112 142.344 278.216 142.497 278.274 142.668C278.347 142.925 278.377 143.191 278.362 143.457V146.327C278.359 146.528 278.311 146.725 278.224 146.906C278.156 147.066 278.043 147.203 277.897 147.301H277.784C277.755 147.315 277.723 147.322 277.69 147.322C277.657 147.322 277.625 147.315 277.596 147.301L273.386 143.518C273.278 143.431 273.194 143.319 273.141 143.192C273.089 143.065 273.069 142.928 273.084 142.792V140.697Z" fill="#E6A960"/>
<path d="M288.478 119.286C288.556 118.996 288.666 118.715 288.805 118.448C288.933 118.171 289.149 117.942 289.421 117.795L291.004 116.896C291.05 116.858 291.108 116.837 291.168 116.837C291.228 116.837 291.285 116.858 291.331 116.896C291.43 117.013 291.48 117.163 291.469 117.315C291.48 117.421 291.48 117.528 291.469 117.635L284.243 147.781C284.181 148.062 284.083 148.335 283.954 148.594C283.814 148.88 283.591 149.12 283.313 149.284L281.793 150.146C281.747 150.184 281.689 150.205 281.629 150.205C281.569 150.205 281.511 150.184 281.466 150.146C281.414 150.09 281.375 150.023 281.351 149.951C281.328 149.879 281.319 149.803 281.328 149.727C281.317 149.621 281.317 149.514 281.328 149.407L288.478 119.286Z" fill="#E6A960"/>
<path d="M299.651 127.799C299.642 128.175 299.539 128.543 299.349 128.87L295.114 137.408C295.07 137.502 295.006 137.586 294.926 137.654C294.863 137.654 294.838 137.728 294.813 137.728C294.767 137.766 294.709 137.787 294.649 137.787C294.589 137.787 294.531 137.766 294.486 137.728C294.387 137.606 294.338 137.453 294.348 137.297V134.439C294.338 134.141 294.367 133.843 294.436 133.552C294.502 133.278 294.603 133.013 294.737 132.763L296.949 128.254L294.737 126.259C294.598 126.14 294.494 125.987 294.436 125.815C294.363 125.559 294.333 125.293 294.348 125.027V122.156C294.352 121.956 294.399 121.759 294.486 121.577C294.554 121.418 294.667 121.281 294.813 121.183H294.926C294.987 121.16 295.054 121.16 295.114 121.183L299.324 124.965C299.432 125.052 299.516 125.164 299.569 125.291C299.621 125.418 299.641 125.556 299.626 125.692L299.651 127.799Z" fill="#E6A960"/>
<path d="M311.351 125.815C311.407 125.769 311.478 125.744 311.552 125.744C311.625 125.744 311.696 125.769 311.753 125.815C311.816 125.886 311.864 125.968 311.894 126.057C311.924 126.145 311.936 126.239 311.929 126.333V129.486C311.925 129.735 311.865 129.979 311.753 130.201C311.671 130.397 311.531 130.564 311.351 130.681L309.365 131.815C309.308 131.864 309.234 131.891 309.158 131.891C309.081 131.891 309.008 131.864 308.95 131.815C308.888 131.747 308.842 131.666 308.814 131.579C308.786 131.492 308.777 131.4 308.787 131.31V128.144C308.787 127.9 308.842 127.66 308.95 127.441C309.033 127.239 309.178 127.067 309.365 126.949L311.351 125.815Z" fill="#E6A960"/>
<path d="M317.987 122.058C318.042 122.009 318.113 121.982 318.188 121.982C318.262 121.982 318.333 122.009 318.389 122.058C318.454 122.126 318.504 122.208 318.534 122.298C318.565 122.387 318.575 122.482 318.565 122.575V125.729C318.568 125.978 318.507 126.223 318.389 126.443C318.31 126.641 318.169 126.81 317.987 126.924L316.001 128.057C315.946 128.106 315.874 128.133 315.8 128.133C315.726 128.133 315.654 128.106 315.599 128.057C315.534 127.988 315.485 127.906 315.454 127.817C315.424 127.728 315.413 127.633 315.423 127.54V124.374C315.427 124.13 315.488 123.89 315.599 123.672C315.677 123.47 315.818 123.298 316.001 123.179L317.987 122.058Z" fill="#E6A960"/>
<path d="M324.621 118.3C324.679 118.251 324.752 118.224 324.829 118.224C324.905 118.224 324.979 118.251 325.036 118.3C325.097 118.372 325.143 118.454 325.171 118.543C325.199 118.632 325.209 118.725 325.199 118.818V121.971C325.201 122.219 325.145 122.463 325.036 122.686C324.954 122.885 324.808 123.054 324.621 123.166L322.636 124.3C322.58 124.348 322.509 124.375 322.435 124.375C322.36 124.375 322.289 124.348 322.234 124.3C322.171 124.23 322.124 124.147 322.096 124.058C322.068 123.969 322.059 123.875 322.07 123.782V120.629C322.07 120.385 322.126 120.145 322.234 119.926C322.312 119.725 322.453 119.553 322.636 119.434L324.621 118.3Z" fill="#E6A960"/>
<path d="M274.856 163.722L372.151 108.667C373.294 108.014 374.237 108.469 374.237 109.689C374.183 110.374 373.967 111.038 373.604 111.626C373.242 112.214 372.744 112.711 372.151 113.077L274.856 168.145C273.712 168.798 272.782 168.33 272.782 167.11C272.833 166.426 273.048 165.763 273.408 165.175C273.768 164.586 274.264 164.089 274.856 163.722Z" fill="#E6A960"/>
<path d="M306.073 199.067L403.367 143.999C404.511 143.346 405.454 143.814 405.454 145.034C405.401 145.717 405.185 146.379 404.822 146.966C404.46 147.552 403.961 148.047 403.367 148.409L306.073 203.477C304.929 204.13 303.999 203.662 303.999 202.443C304.049 201.76 304.263 201.098 304.623 200.511C304.984 199.925 305.48 199.43 306.073 199.067Z" fill="white"/>
<path d="M306.073 234.399L352.646 208.06C353.79 207.407 354.72 207.875 354.72 209.095C354.669 209.779 354.455 210.442 354.094 211.031C353.734 211.619 353.238 212.117 352.646 212.483L306.073 238.81C304.929 239.463 303.999 239.007 303.999 237.787C304.05 237.103 304.264 236.44 304.625 235.851C304.985 235.263 305.481 234.766 306.073 234.399Z" fill="#E0E0E0"/>
<path d="M380.218 104.096L418.976 82.0807C420.119 81.4278 421.049 81.8959 421.049 83.1156C420.999 83.7985 420.785 84.4602 420.425 85.0468C420.064 85.6333 419.568 86.1282 418.976 86.4911L380.218 108.518C379.062 109.171 378.132 108.703 378.132 107.484C378.184 106.798 378.4 106.134 378.762 105.545C379.125 104.956 379.624 104.46 380.218 104.096Z" fill="#E6A960"/>
<path d="M274.856 358.051L372.151 302.982C373.294 302.342 374.237 302.797 374.237 304.017C374.183 304.702 373.967 305.366 373.604 305.954C373.242 306.542 372.744 307.039 372.151 307.405L274.856 362.473C273.712 363.114 272.782 362.658 272.782 361.438C272.833 360.754 273.048 360.091 273.408 359.503C273.768 358.914 274.264 358.417 274.856 358.051Z" fill="#E6A960"/>
<path d="M380.218 298.424L418.976 276.397C420.119 275.744 421.049 276.2 421.049 277.419C420.998 278.104 420.784 278.767 420.424 279.355C420.063 279.943 419.567 280.441 418.976 280.807L380.218 302.822C379.062 303.475 378.132 303.019 378.132 301.8C378.186 301.116 378.403 300.454 378.765 299.868C379.127 299.282 379.625 298.787 380.218 298.424Z" fill="#E6A960"/>
<path d="M380.218 245.512L418.976 223.497C420.119 222.844 421.049 223.312 421.049 224.532C420.998 225.216 420.784 225.879 420.424 226.467C420.063 227.056 419.567 227.553 418.976 227.919L380.218 249.934C379.062 250.587 378.132 250.119 378.132 248.9C378.184 248.214 378.4 247.55 378.762 246.961C379.125 246.372 379.624 245.876 380.218 245.512Z" fill="#E6A960"/>
<path d="M380.218 263.178L418.976 241.163C420.119 240.51 421.049 240.966 421.049 242.185C420.998 242.87 420.784 243.533 420.424 244.121C420.063 244.71 419.567 245.207 418.976 245.573L380.218 267.601C379.062 268.241 378.132 267.785 378.132 266.566C378.184 265.88 378.4 265.216 378.762 264.627C379.125 264.039 379.624 263.542 380.218 263.178Z" fill="#E6A960"/>
<path d="M347.167 264.163L368.933 251.844C370.09 251.191 371.02 251.659 371.02 252.879C370.968 253.564 370.752 254.229 370.39 254.817C370.027 255.406 369.528 255.902 368.933 256.267L347.167 268.586C346.011 269.239 345.081 268.771 345.081 267.551C345.133 266.866 345.348 266.201 345.711 265.613C346.073 265.024 346.572 264.528 347.167 264.163Z" fill="#E6A960"/>
<path d="M274.856 181.438L331.559 149.296C332.702 148.643 333.632 149.111 333.632 150.319C333.582 151.003 333.368 151.667 333.008 152.255C332.648 152.844 332.151 153.341 331.559 153.707L274.856 185.848C273.712 186.501 272.782 186.045 272.782 184.826C272.833 184.141 273.048 183.478 273.408 182.89C273.768 182.301 274.264 181.804 274.856 181.438Z" fill="#E6A960"/>
<path opacity="0.6" d="M274.856 181.438L331.559 149.296C332.702 148.643 333.632 149.111 333.632 150.319C333.582 151.003 333.368 151.667 333.008 152.255C332.648 152.844 332.151 153.341 331.559 153.707L274.856 185.848C273.712 186.501 272.782 186.045 272.782 184.826C272.833 184.141 273.048 183.478 273.408 182.89C273.768 182.301 274.264 181.804 274.856 181.438Z" fill="white"/>
<path d="M274.856 199.067L294.109 188.164C295.265 187.511 296.195 187.967 296.195 189.187C296.151 189.881 295.939 190.555 295.576 191.153C295.213 191.751 294.71 192.255 294.109 192.624L274.856 203.539C273.712 204.18 272.782 203.724 272.782 202.504C272.826 201.811 273.036 201.138 273.397 200.541C273.757 199.943 274.257 199.438 274.856 199.067Z" fill="#E6A960"/>
<path opacity="0.6" d="M274.856 199.067L294.109 188.164C295.265 187.511 296.195 187.967 296.195 189.187C296.151 189.881 295.939 190.555 295.576 191.153C295.213 191.751 294.71 192.255 294.109 192.624L274.856 203.539C273.712 204.18 272.782 203.724 272.782 202.504C272.826 201.811 273.036 201.138 273.397 200.541C273.757 199.943 274.257 199.438 274.856 199.067Z" fill="white"/>
<path d="M274.856 216.733L294.109 205.831C295.265 205.178 296.195 205.633 296.195 206.853C296.143 207.539 295.927 208.203 295.565 208.792C295.203 209.38 294.704 209.877 294.109 210.241L274.856 221.156C273.712 221.809 272.782 221.341 272.782 220.121C272.833 219.437 273.048 218.774 273.408 218.185C273.768 217.597 274.264 217.1 274.856 216.733Z" fill="#E6A960"/>
<path opacity="0.6" d="M274.856 216.733L294.109 205.831C295.265 205.178 296.195 205.633 296.195 206.853C296.143 207.539 295.927 208.203 295.565 208.792C295.203 209.38 294.704 209.877 294.109 210.241L274.856 221.156C273.712 221.809 272.782 221.341 272.782 220.121C272.833 219.437 273.048 218.774 273.408 218.185C273.768 217.597 274.264 217.1 274.856 216.733Z" fill="white"/>
<path d="M274.856 234.399L294.109 223.497C295.265 222.844 296.195 223.299 296.195 224.519C296.143 225.205 295.927 225.869 295.565 226.458C295.203 227.046 294.704 227.543 294.109 227.907L274.856 238.822C273.712 239.475 272.782 239.007 272.782 237.787C272.833 237.103 273.048 236.44 273.408 235.851C273.768 235.263 274.264 234.766 274.856 234.399Z" fill="#E6A960"/>
<path opacity="0.6" d="M274.856 234.399L294.109 223.484C295.265 222.831 296.195 223.299 296.195 224.519C296.143 225.205 295.927 225.869 295.565 226.458C295.203 227.046 294.704 227.543 294.109 227.907L274.856 238.81C273.712 239.463 272.782 239.007 272.782 237.787C272.833 237.103 273.048 236.44 273.408 235.851C273.768 235.263 274.264 234.766 274.856 234.399Z" fill="white"/>
<path d="M306.073 216.733L362.826 184.592C363.969 183.939 364.899 184.394 364.899 185.614C364.848 186.298 364.634 186.961 364.274 187.55C363.914 188.138 363.418 188.636 362.826 189.002L306.073 221.144C304.929 221.797 303.999 221.341 303.999 220.121C304.049 219.436 304.263 218.773 304.623 218.185C304.984 217.596 305.48 217.099 306.073 216.733Z" fill="#E6A960"/>
<path d="M370.881 180.021L395.563 166.1C396.707 165.447 397.637 165.915 397.637 167.135C397.585 167.819 397.371 168.482 397.011 169.071C396.651 169.659 396.155 170.156 395.563 170.523L370.881 184.444C369.738 185.097 368.808 184.629 368.808 183.409C368.859 182.725 369.073 182.062 369.433 181.473C369.793 180.885 370.289 180.387 370.881 180.021Z" fill="#E6A960"/>
<path d="M274.856 252.066L294.109 241.163C295.265 240.51 296.195 240.966 296.195 242.185C296.147 242.875 295.933 243.544 295.57 244.138C295.208 244.731 294.707 245.231 294.109 245.598L274.856 256.513C273.712 257.166 272.782 256.698 272.782 255.478C272.83 254.79 273.042 254.122 273.402 253.529C273.763 252.936 274.261 252.434 274.856 252.066Z" fill="#E6A960"/>
<path opacity="0.6" d="M274.856 252.066L294.109 241.163C295.265 240.51 296.195 240.966 296.195 242.185C296.147 242.875 295.933 243.544 295.57 244.138C295.208 244.731 294.707 245.231 294.109 245.598L274.856 256.513C273.712 257.166 272.782 256.698 272.782 255.478C272.83 254.79 273.042 254.122 273.402 253.529C273.763 252.936 274.261 252.434 274.856 252.066Z" fill="white"/>
<path d="M339.665 144.726L364.347 130.805C365.49 130.164 366.433 130.62 366.433 131.839C366.379 132.525 366.163 133.188 365.8 133.776C365.438 134.365 364.94 134.862 364.347 135.227L339.665 149.148C338.521 149.801 337.591 149.333 337.591 148.113C337.642 147.429 337.857 146.766 338.217 146.178C338.577 145.589 339.073 145.092 339.665 144.726Z" fill="#E6A960"/>
<path opacity="0.6" d="M339.665 144.726L364.347 130.805C365.49 130.164 366.433 130.62 366.433 131.839C366.379 132.525 366.163 133.188 365.8 133.776C365.438 134.365 364.94 134.862 364.347 135.227L339.665 149.148C338.521 149.801 337.591 149.333 337.591 148.113C337.642 147.429 337.857 146.766 338.217 146.178C338.577 145.589 339.073 145.092 339.665 144.726Z" fill="white"/>
<path d="M329.485 238.785L386.238 206.643C387.382 205.991 388.312 206.459 388.312 207.678C388.261 208.363 388.047 209.026 387.686 209.614C387.326 210.202 386.83 210.7 386.238 211.066L329.485 243.208C328.342 243.848 327.412 243.393 327.412 242.173C327.463 241.489 327.677 240.826 328.037 240.237C328.397 239.649 328.893 239.151 329.485 238.785Z" fill="#E0E0E0"/>
<path d="M362.222 237.997L418.976 205.855C420.119 205.202 421.062 205.67 421.062 206.89C421.009 207.574 420.793 208.236 420.431 208.822C420.068 209.409 419.57 209.903 418.976 210.266L362.222 242.407C361.079 243.06 360.149 242.604 360.149 241.385C360.2 240.7 360.414 240.037 360.775 239.449C361.135 238.86 361.631 238.363 362.222 237.997Z" fill="white"/>
<path d="M394.294 202.085L418.976 188.164C420.12 187.511 421.05 187.967 421.05 189.187C420.999 189.871 420.784 190.534 420.424 191.123C420.064 191.711 419.568 192.208 418.976 192.575L394.294 206.496C393.151 207.149 392.221 206.693 392.221 205.473C392.271 204.789 392.485 204.125 392.845 203.537C393.205 202.948 393.702 202.451 394.294 202.085Z" fill="#E0E0E0"/>
<path d="M394.294 272.06L418.976 258.139C420.12 257.486 421.05 257.942 421.05 259.162C420.999 259.846 420.784 260.509 420.424 261.097C420.064 261.686 419.568 262.183 418.976 262.55L394.294 276.471C393.151 277.124 392.221 276.655 392.221 275.436C392.271 274.753 392.485 274.091 392.845 273.505C393.205 272.918 393.702 272.423 394.294 272.06Z" fill="#E0E0E0"/>
<path d="M306.073 181.401L362.826 149.259C363.969 148.606 364.899 149.074 364.899 150.294C364.848 150.978 364.634 151.641 364.274 152.23C363.914 152.818 363.418 153.316 362.826 153.682L306.073 185.824C304.929 186.464 303.999 186.008 303.999 184.789C304.05 184.104 304.264 183.441 304.625 182.853C304.985 182.264 305.481 181.767 306.073 181.401Z" fill="#E6A960"/>
<path opacity="0.6" d="M306.073 181.401L362.826 149.259C363.969 148.606 364.899 149.074 364.899 150.294C364.848 150.978 364.634 151.641 364.274 152.23C363.914 152.818 363.418 153.316 362.826 153.682L306.073 185.824C304.929 186.464 303.999 186.008 303.999 184.789C304.05 184.104 304.264 183.441 304.625 182.853C304.985 182.264 305.481 181.767 306.073 181.401Z" fill="white"/>
<path d="M370.881 144.701L395.563 130.78C396.707 130.127 397.637 130.583 397.637 131.802C397.585 132.487 397.371 133.15 397.011 133.738C396.651 134.327 396.155 134.824 395.563 135.19L370.881 149.111C369.738 149.764 368.808 149.308 368.808 148.089C368.856 147.404 369.069 146.739 369.429 146.151C369.79 145.562 370.287 145.065 370.881 144.701Z" fill="#E6A960"/>
<path opacity="0.6" d="M370.881 144.701L395.563 130.78C396.707 130.127 397.637 130.583 397.637 131.802C397.585 132.487 397.371 133.15 397.011 133.738C396.651 134.327 396.155 134.824 395.563 135.19L370.881 149.111C369.738 149.764 368.808 149.308 368.808 148.089C368.856 147.404 369.069 146.739 369.429 146.151C369.79 145.562 370.287 145.065 370.881 144.701Z" fill="white"/>
<path opacity="0.6" d="M306.073 216.733L362.826 184.592C363.969 183.939 364.899 184.394 364.899 185.614C364.848 186.298 364.634 186.961 364.274 187.55C363.914 188.138 363.418 188.636 362.826 189.002L306.073 221.144C304.929 221.797 303.999 221.341 303.999 220.121C304.049 219.436 304.263 218.773 304.623 218.185C304.984 217.596 305.48 217.099 306.073 216.733Z" fill="white"/>
<path opacity="0.6" d="M370.881 180.021L395.563 166.1C396.707 165.447 397.637 165.915 397.637 167.135C397.585 167.819 397.371 168.482 397.011 169.071C396.651 169.659 396.155 170.156 395.563 170.523L370.881 184.444C369.738 185.097 368.808 184.629 368.808 183.409C368.859 182.725 369.073 182.062 369.433 181.473C369.793 180.885 370.289 180.387 370.881 180.021Z" fill="white"/>
<path opacity="0.5" d="M499.819 31.2383L486.285 38.8394L472.674 37.6075C472.516 37.5937 472.356 37.6191 472.209 37.6814C473.303 37.0531 485.166 30.4006 485.656 30.1419C485.826 30.0418 486.026 30.0026 486.222 30.031L499.819 31.2383Z" fill="white"/>
<path opacity="0.5" d="M541.882 33.8992L532.168 39.443L483.219 11.7364L492.946 6.19263L541.882 33.8992Z" fill="white"/>
<path opacity="0.15" d="M541.882 33.8992L532.168 39.443L528.574 106.56L538.301 101.016L541.882 33.8992Z" fill="black"/>
<path opacity="0.5" d="M507.687 32.5317L527.14 43.5331L524.275 98.7492L507.687 99.9565V32.5317Z" fill="white"/>
<path d="M522.516 46.3419L520.468 91.5669L507.687 92.2814L494.919 77.1038L494.265 64.3284L498.89 66.9402L499.267 74.566L507.687 84.902L516.107 84.089L517.539 50.469L493.235 36.7081L492.87 29.5627L522.516 46.3419Z" fill="white"/>
<path opacity="0.35" d="M541.882 147.559L532.168 153.091L528.574 220.22L538.301 214.676L541.882 147.559Z" fill="black"/>
<path opacity="0.25" d="M483.219 125.396L484.577 152.339L472.688 151.329C472.488 151.313 472.288 151.357 472.113 151.454C471.938 151.551 471.797 151.697 471.708 151.873C471.619 152.049 471.586 152.248 471.613 152.443C471.639 152.638 471.725 152.821 471.859 152.967L485.331 167.27L486.801 196.578L507.687 220.823L528.574 220.22L532.168 153.091L483.219 125.396Z" fill="black"/>
<path d="M492.87 143.223L493.172 150.331L517.539 164.117L516.949 178.136L493.813 165.041L494.114 172.149L516.66 184.912L516.107 197.749L507.687 198.562L499.267 188.214L498.89 180.6L494.265 177.988L494.919 190.764L507.687 205.941L520.468 205.227L522.516 159.99L492.87 143.223Z" fill="white"/>
<path opacity="0.25" d="M541.882 261.194L532.168 266.738L483.219 239.031L492.946 233.5L541.882 261.194Z" fill="black"/>
<path opacity="0.55" d="M541.882 261.194L532.168 266.738L528.574 333.855L538.301 328.311L541.882 261.194Z" fill="black"/>
<path opacity="0.25" d="M499.819 258.533L486.285 266.135L472.674 264.964C472.516 264.95 472.356 264.976 472.209 265.038C473.303 264.41 485.166 257.745 485.656 257.486C485.83 257.398 486.026 257.359 486.222 257.375L499.819 258.533Z" fill="black"/>
<path opacity="0.4" d="M483.219 239.031L484.577 265.987L472.688 264.964C472.488 264.949 472.288 264.992 472.113 265.089C471.938 265.186 471.797 265.332 471.708 265.509C471.619 265.685 471.586 265.883 471.613 266.078C471.639 266.273 471.725 266.456 471.859 266.603L485.331 280.906L486.801 310.214L507.687 334.459L528.574 333.855L532.168 266.738L483.219 239.031Z" fill="black"/>
<path d="M522.516 273.637L492.87 256.858L494.114 285.796L516.66 298.547L516.107 311.396L507.687 312.197L499.267 301.861L498.89 294.235L494.265 291.624L494.919 304.411L507.687 319.577L520.468 318.862L521.561 294.383L498.437 281.3L497.834 266.615L522.152 280.376L522.516 273.637Z" fill="white"/>
<path d="M286.706 404.741C283.187 415.04 280.171 428.346 275.396 448.389C270.935 467.164 270.909 480.42 277.105 484.978C283.301 489.537 301.058 486.752 312.293 463.296C315.812 455.904 329.045 433.298 329.045 433.298C329.045 433.298 338.847 429.836 342.228 427.237C342.228 427.237 374.902 428.173 390.787 424.982C406.672 421.792 423.562 402.807 417.053 400.91C405.365 397.534 374.224 396.253 347.845 394.59L286.706 404.741Z" fill="white"/>
<path d="M375.23 420.966C368.079 422.592 357.485 420.424 351.515 418.724C351.872 416.678 351.803 414.583 351.314 412.564C350.982 415.31 350.08 417.96 348.663 420.35C347.682 420.892 346.853 421.348 346.25 421.656C342.279 423.639 331.37 429.109 329.347 427.385C326.302 423.528 321.976 420.839 317.119 419.783C320.537 422.038 330.44 428.998 326.921 437.031L329.07 433.335C329.07 433.335 338.873 429.873 342.253 427.274C342.253 427.274 360.539 427.791 376.386 426.732L395.237 413.956C395.237 413.956 386.188 413.402 375.23 420.966Z" fill="#263238"/>
<path d="M356.907 442.821C354.523 445.113 351.608 446.804 348.411 447.749C347.36 447.977 346.27 447.977 345.219 447.749C341.549 446.997 335.668 447.01 333.607 454.192C331.282 462.335 321.995 466.204 319.519 471.784C318.263 474.568 317.634 482.638 318.841 487.603C319.846 491.668 327.876 488.65 330.855 483.685C333.833 478.72 340.217 472.178 344.427 468.409C351.276 464.627 358.88 459.083 362.122 456.853L356.907 442.821Z" fill="#F28F8F"/>
<path d="M405.214 398.138C426.289 399.518 427.006 410.458 421.74 418.786C416.072 427.717 395.349 439.729 384.038 446.086C373.721 451.913 356.114 462.237 356.114 462.237C356.114 462.237 347.204 455.412 348.36 447.737C360.023 439.766 375.732 417.073 395.173 413.919L405.214 398.138Z" fill="white"/>
<path d="M322.02 490.103C320.808 490.281 319.572 489.999 318.564 489.315C317.622 488.662 315.536 482.909 317.308 475.936C318.604 470.76 321.295 466.02 325.099 462.212C327.399 459.822 328.228 457.075 329.058 453.588C329.887 450.102 332.476 445.827 334.273 445.346C336.07 444.866 338.797 446.233 338.797 446.233L322.02 490.103Z" fill="#263238"/>
<path d="M349.806 465.464C349.366 467.682 347.506 468.249 345.508 469.025C342.781 470.084 340.192 472.844 337.729 475.924C336.057 478.018 334.675 480.112 333.154 482.305C331.634 484.498 330.352 487.664 328.718 489.34C326.318 491.804 321.467 491.335 320.135 487.849C318.979 484.843 318.489 477.377 321.982 470.232C323.892 466.327 329.171 462.545 330.553 457.235C331.47 453.687 332.74 449.461 335.404 446.763C336.987 445.162 338.433 445.531 340.431 446.098C343.057 446.809 345.727 447.356 348.424 447.737C348.365 449.926 347.691 452.058 346.476 453.896C345.996 454.482 345.653 455.163 345.47 455.892C345.422 456.397 345.469 456.907 345.608 457.395C345.759 458.085 346.011 458.886 346.702 459.083C346.989 459.122 347.279 459.142 347.569 459.144C348.65 459.28 349.178 460.5 349.454 461.534C349.807 462.646 349.955 463.809 349.894 464.972C349.874 465.137 349.845 465.302 349.806 465.464Z" fill="black"/>
<path opacity="0.4" d="M349.806 465.464C349.366 467.682 347.506 468.249 345.508 469.025C342.781 470.084 340.192 472.844 337.729 475.924C336.057 478.018 334.675 480.112 333.154 482.305C331.634 484.498 330.352 487.664 328.718 489.34C326.318 491.804 321.467 491.335 320.135 487.849C318.979 484.843 318.489 477.377 321.982 470.232C323.892 466.327 329.171 462.545 330.553 457.235C331.47 453.687 332.74 449.461 335.404 446.763C336.987 445.162 338.433 445.531 340.431 446.098C343.057 446.809 345.727 447.356 348.424 447.737C348.365 449.926 347.691 452.058 346.476 453.896C345.996 454.482 345.653 455.163 345.47 455.892C345.422 456.397 345.469 456.907 345.608 457.395C345.759 458.085 346.011 458.886 346.702 459.083C346.989 459.122 347.279 459.142 347.569 459.144C348.65 459.28 349.178 460.5 349.454 461.534C349.807 462.646 349.955 463.809 349.894 464.972C349.874 465.137 349.845 465.302 349.806 465.464Z" fill="black"/>
<path d="M340.192 473.053C340.716 472.89 341.19 472.6 341.57 472.21C341.95 471.821 342.224 471.344 342.366 470.823C342.932 469.32 342.253 466.364 341.11 464.417C341.017 464.22 340.872 464.05 340.691 463.925C340.51 463.801 340.298 463.725 340.077 463.706C339.857 463.688 339.635 463.726 339.434 463.819C339.234 463.911 339.062 464.054 338.936 464.232C338.765 464.441 338.664 464.696 338.646 464.962C338.628 465.229 338.694 465.494 338.835 465.723C340.248 467.898 340.736 470.53 340.192 473.053Z" fill="white"/>
<path d="M336.585 477.402C337.133 477.147 337.609 476.766 337.974 476.292C338.34 475.818 338.583 475.265 338.684 474.679C339.002 472.266 338.531 469.816 337.339 467.682C337.242 467.498 337.099 467.341 336.924 467.226C336.748 467.11 336.546 467.04 336.335 467.022C336.125 467.003 335.913 467.037 335.72 467.12C335.526 467.203 335.357 467.333 335.228 467.497C335.063 467.697 334.966 467.941 334.951 468.198C334.935 468.454 335.001 468.709 335.14 468.926C336.018 470.14 336.604 471.533 336.855 473.001C337.105 474.469 337.013 475.974 336.585 477.402Z" fill="white"/>
<path d="M333.155 482.305C333.673 481.995 334.118 481.579 334.458 481.086C334.798 480.593 335.027 480.034 335.128 479.447C335.396 477.11 334.898 474.75 333.708 472.708C333.611 472.524 333.468 472.367 333.292 472.252C333.117 472.137 332.915 472.067 332.704 472.048C332.494 472.03 332.282 472.064 332.088 472.147C331.895 472.23 331.726 472.359 331.597 472.523C331.429 472.724 331.331 472.971 331.315 473.23C331.299 473.489 331.367 473.746 331.509 473.965C332.432 475.131 333.062 476.493 333.348 477.942C333.634 479.391 333.568 480.886 333.155 482.305Z" fill="white"/>
<path d="M348.499 445.876C352.269 444.952 357.723 443.646 359.985 440.714C362.247 437.782 366.96 434.949 373.319 439.051C377.341 441.651 382.116 442.501 386.892 442.809C389.016 442.759 391.141 442.858 393.251 443.104C395.761 443.778 398.139 444.856 400.288 446.295C401.648 447.044 402.841 448.054 403.794 449.264C404.571 450.397 404.995 451.727 405.015 453.091C405.035 454.456 404.65 455.797 403.908 456.951C403.649 457.367 403.312 457.731 402.915 458.023C402.419 458.366 401.853 458.597 401.256 458.701C399.057 459.181 397.222 458.504 395.148 457.937C393.427 457.469 391.667 457.112 389.92 456.804C385.944 456.073 381.922 455.612 377.881 455.424C376.159 455.362 372.578 455.091 370.856 455.214C363.668 455.695 353.501 459.662 353.501 459.662L348.499 445.876Z" fill="#FFA8A7"/>
<path d="M273.75 479.669C274.931 486.789 283.087 490.227 300.568 486.802C318.049 483.377 359.633 457.691 359.633 457.691C359.633 457.691 358.012 447.835 348.449 445.199C348.449 445.199 339.752 446.751 325.551 449.782C319.149 451.161 312.827 452.876 306.613 454.919C297.011 467.546 287.033 462.446 283.439 466.881C277.52 474.26 273.75 479.669 273.75 479.669Z" fill="white"/>
<path d="M405.704 457.346C406.738 456.695 407.48 455.681 407.778 454.512C408.042 453.416 405.755 447.749 399.748 443.61C395.293 440.559 390.085 438.734 384.667 438.324C381.337 438.016 378.861 436.489 375.87 434.419C372.879 432.349 368.091 430.797 366.407 431.598C364.723 432.399 363.604 435.183 363.604 435.183L405.704 457.346Z" fill="#263238"/>
<path d="M368.267 456.754C370.089 458.134 371.874 457.358 373.897 456.656C376.662 455.695 380.47 456.089 384.391 456.816C387.055 457.309 389.506 458.048 392.12 458.664C394.734 459.28 397.825 460.881 400.188 461.128C403.631 461.411 406.974 457.937 405.642 454.463C404.486 451.457 399.836 445.519 392.396 442.402C388.349 440.702 381.84 441.256 377.228 438.164C374.149 436.095 370.353 433.717 366.533 433.421C364.271 433.236 363.441 434.468 362.31 436.156C360.815 438.39 359.178 440.53 357.409 442.562C358.932 444.181 360.88 445.357 363.039 445.962C363.79 446.097 364.505 446.382 365.138 446.8C365.51 447.157 365.816 447.573 366.043 448.032C366.395 448.636 366.734 449.412 366.344 450.003C366.156 450.217 365.955 450.418 365.741 450.607C365.025 451.42 365.452 452.664 365.93 453.625C366.416 454.688 367.088 455.659 367.915 456.496C368.027 456.589 368.145 456.675 368.267 456.754Z" fill="black"/>
<path opacity="0.4" d="M368.267 456.754C370.089 458.134 371.874 457.358 373.897 456.656C376.662 455.695 380.47 456.089 384.391 456.816C387.055 457.309 389.506 458.048 392.12 458.664C394.734 459.28 397.825 460.881 400.188 461.128C403.631 461.411 406.974 457.937 405.642 454.463C404.486 451.457 399.836 445.519 392.396 442.402C388.349 440.702 381.84 441.256 377.228 438.164C374.149 436.095 370.353 433.717 366.533 433.421C364.271 433.236 363.441 434.468 362.31 436.156C360.815 438.39 359.178 440.53 357.409 442.562C358.932 444.181 360.88 445.357 363.039 445.962C363.79 446.097 364.505 446.382 365.138 446.8C365.51 447.157 365.816 447.573 366.043 448.032C366.395 448.636 366.734 449.412 366.344 450.003C366.156 450.217 365.955 450.418 365.741 450.607C365.025 451.42 365.452 452.664 365.93 453.625C366.416 454.688 367.088 455.659 367.915 456.496C368.027 456.589 368.145 456.675 368.267 456.754Z" fill="black"/>
<path d="M380.57 456.262C380.067 456.478 379.517 456.566 378.97 456.519C378.423 456.471 377.897 456.29 377.441 455.991C375.996 455.227 374.525 452.566 374.073 450.36C374.01 450.151 374.005 449.93 374.059 449.718C374.112 449.507 374.221 449.313 374.376 449.156C374.53 449 374.724 448.886 374.938 448.827C375.152 448.768 375.378 448.766 375.594 448.821C375.86 448.867 376.105 448.992 376.296 449.179C376.487 449.367 376.615 449.607 376.662 449.868C377.06 452.418 378.464 454.714 380.57 456.262Z" fill="white"/>
<path d="M386.25 457.198C385.665 457.36 385.049 457.381 384.453 457.258C383.858 457.136 383.302 456.874 382.832 456.496C380.966 454.878 379.672 452.721 379.137 450.336C379.096 450.14 379.104 449.938 379.16 449.746C379.216 449.554 379.32 449.378 379.461 449.234C379.602 449.089 379.776 448.981 379.97 448.918C380.163 448.854 380.369 448.838 380.57 448.87C380.827 448.916 381.063 449.039 381.246 449.222C381.428 449.405 381.548 449.64 381.588 449.893C381.756 451.375 382.263 452.802 383.07 454.066C383.877 455.331 384.964 456.401 386.25 457.198Z" fill="white"/>
<path d="M392.119 458.725C391.521 458.827 390.907 458.801 390.32 458.65C389.732 458.499 389.185 458.227 388.714 457.851C386.943 456.265 385.733 454.168 385.258 451.863C385.208 451.663 385.21 451.453 385.264 451.254C385.318 451.054 385.422 450.871 385.568 450.721C385.713 450.572 385.894 450.46 386.095 450.397C386.295 450.334 386.509 450.322 386.716 450.361C386.975 450.404 387.214 450.526 387.399 450.709C387.584 450.893 387.705 451.128 387.746 451.383C387.839 452.857 388.283 454.289 389.043 455.564C389.802 456.839 390.856 457.922 392.119 458.725Z" fill="white"/>
<path d="M318.728 451.334C318.728 451.334 306.99 453.588 298.281 459.329C298.281 459.329 307.229 449.055 321.052 447.219L318.728 451.334Z" fill="#263238"/>
<path d="M362.687 363.594L348.059 323.088L344.201 324.443L346.514 369.187L349.027 375.84C355.574 372.489 360.915 370.025 362.687 363.594Z" fill="#FFA8A7"/>
<path d="M328.278 312.444C337.339 312.542 345.608 315.77 349.039 322.73C352.47 329.691 362.976 361.315 362.976 361.315C362.976 361.315 354.355 371.257 341.612 370.456L328.278 312.444Z" fill="black"/>
<path opacity="0.1" d="M328.278 312.444C337.339 312.542 345.608 315.77 349.039 322.73C352.47 329.691 362.976 361.315 362.976 361.315C362.976 361.315 354.355 371.257 341.612 370.456L328.278 312.444Z" fill="#EE158A"/>
<path d="M309.692 312.986C296.986 315.289 288.516 317.913 286.116 320.242C280.712 331.095 287.737 367.475 287.737 367.475L288.994 384.784L286.757 404.741C300.493 416.125 342.53 410.532 350.02 394.59C350.02 394.59 347.921 342.7 347.921 333.498C347.921 324.295 342.718 313.269 328.329 312.444L309.692 312.986Z" fill="black"/>
<path d="M300.442 396.919C296.76 391.387 296.911 377.318 296.911 377.318C296.911 377.318 303.345 340.606 301.862 331.859L284.884 347.85C285.965 358.358 287.737 367.561 287.737 367.561L288.994 384.87L286.757 404.828C297.74 413.932 326.821 412.219 341.864 402.943C319.783 411.53 304.112 402.45 300.442 396.919Z" fill="black"/>
<path d="M302.654 283.788C302.654 283.788 304.564 297.599 305.582 299.915C306.266 301.348 307.485 302.468 308.988 303.044L309.516 293.471L302.654 283.788Z" fill="#263238"/>
<path d="M307.87 264.533C306.848 264.336 305.793 264.371 304.786 264.636C303.78 264.901 302.849 265.388 302.064 266.06C299.45 268.315 300.229 276.039 302.68 283.727L308.197 284.762L307.87 264.533Z" fill="#263238"/>
<path d="M309.856 284.885C308.699 285.451 307.267 283.246 305.997 281.731C304.728 280.216 300.393 277.961 297.804 282.421C295.215 286.881 298.935 293.508 302.391 294.851C308.335 297.167 309.541 293.41 309.541 293.41L308.285 315.388C313.802 327.165 335.819 322.964 328.304 314.87L328.706 309.29C331.748 309.729 334.818 309.956 337.893 309.967C342.43 309.61 344.491 306.715 346.212 302.058C348.977 294.592 350.284 288.507 349.568 273.341C348.801 256.747 329.297 255.145 318.263 260.874C307.229 266.603 309.856 284.885 309.856 284.885Z" fill="#FFA8A7"/>
<path d="M309.465 255.601C313.281 254.324 317.231 253.469 321.241 253.051C329.887 251.819 338.684 250.834 346.752 247.544C347.703 247.033 348.789 246.814 349.869 246.916C351.905 247.323 352.608 249.823 352.533 251.844C352.47 253.731 352.079 255.593 351.377 257.351C352.039 256.812 352.892 256.552 353.75 256.628C354.607 256.704 355.399 257.11 355.951 257.757C356.473 258.429 356.832 259.209 357 260.037C357.167 260.866 357.14 261.721 356.919 262.537C356.414 264.368 355.465 266.051 354.152 267.444C352.838 268.836 351.201 269.896 349.379 270.533C345.727 271.782 341.844 272.249 337.993 271.9C332.612 271.656 327.271 270.864 322.058 269.535C320.814 269.132 319.509 268.945 318.2 268.98C317.542 269.002 316.904 269.206 316.36 269.568C315.815 269.93 315.385 270.435 315.121 271.025C314.404 273.058 312.733 287.139 309.767 287.041C309.214 287.041 307.392 283.345 306.11 281.94C304.514 280.216 303.71 267.982 303.597 265.728C303.567 265.551 303.498 265.383 303.396 265.235C301.661 262.426 304.275 258.114 306.776 256.833C307.649 256.375 308.547 255.963 309.465 255.601Z" fill="#263238"/>
<path d="M304.451 265.457C303.691 266.21 302.657 266.636 301.577 266.642C300.496 266.648 299.457 266.233 298.689 265.488C297.921 264.743 297.486 263.729 297.48 262.67C297.474 261.61 297.898 260.592 298.658 259.839L304.451 265.457Z" fill="#263238"/>
<path d="M328.693 309.29C328.693 309.29 318.778 307.614 315.422 305.594C313.449 304.392 311.89 302.637 310.948 300.555C311.32 302.599 312.111 304.548 313.273 306.284C315.586 309.672 328.417 312.986 328.417 312.986L328.693 309.29Z" fill="#F28F8F"/>
<path d="M329.699 283.788C329.654 284.172 329.494 284.534 329.24 284.83C328.986 285.126 328.65 285.342 328.272 285.451C327.894 285.561 327.491 285.559 327.114 285.446C326.737 285.333 326.402 285.114 326.151 284.816C325.9 284.518 325.744 284.154 325.702 283.77C325.66 283.386 325.735 282.998 325.916 282.655C326.097 282.312 326.377 282.028 326.721 281.84C327.065 281.652 327.459 281.567 327.852 281.595C328.12 281.62 328.381 281.696 328.619 281.82C328.857 281.944 329.068 282.112 329.24 282.316C329.411 282.52 329.54 282.755 329.619 283.007C329.698 283.26 329.725 283.525 329.699 283.788Z" fill="#263238"/>
<path d="M328.141 276.2L323.679 278.208C323.416 277.608 323.4 276.932 323.634 276.321C323.869 275.71 324.335 275.212 324.936 274.931C325.231 274.802 325.549 274.732 325.871 274.727C326.194 274.721 326.514 274.779 326.813 274.898C327.113 275.016 327.384 275.192 327.612 275.416C327.84 275.64 328.02 275.906 328.141 276.2Z" fill="#263238"/>
<path d="M328.693 297.438L333.142 299.459C333.017 299.751 332.832 300.015 332.601 300.236C332.369 300.457 332.094 300.63 331.793 300.745C331.492 300.86 331.17 300.914 330.847 300.905C330.524 300.896 330.206 300.823 329.912 300.691C329.313 300.415 328.849 299.919 328.621 299.31C328.393 298.701 328.419 298.028 328.693 297.438Z" fill="#F28F8F"/>
<path d="M347.443 279.304L343.761 276.064C343.963 275.818 344.214 275.615 344.5 275.468C344.785 275.321 345.098 275.232 345.419 275.208C345.741 275.184 346.064 275.224 346.368 275.327C346.673 275.43 346.953 275.592 347.192 275.805C347.682 276.246 347.982 276.855 348.028 277.505C348.075 278.156 347.866 278.8 347.443 279.304Z" fill="#263238"/>
<path d="M345.847 284.429C345.802 284.813 345.642 285.175 345.388 285.471C345.134 285.766 344.798 285.982 344.42 286.092C344.042 286.201 343.639 286.2 343.262 286.087C342.885 285.974 342.55 285.755 342.299 285.457C342.048 285.159 341.892 284.795 341.85 284.411C341.808 284.027 341.883 283.639 342.064 283.296C342.245 282.952 342.525 282.669 342.869 282.481C343.213 282.292 343.606 282.207 344 282.236C344.54 282.289 345.038 282.549 345.384 282.96C345.729 283.37 345.896 283.898 345.847 284.429Z" fill="#263238"/>
<path d="M335.63 282.408L335.379 294.26L341.838 292.621L335.63 282.408Z" fill="#F28F8F"/>
<path d="M271.437 403.177C263.294 395.145 261.987 392.521 263.093 387.506C265.279 377.651 274.215 346.101 277.608 336.725C281.868 324.948 283.766 320.242 290.854 318.727C296.572 323.162 302.164 339.768 294.473 354.724L285.198 387.371" fill="#FFA8A7"/>
<path d="M296.936 315.819C285.99 317.051 281.353 321.388 277.407 332.98C273.461 344.573 266.523 371.257 266.523 371.257C266.523 371.257 275.71 381.014 288.591 379.991L299.324 345.127C299.324 345.127 306.877 319.774 296.936 315.819Z" fill="black"/>
<path opacity="0.1" d="M296.936 315.819C285.99 317.051 281.353 321.388 277.407 332.98C273.461 344.573 266.523 371.257 266.523 371.257C266.523 371.257 275.71 381.014 288.591 379.991L299.324 345.127C299.324 345.127 306.877 319.774 296.936 315.819Z" fill="#EE158A"/>
<path d="M294.397 435.91V437.142C294.401 437.76 294.568 438.367 294.883 438.903C295.198 439.439 295.65 439.885 296.195 440.197L330.453 459.514C330.997 459.821 331.615 459.982 332.243 459.982C332.872 459.982 333.489 459.821 334.034 459.514L396.87 423.948C397.417 423.641 397.871 423.198 398.187 422.663C398.502 422.129 398.668 421.522 398.667 420.905V420.042L332.25 457.641L294.397 435.91Z" fill="#EBEBEB"/>
<path d="M398.668 420.054L361.419 398.976C361.093 398.788 360.722 398.69 360.344 398.69C359.966 398.69 359.595 398.788 359.27 398.976L294.637 435.552C294.564 435.593 294.503 435.653 294.461 435.724C294.418 435.795 294.396 435.876 294.396 435.959C294.396 436.042 294.418 436.123 294.461 436.194C294.503 436.265 294.564 436.325 294.637 436.366L332.25 457.654L398.668 420.054Z" fill="white"/>
<path d="M382.103 398.693C376.988 389.798 362.687 363.594 362.687 363.594L349.039 375.914C354.606 386.238 369.725 407.008 369.725 407.008C376.674 411.456 385.044 403.817 382.103 398.693Z" fill="#FFA8A7"/>
<path d="M331.898 454.549L311.803 443.191L370.567 409.94L390.763 421.237L331.898 454.549Z" fill="black"/>
<path d="M322.033 422.95L322.397 423.159L332.25 428.728L349.768 418.823L350.12 418.613L339.903 412.835L322.033 422.95Z" fill="#E0E0E0"/>
<path d="M322.397 423.159L332.25 428.728L349.768 418.823L339.903 413.242L322.397 423.159Z" fill="white"/>
<path d="M332.25 457.654V459.957C332.877 459.961 333.493 459.8 334.035 459.489L396.87 423.923C397.417 423.616 397.871 423.173 398.187 422.639C398.503 422.104 398.668 421.498 398.667 420.88V420.018L332.25 457.654Z" fill="#EBEBEB"/>
<path d="M332.25 457.654V459.957C332.877 459.961 333.493 459.8 334.035 459.489L396.87 423.923C397.417 423.616 397.871 423.173 398.187 422.639C398.503 422.104 398.668 421.498 398.667 420.88V420.018L332.25 457.654Z" fill="#E0E0E0"/>
<path d="M333.255 458.171C333.848 458.4 334.486 458.494 335.121 458.447C335.757 458.4 336.373 458.213 336.924 457.9L399.484 422.482C400.027 422.177 400.495 421.759 400.853 421.256C401.212 420.753 401.452 420.179 401.557 419.574L408.406 379.536C408.425 379.306 408.425 379.075 408.406 378.846C408.407 378.296 408.296 377.751 408.081 377.244C407.865 376.736 407.548 376.276 407.15 375.889L342.14 412.688C341.738 412.914 341.392 413.224 341.127 413.597C340.862 413.97 340.684 414.396 340.607 414.843L333.255 458.171Z" fill="black"/>
<g opacity="0.7">
<path d="M333.255 458.171C333.848 458.4 334.486 458.494 335.121 458.447C335.757 458.4 336.373 458.213 336.924 457.9L399.484 422.482C400.027 422.177 400.495 421.759 400.853 421.256C401.212 420.753 401.452 420.179 401.557 419.574L408.406 379.536C408.425 379.306 408.425 379.075 408.406 378.846C408.407 378.296 408.296 377.751 408.081 377.244C407.865 376.736 407.548 376.276 407.15 375.889L342.14 412.688C341.738 412.914 341.392 413.224 341.127 413.597C340.862 413.97 340.684 414.396 340.607 414.843L333.255 458.171Z" fill="#E6A960"/>
</g>
<path d="M332.25 457.654L332.677 457.9C332.864 458.003 333.057 458.093 333.255 458.171L340.657 414.843C340.735 414.395 340.913 413.97 341.178 413.597C341.443 413.224 341.789 412.914 342.191 412.687L407.2 375.889C406.942 375.635 406.65 375.415 406.333 375.236L341.185 412.108C340.785 412.335 340.44 412.645 340.177 413.018C339.914 413.391 339.739 413.817 339.665 414.264L332.25 457.654Z" fill="white"/>
<path d="M368.493 421.213C368.946 418.527 371.773 414.967 374.777 413.254C377.78 411.542 379.879 412.33 379.414 415.016C378.949 417.701 376.134 421.25 373.131 422.962C370.127 424.674 368.003 423.898 368.493 421.213Z" fill="black"/>
<path d="M285.199 387.371C285.199 387.371 289.899 395.021 295.328 402.154C300.757 409.287 306.638 416.802 311.037 418.071C315.171 419.303 320.022 420.695 321.43 421.964C324.811 425.327 327.96 428.908 330.855 432.682C332.112 434.789 335.266 439.076 330.855 440.443C326.821 441.675 323.528 440 320.261 437.795C318.72 436.713 317.255 435.532 315.875 434.259C312.602 434.611 309.298 433.966 306.412 432.411C303.898 431.031 299.751 428.617 299.751 428.617C296.308 426.301 279.204 410.778 271.438 403.14" fill="#FFA8A7"/>
</svg>
