<svg width="21" height="22" viewBox="0 0 21 22" fill="none" xmlns="http://www.w3.org/2000/svg">
<g clip-path="url(#clip0_104_38)">
<path d="M10.5225 7.42213L13.3579 10.4489L13.3714 10.2904C13.3714 8.70009 12.1607 7.40771 10.671 7.40771L10.5225 7.42213Z" fill="black"/>
<path d="M10.671 5.48581C13.1554 5.48581 15.1717 7.6382 15.1717 10.2902C15.1717 10.91 15.0547 11.501 14.8522 12.0438L17.4851 14.8544C18.8443 13.6437 19.9155 12.0775 20.5771 10.2902C19.0154 6.07198 15.1763 3.08362 10.671 3.08362C9.41083 3.08362 8.20467 3.32382 7.08398 3.75622L9.0283 5.82691C9.53682 5.61553 10.0904 5.48581 10.671 5.48581Z" fill="black"/>
<path d="M1.66966 2.86758L3.72199 5.0584L4.13157 5.49561C2.64633 6.73515 1.47164 8.38308 0.769531 10.2904C2.3268 14.5087 6.1704 17.497 10.6711 17.497C12.0664 17.497 13.3986 17.2088 14.6183 16.6851L15.0009 17.0935L17.6248 19.8992L18.7725 18.6789L2.81735 1.64246L1.66966 2.86758ZM6.64749 8.17648L8.03822 9.66104C7.99771 9.86765 7.97071 10.0742 7.97071 10.2904C7.97071 11.8807 9.18139 13.1731 10.6711 13.1731C10.8737 13.1731 11.0672 13.1442 11.2562 13.101L12.647 14.5856C12.0484 14.9026 11.3823 15.0948 10.6711 15.0948C8.18674 15.0948 6.1704 12.9424 6.1704 10.2904C6.1704 9.53132 6.35044 8.82025 6.64749 8.17648Z" fill="black"/>
</g>
<defs>
<clipPath id="clip0_104_38">
<rect width="19.8077" height="21.1442" fill="white" transform="translate(0.769531 0.19873)"/>
</clipPath>
</defs>
</svg>
