<svg width="21" height="22" viewBox="0 0 21 22" fill="none" xmlns="http://www.w3.org/2000/svg">
<g clip-path="url(#clip0_57_1476)">
<path d="M10.5225 7.42213L13.3579 10.4489L13.3714 10.2904C13.3714 8.70009 12.1607 7.40771 10.671 7.40771L10.5225 7.42213Z" fill="black"/>
<path d="M10.671 5.48593C13.1554 5.48593 15.1717 7.63833 15.1717 10.2904C15.1717 10.9101 15.0547 11.5011 14.8522 12.044L17.4851 14.8545C18.8443 13.6438 19.9155 12.0776 20.5771 10.2904C19.0154 6.0721 15.1763 3.08374 10.671 3.08374C9.41083 3.08374 8.20467 3.32395 7.08398 3.75634L9.0283 5.82703C9.53682 5.61565 10.0904 5.48593 10.671 5.48593Z" fill="black"/>
<path d="M1.66966 2.8677L3.72199 5.05852L4.13157 5.49573C2.64633 6.73527 1.47164 8.3832 0.769531 10.2905C2.3268 14.5088 6.1704 17.4971 10.6711 17.4971C12.0664 17.4971 13.3986 17.2089 14.6183 16.6852L15.0009 17.0936L17.6248 19.8993L18.7725 18.679L2.81735 1.64258L1.66966 2.8677ZM6.64749 8.1766L8.03822 9.66116C7.99771 9.86777 7.97071 10.0743 7.97071 10.2905C7.97071 11.8808 9.18139 13.1732 10.6711 13.1732C10.8737 13.1732 11.0672 13.1443 11.2562 13.1011L12.647 14.5857C12.0484 14.9028 11.3823 15.095 10.6711 15.095C8.18674 15.095 6.1704 12.9426 6.1704 10.2905C6.1704 9.53144 6.35044 8.82037 6.64749 8.1766Z" fill="black"/>
</g>
<defs>
<clipPath id="clip0_57_1476">
<rect width="19.8077" height="21.1442" fill="white" transform="translate(0.769531 0.19873)"/>
</clipPath>
</defs>
</svg>
