<svg width="21" height="23" viewBox="0 0 21 23" fill="none" xmlns="http://www.w3.org/2000/svg">
<g clip-path="url(#clip0_104_341)">
<path d="M10.5225 8.14332L13.3579 11.1701L13.3714 11.0116C13.3714 9.42128 12.1607 8.12891 10.671 8.12891L10.5225 8.14332Z" fill="black"/>
<path d="M10.671 6.207C13.1554 6.207 15.1717 8.3594 15.1717 11.0114C15.1717 11.6312 15.0547 12.2221 14.8522 12.765L17.4851 15.5756C18.8443 14.3649 19.9155 12.7987 20.5771 11.0114C19.0154 6.79317 15.1763 3.80481 10.671 3.80481C9.41083 3.80481 8.20467 4.04502 7.08398 4.47741L9.0283 6.5481C9.53682 6.33672 10.0904 6.207 10.671 6.207Z" fill="black"/>
<path d="M1.66966 3.58877L3.72199 5.77959L4.13157 6.2168C2.64633 7.45634 1.47164 9.10427 0.769531 11.0116C2.3268 15.2299 6.1704 18.2182 10.6711 18.2182C12.0664 18.2182 13.3986 17.93 14.6183 17.4063L15.0009 17.8146L17.6248 20.6204L18.7725 19.4001L2.81735 2.36365L1.66966 3.58877ZM6.64749 8.89767L8.03822 10.3822C7.99771 10.5888 7.97071 10.7954 7.97071 11.0116C7.97071 12.6019 9.18139 13.8942 10.6711 13.8942C10.8737 13.8942 11.0672 13.8654 11.2562 13.8222L12.647 15.3067C12.0484 15.6238 11.3823 15.816 10.6711 15.816C8.18674 15.816 6.1704 13.6636 6.1704 11.0116C6.1704 10.2525 6.35044 9.54144 6.64749 8.89767Z" fill="black"/>
</g>
<defs>
<clipPath id="clip0_104_341">
<rect width="19.8077" height="21.1442" fill="white" transform="translate(0.769531 0.919922)"/>
</clipPath>
</defs>
</svg>
