<svg width="21" height="23" viewBox="0 0 21 23" fill="none" xmlns="http://www.w3.org/2000/svg">
<g clip-path="url(#clip0_57_1431)">
<path d="M10.5225 8.14308L13.3579 11.1699L13.3714 11.0113C13.3714 9.42104 12.1607 8.12866 10.671 8.12866L10.5225 8.14308Z" fill="black"/>
<path d="M10.671 6.20688C13.1554 6.20688 15.1717 8.35927 15.1717 11.0113C15.1717 11.6311 15.0547 12.222 14.8522 12.7649L17.4851 15.5755C18.8443 14.3648 19.9155 12.7986 20.5771 11.0113C19.0154 6.79305 15.1763 3.80469 10.671 3.80469C9.41083 3.80469 8.20467 4.04489 7.08398 4.47729L9.0283 6.54798C9.53682 6.3366 10.0904 6.20688 10.671 6.20688Z" fill="black"/>
<path d="M1.66966 3.58865L3.72199 5.77946L4.13157 6.21668C2.64633 7.45622 1.47164 9.10415 0.769531 11.0115C2.3268 15.2297 6.1704 18.2181 10.6711 18.2181C12.0664 18.2181 13.3986 17.9298 14.6183 17.4061L15.0009 17.8145L17.6248 20.6203L18.7725 19.4L2.81735 2.36353L1.66966 3.58865ZM6.64749 8.89754L8.03822 10.3821C7.99771 10.5887 7.97071 10.7953 7.97071 11.0115C7.97071 12.6017 9.18139 13.8941 10.6711 13.8941C10.8737 13.8941 11.0672 13.8653 11.2562 13.8221L12.647 15.3066C12.0484 15.6237 11.3823 15.8159 10.6711 15.8159C8.18674 15.8159 6.1704 13.6635 6.1704 11.0115C6.1704 10.2524 6.35044 9.54132 6.64749 8.89754Z" fill="black"/>
</g>
<defs>
<clipPath id="clip0_57_1431">
<rect width="19.8077" height="21.1442" fill="white" transform="translate(0.769531 0.919678)"/>
</clipPath>
</defs>
</svg>
