<svg width="57" height="95" viewBox="0 0 57 95" fill="none" xmlns="http://www.w3.org/2000/svg">
<path d="M31.6599 31.71C32.3663 32.2154 32.9442 32.8795 33.3471 33.6489C33.7501 34.4183 33.9668 35.2716 33.9799 36.14C33.9799 37.66 33.1499 38.44 32.0699 38.07V70.33L43.8299 45.66C44.0152 45.1737 44.0152 44.6363 43.8299 44.15C40.7006 36.9894 38.7067 29.3848 37.9199 21.61C37.8848 21.3588 37.7961 21.118 37.6598 20.9041C37.5235 20.6902 37.3428 20.508 37.1299 20.37L26.1299 14.03C26.0561 13.9694 25.9662 13.9316 25.8713 13.9214C25.7763 13.9112 25.6804 13.929 25.5954 13.9726C25.5104 14.0161 25.44 14.0836 25.3929 14.1666C25.3457 14.2497 25.3238 14.3447 25.3299 14.44C24.5999 21.31 22.4899 26.44 19.6399 29.83C19.4895 30.0305 19.3846 30.2615 19.3328 30.5068C19.281 30.7521 19.2834 31.0057 19.3399 31.25C20.9999 36.62 30.5199 67.6 31.2199 69.86V37.6C30.6356 37.077 30.1647 36.4398 29.8362 35.7278C29.5077 35.0157 29.3286 34.2439 29.3099 33.46C29.3499 31.75 30.3799 31 31.6599 31.71Z" fill="#BA68C8"/>
<path d="M14 34.35L25.88 73L26.69 72.53V73.47L32.07 70.37L43.8299 45.7C44.0153 45.2137 44.0153 44.6762 43.8299 44.19C40.7006 37.0294 38.7067 29.4248 37.92 21.65C37.8848 21.3987 37.7961 21.158 37.6598 20.9441C37.5235 20.7301 37.3428 20.548 37.13 20.41L26.13 14.07C25.9086 13.9568 25.6636 13.8977 25.415 13.8977C25.1664 13.8977 24.9213 13.9568 24.7 14.07L20.75 16.35C20.5398 16.4896 20.3604 16.6707 20.2228 16.8823C20.0852 17.0938 19.9924 17.3312 19.95 17.58C19.22 24.46 17.1099 29.58 14.2699 32.98C14.1287 33.1753 14.0315 33.3989 13.9849 33.6354C13.9383 33.8719 13.9434 34.1157 14 34.35Z" fill="#BA68C8"/>
<path opacity="0.2" d="M24 36.57C24.0187 37.354 24.1978 38.1257 24.5263 38.8378C24.8548 39.5498 25.3257 40.187 25.91 40.71V73L26.72 72.53V41.18C27.8 41.55 28.63 40.76 28.63 39.24C28.6153 38.3719 28.3979 37.5192 27.9951 36.75C27.5923 35.9808 27.0152 35.3165 26.31 34.81C25 34.08 24 34.86 24 36.57Z" fill="black"/>
<path d="M13.9999 34.35L25.88 73V40.71C25.2957 40.187 24.8248 39.5498 24.4963 38.8377C24.1678 38.1257 23.9886 37.3539 23.9699 36.57C23.9699 34.86 24.9699 34.08 26.2799 34.81C26.9852 35.3165 27.5622 35.9808 27.965 36.75C28.3678 37.5191 28.5853 38.3718 28.6 39.24C28.6 40.76 27.7699 41.55 26.6899 41.18V73.43L38.4399 48.77C38.6301 48.2846 38.6301 47.7453 38.4399 47.26C35.3105 40.0959 33.3166 32.488 32.5299 24.71C32.4936 24.4591 32.4043 24.2189 32.2681 24.0051C32.1319 23.7914 31.9519 23.609 31.7399 23.47L20.7399 17.13C20.665 17.0737 20.5757 17.0397 20.4823 17.0317C20.389 17.0238 20.2952 17.0422 20.2118 17.0849C20.1284 17.1277 20.0587 17.193 20.0106 17.2735C19.9625 17.3539 19.9381 17.4463 19.9399 17.54C19.2099 24.42 17.1 29.54 14.26 32.94C14.1146 33.141 14.0159 33.3718 13.9709 33.6157C13.926 33.8595 13.9359 34.1104 13.9999 34.35Z" fill="#BA68C8"/>
<path opacity="0.1" d="M32.34 24.08C32.457 24.2721 32.532 24.4868 32.56 24.71C33.3466 32.488 35.3406 40.0959 38.47 47.26C38.5716 47.5243 38.6159 47.8072 38.6 48.09L44 45C44.0159 44.7172 43.9716 44.4343 43.87 44.17C40.7417 37.009 38.7478 29.4046 37.96 21.63C37.9322 21.4036 37.8573 21.1856 37.74 20.99L32.34 24.08Z" fill="black"/>
<path opacity="0.3" d="M20 17.43C20.0135 17.3477 20.0482 17.2703 20.1007 17.2055C20.1532 17.1406 20.2217 17.0906 20.2994 17.0603C20.3772 17.0301 20.4614 17.0206 20.5439 17.0328C20.6265 17.045 20.7044 17.0785 20.77 17.13L31.77 23.48C32.0079 23.6283 32.2041 23.8348 32.34 24.08L37.72 20.97C37.5817 20.7297 37.3902 20.5245 37.16 20.37L26.16 14.03C25.9387 13.9168 25.6936 13.8577 25.445 13.8577C25.1964 13.8577 24.9513 13.9168 24.73 14.03L20.78 16.31C20.3831 16.5664 20.1029 16.9687 20 17.43Z" fill="black"/>
<path d="M40.3599 10.52L22.9699 0.519951C22.7468 0.406644 22.5001 0.347595 22.2499 0.347595C21.9997 0.347595 21.753 0.406644 21.5299 0.519951L17.5799 2.79996C17.373 2.93692 17.201 3.12039 17.0777 3.33571C16.9544 3.55102 16.8833 3.7922 16.8699 4.03995V11.7C16.8817 11.9481 16.9522 12.1898 17.0756 12.4054C17.199 12.621 17.3719 12.8042 17.5799 12.94L34.9999 23C35.2212 23.1132 35.4663 23.1722 35.7149 23.1722C35.9635 23.1722 36.2085 23.1132 36.4299 23L40.3799 20.72C40.5881 20.5835 40.7616 20.4004 40.8866 20.1851C41.0116 19.9699 41.0846 19.7284 41.0999 19.4799V11.81C41.0893 11.5513 41.0166 11.299 40.8878 11.0744C40.7589 10.8498 40.5778 10.6596 40.3599 10.52Z" fill="#BA68C8"/>
<path opacity="0.5" d="M16.8699 3.87998C16.9199 3.50998 17.2199 3.37997 17.5899 3.58997L34.9799 13.59C35.1898 13.7201 35.3622 13.9028 35.4799 14.12L40.8699 11.02C40.7458 10.8015 40.5709 10.6163 40.3599 10.48L22.9699 0.47998C22.7468 0.366674 22.5001 0.307617 22.2499 0.307617C21.9997 0.307617 21.753 0.366674 21.5299 0.47998L17.5899 2.75997C17.3965 2.88402 17.2321 3.04826 17.1078 3.24152C16.9836 3.43479 16.9024 3.65255 16.8699 3.87998Z" fill="white"/>
<path opacity="0.2" d="M35.09 23H35.15H35.2H35.27H35.35H35.41H35.54C35.8395 23.0353 36.1427 22.9795 36.41 22.84L40.36 20.56C40.5682 20.4235 40.7416 20.2404 40.8666 20.0251C40.9916 19.8099 41.0647 19.5684 41.08 19.32V11.6499C41.0709 11.4025 40.9986 11.1615 40.87 10.95L35.48 14.05C35.6159 14.2625 35.692 14.5078 35.7 14.7599V22.42C35.7 22.75 35.53 22.94 35.3 22.94H35.2C35.1696 22.9698 35.1315 22.9905 35.09 23Z" fill="black"/>
<path opacity="0.2" d="M26.6899 73.43L32.0699 70.33L43.8199 45.66C43.9174 45.452 43.9783 45.2287 43.9999 45L38.6199 48.11C38.6118 48.345 38.5574 48.576 38.4599 48.79L26.6899 73.43Z" fill="black"/>
<path opacity="0.15" d="M25.8799 40.71V73L26.6899 72.53V41.1799C27.7699 41.5499 28.5999 40.77 28.5999 39.25V39.14L25.8799 40.71Z" fill="black"/>
<path d="M1 31.43C1 30.56 1.62 30.2 2.38 30.64C2.77854 30.902 3.11009 31.2537 3.34802 31.6671C3.58595 32.0804 3.72362 32.5438 3.75 33.02C3.75 33.73 3.34 34.09 2.75 33.97C3.52 50.17 14.86 69.27 28.7 77.25C35.57 81.25 42.02 81.87 46.84 79.09C51.4 76.45 54.02 71.04 54.3 63.76C53.7122 63.2206 53.3542 62.4759 53.3 61.68C53.3 60.8 53.92 60.45 54.67 60.88C55.0704 61.1409 55.4039 61.4922 55.6436 61.9056C55.8833 62.319 56.0225 62.7829 56.05 63.26C56.05 64.01 55.6 64.38 55 64.19C54.63 71.53 51.89 77.01 47.19 79.72C45.0566 80.9277 42.6414 81.5487 40.19 81.52C35.9818 81.3629 31.8873 80.1118 28.31 77.89C14.16 69.72 2.58001 50.08 1.98001 33.56C1.68203 33.2889 1.44166 32.9606 1.27328 32.5947C1.10491 32.2287 1.01198 31.8326 1 31.43Z" fill="#455A64"/>
<path d="M2.38989 60.94C2.72498 61.1568 3.01343 61.4382 3.23837 61.7679C3.46331 62.0976 3.62022 62.4689 3.69989 62.86L53.4399 91.58C53.6199 91.04 54.1299 90.87 54.7399 91.22C55.1403 91.4808 55.4738 91.8321 55.7135 92.2455C55.9532 92.6589 56.0924 93.1229 56.1199 93.6C56.1199 94.48 55.4999 94.84 54.7399 94.4C54.3951 94.1731 54.0997 93.8791 53.8712 93.5354C53.6427 93.1918 53.4858 92.8056 53.4099 92.4L3.69989 63.71C3.53989 64.28 3.01989 64.47 2.38989 64.11C1.9867 63.8521 1.65104 63.5015 1.41098 63.0875C1.17091 62.6734 1.03338 62.208 1.00988 61.73C0.999883 60.85 1.62989 60.5 2.38989 60.94Z" fill="#455A64"/>
<path d="M52.83 62.45C52.83 62.8357 52.9443 63.2127 53.1586 63.5334C53.3729 63.854 53.6774 64.104 54.0337 64.2516C54.39 64.3992 54.7821 64.4378 55.1604 64.3625C55.5387 64.2873 55.8861 64.1016 56.1588 63.8289C56.4315 63.5561 56.6173 63.2087 56.6925 62.8304C56.7677 62.4522 56.7291 62.0601 56.5815 61.7038C56.434 61.3474 56.184 61.0429 55.8633 60.8286C55.5427 60.6144 55.1656 60.5 54.78 60.5C54.2628 60.5 53.7668 60.7054 53.4011 61.0711C53.0354 61.4368 52.83 61.9328 52.83 62.45Z" fill="#455A64"/>
<path d="M52.8999 92.77C52.8999 93.1655 53.0172 93.5522 53.237 93.8811C53.4567 94.21 53.7691 94.4663 54.1346 94.6177C54.5 94.7691 54.9021 94.8087 55.2901 94.7315C55.6781 94.6544 56.0344 94.4639 56.3141 94.1842C56.5938 93.9045 56.7843 93.5481 56.8615 93.1601C56.9387 92.7722 56.8991 92.37 56.7477 92.0046C56.5963 91.6391 56.3399 91.3268 56.011 91.107C55.6821 90.8872 55.2955 90.77 54.8999 90.77C54.3695 90.77 53.8608 90.9807 53.4857 91.3557C53.1106 91.7308 52.8999 92.2395 52.8999 92.77Z" fill="#455A64"/>
<path d="M0.319961 62.57C0.31002 62.9675 0.418799 63.359 0.632431 63.6944C0.846063 64.0298 1.15484 64.2939 1.5193 64.453C1.88377 64.6121 2.28738 64.6589 2.67857 64.5875C3.06977 64.516 3.4308 64.3296 3.71553 64.052C4.00026 63.7744 4.19577 63.4182 4.27708 63.0289C4.35839 62.6397 4.32181 62.235 4.17201 61.8666C4.02222 61.4983 3.76601 61.1829 3.43611 60.9608C3.10622 60.7388 2.71763 60.6201 2.31996 60.62C1.79808 60.6198 1.29681 60.8237 0.923141 61.188C0.549473 61.5523 0.333008 62.0483 0.319961 62.57Z" fill="#455A64"/>
<path d="M0.5 32.19C0.5 32.5856 0.617304 32.9722 0.837067 33.3011C1.05683 33.63 1.36917 33.8864 1.73462 34.0378C2.10007 34.1891 2.50221 34.2287 2.89017 34.1516C3.27813 34.0744 3.63451 33.8839 3.91422 33.6042C4.19392 33.3245 4.38441 32.9681 4.46158 32.5802C4.53875 32.1922 4.49912 31.7901 4.34775 31.4246C4.19637 31.0592 3.94004 30.7468 3.61115 30.5271C3.28225 30.3073 2.89556 30.19 2.5 30.19C1.96957 30.19 1.46086 30.4007 1.08578 30.7758C0.710712 31.1509 0.5 31.6596 0.5 32.19Z" fill="#455A64"/>
</svg>
