<svg width="39" height="74" viewBox="0 0 39 74" fill="none" xmlns="http://www.w3.org/2000/svg">
<path d="M27.63 18.57C25.43 22.41 20.63 27.74 17.2 33.3C12.31 41.3 9.03996 52.56 10.2 71.67L7.63996 70.19L1.33995 66.55C-0.430053 56.48 -0.340054 44.55 2.33995 29.19C4.80995 15.02 13.58 1.43997 21.94 0.589968C29.77 -0.210032 33.11 8.99998 27.63 18.57Z" fill="#E0E0E0"/>
<path d="M4.86004 66.1499C4.9604 66.1056 5.04382 66.0301 5.09786 65.9346C5.1519 65.8391 5.17371 65.7288 5.16005 65.6199C1.89005 39.3899 12.6901 15.1999 23.6701 6.44993C23.7213 6.40856 23.7638 6.35751 23.7953 6.29969C23.8268 6.24187 23.8466 6.17842 23.8536 6.11295C23.8605 6.04749 23.8545 5.98128 23.8359 5.91813C23.8173 5.85498 23.7864 5.79613 23.745 5.74491C23.7037 5.6937 23.6526 5.65112 23.5948 5.61964C23.537 5.58815 23.4735 5.56837 23.4081 5.56141C23.3426 5.55444 23.2764 5.56043 23.2133 5.57905C23.1501 5.59767 23.0913 5.62856 23.0401 5.66993C11.8801 14.5599 0.850064 39.1499 4.17006 65.7499C4.17748 65.8145 4.19763 65.8769 4.22939 65.9335C4.26115 65.9902 4.30388 66.04 4.35506 66.08C4.40624 66.12 4.46485 66.1495 4.52752 66.1666C4.59018 66.1838 4.65563 66.1883 4.72005 66.1799C4.76778 66.1757 4.81479 66.1657 4.86004 66.1499Z" fill="white"/>
<path d="M38.1798 36.1099C36.6798 41.0399 27.1798 46.2299 21.0398 54.4599C15.5298 61.8999 13.1298 69.4599 13.3298 73.4599L10.2698 71.6899L7.69985 70.2099C6.29985 51.6099 13.1498 40.7599 19.0798 33.4699C21.4935 31.008 24.3773 29.056 27.5598 27.7299C36.1498 24.9999 39.9998 30.1699 38.1798 36.1099Z" fill="#F0F0F0"/>
<path d="M10.5798 69.77C10.67 69.7354 10.7482 69.6754 10.8049 69.5973C10.8617 69.5193 10.8947 69.4264 10.8998 69.33C12.0698 48.04 24.7399 36.93 31.2799 34.03C31.3403 34.0031 31.3948 33.9645 31.4403 33.9166C31.4858 33.8686 31.5214 33.8121 31.5451 33.7503C31.5688 33.6886 31.58 33.6228 31.5783 33.5567C31.5765 33.4906 31.5618 33.4254 31.5349 33.365C31.5079 33.3046 31.4694 33.2501 31.4214 33.2046C31.3734 33.1591 31.3169 33.1235 31.2552 33.0998C31.1934 33.0761 31.1276 33.0648 31.0615 33.0666C30.9954 33.0683 30.9303 33.0831 30.8698 33.11C23.6498 36.32 11.0898 47.55 9.86985 69.27C9.86579 69.3357 9.87474 69.4015 9.89619 69.4638C9.91763 69.526 9.95115 69.5834 9.99482 69.6326C10.0385 69.6819 10.0914 69.722 10.1506 69.7507C10.2099 69.7795 10.2741 69.7962 10.3398 69.8C10.4209 69.8029 10.502 69.7928 10.5798 69.77Z" fill="white"/>
</svg>
