<svg width="62" height="79" viewBox="0 0 62 79" fill="none" xmlns="http://www.w3.org/2000/svg">
<path d="M0.420044 51C0.420044 51 2.42003 34.63 10.75 22C19.08 9.37001 30.32 1.55 40.75 0.840004C51.18 0.130004 59.55 9.84001 48.3 16.31C37.05 22.78 17.1 29.31 7.70004 53.92L0.420044 51Z" fill="#BA68C8"/>
<g opacity="0.3">
<path d="M0.420044 51C0.420044 51 2.42003 34.63 10.75 22C19.08 9.37001 30.32 1.55 40.75 0.840004C51.18 0.130004 59.55 9.84001 48.3 16.31C37.05 22.78 17.1 29.31 7.70004 53.92L0.420044 51Z" fill="black"/>
</g>
<path d="M3.53001 46.73H3.42002C3.28378 46.6726 3.17575 46.5636 3.11955 46.4268C3.06335 46.29 3.06351 46.1366 3.12 46C14.44 19 35.56 7.83999 45.12 5.73999C45.1922 5.72423 45.2668 5.72285 45.3396 5.73593C45.4124 5.74901 45.4819 5.77629 45.5441 5.81622C45.6063 5.85615 45.66 5.90795 45.7022 5.96864C45.7444 6.02934 45.7743 6.09776 45.79 6.16998C45.8058 6.24221 45.8072 6.31684 45.7941 6.3896C45.781 6.46236 45.7537 6.53183 45.7138 6.59404C45.6739 6.65626 45.6221 6.71 45.5614 6.7522C45.5007 6.7944 45.4322 6.82422 45.36 6.83998C35.97 8.83998 15.27 19.84 4.13001 46.43C4.0758 46.5381 3.98804 46.6257 3.87989 46.6798C3.77174 46.7338 3.649 46.7515 3.53001 46.73Z" fill="white"/>
<path d="M61.39 38.73C60.5 40.73 58.3 41.79 56.26 42.61C54.22 43.43 51.99 44.32 50.89 46.22C48.66 50.06 52.31 55.47 49.89 59.22C49.3302 59.9689 48.624 60.5961 47.8143 61.0637C47.0046 61.5313 46.1084 61.8294 45.18 61.94C43.6515 62.1568 42.1128 62.2937 40.57 62.35C39.8339 62.3393 39.0991 62.2825 38.37 62.18C36.2327 61.7043 33.9984 61.9432 32.01 62.86C28.95 64.58 28.01 68.43 26.16 71.41C25.0126 73.1647 23.4986 74.6499 21.7223 75.7634C19.9459 76.8768 17.9493 77.5921 15.87 77.86C13.44 78.18 11.15 78.86 9.44001 76.6C8.70185 75.4657 8.16088 74.2147 7.84 72.9L2.99 56.9C2.36 54.83 1.76002 52.5 2.79002 50.6C3.53002 49.22 4.98002 48.4 6.29002 47.54C8.8951 45.8073 11.2074 43.6705 13.14 41.21C14.99 38.85 15.87 36.03 17.55 33.68C20.79 29.17 26.6 26.04 32.2 26.98C35.42 27.52 38.57 29.33 41.89 29.18C45.21 29.03 48.29 28.18 51.59 28.4C54.89 28.62 58.59 30.1 60.52 33.06C61.1196 33.8609 61.5127 34.7973 61.6644 35.7862C61.8161 36.7751 61.7219 37.7862 61.39 38.73Z" fill="#BA68C8"/>
<g opacity="0.1">
<path d="M61.39 38.73C60.5 40.73 58.3 41.79 56.26 42.61C54.22 43.43 51.99 44.32 50.89 46.22C48.66 50.06 52.31 55.47 49.89 59.22C49.3302 59.9689 48.624 60.5961 47.8143 61.0637C47.0046 61.5313 46.1084 61.8294 45.18 61.94C43.6515 62.1568 42.1128 62.2937 40.57 62.35C39.8339 62.3393 39.0991 62.2825 38.37 62.18C36.2327 61.7043 33.9984 61.9432 32.01 62.86C28.95 64.58 28.01 68.43 26.16 71.41C25.0126 73.1647 23.4986 74.6499 21.7223 75.7634C19.9459 76.8768 17.9493 77.5921 15.87 77.86C13.44 78.18 11.15 78.86 9.44001 76.6C8.70185 75.4657 8.16088 74.2147 7.84 72.9L2.99 56.9C2.36 54.83 1.76002 52.5 2.79002 50.6C3.53002 49.22 4.98002 48.4 6.29002 47.54C8.8951 45.8073 11.2074 43.6705 13.14 41.21C14.99 38.85 15.87 36.03 17.55 33.68C20.79 29.17 26.6 26.04 32.2 26.98C35.42 27.52 38.57 29.33 41.89 29.18C45.21 29.03 48.29 28.18 51.59 28.4C54.89 28.62 58.59 30.1 60.52 33.06C61.1196 33.8609 61.5127 34.7973 61.6644 35.7862C61.8161 36.7751 61.7219 37.7862 61.39 38.73Z" fill="black"/>
</g>
<path d="M9.20007 67.41C9.07316 67.3749 8.96522 67.2911 8.89969 67.1769C8.83416 67.0627 8.81633 66.9272 8.85007 66.8C16.8501 36.7 48.6101 32.35 56.0301 32.89C56.1627 32.8993 56.2861 32.9608 56.3733 33.0612C56.4606 33.1615 56.5043 33.2923 56.4951 33.425C56.4858 33.5576 56.4242 33.6811 56.3238 33.7683C56.2235 33.8555 56.0927 33.8993 55.96 33.89C48.7001 33.36 17.6701 37.61 9.81006 67.07C9.77284 67.195 9.68822 67.3006 9.57425 67.3641C9.46028 67.4276 9.32601 67.4441 9.20007 67.41Z" fill="white"/>
<path d="M44.4501 52.1601C44.3523 52.138 44.2624 52.0896 44.1901 52.0201C41.2601 49.4807 37.8063 47.6185 34.0747 46.5659C30.343 45.5133 26.4252 45.2962 22.6001 45.9301C22.5364 45.94 22.4713 45.9373 22.4087 45.9221C22.346 45.9068 22.287 45.8794 22.235 45.8413C22.183 45.8032 22.139 45.7552 22.1055 45.7001C22.0721 45.645 22.0499 45.5838 22.0401 45.5201C22.0227 45.3892 22.0567 45.2566 22.1351 45.1503C22.2134 45.044 22.3299 44.9722 22.4601 44.9501C26.4372 44.2961 30.5096 44.528 34.3868 45.6291C38.264 46.7302 41.8504 48.6734 44.8901 51.3201C44.9627 51.3957 45.0097 51.4922 45.0245 51.596C45.0392 51.6998 45.021 51.8056 44.9724 51.8984C44.9237 51.9913 44.8471 52.0665 44.7534 52.1134C44.6597 52.1604 44.5536 52.1767 44.4501 52.1601Z" fill="white"/>
</svg>
