<svg width="131" height="371" viewBox="0 0 131 371" fill="none" xmlns="http://www.w3.org/2000/svg">
<path d="M125.52 0.999983C123.97 0.109983 121.84 0.229983 119.52 1.58998L118.85 1.97998L87.3301 20.13L87.1101 20.26C86.5614 20.6741 86.1091 21.2025 85.7845 21.8085C85.4599 22.4145 85.2708 23.0837 85.2301 23.77C85.1741 24.521 84.9433 25.2485 84.5561 25.8944C84.1689 26.5403 83.6361 27.0867 83.0001 27.49L45.4701 49.14H45.3901C45.4057 48.8938 45.3578 48.6477 45.251 48.4253C45.1442 48.2029 44.982 48.0117 44.7801 47.87L42.6101 46.61C42.3712 46.5035 42.1085 46.4623 41.8485 46.4904C41.5885 46.5185 41.3406 46.6149 41.1301 46.77L39.0001 48L6.84007 66.6C6.3621 66.8811 5.90432 67.1952 5.47008 67.54L4.83008 68.12C1.99521 70.7835 0.294299 74.436 0.0800781 78.32V364.63C0.0800781 366.78 0.840078 368.29 2.08008 369L4.27008 370.26C5.49008 370.96 7.17007 370.86 9.04007 369.78L123.45 303.7C125.415 302.416 127.052 300.688 128.228 298.656C129.404 296.624 130.086 294.344 130.22 292V7.74998C130.22 5.03998 129.22 3.12998 127.71 2.22998L125.52 0.999983Z" fill="#263238"/>
<path d="M130.22 7.75V292C130.089 294.347 129.408 296.631 128.232 298.667C127.056 300.703 125.418 302.434 123.45 303.72L8.99998 369.78C5.26998 371.95 2.23999 370.2 2.23999 365.88V79.57C2.44954 75.687 4.14711 72.034 6.97998 69.37L7.61998 68.79C8.0576 68.445 8.51872 68.1309 8.99998 67.85L41.2 49.27L43.3 48.06C44.46 47.38 45.4 47.92 45.4 49.27C45.4 50.62 46.4 51.12 47.64 50.39L85.15 28.74C85.7917 28.3364 86.3297 27.7876 86.7205 27.138C87.1113 26.4884 87.3441 25.7561 87.4 25C87.4387 24.3133 87.627 23.6434 87.9517 23.0371C88.2765 22.4308 88.7298 21.9027 89.28 21.49L89.5 21.36L121 3.2L121.68 2.81C126.37 0.0899976 130.22 2.31 130.22 7.75Z" fill="#455A64"/>
</svg>
