<svg width="464" height="94" viewBox="0 0 464 94" fill="none" xmlns="http://www.w3.org/2000/svg">
<path d="M404.69 80.55C437.225 80.55 463.6 65.3232 463.6 46.54C463.6 27.7568 437.225 12.53 404.69 12.53C372.155 12.53 345.78 27.7568 345.78 46.54C345.78 65.3232 372.155 80.55 404.69 80.55Z" fill="#E6E6E6"/>
<path d="M202.71 79.9L199.06 77.79C198.811 77.7035 198.594 77.5415 198.441 77.3264C198.288 77.1114 198.206 76.854 198.206 76.59C198.206 76.326 198.288 76.0686 198.441 75.8535C198.594 75.6384 198.811 75.4764 199.06 75.39L327.8 1.05997C328.445 0.729944 329.16 0.557861 329.885 0.557861C330.61 0.557861 331.325 0.729944 331.97 1.05997L335.62 3.16998C335.869 3.25642 336.086 3.41842 336.239 3.63348C336.392 3.84855 336.474 4.10598 336.474 4.36996C336.474 4.63395 336.392 4.89138 336.239 5.10645C336.086 5.32151 335.869 5.48354 335.62 5.56998L206.88 79.9C206.235 80.23 205.52 80.4021 204.795 80.4021C204.07 80.4021 203.355 80.23 202.71 79.9Z" fill="#E6E6E6"/>
<path d="M146.58 52.9999L77.15 93.0999C76.2194 93.5686 75.192 93.8127 74.15 93.8127C73.1081 93.8127 72.0806 93.5686 71.15 93.0999L1.77002 52.9999C0.110024 51.9999 0.110024 50.4799 1.77002 49.5199L71.21 9.44995C72.1406 8.98131 73.1681 8.73718 74.21 8.73718C75.252 8.73718 76.2794 8.98131 77.21 9.44995L146.55 49.5199C148.25 50.5199 148.25 52.0799 146.58 52.9999Z" fill="#E6E6E6"/>
</svg>
