<svg width="368" height="252" viewBox="0 0 368 252" fill="none" xmlns="http://www.w3.org/2000/svg">
<path d="M366.5 129.25L235.66 204.82C235.031 205.14 234.336 205.308 233.63 205.308C232.924 205.308 232.229 205.14 231.6 204.82L13.41 78.82C13.164 78.7371 12.9503 78.5791 12.799 78.3683C12.6476 78.1575 12.5662 77.9045 12.5662 77.645C12.5662 77.3855 12.6476 77.1325 12.799 76.9217C12.9503 76.7109 13.164 76.5529 13.41 76.47L144.25 0.900009C144.879 0.57954 145.574 0.412476 146.28 0.412476C146.986 0.412476 147.681 0.57954 148.31 0.900009L366.5 126.9C366.746 126.983 366.96 127.141 367.111 127.352C367.262 127.563 367.344 127.816 367.344 128.075C367.344 128.335 367.262 128.588 367.111 128.798C366.96 129.009 366.746 129.167 366.5 129.25Z" fill="#E6E6E6"/>
<path d="M81.81 251.06C126.772 251.06 163.22 230.017 163.22 204.06C163.22 178.103 126.772 157.06 81.81 157.06C36.8485 157.06 0.400024 178.103 0.400024 204.06C0.400024 230.017 36.8485 251.06 81.81 251.06Z" fill="#E6E6E6"/>
<path d="M164.45 193.26C197.013 193.26 223.41 178.02 223.41 159.22C223.41 140.42 197.013 125.18 164.45 125.18C131.887 125.18 105.49 140.42 105.49 159.22C105.49 178.02 131.887 193.26 164.45 193.26Z" fill="#E6E6E6"/>
</svg>
