<svg width="45" height="69" viewBox="0 0 45 69" fill="none" xmlns="http://www.w3.org/2000/svg">
<path d="M26.18 65.84L21.34 63.05C21.2491 63.0057 21.1727 62.9363 21.12 62.85L20.22 61.29L22.67 59.87L26 65.68C26.0447 65.7484 26.1068 65.8036 26.18 65.84Z" fill="#E0E0E0"/>
<path d="M0.5 64.09C0.543559 64.9044 0.778053 65.6971 1.18454 66.4041C1.59103 67.1111 2.15812 67.7126 2.84 68.16L3.21 68.37C3.87057 68.7038 4.59427 68.8942 5.33361 68.9287C6.07296 68.9632 6.81123 68.8409 7.5 68.57C6.4 68.98 5.56 68.35 5.56 67.01V27.9C5.58973 27.0852 5.82354 26.2909 6.24 25.59L1.18 22.67C0.757467 23.3756 0.523314 24.1779 0.5 25V64.09Z" fill="#E0E0E0"/>
<path d="M6.84998 68.35C6.25998 68.35 5.84998 67.85 5.84998 67.01V27.9C5.87921 27.1441 6.09939 26.4078 6.48998 25.76C6.85077 25.0937 7.37786 24.5322 8.01998 24.13L42.7 4.12997C42.9647 3.96335 43.2676 3.86698 43.58 3.84998C43.7923 3.85408 43.9965 3.9323 44.1572 4.0711C44.3179 4.20989 44.425 4.40053 44.46 4.60998C44.4997 4.80076 44.5198 4.99511 44.52 5.18998V44.3C44.52 45.75 44.52 46.8 42.57 47.91L30.2 55.11L26.61 65.48C26.601 65.5125 26.5813 65.5411 26.5541 65.561C26.5269 65.581 26.4937 65.5912 26.46 65.59C26.4318 65.5893 26.4043 65.5816 26.3799 65.5676C26.3555 65.5537 26.3349 65.5339 26.32 65.51L22.8 59.4L7.73998 68.07C7.62519 68.1399 7.50477 68.2001 7.37998 68.25C7.21051 68.314 7.03113 68.3479 6.84998 68.35Z" fill="#FAFAFA"/>
<path d="M43.63 4.20999C43.74 4.20999 44.04 4.20999 44.17 4.68999C44.209 4.85721 44.2292 5.02828 44.23 5.19999V44.31C44.23 45.75 44.23 46.61 42.45 47.62L30.14 54.75L29.92 54.88L29.84 55.12L26.42 65L23.26 59.53L22.92 58.94L22.33 59.28L7.55999 67.79C7.47194 67.8465 7.37806 67.8935 7.27998 67.93H7.19999C7.08705 67.9677 6.96902 67.9879 6.84998 67.99C6.31998 67.99 6.23999 67.37 6.23999 66.99V27.9C6.26884 27.1921 6.47887 26.5035 6.84998 25.9C7.17465 25.29 7.65401 24.7762 8.23999 24.41L42.92 4.41C43.1335 4.27474 43.3777 4.19562 43.63 4.17999M43.63 3.48999C43.2749 3.51026 42.9308 3.62037 42.63 3.80999L7.94999 23.81C7.25563 24.2424 6.68672 24.8492 6.29998 25.57C5.87474 26.2677 5.63705 27.0634 5.60999 27.88V67C5.60999 68.07 6.12999 68.69 6.89999 68.69C7.09383 68.6845 7.28584 68.6508 7.46999 68.59C7.46999 68.59 7.46998 68.59 7.54998 68.59C7.69316 68.5376 7.83055 68.4706 7.95998 68.39L22.72 59.88L26 65.68C26.042 65.757 26.1043 65.821 26.1801 65.865C26.2559 65.9091 26.3423 65.9316 26.43 65.93C26.5343 65.9307 26.6362 65.8982 26.7207 65.837C26.8052 65.7759 26.868 65.6893 26.9 65.59L30.46 55.34L42.76 48.22C44.87 47.02 44.89 45.81 44.89 44.31V5.19999C44.8869 4.97447 44.86 4.74991 44.81 4.52999C44.7564 4.24845 44.6062 3.99445 44.3852 3.81187C44.1643 3.6293 43.8866 3.5296 43.6 3.52999L43.63 3.48999Z" fill="#E0E0E0"/>
<path d="M44.8399 4.53001C44.5699 3.53001 43.6599 3.22 42.5799 3.84L7.89994 23.84C7.20834 24.2714 6.63997 24.8742 6.24994 25.59L1.18994 22.67C1.58287 21.9564 2.15062 21.3542 2.83994 20.92L37.5099 0.920006C38.2395 0.55482 39.0441 0.364685 39.8599 0.364685C40.6758 0.364685 41.4804 0.55482 42.2099 0.920006L42.5799 1.14001C43.1662 1.52296 43.6688 2.02082 44.0572 2.60349C44.4457 3.18615 44.7119 3.84153 44.8399 4.53001Z" fill="#F5F5F5"/>
<path d="M10.17 44.65C10.1655 44.3801 10.213 44.1119 10.31 43.86C10.4288 43.607 10.5658 43.3631 10.72 43.13L18.22 31L18.34 30.86L18.42 30.8C18.4585 30.7656 18.5084 30.7465 18.56 30.7465C18.6117 30.7465 18.6615 30.7656 18.7 30.8C18.7453 30.8495 18.7794 30.9082 18.8001 30.972C18.8208 31.0358 18.8276 31.1033 18.82 31.17V35.84C18.8307 36.1864 18.7551 36.5301 18.6 36.84C18.4844 37.0597 18.3576 37.2733 18.22 37.48L14.94 42.48L18.22 43.76C18.3549 43.8008 18.483 43.8615 18.6 43.94C18.74 44.03 18.82 44.27 18.82 44.66V49.33C18.8197 49.5038 18.7786 49.675 18.7 49.83C18.6458 49.9679 18.5473 50.084 18.42 50.16C18.3936 50.1654 18.3664 50.1654 18.34 50.16C18.3007 50.1702 18.2594 50.1702 18.22 50.16L10.72 46.69C10.5297 46.6403 10.3661 46.5188 10.2635 46.3509C10.1609 46.1831 10.1274 45.982 10.17 45.79V44.65Z" fill="#BA68C8"/>
<path d="M26.5201 24.1C26.5868 23.8408 26.6807 23.5895 26.8001 23.35C26.9201 23.1026 27.1117 22.897 27.3501 22.76L29.8601 21.31C29.8992 21.2727 29.9511 21.2519 30.0051 21.2519C30.0591 21.2519 30.111 21.2727 30.1501 21.31C30.1946 21.362 30.2281 21.4225 30.2488 21.4878C30.2694 21.5531 30.2766 21.6218 30.2701 21.69C30.282 21.7829 30.282 21.877 30.2701 21.97L23.9001 49C23.8376 49.2526 23.747 49.4975 23.6301 49.73C23.5131 49.9877 23.3169 50.2014 23.0701 50.34L20.6101 51.76C20.5716 51.7944 20.5218 51.8135 20.4701 51.8135C20.4185 51.8135 20.3686 51.7944 20.3301 51.76C20.2828 51.7094 20.2468 51.6494 20.2244 51.5839C20.202 51.5184 20.1937 51.4489 20.2001 51.38C20.1924 51.2868 20.1924 51.1932 20.2001 51.1L26.5201 24.1Z" fill="#BA68C8"/>
<path d="M40.3001 28.47C40.3054 28.7399 40.2578 29.0083 40.1601 29.26C40.0455 29.5163 39.9118 29.7637 39.7601 30L32.2601 42.12C32.2272 42.1723 32.1867 42.2194 32.1401 42.26L32.0501 42.33C32.0107 42.3625 31.9612 42.3803 31.9101 42.3803C31.859 42.3803 31.8095 42.3625 31.7701 42.33C31.7282 42.2787 31.6968 42.2195 31.678 42.156C31.6591 42.0925 31.653 42.0259 31.6601 41.96V37.28C31.6423 36.9341 31.7147 36.5895 31.8701 36.28C32.0168 36.02 32.1468 35.81 32.2601 35.65L35.5401 30.58L32.2601 29.33C32.1208 29.2877 31.9892 29.2236 31.8701 29.14C31.7301 29.04 31.6601 28.79 31.6601 28.41V23.73C31.6569 23.557 31.6946 23.3857 31.7701 23.23C31.8304 23.0958 31.9275 22.9813 32.0501 22.9H32.1401H32.2601L39.7601 26.36C39.9135 26.416 40.0508 26.5087 40.1601 26.63C40.2751 26.8187 40.3243 27.0403 40.3001 27.26V28.47Z" fill="#BA68C8"/>
<g opacity="0.3">
<path d="M10.17 44.65C10.1655 44.3801 10.213 44.1119 10.31 43.86C10.4288 43.607 10.5658 43.3631 10.72 43.13L18.22 31L18.34 30.86L18.42 30.8C18.4585 30.7656 18.5084 30.7465 18.56 30.7465C18.6117 30.7465 18.6615 30.7656 18.7 30.8C18.7453 30.8495 18.7794 30.9082 18.8001 30.972C18.8208 31.0358 18.8276 31.1033 18.82 31.17V35.84C18.8307 36.1864 18.7551 36.5301 18.6 36.84C18.4844 37.0597 18.3576 37.2733 18.22 37.48L14.94 42.48L18.22 43.76C18.3549 43.8008 18.483 43.8615 18.6 43.94C18.74 44.03 18.82 44.27 18.82 44.66V49.33C18.8197 49.5038 18.7786 49.675 18.7 49.83C18.6458 49.9679 18.5473 50.084 18.42 50.16C18.3936 50.1654 18.3664 50.1654 18.34 50.16C18.3007 50.1702 18.2594 50.1702 18.22 50.16L10.72 46.69C10.5297 46.6403 10.3661 46.5188 10.2635 46.3509C10.1609 46.1831 10.1274 45.982 10.17 45.79V44.65Z" fill="white"/>
<path d="M26.5201 24.1C26.5868 23.8408 26.6807 23.5895 26.8001 23.35C26.9201 23.1026 27.1117 22.897 27.3501 22.76L29.8601 21.31C29.8992 21.2727 29.9511 21.2519 30.0051 21.2519C30.0591 21.2519 30.111 21.2727 30.1501 21.31C30.1946 21.362 30.2281 21.4225 30.2488 21.4878C30.2694 21.5531 30.2766 21.6218 30.2701 21.69C30.282 21.7829 30.282 21.877 30.2701 21.97L23.9001 49C23.8376 49.2526 23.747 49.4975 23.6301 49.73C23.5131 49.9877 23.3169 50.2014 23.0701 50.34L20.6101 51.76C20.5716 51.7944 20.5218 51.8135 20.4701 51.8135C20.4185 51.8135 20.3686 51.7944 20.3301 51.76C20.2828 51.7094 20.2468 51.6494 20.2244 51.5839C20.202 51.5184 20.1937 51.4489 20.2001 51.38C20.1924 51.2868 20.1924 51.1932 20.2001 51.1L26.5201 24.1Z" fill="white"/>
<path d="M40.3001 28.47C40.3054 28.7399 40.2578 29.0083 40.1601 29.26C40.0455 29.5163 39.9118 29.7637 39.7601 30L32.2601 42.12C32.2272 42.1723 32.1867 42.2194 32.1401 42.26L32.0501 42.33C32.0107 42.3625 31.9612 42.3803 31.9101 42.3803C31.859 42.3803 31.8095 42.3625 31.7701 42.33C31.7282 42.2787 31.6968 42.2195 31.678 42.156C31.6591 42.0925 31.653 42.0259 31.6601 41.96V37.28C31.6423 36.9341 31.7147 36.5895 31.8701 36.28C32.0168 36.02 32.1468 35.81 32.2601 35.65L35.5401 30.58L32.2601 29.33C32.1208 29.2877 31.9892 29.2236 31.8701 29.14C31.7301 29.04 31.6601 28.79 31.6601 28.41V23.73C31.6569 23.557 31.6946 23.3857 31.7701 23.23C31.8304 23.0958 31.9275 22.9813 32.0501 22.9H32.1401H32.2601L39.7601 26.36C39.9135 26.416 40.0508 26.5087 40.1601 26.63C40.2751 26.8187 40.3243 27.0403 40.3001 27.26V28.47Z" fill="white"/>
</g>
</svg>
